<?xml version="1.0" encoding="UTF-8" standalone="no"?>
<svg
   xmlns:dc="http://purl.org/dc/elements/1.1/"
   xmlns:cc="http://creativecommons.org/ns#"
   xmlns:rdf="http://www.w3.org/1999/02/22-rdf-syntax-ns#"
   xmlns:svg="http://www.w3.org/2000/svg"
   xmlns="http://www.w3.org/2000/svg"
   xmlns:xlink="http://www.w3.org/1999/xlink"
   xmlns:sodipodi="http://sodipodi.sourceforge.net/DTD/sodipodi-0.dtd"
   xmlns:inkscape="http://www.inkscape.org/namespaces/inkscape"
   sodipodi:docname="ilot.svg"
   inkscape:version="1.0 (4035a4fb49, 2020-05-01)"
   id="svg8"
   version="1.1"
   viewBox="0 0 210 297"
   height="297mm"
   width="210mm">
  <defs
     id="defs2">
    <pattern
       id="EMFhbasepattern"
       patternUnits="userSpaceOnUse"
       width="6"
       height="6"
       x="0"
       y="0" />
  </defs>
  <sodipodi:namedview
     inkscape:window-maximized="1"
     inkscape:window-y="665"
     inkscape:window-x="-8"
     inkscape:window-height="1017"
     inkscape:window-width="1920"
     showgrid="false"
     inkscape:document-rotation="0"
     inkscape:current-layer="layer1"
     inkscape:document-units="mm"
     inkscape:cy="260.38837"
     inkscape:cx="362.00995"
     inkscape:zoom="5.6568543"
     inkscape:pageshadow="2"
     inkscape:pageopacity="0.0"
     borderopacity="1.0"
     bordercolor="#666666"
     pagecolor="#ffffff"
     id="base" />
  <metadata
     id="metadata5">
    <rdf:RDF>
      <cc:Work
         rdf:about="">
        <dc:format>image/svg+xml</dc:format>
        <dc:type
           rdf:resource="http://purl.org/dc/dcmitype/StillImage" />
        <dc:title></dc:title>
      </cc:Work>
    </rdf:RDF>
  </metadata>
  <g
     id="layer1"
     inkscape:groupmode="layer"
     inkscape:label="Layer 1">
    <rect
       y="5.5073776"
       x="-1.5292994"
       height="176.1803"
       width="211.33011"
       id="rect846"
       style="fill:#01123a;fill-opacity:1;fill-rule:evenodd;stroke-width:0.665001;stroke-linecap:round;stroke-dashoffset:4.90772;stroke:none" />
    <path
       transform="matrix(1.0606024,0,0,1,-6.4700082,0)"
       d="m 82.546875,10.416016 c -2.92533,0.387322 -5.461964,1.928981 -7.089844,4.34375 -2.499067,3.707074 -2.057613,7.893773 -1.521484,11.373046 0.536129,3.479274 1.129734,6.591973 0.669922,8.738282 -1.463951,6.833408 -6.507222,13.367989 -9.230469,21.611328 -1.764183,5.340227 -3.328181,10.918776 -4.017578,16.722656 a 3.1119139,3.1119139 0 0 0 -0.002,0.01563 c -0.981161,8.651874 -1.078264,17.188363 -0.199219,26.650391 a 3.1119139,3.1119139 0 0 0 0.0098,0.0957 c 0.815383,6.560983 3.787925,11.965183 5.123046,17.093753 1.155183,4.43737 1.806872,9.25873 3.109376,14.18359 1.228859,4.6464 2.046703,9.99974 4.726562,15.0332 2.285846,4.29341 5.600915,7.51701 8.425781,10.55469 1.410107,1.51635 3.046365,4.65477 6.837891,6.04492 4.962104,1.81935 10.167066,0.82834 14.443358,-0.54101 5.70965,-1.82836 9.13542,-6.1038 12.58789,-8.00196 4.23244,-2.32698 10.25097,-3.28083 15.50781,-7.22656 6.12023,-4.59377 11.34347,-10.57868 15.03125,-17.29687 2.40913,-4.3888 3.19431,-9.12182 4.01563,-13.32617 0.98112,-5.02238 2.85791,-10.90032 1.54297,-17.152349 C 149.5898,85.411638 140.29614,74.161419 132.57422,63.583984 124.00116,51.840666 112.70689,43.009665 103.88867,32.722656 101.43598,29.86144 99.440669,25.29354 96.958984,20.908203 94.4773,16.522867 91.207047,11.998344 85.597656,10.572266 84.555135,10.307223 83.520102,10.287157 82.546875,10.416016 Z"
       inkscape:original="M 82.955078 13.5 C 81.031203 13.754727 79.070086 14.9677 78.037109 16.5 C 74.491739 21.759143 78.977086 29.321589 77.648438 35.523438 C 75.984283 43.291355 70.822034 49.915769 68.330078 57.458984 C 66.597174 62.704529 65.098882 68.086458 64.447266 73.572266 C 63.489157 82.020866 63.392652 90.313453 64.253906 99.583984 C 64.97323 105.37203 67.83616 110.65133 69.300781 116.27734 C 70.519059 120.95708 71.169833 125.77424 72.40625 130.44922 C 73.688315 135.29679 74.51464 140.38842 76.871094 144.81445 C 78.860969 148.55195 81.946627 151.61221 84.830078 154.71289 C 86.576057 156.59041 88.051797 159.07249 90.458984 159.95508 C 94.351375 161.38222 98.934532 160.63737 102.88281 159.37305 C 107.42966 157.91705 110.73626 153.90758 114.91992 151.60742 C 119.791 148.92931 125.61481 147.95606 130.06055 144.61914 C 135.81978 140.29633 140.76535 134.62505 144.23047 128.3125 C 146.30917 124.52565 147.09169 120.1284 147.91992 115.88867 C 148.94204 110.65643 150.56991 105.18966 149.47266 99.972656 C 146.75359 87.044563 137.85013 76.088085 130.06055 65.417969 C 121.82682 54.139465 110.61364 45.350062 101.52539 34.748047 C 95.678396 27.927157 93.537082 15.801477 84.830078 13.587891 C 84.23308 13.436115 83.59637 13.415091 82.955078 13.5 z "
       inkscape:radius="3.1116028"
       sodipodi:type="inkscape:offset"
       style="fill:#042946;fill-opacity:0.968627;stroke:none;stroke-width:0.264583px;stroke-linecap:butt;stroke-linejoin:miter;stroke-opacity:1"
       id="path862" />
    <path
       sodipodi:nodetypes="aaaaaaaaaaaaaaaccaaa"
       id="path860"
       d="m 78.03624,16.500201 c 1.377302,-2.043067 4.406208,-3.518902 6.794201,-2.911801 8.707004,2.213586 10.847324,14.338191 16.694319,21.159081 9.08825,10.602015 20.30191,19.392454 28.53564,30.670959 7.78958,10.670116 16.69293,21.625268 19.412,34.553361 1.09725,5.216999 -0.53084,10.685599 -1.55296,15.917839 -0.82823,4.23973 -1.60958,8.63683 -3.68828,12.42368 -3.46512,6.31255 -8.41153,11.98327 -14.17076,16.30608 -4.44574,3.33692 -10.27028,4.31021 -15.14136,6.98832 -4.18366,2.30016 -7.48859,6.3088 -12.03544,7.7648 -3.948281,1.26432 -8.531287,2.0095 -12.423678,0.58236 -2.407187,-0.88259 -3.883503,-3.36372 -5.629482,-5.24124 -2.883451,-3.10068 -5.969045,-6.16262 -7.95892,-9.90012 -2.356454,-4.42603 -3.182694,-9.51731 -4.464759,-14.36488 -1.236417,-4.67498 -1.887642,-9.49102 -3.10592,-14.17076 C 67.83622,110.65187 64.973045,105.37161 64.253721,99.583561 63.392467,90.31303 63.489731,82.020079 64.44784,73.571479 65.099456,68.085671 66.597337,62.705065 68.330241,57.45952 70.822197,49.916305 75.983845,43.291876 77.648,35.523959 78.976649,29.32211 74.49087,21.759344 78.03624,16.500201 Z"
       style="fill:#216369;fill-opacity:1;stroke:none;stroke-width:0.264583px;stroke-linecap:butt;stroke-linejoin:miter;stroke-opacity:1" />
    <path
       sodipodi:nodetypes="ssssssssssaaaaaaaaaaaaaasccscssssss"
       transform="scale(0.26458333)"
       d="m 345.08203,170.13281 c -0.67392,0.0106 -1.34922,0.0436 -2.02344,0.0937 -2.69529,0.20062 -5.42956,0.79021 -8.11914,2.27344 -2.68958,1.48323 -4.44696,4.7612 -4.95273,6.64879 -0.71526,2.6694 -0.5786,6.24715 -1.43298,8.30043 -2.06198,4.95541 -1.94144,10.32522 -4.4306,16.93359 -3.81095,10.11756 -6.60823,20.42659 -9.07226,30.61133 -1.33012,5.49787 -2.69514,11.3359 -3.30078,17.57031 -0.9253,9.52488 -0.18119,20.26724 -0.091,28.73295 0.0705,6.61816 0.31633,13.16857 0.56055,19.65039 0.15753,4.18071 -0.6442,11.77652 0.98828,17.32617 1.17321,3.98836 2.81664,8.36207 6.14506,10.85305 3.17482,2.37602 7.63803,2.32084 11.58489,2.70461 2.83024,0.27519 5.73597,-0.85516 8.52539,-0.30273 2.70813,0.53633 5.03711,2.2618 7.54018,3.42641 2.86194,1.33158 5.81308,2.49837 8.54971,4.07147 2.80332,1.61143 5.02582,4.22812 8.01167,5.46906 3.0056,1.24916 6.34862,1.54823 9.59101,1.83262 1.54824,0.1358 3.11244,-0.1829 4.66211,-0.0645 0.0862,0.007 0.17007,0.0321 0.25586,0.043 1.45618,0.18541 3.06631,1.02257 4.3872,0.38218 2.24339,-1.08763 3.22614,-3.91903 4.10547,-6.25196 0.36731,-0.97449 0.18086,-2.08394 0.43554,-3.09374 0.88351,-3.50316 2.44212,-6.80155 3.75966,-10.1656 1.82581,-4.66182 3.91713,-7.19287 5.74283,-13.87859 2.93537,-10.74923 0.79297,-17.96676 0.67467,-24.88498 -0.22186,-13.11226 -1.24795,-25.7412 -0.73828,-37.87695 0.24038,-5.72095 0.88177,-13.39495 1.96294,-16.85727 0.59354,-1.90058 1.68124,-5.32665 6.85584,-10.69942 5.42839,-3.629 8.12275,-5.33648 6.96252,-11.66059 -0.58674,-3.19783 -2.00543,-6.26687 -4.86329,-8.77734 -4.77516,-4.19469 -8.83709,-5.80812 -11.72609,-6.51885 -8.14072,-2.00275 -13.98895,-0.77843 -16.54297,-1.74219 -7.32394,-2.7637 -11.23611,-7.17385 -20.42578,-15.1649 -4.18682,-3.64073 -8.86455,-9.05793 -13.58203,-8.98395 z"
       style="fill:#eef1ae;fill-opacity:1;stroke:none;stroke-width:0.999999px;stroke-linecap:butt;stroke-linejoin:miter;stroke-opacity:1"
       id="path852" />
    <path
       id="path885"
       style="fill:#eef1ae;fill-opacity:1;stroke:none;stroke-width:0.264583px;stroke-linecap:butt;stroke-linejoin:miter;stroke-opacity:1"
       d="m 91.302953,45.014305 c -0.178308,0.0028 -0.356981,0.01154 -0.535369,0.02479 -0.713129,0.05308 -1.436571,0.209076 -2.148189,0.601514 -0.711618,0.392438 -1.176591,1.259734 -1.31041,1.759159 -0.189246,0.706279 -0.153088,1.652892 -0.379142,2.196156 -0.545566,1.311118 -0.513673,2.731881 -1.172263,4.480345 -1.008314,2.676938 -1.748428,5.404535 -2.400369,8.099248 -0.351928,1.454645 -0.713089,2.99929 -0.873331,4.648811 -0.244819,2.520124 -0.04794,5.362374 -0.02408,7.60226 0.01865,1.751054 0.0837,3.484184 0.148312,5.199165 0.04168,1.106146 -0.170445,3.115871 0.261482,4.584216 0.310412,1.055254 0.745236,2.212464 1.625881,2.871536 0.840004,0.628655 2.020895,0.614056 3.065168,0.715595 0.748835,0.07281 1.517642,-0.226261 2.255676,-0.0801 0.716526,0.141904 1.332736,0.598435 1.995006,0.906571 0.757222,0.352314 1.538044,0.661028 2.262111,1.077244 0.741712,0.426357 1.329748,1.11869 2.119754,1.447022 0.795232,0.330507 1.679739,0.409635 2.537622,0.48488 0.409638,0.03593 0.823499,-0.04839 1.233516,-0.01707 0.02281,0.0019 0.045,0.0085 0.0677,0.01138 0.38528,0.04906 0.81129,0.270555 1.16078,0.101118 0.59356,-0.287769 0.85358,-1.03691 1.08624,-1.654164 0.0972,-0.257834 0.0478,-0.551376 0.11523,-0.818552 0.23377,-0.926878 0.64615,-1.799577 0.99475,-2.689648 0.48308,-1.23344 1.0364,-1.903114 1.51945,-3.672044 0.77665,-2.844067 0.20981,-4.753705 0.17851,-6.584151 -0.0587,-3.469285 -0.33019,-6.810692 -0.19534,-10.021609 0.0636,-1.513668 0.23331,-3.544081 0.51936,-4.460153 0.15705,-0.502862 0.44483,-1.409343 1.81395,-2.830888 1.43626,-0.960173 2.14914,-1.411944 1.84216,-3.085198 -0.15524,-0.846093 -0.5306,-1.658109 -1.28674,-2.322338 -1.26343,-1.109845 -2.33815,-1.536732 -3.10253,-1.724779 -2.1539,-0.529894 -3.70124,-0.205959 -4.377,-0.460954 -1.93779,-0.731229 -2.972885,-1.898081 -5.404318,-4.01238 C 93.788769,46.42801 92.55112,44.99471 91.302953,45.014284 Z"
       sodipodi:nodetypes="ssssssssssaaaaaaaaaaaaaasccscssssss" />
    <path
       transform="matrix(0.92529277,0,0,1,7.1525716,0)"
       d="m 91.28125,43.625 c -0.212222,0.0033 -0.418657,0.01455 -0.617188,0.0293 -0.844615,0.06287 -1.791013,0.262017 -2.714843,0.771484 -1.245448,0.686831 -1.742601,1.727488 -1.980469,2.615235 -0.140468,0.524234 -0.173752,0.990349 -0.214844,1.367187 -0.04109,0.376838 -0.112345,0.670822 -0.105468,0.654297 -0.689673,1.657439 -0.623572,3.023055 -1.189454,4.525391 -1.038979,2.758353 -1.793116,5.541733 -2.451172,8.261718 -0.353727,1.462084 -0.732724,3.073692 -0.904296,4.839844 -0.261406,2.690866 -0.05634,5.580343 -0.0332,7.751953 0.01891,1.775737 0.08578,3.521282 0.150391,5.236328 0.03263,0.866003 -0.247047,3.010309 0.316406,4.925782 0.332191,1.129289 0.798461,2.595603 2.126953,3.589843 1.347988,1.008828 2.831115,0.893889 3.761719,0.984375 1.204287,0.117094 1.91721,-0.139986 2.121094,-0.09961 0.308961,0.06119 0.838528,0.412275 1.677734,0.802734 0.806793,0.375378 1.550845,0.674309 2.158203,1.023438 0.453182,0.260501 1.073746,1.025165 2.277344,1.525391 1.059816,0.440469 2.090176,0.51059 2.949219,0.585937 0.676044,0.0593 1.09039,-0.02575 1.242187,-0.01563 -0.0456,-0.0042 -0.06975,-0.005 0.0039,0.0039 -0.0037,-4.76e-4 0.179761,0.05125 0.494141,0.115235 0.31438,0.06399 0.86058,0.1428 1.44922,-0.142579 1.30157,-0.631027 1.55715,-1.822739 1.77929,-2.412109 0.27454,-0.728247 0.19303,-1.091259 0.16211,-0.96875 0.18977,-0.752395 0.56978,-1.574575 0.94141,-2.523437 0.41401,-1.057087 1.03584,-1.869546 1.56641,-3.8125 0.86335,-3.161587 0.25521,-5.41154 0.22851,-6.972657 -0.0597,-3.526576 -0.32714,-6.848868 -0.19726,-9.941406 0.0615,-1.463266 0.29678,-3.59659 0.45508,-4.103515 0.15464,-0.495152 0.25835,-1.004158 1.49023,-2.283204 0.6184,-0.406349 1.21722,-0.756869 1.69922,-1.423828 0.5468,-0.756639 0.69968,-1.827199 0.50781,-2.873047 -0.19816,-1.080039 -0.72727,-2.23055 -1.73437,-3.115234 -1.42439,-1.251232 -2.74347,-1.797053 -3.6875,-2.029297 -1.21554,-0.29904 -2.26487,-0.355055 -3.04297,-0.373047 -0.7781,-0.01799 -1.34694,-0.103648 -1.17578,-0.03906 -1.633706,-0.616481 -2.509109,-1.6093 -4.984379,-3.761719 -0.489835,-0.425946 -1.08958,-1.043372 -1.794922,-1.599609 C 93.306376,44.187904 92.443601,43.606772 91.28125,43.625 Z"
       inkscape:href="#path885"
       id="path887"
       xlink:href="#path885"
       inkscape:original="M 91.302734 45.013672 C 91.124426 45.016472 90.945966 45.025812 90.767578 45.039062 C 90.054449 45.092143 89.330759 45.248187 88.619141 45.640625 C 87.907523 46.033063 87.442413 46.900966 87.308594 47.400391 C 87.119348 48.10667 87.155742 49.052439 86.929688 49.595703 C 86.384122 50.906821 86.416402 52.327708 85.757812 54.076172 C 84.749499 56.75311 84.009363 59.481068 83.357422 62.175781 C 83.005494 63.630426 82.644617 65.174698 82.484375 66.824219 C 82.239556 69.344343 82.435124 72.185895 82.458984 74.425781 C 82.477634 76.176835 82.54281 77.910019 82.607422 79.625 C 82.649102 80.731146 82.437214 82.742593 82.869141 84.210938 C 83.179553 85.266192 83.615449 86.422959 84.496094 87.082031 C 85.336098 87.710686 86.516274 87.695336 87.560547 87.796875 C 88.309382 87.869685 89.078372 87.570636 89.816406 87.716797 C 90.532932 87.858701 91.148277 88.314911 91.810547 88.623047 C 92.567769 88.975361 93.350152 89.284956 94.074219 89.701172 C 94.815931 90.127529 95.403353 90.820105 96.193359 91.148438 C 96.988591 91.478944 97.872586 91.557567 98.730469 91.632812 C 99.140107 91.668742 99.554827 91.583914 99.964844 91.615234 C 99.987654 91.617134 100.00855 91.624073 100.03125 91.626953 C 100.41653 91.676013 100.84387 91.897953 101.19336 91.728516 C 101.78692 91.440747 102.04664 90.691473 102.2793 90.074219 C 102.3765 89.816385 102.3271 89.523035 102.39453 89.255859 C 102.6283 88.328981 103.04007 87.456477 103.38867 86.566406 C 103.87175 85.332966 104.42515 84.663461 104.9082 82.894531 C 105.68485 80.050464 105.11919 78.140993 105.08789 76.310547 C 105.02919 72.841262 104.75773 69.498026 104.89258 66.287109 C 104.95618 64.773441 105.12411 62.744197 105.41016 61.828125 C 105.56721 61.325263 105.85549 60.417639 107.22461 58.996094 C 108.66087 58.035921 109.37339 57.585363 109.06641 55.912109 C 108.91117 55.066016 108.53739 54.254073 107.78125 53.589844 C 106.51782 52.479999 105.44211 52.053281 104.67773 51.865234 C 102.52383 51.33534 100.97654 51.659292 100.30078 51.404297 C 98.362991 50.673068 97.327917 49.504924 94.896484 47.390625 C 93.788723 46.427348 92.550901 44.994098 91.302734 45.013672 z "
       inkscape:radius="1.3879954"
       sodipodi:type="inkscape:offset"
       style="fill:#eef1ae;fill-opacity:0.666667;stroke:none;stroke-width:1;stroke-linecap:butt;stroke-linejoin:miter;stroke-miterlimit:4;stroke-dasharray:none;stroke-opacity:1" />
    <path
       style="fill:#369358;fill-opacity:1;stroke:none;stroke-width:0.264583px;stroke-linecap:butt;stroke-linejoin:miter;stroke-opacity:1"
       d="m 88.858431,48.287349 c 0.407866,-1.522178 3.515743,-1.570066 4.707409,-0.53383 2.415726,2.10064 3.733795,3.311741 6.01772,4.173581 1.44743,0.546187 3.10809,0.164253 4.61035,0.533832 0.87516,0.215304 1.84645,0.375799 2.52356,0.9706 0.33172,0.291399 0.55121,0.730431 0.63089,1.164719 0.19734,1.075619 -0.0949,2.212739 -0.43677,3.25151 -0.40962,1.244744 -1.50205,2.194794 -1.89267,3.445629 -0.42176,1.350556 -0.3774,2.808476 -0.43677,4.22211 -0.14189,3.378564 0.13689,6.761712 0.19412,10.14277 0.0372,2.19995 0.67672,4.477533 0.0971,6.600081 -0.29453,1.078573 -1.14002,1.924366 -1.74708,2.863271 -0.60662,0.938216 -1.622,1.682246 -1.89267,2.766208 -0.17744,0.710611 0.31981,1.455495 0.24265,2.183849 -0.0377,0.356093 -0.0452,0.815376 -0.33971,1.01913 -0.34612,0.239498 -0.84134,-0.06833 -1.261778,-0.04853 -0.244527,0.01152 -0.486085,0.13483 -0.727951,0.09706 -0.672045,-0.104948 -1.260541,-0.524153 -1.844141,-0.873537 -0.793928,-0.4753 -1.455096,-1.147962 -2.232379,-1.650021 -0.778707,-0.502979 -1.535405,-1.103256 -2.426499,-1.35884 -1.292123,-0.370608 -2.683768,-0.194516 -4.02799,-0.194122 -0.664032,1.94e-4 -1.331482,0.184511 -1.989731,0.09706 -0.573041,-0.07613 -1.207411,-0.161988 -1.650021,-0.533832 -0.980674,-0.82388 -1.458133,-2.161539 -1.79561,-3.397099 -0.362698,-1.327896 -0.142293,-2.749488 -0.19412,-4.12505 -0.06459,-1.714197 -0.127319,-3.428864 -0.145589,-5.14418 -0.02464,-2.313189 -0.175145,-4.637309 0.04853,-6.93979 0.14326,-1.474702 0.476602,-2.927601 0.82501,-4.367699 0.642719,-2.656593 1.365999,-5.304058 2.329439,-7.861861 0.571494,-1.517239 1.415397,-2.919345 2.03826,-4.416229 0.285131,-0.685236 0.776481,-2.086793 0.776481,-2.086793 1.3e-5,-10e-7 -4.3e-5,1.6e-5 -4e-5,3e-6 z"
       id="path850"
       sodipodi:nodetypes="ssaaaaaaaaaaaaaaaaaaaaaaaaaaaass" />
    <path
       sodipodi:nodetypes="ssaaaaaaaaaaaaaaaaaaaaaaaaaaaass"
       id="path848"
       d="m 88.858431,48.287349 c 0.407866,-1.522178 3.515743,-1.570066 4.707409,-0.53383 2.415726,2.10064 3.733795,3.311741 6.01772,4.173581 1.44743,0.546187 3.10809,0.164253 4.61035,0.533832 0.87516,0.215304 1.84645,0.375799 2.52356,0.9706 0.33172,0.291399 0.55121,0.730431 0.63089,1.164719 0.19734,1.075619 -0.0949,2.212739 -0.43677,3.25151 -0.40962,1.244744 -1.50205,2.194794 -1.89267,3.445629 -0.42176,1.350556 -0.3774,2.808476 -0.43677,4.22211 -0.14189,3.378564 0.13689,6.761712 0.19412,10.14277 0.0372,2.19995 0.67672,4.477533 0.0971,6.600081 -0.29453,1.078573 -1.14002,1.924366 -1.74708,2.863271 -0.60662,0.938216 -1.622,1.682246 -1.89267,2.766208 -0.17744,0.710611 0.31981,1.455495 0.24265,2.183849 -0.0377,0.356093 -0.0452,0.815376 -0.33971,1.01913 -0.34612,0.239498 -0.84134,-0.06833 -1.261778,-0.04853 -0.244527,0.01152 -0.486085,0.13483 -0.727951,0.09706 -0.672045,-0.104948 -1.260541,-0.524153 -1.844141,-0.873537 -0.793928,-0.4753 -1.455096,-1.147962 -2.232379,-1.650021 -0.778707,-0.502979 -1.535405,-1.103256 -2.426499,-1.35884 -1.292123,-0.370608 -2.683768,-0.194516 -4.02799,-0.194122 -0.664032,1.94e-4 -1.331482,0.184511 -1.989731,0.09706 -0.573041,-0.07613 -1.207411,-0.161988 -1.650021,-0.533832 -0.980674,-0.82388 -1.458133,-2.161539 -1.79561,-3.397099 -0.362698,-1.327896 -0.142293,-2.749488 -0.19412,-4.12505 -0.06459,-1.714197 -0.127319,-3.428864 -0.145589,-5.14418 -0.02464,-2.313189 -0.175145,-4.637309 0.04853,-6.93979 0.14326,-1.474702 0.476602,-2.927601 0.82501,-4.367699 0.642719,-2.656593 1.365999,-5.304058 2.329439,-7.861861 0.571494,-1.517239 1.415397,-2.919345 2.03826,-4.416229 0.285131,-0.685236 0.776481,-2.086793 0.776481,-2.086793 1.3e-5,-10e-7 -4.3e-5,1.6e-5 -4e-5,3e-6 z"
       style="fill:#4e7937;stroke:none;stroke-width:0.264583px;stroke-linecap:butt;stroke-linejoin:miter;stroke-opacity:1;fill-opacity:1" />
    <path
       style="fill:none;stroke:#5b3831;stroke-width:0.46500002;stroke-linecap:butt;stroke-linejoin:miter;stroke-opacity:1;stroke-miterlimit:4;stroke-dasharray:none;stroke-dashoffset:0"
       d="M 87.316788,48.093722 79.149606,44.164554"
       id="path858" />
    <path
       id="path856"
       d="M 87.316788,48.037959 79.149606,44.108791"
       style="fill:#f2f2f2;stroke:#ffffff;stroke-width:0.465;stroke-linecap:butt;stroke-linejoin:miter;stroke-miterlimit:4;stroke-dasharray:0.0465, 0.04650000000000000;stroke-dashoffset:0;stroke-opacity:0.53424656;fill-opacity:1" />
    <path
       sodipodi:nodetypes="aaaaa"
       id="path891"
       d="m 86.383401,96.671761 c -3.991109,-0.138374 -5.811659,6.700859 -5.435361,10.676599 0.378072,3.99448 4.567617,6.6468 7.376562,9.51188 3.027969,3.08848 6.641832,10.75846 10.094237,8.15304 8.192581,-6.18267 -1.777892,-27.985884 -12.035438,-28.341519 z"
       style="fill:#007a7a;stroke:none;stroke-width:0.264583px;stroke-linecap:butt;stroke-linejoin:miter;stroke-opacity:1;fill-opacity:1" />
    <path
       sodipodi:nodetypes="aaaa"
       id="path893"
       d="m 121.325,71.43616 c -5.11017,3.683199 5.13199,19.048177 10.48248,15.723719 2.85641,-1.774793 -3.16922,-5.945696 -5.04712,-8.735398 -1.64794,-2.44809 -3.04132,-8.713847 -5.43536,-6.988321 z"
       style="fill:#007a7a;stroke:none;stroke-width:0.264583px;stroke-linecap:butt;stroke-linejoin:miter;stroke-opacity:1;fill-opacity:1" />
    <path
       sodipodi:nodetypes="aa"
       id="path895"
       d="m 114.33668,59.2066 c -14.880121,13.304388 14.22476,4.267428 0,0 z"
       style="fill:#007a7a;stroke:none;stroke-width:0.264583px;stroke-linecap:butt;stroke-linejoin:miter;stroke-opacity:1;fill-opacity:1" />
    <path
       sodipodi:nodetypes="aaaaa"
       id="path897"
       d="m 112.5896,77.84212 c 0.90725,-0.436502 2.44519,-1.229506 2.99557,-0.386457 0.57781,0.885075 -0.7941,2.077782 -1.63673,2.715899 -1.4499,1.097998 -4.36076,3.02408 -5.26164,1.444133 -0.89635,-1.572001 2.27212,-2.989017 3.9028,-3.773575 z"
       style="fill:#007a7a;stroke:none;stroke-width:0.264583px;stroke-linecap:butt;stroke-linejoin:miter;stroke-opacity:1;fill-opacity:1" />
    <g
       id="g932">
      <g
         id="g924">
        <path
           id="path915"
           d="m 100.58371,53.129579 v 0.529752"
           style="fill:none;stroke:#6f3300;stroke-width:0.065;stroke-linecap:round;stroke-linejoin:miter;stroke-miterlimit:4;stroke-dasharray:none;stroke-opacity:1" />
        <path
           style="fill:none;stroke:#6f3300;stroke-width:0.065;stroke-linecap:round;stroke-linejoin:miter;stroke-miterlimit:4;stroke-dasharray:none;stroke-opacity:1"
           d="m 101.93061,53.129579 v 0.529752"
           id="path917" />
        <path
           id="path919"
           d="m 101.25715,53.399817 v 0.529752"
           style="fill:#3c1d02;fill-opacity:1;stroke:#6f3300;stroke-width:0.065;stroke-linecap:round;stroke-linejoin:miter;stroke-miterlimit:4;stroke-dasharray:none;stroke-opacity:1" />
      </g>
      <path
         style="fill:#3c1d02;fill-opacity:1;stroke:none;stroke-width:0.264583px;stroke-linecap:butt;stroke-linejoin:miter;stroke-opacity:1"
         d="m 101.25333,53.442712 v -1.08095 l 0.77425,0.774253 z"
         id="path911" />
      <path
         id="path913"
         d="m 101.25333,53.442712 v -1.08095 l -0.77424,0.774253 z"
         style="fill:#925303;fill-opacity:1;stroke:none;stroke-width:0.264583px;stroke-linecap:butt;stroke-linejoin:miter;stroke-opacity:1" />
    </g>
    <g
       transform="translate(4.1671875,0.72760417)"
       id="g946">
      <g
         id="g940">
        <path
           style="fill:none;stroke:#6f3300;stroke-width:0.065;stroke-linecap:round;stroke-linejoin:miter;stroke-miterlimit:4;stroke-dasharray:none;stroke-opacity:1"
           d="m 100.58371,53.129579 v 0.529752"
           id="path934" />
        <path
           id="path936"
           d="m 101.93061,53.129579 v 0.529752"
           style="fill:none;stroke:#6f3300;stroke-width:0.065;stroke-linecap:round;stroke-linejoin:miter;stroke-miterlimit:4;stroke-dasharray:none;stroke-opacity:1" />
        <path
           style="fill:#3c1d02;fill-opacity:1;stroke:#6f3300;stroke-width:0.065;stroke-linecap:round;stroke-linejoin:miter;stroke-miterlimit:4;stroke-dasharray:none;stroke-opacity:1"
           d="m 101.25715,53.399817 v 0.529752"
           id="path938" />
      </g>
      <path
         id="path942"
         d="m 101.25333,53.442712 v -1.08095 l 0.77425,0.774253 z"
         style="fill:#3c1d02;fill-opacity:1;stroke:none;stroke-width:0.264583px;stroke-linecap:butt;stroke-linejoin:miter;stroke-opacity:1" />
      <path
         style="fill:#925303;fill-opacity:1;stroke:none;stroke-width:0.264583px;stroke-linecap:butt;stroke-linejoin:miter;stroke-opacity:1"
         d="m 101.25333,53.442712 v -1.08095 l -0.77424,0.774253 z"
         id="path944" />
    </g>
    <g
       id="g960"
       transform="translate(1.5378906,2.0009115)">
      <g
         id="g954">
        <path
           id="path948"
           d="m 100.58371,53.129579 v 0.529752"
           style="fill:none;stroke:#6f3300;stroke-width:0.065;stroke-linecap:round;stroke-linejoin:miter;stroke-miterlimit:4;stroke-dasharray:none;stroke-opacity:1" />
        <path
           style="fill:none;stroke:#6f3300;stroke-width:0.065;stroke-linecap:round;stroke-linejoin:miter;stroke-miterlimit:4;stroke-dasharray:none;stroke-opacity:1"
           d="m 101.93061,53.129579 v 0.529752"
           id="path950" />
        <path
           id="path952"
           d="m 101.25715,53.399817 v 0.529752"
           style="fill:#3c1d02;fill-opacity:1;stroke:#6f3300;stroke-width:0.065;stroke-linecap:round;stroke-linejoin:miter;stroke-miterlimit:4;stroke-dasharray:none;stroke-opacity:1" />
      </g>
      <path
         style="fill:#3c1d02;fill-opacity:1;stroke:none;stroke-width:0.264583px;stroke-linecap:butt;stroke-linejoin:miter;stroke-opacity:1"
         d="m 101.25333,53.442712 v -1.08095 l 0.77425,0.774253 z"
         id="path956" />
      <path
         id="path958"
         d="m 101.25333,53.442712 v -1.08095 l -0.77424,0.774253 z"
         style="fill:#925303;fill-opacity:1;stroke:none;stroke-width:0.264583px;stroke-linecap:butt;stroke-linejoin:miter;stroke-opacity:1" />
    </g>
    <g
       transform="translate(-2.3151042,0.66145838)"
       id="g974">
      <g
         id="g968">
        <path
           style="fill:none;stroke:#6f3300;stroke-width:0.065;stroke-linecap:round;stroke-linejoin:miter;stroke-miterlimit:4;stroke-dasharray:none;stroke-opacity:1"
           d="m 100.58371,53.129579 v 0.529752"
           id="path962" />
        <path
           id="path964"
           d="m 101.93061,53.129579 v 0.529752"
           style="fill:none;stroke:#6f3300;stroke-width:0.065;stroke-linecap:round;stroke-linejoin:miter;stroke-miterlimit:4;stroke-dasharray:none;stroke-opacity:1" />
        <path
           style="fill:#3c1d02;fill-opacity:1;stroke:#6f3300;stroke-width:0.065;stroke-linecap:round;stroke-linejoin:miter;stroke-miterlimit:4;stroke-dasharray:none;stroke-opacity:1"
           d="m 101.25715,53.399817 v 0.529752"
           id="path966" />
      </g>
      <path
         id="path970"
         d="m 101.25333,53.442712 v -1.08095 l 0.77425,0.774253 z"
         style="fill:#3c1d02;fill-opacity:1;stroke:none;stroke-width:0.264583px;stroke-linecap:butt;stroke-linejoin:miter;stroke-opacity:1" />
      <path
         style="fill:#925303;fill-opacity:1;stroke:none;stroke-width:0.264583px;stroke-linecap:butt;stroke-linejoin:miter;stroke-opacity:1"
         d="m 101.25333,53.442712 v -1.08095 l -0.77424,0.774253 z"
         id="path972" />
    </g>
    <g
       id="g988"
       transform="translate(-6.2177084,-2.2654947)">
      <g
         id="g982">
        <path
           id="path976"
           d="m 100.58371,53.129579 v 0.529752"
           style="fill:none;stroke:#6f3300;stroke-width:0.065;stroke-linecap:round;stroke-linejoin:miter;stroke-miterlimit:4;stroke-dasharray:none;stroke-opacity:1" />
        <path
           style="fill:none;stroke:#6f3300;stroke-width:0.065;stroke-linecap:round;stroke-linejoin:miter;stroke-miterlimit:4;stroke-dasharray:none;stroke-opacity:1"
           d="m 101.93061,53.129579 v 0.529752"
           id="path978" />
        <path
           id="path980"
           d="m 101.25715,53.399817 v 0.529752"
           style="fill:#3c1d02;fill-opacity:1;stroke:#6f3300;stroke-width:0.065;stroke-linecap:round;stroke-linejoin:miter;stroke-miterlimit:4;stroke-dasharray:none;stroke-opacity:1" />
      </g>
      <path
         style="fill:#3c1d02;fill-opacity:1;stroke:none;stroke-width:0.264583px;stroke-linecap:butt;stroke-linejoin:miter;stroke-opacity:1"
         d="m 101.25333,53.442712 v -1.08095 l 0.77425,0.774253 z"
         id="path984" />
      <path
         id="path986"
         d="m 101.25333,53.442712 v -1.08095 l -0.77424,0.774253 z"
         style="fill:#925303;fill-opacity:1;stroke:none;stroke-width:0.264583px;stroke-linecap:butt;stroke-linejoin:miter;stroke-opacity:1" />
    </g>
    <g
       transform="matrix(1.8418921,0,0,1,-97.772113,1.1079428)"
       id="g1002">
      <g
         id="g996">
        <path
           style="fill:none;stroke:#6f3300;stroke-width:0.065;stroke-linecap:round;stroke-linejoin:miter;stroke-miterlimit:4;stroke-dasharray:none;stroke-opacity:1"
           d="m 100.58371,53.129579 v 0.529752"
           id="path990" />
        <path
           id="path992"
           d="m 101.93061,53.129579 v 0.529752"
           style="fill:none;stroke:#6f3300;stroke-width:0.065;stroke-linecap:round;stroke-linejoin:miter;stroke-miterlimit:4;stroke-dasharray:none;stroke-opacity:1" />
        <path
           style="fill:#3c1d02;fill-opacity:1;stroke:#6f3300;stroke-width:0.065;stroke-linecap:round;stroke-linejoin:miter;stroke-miterlimit:4;stroke-dasharray:none;stroke-opacity:1"
           d="m 101.25715,53.399817 v 0.529752"
           id="path994" />
      </g>
      <path
         id="path998"
         d="m 101.25333,53.442712 v -1.08095 l 0.77425,0.774253 z"
         style="fill:#3c1d02;fill-opacity:1;stroke:none;stroke-width:0.264583px;stroke-linecap:butt;stroke-linejoin:miter;stroke-opacity:1" />
      <path
         style="fill:#925303;fill-opacity:1;stroke:none;stroke-width:0.264583px;stroke-linecap:butt;stroke-linejoin:miter;stroke-opacity:1"
         d="m 101.25333,53.442712 v -1.08095 l -0.77424,0.774253 z"
         id="path1000" />
    </g>
    <g
       id="g1016"
       transform="translate(-15.875,12.567708)">
      <g
         id="g1010">
        <path
           id="path1004"
           d="m 100.58371,53.129579 v 0.529752"
           style="fill:none;stroke:#6f3300;stroke-width:0.065;stroke-linecap:round;stroke-linejoin:miter;stroke-miterlimit:4;stroke-dasharray:none;stroke-opacity:1" />
        <path
           style="fill:none;stroke:#6f3300;stroke-width:0.065;stroke-linecap:round;stroke-linejoin:miter;stroke-miterlimit:4;stroke-dasharray:none;stroke-opacity:1"
           d="m 101.93061,53.129579 v 0.529752"
           id="path1006" />
        <path
           id="path1008"
           d="m 101.25715,53.399817 v 0.529752"
           style="fill:#3c1d02;fill-opacity:1;stroke:#6f3300;stroke-width:0.065;stroke-linecap:round;stroke-linejoin:miter;stroke-miterlimit:4;stroke-dasharray:none;stroke-opacity:1" />
      </g>
      <path
         style="fill:#3c1d02;fill-opacity:1;stroke:none;stroke-width:0.264583px;stroke-linecap:butt;stroke-linejoin:miter;stroke-opacity:1"
         d="m 101.25333,53.442712 v -1.08095 l 0.77425,0.774253 z"
         id="path1012" />
      <path
         id="path1014"
         d="m 101.25333,53.442712 v -1.08095 l -0.77424,0.774253 z"
         style="fill:#925303;fill-opacity:1;stroke:none;stroke-width:0.264583px;stroke-linecap:butt;stroke-linejoin:miter;stroke-opacity:1" />
    </g>
  </g>
</svg>
