<?xml version="1.0" encoding="UTF-8" standalone="no"?>
<!-- Created with Inkscape (http://www.inkscape.org/) -->

<svg
   xmlns:dc="http://purl.org/dc/elements/1.1/"
   xmlns:cc="http://creativecommons.org/ns#"
   xmlns:rdf="http://www.w3.org/1999/02/22-rdf-syntax-ns#"
   xmlns:svg="http://www.w3.org/2000/svg"
   xmlns="http://www.w3.org/2000/svg"
   xmlns:sodipodi="http://sodipodi.sourceforge.net/DTD/sodipodi-0.dtd"
   xmlns:inkscape="http://www.inkscape.org/namespaces/inkscape"
   sodipodi:docname="s_10_2.svg"
   inkscape:version="0.92.4 (5da689c313, 2019-01-14)"
   id="svg4519"
   version="1.1"
   viewBox="0 0 320.59906 180.3373"
   height="180.3373mm"
   width="320.59906mm">
  <defs
     id="defs4513">
    <clipPath
       clipPathUnits="userSpaceOnUse"
       id="clipPath910">
      <path
         sodipodi:nodetypes="cccccccsccccccccccccccccsccccccccsccccccccccccccccccccccccccccccccscccc"
         inkscape:connector-curvature="0"
         id="path912"
         d="m 108.25626,48.354508 0.30067,0.885328 0.65147,0.334089 0.0835,0.267269 2.67269,0.551241 0.31738,0.01669 1.50339,0.851921 c 0,0 1.20272,0.300678 1.11919,0.300678 -0.0835,0 0.41761,0.484426 0.41761,0.484426 l 1.10249,3.123713 1.83748,-0.634765 1.18601,-0.434313 c 0,0 1.63702,0.05011 1.72054,0.133636 0.0835,0.08352 1.58692,0.601355 1.58692,0.601355 l 1.60361,0.384199 0.96886,-0.06681 1.40316,1.336347 1.21942,0.584653 0.51783,0.801806 0.26727,0.267272 1.08578,1.302938 2.05464,2.77292 0.3842,-0.484425 c 0,0 0.33409,-0.03341 0.73499,-0.133634 0.4009,-0.100226 0.33409,-0.200453 0.70158,-0.167044 0.3675,0.03341 1.06908,-0.03341 1.36976,0.06682 0.30068,0.100224 0.23386,0.06682 0.4009,0.167042 0.16705,0.100227 0.70159,0.267272 0.70159,0.267272 l 0.36749,-0.567949 -0.13363,-0.434314 1.20271,-0.634765 0.16704,-0.634764 c 0,0 1.23612,-0.334087 1.40317,-0.367496 0.16704,-0.03341 0.20045,-0.133635 0.56795,0.06682 0.36749,0.200451 0.33408,0.06682 0.56794,0.334084 0.23386,0.267269 0.50113,0.167042 0.23386,0.400905 -0.26726,0.233859 -0.60135,0.53454 -0.70158,0.7684 -0.10022,0.23386 0.63477,0.902036 0.53454,1.135893 -0.10022,0.233863 -0.20045,0.467723 -0.23386,0.701582 l -0.10023,0.300681 -0.51057,-0.235537 -0.62921,0.143007 -0.91777,0.29441 -1.00036,0.425936 -2.95587,-0.20657 -2.30761,0.475768 -2.98894,0.488572 -2.88551,0.493305 -1.67746,-0.170868 -3.98807,0.3961 -2.53139,0.154556 -1.96405,0.623223 -2.7204,-0.795422 -1.79364,-0.03387 -0.96578,-7.94e-4 -1.49434,0.222724 -0.5826,-0.14051 -1.67099,-0.376973 -1.74952,0.02941 -0.58025,-1.051367 1.23612,-1.737254 0.13364,-2.071338 c 0,0 -0.33409,-0.7684 -0.63477,-1.135896 -0.30068,-0.367496 -0.66817,-0.133633 -0.30068,-0.46772 0.3675,-0.334087 1.57021,-1.670436 2.3052,-2.438834 0.735,-0.7684 1.63703,-2.772923 1.80407,-2.973374 0.16705,-0.200454 0.90204,-0.968851 0.90204,-1.135896 0,-0.167045 -0.0334,-1.035669 -0.43431,-1.436574 -0.40091,-0.400904 -1.03567,-0.935442 -1.20272,-0.968851 -0.16704,-0.03341 0.31739,-1.018966 0.31739,-1.018966 z"
         style="fill:none;stroke:#000000;stroke-width:0.465;stroke-linecap:butt;stroke-linejoin:miter;stroke-miterlimit:4;stroke-dasharray:none;stroke-opacity:1" />
    </clipPath>
    <clipPath
       clipPathUnits="userSpaceOnUse"
       id="clipPath922">
      <ellipse
         ry="12.828937"
         rx="21.381561"
         cy="110.67966"
         cx="202.51888"
         id="ellipse924"
         style="opacity:1;vector-effect:none;fill:none;fill-opacity:1;stroke:#000000;stroke-width:0.46499997;stroke-linecap:round;stroke-linejoin:miter;stroke-miterlimit:4;stroke-dasharray:none;stroke-dashoffset:4.60040331;stroke-opacity:1" />
    </clipPath>
    <clipPath
       clipPathUnits="userSpaceOnUse"
       id="clipPath2231">
      <path
         style="opacity:1;vector-effect:none;fill:#57ff00;fill-opacity:1;stroke:#000000;stroke-width:0.50455332;stroke-linecap:round;stroke-linejoin:miter;stroke-miterlimit:4;stroke-dasharray:none;stroke-dashoffset:4.60040331;stroke-opacity:1"
         d="M -18.756312,22.709684 A 51.49147,51.49147 0 0 0 -70.24793,74.201302 51.49147,51.49147 0 0 0 -18.756312,125.69239 51.49147,51.49147 0 0 0 32.735309,74.201302 51.49147,51.49147 0 0 0 -18.756312,22.709684 Z m 0,9.95136 a 41.539882,41.539882 0 0 1 41.539732,41.540258 41.539882,41.539882 0 0 1 -41.539732,41.539728 41.539882,41.539882 0 0 1 -41.53973,-41.539728 41.539882,41.539882 0 0 1 41.53973,-41.540258 z"
         id="path2233"
         inkscape:connector-curvature="0" />
    </clipPath>
  </defs>
  <sodipodi:namedview
     id="base"
     pagecolor="#ffffff"
     bordercolor="#666666"
     borderopacity="1.0"
     inkscape:pageopacity="0.0"
     inkscape:pageshadow="2"
     inkscape:zoom="0.7"
     inkscape:cx="1075.6034"
     inkscape:cy="311.75855"
     inkscape:document-units="mm"
     inkscape:current-layer="layer1"
     showgrid="false"
     fit-margin-top="0"
     fit-margin-left="0"
     fit-margin-right="0"
     fit-margin-bottom="0"
     inkscape:window-width="1920"
     inkscape:window-height="986"
     inkscape:window-x="-11"
     inkscape:window-y="-11"
     inkscape:window-maximized="1"
     inkscape:snap-page="true"
     showguides="true" />
  <metadata
     id="metadata4516">
    <rdf:RDF>
      <cc:Work
         rdf:about="">
        <dc:format>image/svg+xml</dc:format>
        <dc:type
           rdf:resource="http://purl.org/dc/dcmitype/StillImage" />
        <dc:title />
      </cc:Work>
    </rdf:RDF>
  </metadata>
  <g
     inkscape:label="Layer 1"
     inkscape:groupmode="layer"
     id="layer1"
     transform="translate(80.653183,45.470983)">
    <rect
       style="opacity:0.603;vector-effect:none;fill:#f8f8f8;fill-opacity:1;stroke:none;stroke-width:0.40000001;stroke-linecap:round;stroke-linejoin:miter;stroke-miterlimit:4;stroke-dasharray:none;stroke-dashoffset:4.60040331;stroke-opacity:1"
       id="rect23"
       width="320.59906"
       height="180.3373"
       x="-80.653183"
       y="-45.470982" />
    <flowRoot
       xml:space="preserve"
       id="flowRoot849"
       style="fill:black;fill-opacity:1;stroke:none;font-family:Montserrat;font-style:normal;font-weight:600;font-size:40px;line-height:25px;letter-spacing:0px;word-spacing:0px;-inkscape-font-specification:'Montserrat, Semi-Bold';font-stretch:normal;font-variant:normal;text-anchor:start;text-align:start;writing-mode:lr;font-variant-ligatures:normal;font-variant-caps:normal;font-variant-numeric:normal;font-feature-settings:normal"><flowRegion
         id="flowRegion851"><rect
           id="rect853"
           width="445.71426"
           height="167.14285"
           x="34.285713"
           y="134.44693" /></flowRegion><flowPara
         id="flowPara855" /></flowRoot>    <flowRoot
       xml:space="preserve"
       id="flowRoot889"
       style="fill:black;fill-opacity:1;stroke:none;font-family:Montserrat;font-style:normal;font-weight:600;font-size:40px;line-height:25px;letter-spacing:0px;word-spacing:0px;-inkscape-font-specification:'Montserrat, Semi-Bold';font-stretch:normal;font-variant:normal;text-anchor:start;text-align:start;writing-mode:lr;font-variant-ligatures:normal;font-variant-caps:normal;font-variant-numeric:normal;font-feature-settings:normal"><flowRegion
         id="flowRegion891"><rect
           id="rect893"
           width="398.57141"
           height="180.71428"
           x="60.714283"
           y="195.8755" /></flowRegion><flowPara
         id="flowPara895" /></flowRoot>    <flowRoot
       xml:space="preserve"
       id="flowRoot875"
       style="fill:black;fill-opacity:1;stroke:none;font-family:Montserrat;font-style:normal;font-weight:600;font-size:40px;line-height:25px;letter-spacing:0px;word-spacing:0px;-inkscape-font-specification:'Montserrat, Semi-Bold';font-stretch:normal;font-variant:normal;text-anchor:start;text-align:start;writing-mode:lr;font-variant-ligatures:normal;font-variant-caps:normal;font-variant-numeric:normal;font-feature-settings:normal"><flowRegion
         id="flowRegion877"><rect
           id="rect879"
           width="452.85715"
           height="134.28571"
           x="87.142853"
           y="450.16122" /></flowRegion><flowPara
         id="flowPara881" /></flowRoot>    <path
       style="opacity:1;vector-effect:none;fill:#001eff;fill-opacity:1;stroke:#000000;stroke-width:0.48304763;stroke-linecap:round;stroke-linejoin:miter;stroke-miterlimit:4;stroke-dasharray:none;stroke-dashoffset:4.60040331;stroke-opacity:1"
       d="m -66.449916,32.27259 v 33.867701 h 45.70448 V 32.27259 Z"
       id="rect2619"
       inkscape:connector-curvature="0" />
    <path
       style="opacity:1;vector-effect:none;fill:#040060;fill-opacity:1;stroke:#000000;stroke-width:0.48304763;stroke-linecap:round;stroke-linejoin:miter;stroke-miterlimit:4;stroke-dasharray:none;stroke-dashoffset:4.60040331;stroke-opacity:1"
       d="m 162.07249,32.27259 v 33.867701 h 45.705 V 32.27259 Z"
       id="rect2621"
       inkscape:connector-curvature="0" />
    <path
       id="path2665"
       d="m -20.745436,32.27259 v 33.867701 h 45.70448 V 32.27259 Z"
       style="opacity:1;vector-effect:none;fill:#3244cd;fill-opacity:1;stroke:#000000;stroke-width:0.48304763;stroke-linecap:round;stroke-linejoin:miter;stroke-miterlimit:4;stroke-dasharray:none;stroke-dashoffset:4.60040331;stroke-opacity:1"
       inkscape:connector-curvature="0" />
    <path
       inkscape:connector-curvature="0"
       style="opacity:1;vector-effect:none;fill:#68fffd;fill-opacity:1;stroke:#000000;stroke-width:0.48304763;stroke-linecap:round;stroke-linejoin:miter;stroke-miterlimit:4;stroke-dasharray:none;stroke-dashoffset:4.60040331;stroke-opacity:1"
       d="M 24.959044,32.27259 V 66.140291 H 70.663523 V 32.27259 Z"
       id="path2667" />
    <path
       id="path2669"
       d="M 70.663523,32.27259 V 66.140291 H 116.368 V 32.27259 Z"
       style="opacity:1;vector-effect:none;fill:#bfbfbf;fill-opacity:1;stroke:#000000;stroke-width:0.48304763;stroke-linecap:round;stroke-linejoin:miter;stroke-miterlimit:4;stroke-dasharray:none;stroke-dashoffset:4.60040331;stroke-opacity:1"
       inkscape:connector-curvature="0" />
    <path
       inkscape:connector-curvature="0"
       style="opacity:1;vector-effect:none;fill:#129aff;fill-opacity:1;stroke:#000000;stroke-width:0.48304763;stroke-linecap:round;stroke-linejoin:miter;stroke-miterlimit:4;stroke-dasharray:none;stroke-dashoffset:4.60040331;stroke-opacity:1"
       d="m 116.368,32.27259 v 33.867701 h 45.70449 V 32.27259 Z"
       id="path2671" />
    <flowRoot
       xml:space="preserve"
       id="flowRoot830"
       style="font-style:normal;font-variant:normal;font-weight:600;font-stretch:normal;font-size:40px;line-height:25px;font-family:Montserrat;-inkscape-font-specification:'Montserrat, Semi-Bold';font-variant-ligatures:normal;font-variant-caps:normal;font-variant-numeric:normal;font-feature-settings:normal;text-align:start;letter-spacing:0px;word-spacing:0px;writing-mode:lr-tb;text-anchor:start;fill:#000000;fill-opacity:1;stroke:none"
       transform="matrix(0.26458333,0,0,0.26458333,-80.653183,-40.746281)"><flowRegion
         id="flowRegion832"><rect
           id="rect834"
           width="667.71082"
           height="93.944183"
           x="21.213203"
           y="20.950018" /></flowRegion><flowPara
         id="flowPara836"
         style="font-style:normal;font-variant:normal;font-weight:bold;font-stretch:normal;font-size:64px;font-family:Montserrat;-inkscape-font-specification:'Montserrat Bold'">Mise en page</flowPara></flowRoot>    <path
       style="font-style:normal;font-variant:normal;font-weight:600;font-stretch:normal;font-size:40px;line-height:25px;font-family:Montserrat;-inkscape-font-specification:'Montserrat, Semi-Bold';font-variant-ligatures:normal;font-variant-caps:normal;font-variant-numeric:normal;font-feature-settings:normal;text-align:start;letter-spacing:0px;word-spacing:0px;writing-mode:lr-tb;text-anchor:start;fill:#000000;fill-opacity:1;stroke:none;stroke-width:1.64844799"
       d="M 783.4082 23.878906 L 783.4082 72.804688 L 788.08984 72.804688 L 788.08984 23.878906 L 783.4082 23.878906 z M 1012.6465 23.878906 L 1012.6465 72.804688 L 1017.3281 72.804688 L 1017.3281 23.878906 L 1012.6465 23.878906 z M 814.63281 37.857422 C 804.874 37.857422 797.68555 45.176575 797.68555 55.462891 C 797.68555 65.749206 805.07095 73.134766 815.88477 73.134766 C 821.35761 73.134766 826.17045 71.155414 829.26953 67.462891 L 826.63281 64.429688 C 823.9953 67.462832 820.2376 68.980469 816.01758 68.980469 C 808.43472 68.980469 802.89469 64.16528 802.36719 56.912109 L 831.38086 56.912109 C 831.38086 56.384606 831.44727 55.858518 831.44727 55.462891 C 831.44727 45.0447 824.39162 37.857422 814.63281 37.857422 z M 851.12891 37.857422 C 842.29323 37.857422 837.41406 42.077386 837.41406 47.748047 C 837.41406 61.463134 859.90039 54.341505 859.90039 63.375 C 859.90039 66.803772 857.19535 69.044922 850.60156 69.044922 C 845.72216 69.044922 841.04088 67.332201 838.27148 65.15625 L 836.16211 68.847656 C 838.99744 71.287359 844.53684 73.134766 850.27344 73.134766 C 859.30693 73.134766 864.58203 69.242538 864.58203 63.242188 C 864.58203 49.922728 842.0957 56.978419 842.0957 47.615234 C 842.0957 44.318339 844.8648 41.878906 851.12891 41.878906 C 854.68955 41.878906 858.31647 42.73569 861.34961 44.845703 L 863.39453 41.087891 C 860.49326 39.109753 855.61268 37.857422 851.12891 37.857422 z M 904.80273 37.857422 C 894.45048 37.857422 886.93359 45.110638 886.93359 55.462891 C 886.93359 65.815144 894.45048 73.134766 904.80273 73.134766 C 910.67121 73.134766 915.61733 70.759169 918.38672 66.275391 L 914.89258 63.902344 C 912.51881 67.397053 908.82495 68.980469 904.80273 68.980469 C 897.21987 68.980469 891.68164 63.639192 891.68164 55.462891 C 891.68164 47.352527 897.21987 41.945312 904.80273 41.945312 C 908.82495 41.945312 912.51881 43.593181 914.89258 47.087891 L 918.38672 44.714844 C 915.61733 40.165127 910.67121 37.857422 904.80273 37.857422 z M 941.05078 37.857422 C 930.89634 37.857422 923.38086 45.176575 923.38086 55.462891 C 923.38086 65.749206 930.89634 73.134766 941.05078 73.134766 C 951.20522 73.134766 958.65625 65.749206 958.65625 55.462891 C 958.65625 45.176575 951.20522 37.857422 941.05078 37.857422 z M 1043.8691 37.857422 C 1034.1103 37.857422 1026.9238 45.176575 1026.9238 55.462891 C 1026.9238 65.749206 1034.3092 73.134766 1045.123 73.134766 C 1050.5959 73.134766 1055.4087 71.155414 1058.5078 67.462891 L 1055.8711 64.429688 C 1053.2336 67.462832 1049.4739 68.980469 1045.2539 68.980469 C 1037.671 68.980469 1032.133 64.16528 1031.6055 56.912109 L 1060.6172 56.912109 C 1060.6172 56.384606 1060.6836 55.858518 1060.6836 55.462891 C 1060.6836 45.0447 1053.628 37.857422 1043.8691 37.857422 z M 1132.1172 37.857422 C 1125.7212 37.857422 1121.3029 40.296455 1119.127 44.912109 L 1119.127 38.121094 L 1114.6426 38.121094 L 1114.6426 72.804688 L 1119.3242 72.804688 L 1119.3242 55.132812 C 1119.3242 46.956511 1123.7429 42.339844 1130.9961 42.339844 C 1131.3258 42.339844 1131.7216 42.40625 1132.1172 42.40625 L 1132.1172 37.857422 z M 1150.9414 37.857422 C 1142.1057 37.857422 1137.2266 42.077386 1137.2266 47.748047 C 1137.2266 61.463134 1159.7109 54.341505 1159.7109 63.375 C 1159.7109 66.803772 1157.0079 69.044922 1150.4141 69.044922 C 1145.5347 69.044922 1140.8534 67.332201 1138.084 65.15625 L 1135.9727 68.847656 C 1138.808 71.287359 1144.3474 73.134766 1150.084 73.134766 C 1159.1175 73.134766 1164.3926 69.242538 1164.3926 63.242188 C 1164.3926 49.922728 1141.9082 56.978419 1141.9082 47.615234 C 1141.9082 44.318339 1144.6773 41.878906 1150.9414 41.878906 C 1154.5021 41.878906 1158.129 42.73569 1161.1621 44.845703 L 1163.2051 41.087891 C 1160.3038 39.109753 1155.4252 37.857422 1150.9414 37.857422 z M 967.88477 38.121094 L 967.88477 58.232422 C 967.88477 68.189047 973.68776 73.134766 982.52344 73.134766 C 988.06222 73.134766 992.54663 70.694636 994.98633 66.474609 L 994.98633 72.804688 L 999.46875 72.804688 L 999.46875 38.121094 L 994.78711 38.121094 L 994.78711 56.320312 C 994.78711 64.232863 990.23755 68.914062 982.98438 68.914062 C 976.39058 68.914062 972.56641 65.154578 972.56641 57.769531 L 972.56641 38.121094 L 967.88477 38.121094 z M 1069.8828 38.121094 L 1069.8828 58.232422 C 1069.8828 68.189047 1075.6858 73.134766 1084.5215 73.134766 C 1090.0603 73.134766 1094.5447 70.694636 1096.9844 66.474609 L 1096.9844 72.804688 L 1101.4668 72.804688 L 1101.4668 38.121094 L 1096.7852 38.121094 L 1096.7852 56.320312 C 1096.7852 64.232863 1092.2356 68.914062 1084.9824 68.914062 C 1078.3886 68.914062 1074.5645 65.154578 1074.5645 57.769531 L 1074.5645 38.121094 L 1069.8828 38.121094 z M 814.63281 41.878906 C 821.42442 41.878906 826.36945 46.626363 826.96289 53.417969 L 802.36719 53.417969 C 802.96063 46.626363 807.90714 41.878906 814.63281 41.878906 z M 1043.8691 41.878906 C 1050.6607 41.878906 1055.6058 46.626363 1056.1992 53.417969 L 1031.6055 53.417969 C 1032.1989 46.626363 1037.1435 41.878906 1043.8691 41.878906 z M 941.05078 41.945312 C 948.43583 41.945312 953.91016 47.352527 953.91016 55.462891 C 953.91016 63.573254 948.43583 68.980469 941.05078 68.980469 C 933.66573 68.980469 928.12695 63.573254 928.12695 55.462891 C 928.12695 47.352527 933.66573 41.945312 941.05078 41.945312 z "
       transform="matrix(0.26458333,0,0,0.26458333,-80.653183,-45.470983)"
       id="flowRoot1634" />
    <path
       style="font-style:normal;font-variant:normal;font-weight:600;font-stretch:normal;font-size:10.58333302px;line-height:1;font-family:Montserrat;-inkscape-font-specification:'Montserrat, Semi-Bold';font-variant-ligatures:normal;font-variant-caps:normal;font-variant-numeric:normal;font-feature-settings:normal;text-align:start;letter-spacing:0px;word-spacing:0px;writing-mode:lr-tb;text-anchor:start;fill:#000000;fill-opacity:1;stroke:none;stroke-width:0.99999994"
       d="M 166.65625 135.53125 C 164.81625 135.53125 163.45703 136.85125 163.45703 138.53125 C 163.45703 140.21125 164.81625 141.53125 166.65625 141.53125 C 168.53625 141.53125 169.85742 140.17211 169.85742 138.41211 C 169.85742 136.77211 168.49625 135.53125 166.65625 135.53125 z M 775.71875 135.53125 C 773.87875 135.53125 772.51953 136.85125 772.51953 138.53125 C 772.51953 140.21125 773.87875 141.53125 775.71875 141.53125 C 777.59875 141.53125 778.91992 140.17211 778.91992 138.41211 C 778.91992 136.77211 777.55875 135.53125 775.71875 135.53125 z M 798.84375 135.53125 C 797.00375 135.53125 795.64453 136.85125 795.64453 138.53125 C 795.64453 140.21125 797.00375 141.53125 798.84375 141.53125 C 800.72375 141.53125 802.04492 140.17211 802.04492 138.41211 C 802.04492 136.77211 800.68375 135.53125 798.84375 135.53125 z M 839.71289 136.65234 L 834.3125 142.13281 L 838.63281 142.13281 L 845.5918 136.65234 L 839.71289 136.65234 z M 398.04297 136.73242 L 398.04297 166.41211 L 402.80273 166.41211 L 402.80273 163.65234 C 404.48273 165.69234 406.96281 166.69141 409.88281 166.69141 C 416.12281 166.69141 420.72266 162.37242 420.72266 155.73242 C 420.72266 149.09242 416.12281 144.8125 409.88281 144.8125 C 407.16281 144.8125 404.76297 145.73234 403.04297 147.65234 L 403.04297 136.73242 L 398.04297 136.73242 z M 493.65039 136.73242 L 493.65039 147.69141 C 491.97039 145.73141 489.53148 144.8125 486.77148 144.8125 C 480.57148 144.8125 475.9707 149.09242 475.9707 155.73242 C 475.9707 162.37242 480.57148 166.69141 486.77148 166.69141 C 489.69148 166.69141 492.17156 165.69234 493.85156 163.65234 L 493.85156 166.41211 L 498.65039 166.41211 L 498.65039 136.73242 L 493.65039 136.73242 z M 617.02734 136.73242 L 617.02734 166.41211 L 622.02734 166.41211 L 622.02734 136.73242 L 617.02734 136.73242 z M 784.76172 136.73242 L 784.76172 166.41211 L 789.76172 166.41211 L 789.76172 136.73242 L 784.76172 136.73242 z M 41.695312 138.41211 L 29.09375 166.41211 L 34.455078 166.41211 L 37.214844 159.93164 L 51.214844 159.93164 L 54.013672 166.41211 L 59.455078 166.41211 L 46.814453 138.41211 L 41.695312 138.41211 z M 62.941406 140.33203 L 62.941406 145.21289 L 59.421875 145.21289 L 59.421875 149.21289 L 62.941406 149.21289 L 62.941406 159.49219 C 62.941406 164.21219 65.622735 166.69141 70.302734 166.69141 C 72.102734 166.69141 73.901563 166.21195 75.101562 165.25195 L 73.701172 161.69141 C 72.941172 162.29141 71.942344 162.57227 70.902344 162.57227 C 68.982344 162.57227 67.941406 161.45109 67.941406 159.37109 L 67.941406 149.21289 L 73.662109 149.21289 L 73.662109 145.21289 L 67.941406 145.21289 L 67.941406 140.33203 L 62.941406 140.33203 z M 79.347656 140.33203 L 79.347656 145.21289 L 75.828125 145.21289 L 75.828125 149.21289 L 79.347656 149.21289 L 79.347656 159.49219 C 79.347656 164.21219 82.028985 166.69141 86.708984 166.69141 C 88.508984 166.69141 90.307813 166.21195 91.507812 165.25195 L 90.107422 161.69141 C 89.347422 162.29141 88.348594 162.57227 87.308594 162.57227 C 85.388594 162.57227 84.347656 161.45109 84.347656 159.37109 L 84.347656 149.21289 L 90.068359 149.21289 L 90.068359 145.21289 L 84.347656 145.21289 L 84.347656 140.33203 L 79.347656 140.33203 z M 147.86328 140.33203 L 147.86328 145.21289 L 144.34375 145.21289 L 144.34375 149.21289 L 147.86328 149.21289 L 147.86328 159.49219 C 147.86328 164.21219 150.54461 166.69141 155.22461 166.69141 C 157.02461 166.69141 158.82344 166.21195 160.02344 165.25195 L 158.62305 161.69141 C 157.86305 162.29141 156.86422 162.57227 155.82422 162.57227 C 153.90422 162.57227 152.86328 161.45109 152.86328 159.37109 L 152.86328 149.21289 L 158.58398 149.21289 L 158.58398 145.21289 L 152.86328 145.21289 L 152.86328 140.33203 L 147.86328 140.33203 z M 756.92578 140.33203 L 756.92578 145.21289 L 753.40625 145.21289 L 753.40625 149.21289 L 756.92578 149.21289 L 756.92578 159.49219 C 756.92578 164.21219 759.60711 166.69141 764.28711 166.69141 C 766.08711 166.69141 767.88594 166.21195 769.08594 165.25195 L 767.68555 161.69141 C 766.92555 162.29141 765.92672 162.57227 764.88672 162.57227 C 762.96672 162.57227 761.92578 161.45109 761.92578 159.37109 L 761.92578 149.21289 L 767.64648 149.21289 L 767.64648 145.21289 L 761.92578 145.21289 L 761.92578 140.33203 L 756.92578 140.33203 z M 44.214844 143.61133 L 49.494141 155.85156 L 38.974609 155.85156 L 44.214844 143.61133 z M 104.19727 144.8125 C 97.837266 144.8125 93.158203 149.37242 93.158203 155.73242 C 93.158203 162.09242 97.798985 166.69141 104.95898 166.69141 C 108.63898 166.69141 111.63859 165.49289 113.55859 163.21289 L 110.87891 160.13281 C 109.35891 161.69281 107.47812 162.45117 105.07812 162.45117 C 101.35813 162.45117 98.758203 160.45203 98.158203 157.33203 L 114.91797 157.33203 C 114.95797 156.85203 114.99805 156.25156 114.99805 155.85156 C 114.99805 149.17156 110.43727 144.8125 104.19727 144.8125 z M 131.88281 144.8125 C 128.76281 144.8125 126.16148 145.8525 124.52148 147.8125 L 124.52148 145.05273 L 119.76172 145.05273 L 119.76172 166.41211 L 124.76172 166.41211 L 124.76172 155.61133 C 124.76172 151.33133 127.16266 149.17188 130.72266 149.17188 C 133.92266 149.17188 135.80273 151.0125 135.80273 154.8125 L 135.80273 166.41211 L 140.80273 166.41211 L 140.80273 154.17188 C 140.80273 147.73188 137.00281 144.8125 131.88281 144.8125 z M 185.29883 144.8125 C 178.73883 144.8125 173.93945 149.33242 173.93945 155.73242 C 173.93945 162.13242 178.73883 166.69141 185.29883 166.69141 C 191.93883 166.69141 196.69922 162.13242 196.69922 155.73242 C 196.69922 149.33242 191.93883 144.8125 185.29883 144.8125 z M 213.60156 144.8125 C 210.48156 144.8125 207.88023 145.8525 206.24023 147.8125 L 206.24023 145.05273 L 201.48047 145.05273 L 201.48047 166.41211 L 206.48047 166.41211 L 206.48047 155.61133 C 206.48047 151.33133 208.88141 149.17188 212.44141 149.17188 C 215.64141 149.17188 217.52148 151.0125 217.52148 154.8125 L 217.52148 166.41211 L 222.52148 166.41211 L 222.52148 154.17188 C 222.52148 147.73188 218.72156 144.8125 213.60156 144.8125 z M 248.07812 144.8125 C 244.63813 144.8125 241.31906 145.69117 239.03906 147.45117 L 240.99805 151.0918 C 242.59805 149.7718 245.07852 148.97266 247.47852 148.97266 C 251.03852 148.97266 252.79883 150.69133 252.79883 153.61133 L 252.79883 153.93164 L 247.27734 153.93164 C 240.79734 153.93164 238.39844 156.73102 238.39844 160.29102 C 238.39844 164.01102 241.47742 166.69141 246.35742 166.69141 C 249.55742 166.69141 251.87813 165.6525 253.07812 163.8125 L 253.07812 166.41211 L 257.79883 166.41211 L 257.79883 153.89258 C 257.79883 147.73258 254.23812 144.8125 248.07812 144.8125 z M 314.61719 144.8125 C 311.49719 144.8125 308.89586 145.8525 307.25586 147.8125 L 307.25586 145.05273 L 302.49609 145.05273 L 302.49609 166.41211 L 307.49609 166.41211 L 307.49609 155.61133 C 307.49609 151.33133 309.89703 149.17188 313.45703 149.17188 C 316.65703 149.17188 318.53711 151.0125 318.53711 154.8125 L 318.53711 166.41211 L 323.53711 166.41211 L 323.53711 154.17188 C 323.53711 147.73188 319.73719 144.8125 314.61719 144.8125 z M 339.75195 144.8125 C 333.19195 144.8125 328.39258 149.33242 328.39258 155.73242 C 328.39258 162.13242 333.19195 166.69141 339.75195 166.69141 C 346.39195 166.69141 351.15234 162.13242 351.15234 155.73242 C 351.15234 149.33242 346.39195 144.8125 339.75195 144.8125 z M 367.69336 144.8125 C 364.77336 144.8125 362.29336 145.85148 360.69336 147.77148 L 360.69336 145.05273 L 355.93359 145.05273 L 355.93359 166.41211 L 360.93359 166.41211 L 360.93359 155.57227 C 360.93359 151.33227 363.17414 149.17188 366.49414 149.17188 C 369.53414 149.17188 371.29297 151.0125 371.29297 154.8125 L 371.29297 166.41211 L 376.29297 166.41211 L 376.29297 155.57227 C 376.29297 151.33227 378.57352 149.17188 381.85352 149.17188 C 384.89352 149.17188 386.6543 151.0125 386.6543 154.8125 L 386.6543 166.41211 L 391.6543 166.41211 L 391.6543 154.17188 C 391.6543 147.73188 388.05453 144.8125 382.89453 144.8125 C 379.49453 144.8125 376.61453 146.17109 374.89453 148.37109 C 373.41453 145.97109 370.81336 144.8125 367.69336 144.8125 z M 437.82422 144.8125 C 434.26422 144.8125 431.66461 145.93188 430.22461 148.17188 L 430.22461 145.05273 L 425.46484 145.05273 L 425.46484 166.41211 L 430.46484 166.41211 L 430.46484 156.05273 C 430.46484 151.69273 432.86406 149.45117 436.66406 149.45117 C 437.02406 149.45117 437.38422 149.49227 437.82422 149.57227 L 437.82422 144.8125 z M 451.15039 144.8125 C 444.79039 144.8125 440.11133 149.37242 440.11133 155.73242 C 440.11133 162.09242 444.75211 166.69141 451.91211 166.69141 C 455.59211 166.69141 458.59172 165.49289 460.51172 163.21289 L 457.83203 160.13281 C 456.31203 161.69281 454.43125 162.45117 452.03125 162.45117 C 448.31125 162.45117 445.71133 160.45203 445.11133 157.33203 L 461.87109 157.33203 C 461.91109 156.85203 461.95117 156.25156 461.95117 155.85156 C 461.95117 149.17156 457.39039 144.8125 451.15039 144.8125 z M 514.50977 144.8125 C 508.14977 144.8125 503.4707 149.37242 503.4707 155.73242 C 503.4707 162.09242 508.11148 166.69141 515.27148 166.69141 C 518.95148 166.69141 521.95109 165.49289 523.87109 163.21289 L 521.19141 160.13281 C 519.67141 161.69281 517.79062 162.45117 515.39062 162.45117 C 511.67063 162.45117 509.0707 160.45203 508.4707 157.33203 L 525.23047 157.33203 C 525.27047 156.85203 525.31055 156.25156 525.31055 155.85156 C 525.31055 149.17156 520.74977 144.8125 514.50977 144.8125 z M 550.89062 144.8125 C 544.13063 144.8125 539.33008 149.33242 539.33008 155.73242 C 539.33008 162.13242 544.13063 166.69141 550.89062 166.69141 C 555.05062 166.69141 558.36977 164.89141 560.00977 161.69141 L 556.16992 159.45117 C 554.88992 161.49117 552.96961 162.41211 550.84961 162.41211 C 547.16961 162.41211 544.36914 159.89242 544.36914 155.73242 C 544.36914 151.61242 547.16961 149.05273 550.84961 149.05273 C 552.96961 149.05273 554.88992 149.97172 556.16992 152.01172 L 560.00977 149.77148 C 558.36977 146.53148 555.05062 144.8125 550.89062 144.8125 z M 573.58008 144.8125 C 567.02008 144.8125 562.2207 149.33242 562.2207 155.73242 C 562.2207 162.13242 567.02008 166.69141 573.58008 166.69141 C 580.22008 166.69141 584.98047 162.13242 584.98047 155.73242 C 584.98047 149.33242 580.22008 144.8125 573.58008 144.8125 z M 637.86914 144.8125 C 631.50914 144.8125 626.83008 149.37242 626.83008 155.73242 C 626.83008 162.09242 631.47086 166.69141 638.63086 166.69141 C 642.31086 166.69141 645.31047 165.49289 647.23047 163.21289 L 644.55078 160.13281 C 643.03078 161.69281 641.15 162.45117 638.75 162.45117 C 635.03 162.45117 632.43008 160.45203 631.83008 157.33203 L 648.58984 157.33203 C 648.62984 156.85203 648.66992 156.25156 648.66992 155.85156 C 648.66992 149.17156 644.10914 144.8125 637.86914 144.8125 z M 693.05859 144.8125 C 689.49859 144.8125 686.89898 145.93188 685.45898 148.17188 L 685.45898 145.05273 L 680.69922 145.05273 L 680.69922 166.41211 L 685.69922 166.41211 L 685.69922 156.05273 C 685.69922 151.69273 688.09844 149.45117 691.89844 149.45117 C 692.25844 149.45117 692.61859 149.49227 693.05859 149.57227 L 693.05859 144.8125 z M 704.93945 144.8125 C 699.17945 144.8125 695.53906 147.45219 695.53906 151.49219 C 695.53906 160.01219 708.74023 156.17195 708.74023 160.25195 C 708.74023 161.73195 707.41977 162.61133 704.25977 162.61133 C 701.57977 162.61133 698.70031 161.73219 696.82031 160.49219 L 694.90039 164.29102 C 696.82039 165.65102 700.37945 166.69141 703.93945 166.69141 C 709.93945 166.69141 713.61914 164.0918 713.61914 160.0918 C 713.61914 151.7318 700.41992 155.57195 700.41992 151.25195 C 700.41992 149.85195 701.86039 148.85156 704.90039 148.85156 C 706.94039 148.85156 708.97953 149.25117 711.01953 150.45117 L 712.93945 146.65234 C 711.01945 145.49234 707.77945 144.8125 704.93945 144.8125 z M 815.48633 144.8125 C 809.72633 144.8125 806.08789 147.45219 806.08789 151.49219 C 806.08789 160.01219 819.28711 156.17195 819.28711 160.25195 C 819.28711 161.73195 817.96664 162.61133 814.80664 162.61133 C 812.12664 162.61133 809.24719 161.73219 807.36719 160.49219 L 805.44727 164.29102 C 807.36727 165.65102 810.92633 166.69141 814.48633 166.69141 C 820.48633 166.69141 824.16602 164.0918 824.16602 160.0918 C 824.16602 151.7318 810.9668 155.57195 810.9668 151.25195 C 810.9668 149.85195 812.40727 148.85156 815.44727 148.85156 C 817.48727 148.85156 819.52641 149.25117 821.56641 150.45117 L 823.48633 146.65234 C 821.56633 145.49234 818.32633 144.8125 815.48633 144.8125 z M 837.79102 144.8125 C 831.43102 144.8125 826.75195 149.37242 826.75195 155.73242 C 826.75195 162.09242 831.39273 166.69141 838.55273 166.69141 C 842.23273 166.69141 845.23234 165.49289 847.15234 163.21289 L 844.47266 160.13281 C 842.95266 161.69281 841.07187 162.45117 838.67188 162.45117 C 834.95188 162.45117 832.35195 160.45203 831.75195 157.33203 L 848.51172 157.33203 C 848.55172 156.85203 848.5918 156.25156 848.5918 155.85156 C 848.5918 149.17156 844.03102 144.8125 837.79102 144.8125 z M 862.63477 144.8125 C 856.27477 144.8125 851.5957 149.37242 851.5957 155.73242 C 851.5957 162.09242 856.23648 166.69141 863.39648 166.69141 C 867.07648 166.69141 870.07609 165.49289 871.99609 163.21289 L 869.31641 160.13281 C 867.79641 161.69281 865.91562 162.45117 863.51562 162.45117 C 859.79563 162.45117 857.1957 160.45203 856.5957 157.33203 L 873.35547 157.33203 C 873.39547 156.85203 873.43555 156.25156 873.43555 155.85156 C 873.43555 149.17156 868.87477 144.8125 862.63477 144.8125 z M 885.79883 144.8125 C 880.03883 144.8125 876.40039 147.45219 876.40039 151.49219 C 876.40039 160.01219 889.59961 156.17195 889.59961 160.25195 C 889.59961 161.73195 888.27914 162.61133 885.11914 162.61133 C 882.43914 162.61133 879.55969 161.73219 877.67969 160.49219 L 875.75977 164.29102 C 877.67977 165.65102 881.23883 166.69141 884.79883 166.69141 C 890.79883 166.69141 894.47852 164.0918 894.47852 160.0918 C 894.47852 151.7318 881.2793 155.57195 881.2793 151.25195 C 881.2793 149.85195 882.71977 148.85156 885.75977 148.85156 C 887.79977 148.85156 889.83891 149.25117 891.87891 150.45117 L 893.79883 146.65234 C 891.87883 145.49234 888.63883 144.8125 885.79883 144.8125 z M 929.40625 144.8125 C 922.64625 144.8125 917.8457 149.33242 917.8457 155.73242 C 917.8457 162.13242 922.64625 166.69141 929.40625 166.69141 C 933.56625 166.69141 936.88539 164.89141 938.52539 161.69141 L 934.68555 159.45117 C 933.40555 161.49117 931.48523 162.41211 929.36523 162.41211 C 925.68523 162.41211 922.88477 159.89242 922.88477 155.73242 C 922.88477 151.61242 925.68523 149.05273 929.36523 149.05273 C 931.48523 149.05273 933.40555 149.97172 934.68555 152.01172 L 938.52539 149.77148 C 936.88539 146.53148 933.56625 144.8125 929.40625 144.8125 z M 952.0957 144.8125 C 945.5357 144.8125 940.73633 149.33242 940.73633 155.73242 C 940.73633 162.13242 945.5357 166.69141 952.0957 166.69141 C 958.7357 166.69141 963.49609 162.13242 963.49609 155.73242 C 963.49609 149.33242 958.7357 144.8125 952.0957 144.8125 z M 980.39844 144.8125 C 977.27844 144.8125 974.67711 145.8525 973.03711 147.8125 L 973.03711 145.05273 L 968.27734 145.05273 L 968.27734 166.41211 L 973.27734 166.41211 L 973.27734 155.61133 C 973.27734 151.33133 975.67828 149.17188 979.23828 149.17188 C 982.43828 149.17188 984.31836 151.0125 984.31836 154.8125 L 984.31836 166.41211 L 989.31836 166.41211 L 989.31836 154.17188 C 989.31836 147.73188 985.51844 144.8125 980.39844 144.8125 z M 1003.2988 144.8125 C 997.53883 144.8125 993.89844 147.45219 993.89844 151.49219 C 993.89844 160.01219 1007.0996 156.17195 1007.0996 160.25195 C 1007.0996 161.73195 1005.7791 162.61133 1002.6191 162.61133 C 999.93914 162.61133 997.05969 161.73219 995.17969 160.49219 L 993.25977 164.29102 C 995.17977 165.65102 998.73883 166.69141 1002.2988 166.69141 C 1008.2988 166.69141 1011.9785 164.0918 1011.9785 160.0918 C 1011.9785 151.7318 998.7793 155.57195 998.7793 151.25195 C 998.7793 149.85195 1000.2198 148.85156 1003.2598 148.85156 C 1005.2998 148.85156 1007.3389 149.25117 1009.3789 150.45117 L 1011.2988 146.65234 C 1009.3788 145.49234 1006.1388 144.8125 1003.2988 144.8125 z M 1025.6035 144.8125 C 1019.2435 144.8125 1014.5645 149.37242 1014.5645 155.73242 C 1014.5645 162.09242 1019.2052 166.69141 1026.3652 166.69141 C 1030.0452 166.69141 1033.0448 165.49289 1034.9648 163.21289 L 1032.2852 160.13281 C 1030.7652 161.69281 1028.8844 162.45117 1026.4844 162.45117 C 1022.7644 162.45117 1020.1645 160.45203 1019.5645 157.33203 L 1036.3242 157.33203 C 1036.3642 156.85203 1036.4043 156.25156 1036.4043 155.85156 C 1036.4043 149.17156 1031.8435 144.8125 1025.6035 144.8125 z M 1053.5273 144.8125 C 1049.9673 144.8125 1047.3677 145.93188 1045.9277 148.17188 L 1045.9277 145.05273 L 1041.168 145.05273 L 1041.168 166.41211 L 1046.168 166.41211 L 1046.168 156.05273 C 1046.168 151.69273 1048.5672 149.45117 1052.3672 149.45117 C 1052.7272 149.45117 1053.0873 149.49227 1053.5273 149.57227 L 1053.5273 144.8125 z M 1090.3691 144.8125 C 1084.0091 144.8125 1079.3301 149.37242 1079.3301 155.73242 C 1079.3301 162.09242 1083.9709 166.69141 1091.1309 166.69141 C 1094.8109 166.69141 1097.8105 165.49289 1099.7305 163.21289 L 1097.0508 160.13281 C 1095.5308 161.69281 1093.65 162.45117 1091.25 162.45117 C 1087.53 162.45117 1084.9301 160.45203 1084.3301 157.33203 L 1101.0898 157.33203 C 1101.1298 156.85203 1101.1699 156.25156 1101.1699 155.85156 C 1101.1699 149.17156 1096.6091 144.8125 1090.3691 144.8125 z M 1118.293 144.8125 C 1114.733 144.8125 1112.1334 145.93188 1110.6934 148.17188 L 1110.6934 145.05273 L 1105.9336 145.05273 L 1105.9336 166.41211 L 1110.9336 166.41211 L 1110.9336 156.05273 C 1110.9336 151.69273 1113.3348 149.45117 1117.1348 149.45117 C 1117.4948 149.45117 1117.853 149.49227 1118.293 149.57227 L 1118.293 144.8125 z M 164.13672 145.05273 L 164.13672 166.41211 L 169.13672 166.41211 L 169.13672 145.05273 L 164.13672 145.05273 z M 264.05469 145.05273 L 264.05469 157.25195 C 264.05469 163.69195 267.77586 166.69141 273.25586 166.69141 C 276.01586 166.69141 278.53477 165.65141 280.13477 163.69141 L 280.13477 166.41211 L 284.89453 166.41211 L 284.89453 145.05273 L 279.89453 145.05273 L 279.89453 155.85156 C 279.89453 160.13156 277.53469 162.29102 274.05469 162.29102 C 270.89469 162.29102 269.05469 160.45227 269.05469 156.57227 L 269.05469 145.05273 L 264.05469 145.05273 z M 589.60156 145.05273 L 589.60156 157.25195 C 589.60156 163.69195 593.32273 166.69141 598.80273 166.69141 C 601.56273 166.69141 604.08164 165.65141 605.68164 163.69141 L 605.68164 166.41211 L 610.44141 166.41211 L 610.44141 145.05273 L 605.44141 145.05273 L 605.44141 155.85156 C 605.44141 160.13156 603.08156 162.29102 599.60156 162.29102 C 596.44156 162.29102 594.60156 160.45227 594.60156 156.57227 L 594.60156 145.05273 L 589.60156 145.05273 z M 653.27344 145.05273 L 653.27344 157.25195 C 653.27344 163.69195 656.99461 166.69141 662.47461 166.69141 C 665.23461 166.69141 667.75352 165.65141 669.35352 163.69141 L 669.35352 166.41211 L 674.11328 166.41211 L 674.11328 145.05273 L 669.11328 145.05273 L 669.11328 155.85156 C 669.11328 160.13156 666.75344 162.29102 663.27344 162.29102 C 660.11344 162.29102 658.27344 160.45227 658.27344 156.57227 L 658.27344 145.05273 L 653.27344 145.05273 z M 728.82031 145.05273 L 728.82031 157.25195 C 728.82031 163.69195 732.54148 166.69141 738.02148 166.69141 C 740.78148 166.69141 743.30039 165.65141 744.90039 163.69141 L 744.90039 166.41211 L 749.66016 166.41211 L 749.66016 145.05273 L 744.66016 145.05273 L 744.66016 155.85156 C 744.66016 160.13156 742.30031 162.29102 738.82031 162.29102 C 735.66031 162.29102 733.82031 160.45227 733.82031 156.57227 L 733.82031 145.05273 L 728.82031 145.05273 z M 773.19922 145.05273 L 773.19922 166.41211 L 778.19922 166.41211 L 778.19922 145.05273 L 773.19922 145.05273 z M 796.32422 145.05273 L 796.32422 166.41211 L 801.32422 166.41211 L 801.32422 145.05273 L 796.32422 145.05273 z M 1055.1094 145.05273 L 1064.2695 166.41211 L 1069.4297 166.41211 L 1078.5898 145.05273 L 1073.791 145.05273 L 1066.9492 160.89258 L 1060.3105 145.05273 L 1055.1094 145.05273 z M 104.19727 148.8125 C 107.47727 148.8125 109.83828 150.93172 110.23828 154.01172 L 98.119141 154.01172 C 98.599141 150.89172 100.95727 148.8125 104.19727 148.8125 z M 451.15039 148.8125 C 454.43039 148.8125 456.79141 150.93172 457.19141 154.01172 L 445.07227 154.01172 C 445.55227 150.89172 447.91039 148.8125 451.15039 148.8125 z M 514.50977 148.8125 C 517.78977 148.8125 520.15078 150.93172 520.55078 154.01172 L 508.42969 154.01172 C 508.90969 150.89172 511.26977 148.8125 514.50977 148.8125 z M 637.86914 148.8125 C 641.14914 148.8125 643.51016 150.93172 643.91016 154.01172 L 631.79102 154.01172 C 632.27102 150.89172 634.62914 148.8125 637.86914 148.8125 z M 837.79102 148.8125 C 841.07102 148.8125 843.43203 150.93172 843.83203 154.01172 L 831.71289 154.01172 C 832.19289 150.89172 834.55102 148.8125 837.79102 148.8125 z M 862.63477 148.8125 C 865.91477 148.8125 868.27578 150.93172 868.67578 154.01172 L 856.55664 154.01172 C 857.03664 150.89172 859.39477 148.8125 862.63477 148.8125 z M 1025.6035 148.8125 C 1028.8835 148.8125 1031.2445 150.93172 1031.6445 154.01172 L 1019.5234 154.01172 C 1020.0034 150.89172 1022.3635 148.8125 1025.6035 148.8125 z M 1090.3691 148.8125 C 1093.6491 148.8125 1096.0102 150.93172 1096.4102 154.01172 L 1084.291 154.01172 C 1084.771 150.89172 1087.1291 148.8125 1090.3691 148.8125 z M 185.29883 149.05273 C 188.93883 149.05273 191.66016 151.65242 191.66016 155.73242 C 191.66016 159.81242 188.93883 162.41211 185.29883 162.41211 C 181.69883 162.41211 178.97852 159.81242 178.97852 155.73242 C 178.97852 151.65242 181.69883 149.05273 185.29883 149.05273 z M 339.75195 149.05273 C 343.39195 149.05273 346.11328 151.65242 346.11328 155.73242 C 346.11328 159.81242 343.39195 162.41211 339.75195 162.41211 C 336.15195 162.41211 333.43164 159.81242 333.43164 155.73242 C 333.43164 151.65242 336.15195 149.05273 339.75195 149.05273 z M 409.32227 149.05273 C 412.92227 149.05273 415.64258 151.65242 415.64258 155.73242 C 415.64258 159.81242 412.92227 162.41211 409.32227 162.41211 C 405.72227 162.41211 402.96289 159.81242 402.96289 155.73242 C 402.96289 151.65242 405.72227 149.05273 409.32227 149.05273 z M 487.37109 149.05273 C 490.97109 149.05273 493.73047 151.65242 493.73047 155.73242 C 493.73047 159.81242 490.97109 162.41211 487.37109 162.41211 C 483.77109 162.41211 481.00977 159.81242 481.00977 155.73242 C 481.00977 151.65242 483.77109 149.05273 487.37109 149.05273 z M 573.58008 149.05273 C 577.22008 149.05273 579.94141 151.65242 579.94141 155.73242 C 579.94141 159.81242 577.22008 162.41211 573.58008 162.41211 C 569.98008 162.41211 567.25977 159.81242 567.25977 155.73242 C 567.25977 151.65242 569.98008 149.05273 573.58008 149.05273 z M 952.0957 149.05273 C 955.7357 149.05273 958.45703 151.65242 958.45703 155.73242 C 958.45703 159.81242 955.7357 162.41211 952.0957 162.41211 C 948.4957 162.41211 945.77539 159.81242 945.77539 155.73242 C 945.77539 151.65242 948.4957 149.05273 952.0957 149.05273 z M 247.63867 157.25195 L 252.79883 157.25195 L 252.79883 159.73242 C 251.95883 161.93242 249.83844 163.05273 247.39844 163.05273 C 244.83844 163.05273 243.31836 161.8918 243.31836 160.0918 C 243.31836 158.5318 244.23867 157.25195 247.63867 157.25195 z M 900.46484 160.05273 C 898.62484 160.05273 897.22461 161.37109 897.22461 163.37109 C 897.22461 164.81109 897.98352 165.85203 899.10352 166.33203 L 897.50391 172.45117 L 900.74414 172.45117 L 902.78516 166.8125 C 903.50516 164.9725 903.70508 164.25109 903.70508 163.37109 C 903.70508 161.41109 902.34484 160.05273 900.46484 160.05273 z M 180.5625 175.53125 C 178.7225 175.53125 177.36328 176.85125 177.36328 178.53125 C 177.36328 180.21125 178.7225 181.53125 180.5625 181.53125 C 182.4425 181.53125 183.76367 180.17211 183.76367 178.41211 C 183.76367 176.77211 182.4025 175.53125 180.5625 175.53125 z M 452.90625 175.53125 C 451.06625 175.53125 449.70703 176.85125 449.70703 178.53125 C 449.70703 180.21125 451.06625 181.53125 452.90625 181.53125 C 454.78625 181.53125 456.10742 180.17211 456.10742 178.41211 C 456.10742 176.77211 454.74625 175.53125 452.90625 175.53125 z M 834.625 175.53125 C 832.785 175.53125 831.42578 176.85125 831.42578 178.53125 C 831.42578 180.21125 832.785 181.53125 834.625 181.53125 C 836.505 181.53125 837.82617 180.17211 837.82617 178.41211 C 837.82617 176.77211 836.465 175.53125 834.625 175.53125 z M 217.05469 176.65234 L 211.65625 182.13281 L 215.97656 182.13281 L 222.93555 176.65234 L 217.05469 176.65234 z M 854.86719 176.65234 L 849.46875 182.13281 L 853.78906 182.13281 L 860.74805 176.65234 L 854.86719 176.65234 z M 1012.7988 176.65234 L 1019.7598 182.13281 L 1024.0781 182.13281 L 1018.6797 176.65234 L 1012.7988 176.65234 z M 385.30859 176.73242 L 385.30859 206.41211 L 390.30859 206.41211 L 390.30859 176.73242 L 385.30859 176.73242 z M 729.05859 176.73242 L 729.05859 206.41211 L 734.05859 206.41211 L 734.05859 176.73242 L 729.05859 176.73242 z M 820.54297 176.73242 L 820.54297 206.41211 L 825.54297 206.41211 L 825.54297 176.73242 L 820.54297 176.73242 z M 983.90234 176.73242 L 983.90234 206.41211 L 988.90234 206.41211 L 988.90234 195.61133 C 988.90234 191.33133 991.30328 189.17188 994.86328 189.17188 C 998.06328 189.17188 999.94336 191.0125 999.94336 194.8125 L 999.94336 206.41211 L 1004.9434 206.41211 L 1004.9434 194.17188 C 1004.9434 187.73188 1001.1434 184.8125 996.02344 184.8125 C 993.06344 184.8125 990.54234 185.77125 988.90234 187.53125 L 988.90234 176.73242 L 983.90234 176.73242 z M 562.74219 178.41211 L 562.74219 206.41211 L 583.74219 206.41211 L 583.74219 202.05273 L 567.94141 202.05273 L 567.94141 194.33203 L 581.46289 194.33203 L 581.46289 190.05273 L 567.94141 190.05273 L 567.94141 182.77148 L 583.18164 182.77148 L 583.18164 178.41211 L 562.74219 178.41211 z M 190.28516 180.33203 L 190.28516 185.21289 L 186.76562 185.21289 L 186.76562 189.21289 L 190.28516 189.21289 L 190.28516 199.49219 C 190.28516 204.21219 192.96648 206.69141 197.64648 206.69141 C 199.44648 206.69141 201.24531 206.21195 202.44531 205.25195 L 201.04492 201.69141 C 200.28492 202.29141 199.28609 202.57227 198.24609 202.57227 C 196.32609 202.57227 195.28516 201.45109 195.28516 199.37109 L 195.28516 189.21289 L 201.00586 189.21289 L 201.00586 185.21289 L 195.28516 185.21289 L 195.28516 180.33203 L 190.28516 180.33203 z M 267.23828 180.33203 L 267.23828 185.21289 L 263.71875 185.21289 L 263.71875 189.21289 L 267.23828 189.21289 L 267.23828 199.49219 C 267.23828 204.21219 269.91961 206.69141 274.59961 206.69141 C 276.39961 206.69141 278.19844 206.21195 279.39844 205.25195 L 277.99805 201.69141 C 277.23805 202.29141 276.23922 202.57227 275.19922 202.57227 C 273.27922 202.57227 272.23828 201.45109 272.23828 199.37109 L 272.23828 189.21289 L 277.95898 189.21289 L 277.95898 185.21289 L 272.23828 185.21289 L 272.23828 180.33203 L 267.23828 180.33203 z M 967.62891 180.33203 L 967.62891 185.21289 L 964.10938 185.21289 L 964.10938 189.21289 L 967.62891 189.21289 L 967.62891 199.49219 C 967.62891 204.21219 970.31023 206.69141 974.99023 206.69141 C 976.79023 206.69141 978.58906 206.21195 979.78906 205.25195 L 978.38867 201.69141 C 977.62867 202.29141 976.62984 202.57227 975.58984 202.57227 C 973.66984 202.57227 972.62891 201.45109 972.62891 199.37109 L 972.62891 189.21289 L 978.34961 189.21289 L 978.34961 185.21289 L 972.62891 185.21289 L 972.62891 180.33203 L 967.62891 180.33203 z M 71.960938 184.8125 C 68.840938 184.8125 66.239609 185.8525 64.599609 187.8125 L 64.599609 185.05273 L 59.839844 185.05273 L 59.839844 206.41211 L 64.839844 206.41211 L 64.839844 195.61133 C 64.839844 191.33133 67.240781 189.17188 70.800781 189.17188 C 74.000781 189.17188 75.880859 191.0125 75.880859 194.8125 L 75.880859 206.41211 L 80.880859 206.41211 L 80.880859 194.17188 C 80.880859 187.73188 77.080937 184.8125 71.960938 184.8125 z M 96.775391 184.8125 C 90.415391 184.8125 85.736328 189.37242 85.736328 195.73242 C 85.736328 202.09242 90.37711 206.69141 97.537109 206.69141 C 101.21711 206.69141 104.21672 205.49289 106.13672 203.21289 L 103.45703 200.13281 C 101.93703 201.69281 100.05625 202.45117 97.65625 202.45117 C 93.93625 202.45117 91.336328 200.45203 90.736328 197.33203 L 107.49609 197.33203 C 107.53609 196.85203 107.57617 196.25156 107.57617 195.85156 C 107.57617 189.17156 103.01539 184.8125 96.775391 184.8125 z M 162.74219 184.8125 C 159.62219 184.8125 157.02086 185.8525 155.38086 187.8125 L 155.38086 185.05273 L 150.62109 185.05273 L 150.62109 206.41211 L 155.62109 206.41211 L 155.62109 195.61133 C 155.62109 191.33133 158.02203 189.17188 161.58203 189.17188 C 164.78203 189.17188 166.66211 191.0125 166.66211 194.8125 L 166.66211 206.41211 L 171.66211 206.41211 L 171.66211 194.17188 C 171.66211 187.73188 167.86219 184.8125 162.74219 184.8125 z M 215.13477 184.8125 C 208.77477 184.8125 204.0957 189.37242 204.0957 195.73242 C 204.0957 202.09242 208.73648 206.69141 215.89648 206.69141 C 219.57648 206.69141 222.57609 205.49289 224.49609 203.21289 L 221.81641 200.13281 C 220.29641 201.69281 218.41562 202.45117 216.01562 202.45117 C 212.29563 202.45117 209.6957 200.45203 209.0957 197.33203 L 225.85547 197.33203 C 225.89547 196.85203 225.93555 196.25156 225.93555 195.85156 C 225.93555 189.17156 221.37477 184.8125 215.13477 184.8125 z M 250.99414 184.8125 C 244.63414 184.8125 239.95508 189.37242 239.95508 195.73242 C 239.95508 202.09242 244.59586 206.69141 251.75586 206.69141 C 255.43586 206.69141 258.43547 205.49289 260.35547 203.21289 L 257.67578 200.13281 C 256.15578 201.69281 254.275 202.45117 251.875 202.45117 C 248.155 202.45117 245.55508 200.45203 244.95508 197.33203 L 261.71484 197.33203 C 261.75484 196.85203 261.79492 196.25156 261.79492 195.85156 C 261.79492 189.17156 257.23414 184.8125 250.99414 184.8125 z M 333.91406 184.8125 C 330.79406 184.8125 328.19273 185.8525 326.55273 187.8125 L 326.55273 185.05273 L 321.79297 185.05273 L 321.79297 206.41211 L 326.79297 206.41211 L 326.79297 195.61133 C 326.79297 191.33133 329.19391 189.17188 332.75391 189.17188 C 335.95391 189.17188 337.83398 191.0125 337.83398 194.8125 L 337.83398 206.41211 L 342.83398 206.41211 L 342.83398 194.17188 C 342.83398 187.73188 339.03406 184.8125 333.91406 184.8125 z M 358.72852 184.8125 C 352.36852 184.8125 347.68945 189.37242 347.68945 195.73242 C 347.68945 202.09242 352.33023 206.69141 359.49023 206.69141 C 363.17023 206.69141 366.16984 205.49289 368.08984 203.21289 L 365.41016 200.13281 C 363.89016 201.69281 362.00937 202.45117 359.60938 202.45117 C 355.88938 202.45117 353.28945 200.45203 352.68945 197.33203 L 369.44922 197.33203 C 369.48922 196.85203 369.5293 196.25156 369.5293 195.85156 C 369.5293 189.17156 364.96852 184.8125 358.72852 184.8125 z M 406.4707 184.8125 C 399.9107 184.8125 395.11133 189.33242 395.11133 195.73242 C 395.11133 202.13242 399.9107 206.69141 406.4707 206.69141 C 413.1107 206.69141 417.87109 202.13242 417.87109 195.73242 C 417.87109 189.33242 413.1107 184.8125 406.4707 184.8125 z M 431.69336 184.8125 C 425.57336 184.8125 420.89258 188.8918 420.89258 195.0918 C 420.89258 201.2918 425.57336 205.45117 431.69336 205.45117 C 434.57336 205.45117 437.09156 204.53133 438.85156 202.61133 L 438.85156 203.73242 C 438.85156 208.05242 436.77273 210.21289 432.05273 210.21289 C 429.09273 210.21289 426.05187 209.21234 424.17188 207.65234 L 421.93164 211.41211 C 424.37164 213.41211 428.33203 214.45117 432.33203 214.45117 C 439.81203 214.45117 443.85156 210.93187 443.85156 203.17188 L 443.85156 185.05273 L 439.0918 185.05273 L 439.0918 187.89258 C 437.3318 185.77258 434.69336 184.8125 431.69336 184.8125 z M 470.99023 184.8125 C 464.75023 184.8125 460.18945 189.13242 460.18945 195.73242 C 460.18945 202.37242 464.75023 206.69141 470.99023 206.69141 C 473.71023 206.69141 476.11008 205.7725 477.83008 203.8125 L 477.83008 214.17188 L 482.83008 214.17188 L 482.83008 185.05273 L 478.07031 185.05273 L 478.07031 187.85156 C 476.39031 185.81156 473.91023 184.8125 470.99023 184.8125 z M 525.91602 184.8125 C 519.55602 184.8125 514.87695 189.37242 514.87695 195.73242 C 514.87695 202.09242 519.51773 206.69141 526.67773 206.69141 C 530.35773 206.69141 533.35734 205.49289 535.27734 203.21289 L 532.59766 200.13281 C 531.07766 201.69281 529.19687 202.45117 526.79688 202.45117 C 523.07688 202.45117 520.47695 200.45203 519.87695 197.33203 L 536.63672 197.33203 C 536.67672 196.85203 536.7168 196.25156 536.7168 195.85156 C 536.7168 189.17156 532.15602 184.8125 525.91602 184.8125 z M 633.93945 184.8125 C 632.13945 184.8125 630.66016 186.13281 630.66016 188.13281 C 630.66016 190.05281 632.13945 191.45117 633.93945 191.45117 C 635.73945 191.45117 637.2207 190.05281 637.2207 188.13281 C 637.2207 186.13281 635.73945 184.8125 633.93945 184.8125 z M 662.92188 184.8125 C 656.16188 184.8125 651.36133 189.33242 651.36133 195.73242 C 651.36133 202.13242 656.16188 206.69141 662.92188 206.69141 C 667.08187 206.69141 670.40102 204.89141 672.04102 201.69141 L 668.20117 199.45117 C 666.92117 201.49117 665.00086 202.41211 662.88086 202.41211 C 659.20086 202.41211 656.40039 199.89242 656.40039 195.73242 C 656.40039 191.61242 659.20086 189.05273 662.88086 189.05273 C 665.00086 189.05273 666.92117 189.97172 668.20117 192.01172 L 672.04102 189.77148 C 670.40102 186.53148 667.08187 184.8125 662.92188 184.8125 z M 685.61133 184.8125 C 679.05133 184.8125 674.25195 189.33242 674.25195 195.73242 C 674.25195 202.13242 679.05133 206.69141 685.61133 206.69141 C 692.25133 206.69141 697.01172 202.13242 697.01172 195.73242 C 697.01172 189.33242 692.25133 184.8125 685.61133 184.8125 z M 749.90039 184.8125 C 743.54039 184.8125 738.86133 189.37242 738.86133 195.73242 C 738.86133 202.09242 743.50211 206.69141 750.66211 206.69141 C 754.34211 206.69141 757.34172 205.49289 759.26172 203.21289 L 756.58203 200.13281 C 755.06203 201.69281 753.18125 202.45117 750.78125 202.45117 C 747.06125 202.45117 744.46133 200.45203 743.86133 197.33203 L 760.62109 197.33203 C 760.66109 196.85203 760.70117 196.25156 760.70117 195.85156 C 760.70117 189.17156 756.14039 184.8125 749.90039 184.8125 z M 805.08984 184.8125 C 801.52984 184.8125 798.93023 185.93188 797.49023 188.17188 L 797.49023 185.05273 L 792.73047 185.05273 L 792.73047 206.41211 L 797.73047 206.41211 L 797.73047 196.05273 C 797.73047 191.69273 800.12969 189.45117 803.92969 189.45117 C 804.28969 189.45117 804.64984 189.49227 805.08984 189.57227 L 805.08984 184.8125 z M 852.94727 184.8125 C 846.58727 184.8125 841.9082 189.37242 841.9082 195.73242 C 841.9082 202.09242 846.54898 206.69141 853.70898 206.69141 C 857.38898 206.69141 860.38859 205.49289 862.30859 203.21289 L 859.62891 200.13281 C 858.10891 201.69281 856.22812 202.45117 853.82812 202.45117 C 850.10813 202.45117 847.5082 200.45203 846.9082 197.33203 L 863.66797 197.33203 C 863.70797 196.85203 863.74805 196.25156 863.74805 195.85156 C 863.74805 189.17156 859.18727 184.8125 852.94727 184.8125 z M 877.79102 184.8125 C 871.43102 184.8125 866.75195 189.37242 866.75195 195.73242 C 866.75195 202.09242 871.39273 206.69141 878.55273 206.69141 C 882.23273 206.69141 885.23234 205.49289 887.15234 203.21289 L 884.47266 200.13281 C 882.95266 201.69281 881.07187 202.45117 878.67188 202.45117 C 874.95188 202.45117 872.35195 200.45203 871.75195 197.33203 L 888.51172 197.33203 C 888.55172 196.85203 888.5918 196.25156 888.5918 195.85156 C 888.5918 189.17156 884.03102 184.8125 877.79102 184.8125 z M 912.53125 184.8125 C 909.09125 184.8125 905.77219 185.69117 903.49219 187.45117 L 905.45117 191.0918 C 907.05117 189.7718 909.53164 188.97266 911.93164 188.97266 C 915.49164 188.97266 917.25195 190.69133 917.25195 193.61133 L 917.25195 193.93164 L 911.73047 193.93164 C 905.25047 193.93164 902.85156 196.73102 902.85156 200.29102 C 902.85156 204.01102 905.93055 206.69141 910.81055 206.69141 C 914.01055 206.69141 916.33125 205.6525 917.53125 203.8125 L 917.53125 206.41211 L 922.25195 206.41211 L 922.25195 193.89258 C 922.25195 187.73258 918.69125 184.8125 912.53125 184.8125 z M 1020.8379 184.8125 C 1014.4779 184.8125 1009.7988 189.37242 1009.7988 195.73242 C 1009.7988 202.09242 1014.4396 206.69141 1021.5996 206.69141 C 1025.2796 206.69141 1028.2792 205.49289 1030.1992 203.21289 L 1027.5195 200.13281 C 1025.9995 201.69281 1024.1187 202.45117 1021.7188 202.45117 C 1017.9988 202.45117 1015.3988 200.45203 1014.7988 197.33203 L 1031.5586 197.33203 C 1031.5986 196.85203 1031.6387 196.25156 1031.6387 195.85156 C 1031.6387 189.17156 1027.0779 184.8125 1020.8379 184.8125 z M 1048.1621 184.8125 C 1045.2421 184.8125 1042.7621 185.85148 1041.1621 187.77148 L 1041.1621 185.05273 L 1036.4023 185.05273 L 1036.4023 206.41211 L 1041.4023 206.41211 L 1041.4023 195.57227 C 1041.4023 191.33227 1043.6429 189.17188 1046.9629 189.17188 C 1050.0029 189.17188 1051.7617 191.0125 1051.7617 194.8125 L 1051.7617 206.41211 L 1056.7617 206.41211 L 1056.7617 195.57227 C 1056.7617 191.33227 1059.0423 189.17188 1062.3223 189.17188 C 1065.3623 189.17188 1067.123 191.0125 1067.123 194.8125 L 1067.123 206.41211 L 1072.123 206.41211 L 1072.123 194.17188 C 1072.123 187.73188 1068.5233 184.8125 1063.3633 184.8125 C 1059.9633 184.8125 1057.0833 186.17109 1055.3633 188.37109 C 1053.8833 185.97109 1051.2821 184.8125 1048.1621 184.8125 z M 1088.0254 184.8125 C 1081.6654 184.8125 1076.9863 189.37242 1076.9863 195.73242 C 1076.9863 202.09242 1081.6271 206.69141 1088.7871 206.69141 C 1092.4671 206.69141 1095.4667 205.49289 1097.3867 203.21289 L 1094.707 200.13281 C 1093.187 201.69281 1091.3062 202.45117 1088.9062 202.45117 C 1085.1863 202.45117 1082.5863 200.45203 1081.9863 197.33203 L 1098.7461 197.33203 C 1098.7861 196.85203 1098.8262 196.25156 1098.8262 195.85156 C 1098.8262 189.17156 1094.2654 184.8125 1088.0254 184.8125 z M 32.414062 185.05273 L 32.414062 197.25195 C 32.414062 203.69195 36.135235 206.69141 41.615234 206.69141 C 44.375234 206.69141 46.894141 205.65141 48.494141 203.69141 L 48.494141 206.41211 L 53.253906 206.41211 L 53.253906 185.05273 L 48.253906 185.05273 L 48.253906 195.85156 C 48.253906 200.13156 45.894062 202.29102 42.414062 202.29102 C 39.254063 202.29102 37.414062 200.45227 37.414062 196.57227 L 37.414062 185.05273 L 32.414062 185.05273 z M 123.19531 185.05273 L 123.19531 197.25195 C 123.19531 203.69195 126.91648 206.69141 132.39648 206.69141 C 135.15648 206.69141 137.67539 205.65141 139.27539 203.69141 L 139.27539 206.41211 L 144.03516 206.41211 L 144.03516 185.05273 L 139.03516 185.05273 L 139.03516 195.85156 C 139.03516 200.13156 136.67531 202.29102 133.19531 202.29102 C 130.03531 202.29102 128.19531 200.45227 128.19531 196.57227 L 128.19531 185.05273 L 123.19531 185.05273 z M 178.04297 185.05273 L 178.04297 206.41211 L 183.04297 206.41211 L 183.04297 185.05273 L 178.04297 185.05273 z M 294.36719 185.05273 L 294.36719 197.25195 C 294.36719 203.69195 298.08836 206.69141 303.56836 206.69141 C 306.32836 206.69141 308.84727 205.65141 310.44727 203.69141 L 310.44727 206.41211 L 315.20703 206.41211 L 315.20703 185.05273 L 310.20703 185.05273 L 310.20703 195.85156 C 310.20703 200.13156 307.84719 202.29102 304.36719 202.29102 C 301.20719 202.29102 299.36719 200.45227 299.36719 196.57227 L 299.36719 185.05273 L 294.36719 185.05273 z M 450.38672 185.05273 L 450.38672 206.41211 L 455.38672 206.41211 L 455.38672 185.05273 L 450.38672 185.05273 z M 489.21094 185.05273 L 489.21094 197.25195 C 489.21094 203.69195 492.93211 206.69141 498.41211 206.69141 C 501.17211 206.69141 503.69102 205.65141 505.29102 203.69141 L 505.29102 206.41211 L 510.05078 206.41211 L 510.05078 185.05273 L 505.05078 185.05273 L 505.05078 195.85156 C 505.05078 200.13156 502.69094 202.29102 499.21094 202.29102 C 496.05094 202.29102 494.21094 200.45227 494.21094 196.57227 L 494.21094 185.05273 L 489.21094 185.05273 z M 586.10742 185.05273 L 594.06836 195.57227 L 585.74805 206.41211 L 591.26758 206.41211 L 596.78906 199.01172 L 602.26758 206.41211 L 607.9082 206.41211 L 599.54883 195.49219 L 607.54883 185.05273 L 602.14844 185.05273 L 596.9082 192.05273 L 591.66797 185.05273 L 586.10742 185.05273 z M 701.63281 185.05273 L 701.63281 197.25195 C 701.63281 203.69195 705.35398 206.69141 710.83398 206.69141 C 713.59398 206.69141 716.11289 205.65141 717.71289 203.69141 L 717.71289 206.41211 L 722.47266 206.41211 L 722.47266 185.05273 L 717.47266 185.05273 L 717.47266 195.85156 C 717.47266 200.13156 715.11281 202.29102 711.63281 202.29102 C 708.47281 202.29102 706.63281 200.45227 706.63281 196.57227 L 706.63281 185.05273 L 701.63281 185.05273 z M 765.30469 185.05273 L 765.30469 197.25195 C 765.30469 203.69195 769.02586 206.69141 774.50586 206.69141 C 777.26586 206.69141 779.78477 205.65141 781.38477 203.69141 L 781.38477 206.41211 L 786.14453 206.41211 L 786.14453 185.05273 L 781.14453 185.05273 L 781.14453 195.85156 C 781.14453 200.13156 778.78469 202.29102 775.30469 202.29102 C 772.14469 202.29102 770.30469 200.45227 770.30469 196.57227 L 770.30469 185.05273 L 765.30469 185.05273 z M 832.10547 185.05273 L 832.10547 206.41211 L 837.10547 206.41211 L 837.10547 185.05273 L 832.10547 185.05273 z M 928.50781 185.05273 L 928.50781 197.25195 C 928.50781 203.69195 932.22898 206.69141 937.70898 206.69141 C 940.46898 206.69141 942.98789 205.65141 944.58789 203.69141 L 944.58789 206.41211 L 949.34766 206.41211 L 949.34766 185.05273 L 944.34766 185.05273 L 944.34766 195.85156 C 944.34766 200.13156 941.98781 202.29102 938.50781 202.29102 C 935.34781 202.29102 933.50781 200.45227 933.50781 196.57227 L 933.50781 185.05273 L 928.50781 185.05273 z M 96.775391 188.8125 C 100.05539 188.8125 102.41641 190.93172 102.81641 194.01172 L 90.697266 194.01172 C 91.177266 190.89172 93.535391 188.8125 96.775391 188.8125 z M 215.13477 188.8125 C 218.41477 188.8125 220.77578 190.93172 221.17578 194.01172 L 209.05664 194.01172 C 209.53664 190.89172 211.89477 188.8125 215.13477 188.8125 z M 250.99414 188.8125 C 254.27414 188.8125 256.63516 190.93172 257.03516 194.01172 L 244.91602 194.01172 C 245.39602 190.89172 247.75414 188.8125 250.99414 188.8125 z M 358.72852 188.8125 C 362.00852 188.8125 364.36953 190.93172 364.76953 194.01172 L 352.65039 194.01172 C 353.13039 190.89172 355.48852 188.8125 358.72852 188.8125 z M 525.91602 188.8125 C 529.19602 188.8125 531.55703 190.93172 531.95703 194.01172 L 519.83789 194.01172 C 520.31789 190.89172 522.67602 188.8125 525.91602 188.8125 z M 749.90039 188.8125 C 753.18039 188.8125 755.54141 190.93172 755.94141 194.01172 L 743.82227 194.01172 C 744.30227 190.89172 746.66039 188.8125 749.90039 188.8125 z M 852.94727 188.8125 C 856.22727 188.8125 858.58828 190.93172 858.98828 194.01172 L 846.86719 194.01172 C 847.34719 190.89172 849.70727 188.8125 852.94727 188.8125 z M 877.79102 188.8125 C 881.07102 188.8125 883.43203 190.93172 883.83203 194.01172 L 871.71094 194.01172 C 872.19094 190.89172 874.55102 188.8125 877.79102 188.8125 z M 1020.8379 188.8125 C 1024.1179 188.8125 1026.4789 190.93172 1026.8789 194.01172 L 1014.7598 194.01172 C 1015.2398 190.89172 1017.5979 188.8125 1020.8379 188.8125 z M 1088.0254 188.8125 C 1091.3054 188.8125 1093.6664 190.93172 1094.0664 194.01172 L 1081.9473 194.01172 C 1082.4273 190.89172 1084.7854 188.8125 1088.0254 188.8125 z M 406.4707 189.05273 C 410.1107 189.05273 412.83203 191.65242 412.83203 195.73242 C 412.83203 199.81242 410.1107 202.41211 406.4707 202.41211 C 402.8707 202.41211 400.15039 199.81242 400.15039 195.73242 C 400.15039 191.65242 402.8707 189.05273 406.4707 189.05273 z M 432.45312 189.05273 C 436.21312 189.05273 438.93164 191.4918 438.93164 195.0918 C 438.93164 198.7318 436.21312 201.21289 432.45312 201.21289 C 428.65313 201.21289 425.93164 198.7318 425.93164 195.0918 C 425.93164 191.4918 428.65313 189.05273 432.45312 189.05273 z M 471.54883 189.05273 C 475.18883 189.05273 477.91016 191.65242 477.91016 195.73242 C 477.91016 199.81242 475.18883 202.41211 471.54883 202.41211 C 467.94883 202.41211 465.22852 199.81242 465.22852 195.73242 C 465.22852 191.65242 467.94883 189.05273 471.54883 189.05273 z M 685.61133 189.05273 C 689.25133 189.05273 691.97266 191.65242 691.97266 195.73242 C 691.97266 199.81242 689.25133 202.41211 685.61133 202.41211 C 682.01133 202.41211 679.29102 199.81242 679.29102 195.73242 C 679.29102 191.65242 682.01133 189.05273 685.61133 189.05273 z M 912.0918 197.25195 L 917.25195 197.25195 L 917.25195 199.73242 C 916.41195 201.93242 914.29156 203.05273 911.85156 203.05273 C 909.29156 203.05273 907.77148 201.8918 907.77148 200.0918 C 907.77148 198.5318 908.6918 197.25195 912.0918 197.25195 z M 543.08008 200.05273 C 541.28008 200.05273 539.80078 201.37109 539.80078 203.37109 C 539.80078 205.29109 541.28008 206.69141 543.08008 206.69141 C 544.88008 206.69141 546.36133 205.29109 546.36133 203.37109 C 546.36133 201.37109 544.88008 200.05273 543.08008 200.05273 z M 613.1582 200.05273 C 611.3582 200.05273 609.87891 201.37109 609.87891 203.37109 C 609.87891 205.29109 611.3582 206.69141 613.1582 206.69141 C 614.9582 206.69141 616.43945 205.29109 616.43945 203.37109 C 616.43945 201.37109 614.9582 200.05273 613.1582 200.05273 z M 633.93945 200.05273 C 632.13945 200.05273 630.66016 201.37109 630.66016 203.37109 C 630.66016 205.29109 632.13945 206.69141 633.93945 206.69141 C 635.73945 206.69141 637.2207 205.29109 637.2207 203.37109 C 637.2207 201.37109 635.73945 200.05273 633.93945 200.05273 z M 1105.1895 200.05273 C 1103.3895 200.05273 1101.9102 201.37109 1101.9102 203.37109 C 1101.9102 205.29109 1103.3895 206.69141 1105.1895 206.69141 C 1106.9895 206.69141 1108.4707 205.29109 1108.4707 203.37109 C 1108.4707 201.37109 1106.9895 200.05273 1105.1895 200.05273 z "
       transform="matrix(0.26458333,0,0,0.26458333,-80.653183,-45.470983)"
       id="text2206" />
    <path
       style="font-style:normal;font-variant:normal;font-weight:600;font-stretch:normal;font-size:40px;line-height:25px;font-family:Montserrat;-inkscape-font-specification:'Montserrat, Semi-Bold';font-variant-ligatures:normal;font-variant-caps:normal;font-variant-numeric:normal;font-feature-settings:normal;text-align:start;letter-spacing:0px;word-spacing:0px;writing-mode:lr-tb;text-anchor:start;fill:#000000;fill-opacity:1;stroke:none"
       d="M 388.97656 321.26758 C 383.00323 321.26758 379.07813 325.02272 379.07812 329.88672 C 379.07812 334.75072 383.00323 338.50586 388.97656 338.50586 C 394.9499 338.50586 398.875 334.75086 398.875 329.63086 C 398.875 324.76686 394.9499 321.26758 388.97656 321.26758 z M 766.97656 321.26758 C 761.00323 321.26758 757.07812 325.02272 757.07812 329.88672 C 757.07812 334.75072 761.00323 338.50586 766.97656 338.50586 C 772.9499 338.50586 776.87695 334.75086 776.87695 329.63086 C 776.87695 324.76686 772.9499 321.26758 766.97656 321.26758 z M 840.31055 321.26758 C 834.33721 321.26758 830.41211 325.02272 830.41211 329.88672 C 830.41211 334.75072 834.33721 338.50586 840.31055 338.50586 C 846.28388 338.50586 850.20898 334.75086 850.20898 329.63086 C 850.20898 324.76686 846.28388 321.26758 840.31055 321.26758 z M 926.31055 321.26758 C 920.33721 321.26758 916.41211 325.02272 916.41211 329.88672 C 916.41211 334.75072 920.33721 338.50586 926.31055 338.50586 C 932.28388 338.50586 936.20898 334.75086 936.20898 329.63086 C 936.20898 324.76686 932.28388 321.26758 926.31055 321.26758 z M 979.64453 321.26758 C 973.6712 321.26758 969.74609 325.02272 969.74609 329.88672 C 969.74609 334.75072 973.6712 338.50586 979.64453 338.50586 C 985.61786 338.50586 989.54297 334.75086 989.54297 329.63086 C 989.54297 324.76686 985.61786 321.26758 979.64453 321.26758 z M 550.75586 325.10742 L 566.79883 338.07812 L 578.4043 338.07812 L 566.96875 325.10742 L 550.75586 325.10742 z M 1060.2969 325.10742 L 1048.8613 338.07812 L 1060.4668 338.07812 L 1076.5098 325.10742 L 1060.2969 325.10742 z M 627.03711 326.55859 L 627.03711 389.875 L 643.25 389.875 L 643.25 326.55859 L 627.03711 326.55859 z M 732.20312 326.55859 L 732.20312 389.875 L 748.41797 389.875 L 748.41797 326.55859 L 732.20312 326.55859 z M 858.87109 326.55859 L 858.87109 389.875 L 874.31641 389.875 L 874.31641 385.26758 C 877.38841 388.93691 881.91008 390.64453 887.96875 390.64453 C 900.51275 390.64453 910.66797 381.42868 910.66797 366.66602 C 910.66797 351.98868 900.51275 342.85742 887.96875 342.85742 C 882.59275 342.85742 878.24132 344.39405 875.08398 347.63672 L 875.08398 326.55859 L 858.87109 326.55859 z M 944.87109 326.55859 L 944.87109 389.875 L 961.08398 389.875 L 961.08398 326.55859 L 944.87109 326.55859 z M 108.00586 330.14258 L 81.636719 389.875 L 98.875 389.875 L 103.56836 378.27148 L 128.82617 378.27148 L 133.51953 389.875 L 151.09766 389.875 L 124.64453 330.14258 L 108.00586 330.14258 z M 156.41406 333.30078 L 156.41406 345.33203 L 149.67383 345.33203 L 149.67383 357.44922 L 156.41406 357.44922 L 156.41406 372.98047 C 156.41406 384.8418 163.32617 390.64453 175.1875 390.64453 C 179.45417 390.64453 183.63517 389.79005 186.45117 387.99805 L 182.44141 376.64844 C 181.07607 377.5871 179.28419 378.09961 177.49219 378.09961 C 174.59085 378.09961 172.62891 376.22193 172.62891 372.80859 L 172.62891 357.44922 L 183.20898 357.44922 L 183.20898 345.33203 L 172.62891 345.33203 L 172.62891 333.30078 L 156.41406 333.30078 z M 193.58203 333.30078 L 193.58203 345.33203 L 186.83984 345.33203 L 186.83984 357.44922 L 193.58203 357.44922 L 193.58203 372.98047 C 193.58203 384.8418 200.49414 390.64453 212.35547 390.64453 C 216.62214 390.64453 220.80314 389.79005 223.61914 387.99805 L 219.60742 376.64844 C 218.24209 377.5871 216.4502 378.09961 214.6582 378.09961 C 211.75687 378.09961 209.79492 376.22193 209.79492 372.80859 L 209.79492 357.44922 L 220.375 357.44922 L 220.375 345.33203 L 209.79492 345.33203 L 209.79492 333.30078 L 193.58203 333.30078 z M 344.58203 333.30078 L 344.58203 345.33203 L 337.83984 345.33203 L 337.83984 357.44922 L 344.58203 357.44922 L 344.58203 372.98047 C 344.58203 384.8418 351.49414 390.64453 363.35547 390.64453 C 367.62214 390.64453 371.80314 389.79005 374.61914 387.99805 L 370.60742 376.64844 C 369.24209 377.5871 367.4502 378.09961 365.6582 378.09961 C 362.75687 378.09961 360.79492 376.22193 360.79492 372.80859 L 360.79492 357.44922 L 371.375 357.44922 L 371.375 345.33203 L 360.79492 345.33203 L 360.79492 333.30078 L 344.58203 333.30078 z M 1000.082 333.30078 L 1000.082 345.33203 L 993.33984 345.33203 L 993.33984 357.44922 L 1000.082 357.44922 L 1000.082 372.98047 C 1000.082 384.8418 1006.9941 390.64453 1018.8555 390.64453 C 1023.1221 390.64453 1027.3031 389.79005 1030.1191 387.99805 L 1026.1074 376.64844 C 1024.7421 377.5871 1022.9502 378.09961 1021.1582 378.09961 C 1018.2569 378.09961 1016.2949 376.22193 1016.2949 372.80859 L 1016.2949 357.44922 L 1026.875 357.44922 L 1026.875 345.33203 L 1016.2949 345.33203 L 1016.2949 333.30078 L 1000.082 333.30078 z M 251.06445 342.85742 C 236.47245 342.85742 225.63672 352.75668 225.63672 366.66602 C 225.63672 380.49002 236.30215 390.64453 252.77148 390.64453 C 261.56082 390.64453 268.04704 388.0841 272.48438 383.13477 L 263.95117 374.25977 C 260.79384 376.99043 257.80587 378.27148 253.2832 378.27148 C 247.30987 378.27148 243.30088 375.53904 241.93555 370.8457 L 275.55664 370.8457 C 275.64197 369.5657 275.8125 368.0306 275.8125 366.83594 C 275.8125 351.56127 264.71779 342.85742 251.06445 342.85742 z M 313.49414 342.85742 C 307.69147 342.85742 302.48574 344.82016 298.81641 348.66016 L 298.81641 343.625 L 283.37109 343.625 L 283.37109 389.875 L 299.58398 389.875 L 299.58398 367.51953 C 299.58398 359.83953 303.59545 356.5957 308.80078 356.5957 C 313.49411 356.5957 316.39453 359.41236 316.39453 366.06836 L 316.39453 389.875 L 332.60742 389.875 L 332.60742 363.42188 C 332.60742 349.08587 324.33147 342.85742 313.49414 342.85742 z M 430.74805 342.85742 C 415.64405 342.85742 404.63672 352.75668 404.63672 366.66602 C 404.63672 380.66068 415.64405 390.64453 430.74805 390.64453 C 446.02271 390.64453 456.85938 380.66068 456.85938 366.66602 C 456.85938 352.75668 446.02271 342.85742 430.74805 342.85742 z M 494.49414 342.85742 C 488.69147 342.85742 483.48574 344.82016 479.81641 348.66016 L 479.81641 343.625 L 464.37109 343.625 L 464.37109 389.875 L 480.58398 389.875 L 480.58398 367.51953 C 480.58398 359.83953 484.59545 356.5957 489.80078 356.5957 C 494.49411 356.5957 497.39453 359.41236 497.39453 366.06836 L 497.39453 389.875 L 513.60742 389.875 L 513.60742 363.42188 C 513.60742 349.08587 505.33147 342.85742 494.49414 342.85742 z M 568.25 342.85742 C 560.99667 342.85742 553.14614 344.73376 547.85547 348.23242 L 553.31641 359.24219 C 556.47374 356.76752 561.42204 355.23047 565.85938 355.23047 C 572.25938 355.23047 575.41783 357.87503 575.67383 362.56836 L 566.45703 362.56836 C 552.12103 362.56836 545.89258 367.85924 545.89258 376.39258 C 545.89258 384.41391 552.03557 390.64453 563.12891 390.64453 C 569.87024 390.64453 574.4792 388.33968 576.7832 383.90234 L 576.7832 389.875 L 591.88672 389.875 L 591.88672 364.19141 C 591.88672 349.51407 583.26867 342.85742 568.25 342.85742 z M 673.41602 342.85742 C 666.16268 342.85742 658.31215 344.73376 653.02148 348.23242 L 658.48242 359.24219 C 661.63976 356.76752 666.59001 355.23047 671.02734 355.23047 C 677.42734 355.23047 680.58384 357.87503 680.83984 362.56836 L 671.62305 362.56836 C 657.28705 362.56836 651.05859 367.85924 651.05859 376.39258 C 651.05859 384.41391 657.20354 390.64453 668.29688 390.64453 C 675.03821 390.64453 679.64522 388.33968 681.94922 383.90234 L 681.94922 389.875 L 697.05273 389.875 L 697.05273 364.19141 C 697.05273 349.51407 688.43468 342.85742 673.41602 342.85742 z M 805.33398 342.85742 C 790.82732 342.85742 782.80664 349.5128 782.80664 358.2168 C 782.80664 376.73413 810.11328 369.65153 810.11328 375.88086 C 810.11328 377.84353 808.32071 379.03906 802.85938 379.03906 C 797.22737 379.03906 790.99909 377.41682 786.73242 374.77148 L 781.86719 385.86523 C 786.38985 388.68123 794.49699 390.64453 802.34766 390.64453 C 817.36632 390.64453 825.2168 383.98841 825.2168 375.45508 C 825.2168 357.10841 797.99609 364.01914 797.99609 357.61914 C 797.99609 355.91247 799.95859 354.37695 805.41992 354.37695 C 809.51592 354.37695 814.12442 355.23102 818.73242 357.79102 L 823.5957 346.7832 C 818.9877 344.2232 811.81932 342.85742 805.33398 342.85742 z M 1057.5645 342.85742 C 1042.9725 342.85742 1032.1367 352.75668 1032.1367 366.66602 C 1032.1367 380.49002 1042.8022 390.64453 1059.2715 390.64453 C 1068.0608 390.64453 1074.547 388.0841 1078.9844 383.13477 L 1070.4512 374.25977 C 1067.2938 376.99043 1064.3059 378.27148 1059.7832 378.27148 C 1053.8099 378.27148 1049.8009 375.53904 1048.4355 370.8457 L 1082.0566 370.8457 C 1082.142 369.5657 1082.3125 368.0306 1082.3125 366.83594 C 1082.3125 351.56127 1071.2178 342.85742 1057.5645 342.85742 z M 380.87109 343.625 L 380.87109 389.875 L 397.08398 389.875 L 397.08398 343.625 L 380.87109 343.625 z M 758.87109 343.625 L 758.87109 389.875 L 775.08398 389.875 L 775.08398 343.625 L 758.87109 343.625 z M 832.20312 343.625 L 832.20312 389.875 L 848.41797 389.875 L 848.41797 343.625 L 832.20312 343.625 z M 918.20312 343.625 L 918.20312 389.875 L 934.41797 389.875 L 934.41797 343.625 L 918.20312 343.625 z M 971.53711 343.625 L 971.53711 389.875 L 987.75 389.875 L 987.75 343.625 L 971.53711 343.625 z M 116.19727 346.69727 L 123.87695 365.8125 L 108.51758 365.8125 L 116.19727 346.69727 z M 251.15039 354.37695 C 256.18506 354.37695 259.76971 357.4485 260.62305 362.3125 L 241.67773 362.3125 C 242.6164 357.4485 246.11572 354.37695 251.15039 354.37695 z M 1057.6504 354.37695 C 1062.6851 354.37695 1066.2697 357.4485 1067.123 362.3125 L 1048.1777 362.3125 C 1049.1164 357.4485 1052.6157 354.37695 1057.6504 354.37695 z M 430.74805 355.74219 C 436.29471 355.74219 440.47656 359.66868 440.47656 366.66602 C 440.47656 373.74868 436.29471 377.75781 430.74805 377.75781 C 425.28671 377.75781 421.01953 373.74868 421.01953 366.66602 C 421.01953 359.66868 425.28671 355.74219 430.74805 355.74219 z M 884.55664 355.74219 C 890.01797 355.74219 894.2832 359.66868 894.2832 366.66602 C 894.2832 373.74868 890.01797 377.75781 884.55664 377.75781 C 879.09531 377.75781 874.82812 373.74868 874.82812 366.66602 C 874.82812 359.66868 879.09531 355.74219 884.55664 355.74219 z M 568.67578 371.01758 L 575.67383 371.01758 L 575.67383 375.02734 C 574.39383 378.69668 571.23634 380.4043 567.65234 380.4043 C 563.81234 380.4043 561.59375 378.4416 561.59375 375.71094 C 561.59375 372.89494 563.47045 371.01758 568.67578 371.01758 z M 673.8418 371.01758 L 680.83984 371.01758 L 680.83984 375.02734 C 679.55984 378.69668 676.40236 380.4043 672.81836 380.4043 C 668.97836 380.4043 666.75977 378.4416 666.75977 375.71094 C 666.75977 372.89494 668.63646 371.01758 673.8418 371.01758 z "
       transform="matrix(0.26458333,0,0,0.26458333,-80.653183,-45.470983)"
       id="flowRoot2607" />
    <path
       inkscape:connector-curvature="0"
       id="path2673"
       d="M -66.449916,74.983899 V 108.8516 h 45.70448 V 74.983899 Z"
       style="opacity:1;vector-effect:none;fill:#001eff;fill-opacity:1;stroke:#000000;stroke-width:0.48304763;stroke-linecap:round;stroke-linejoin:miter;stroke-miterlimit:4;stroke-dasharray:none;stroke-dashoffset:4.60040331;stroke-opacity:1" />
    <path
       inkscape:connector-curvature="0"
       id="path2675"
       d="M 162.07249,74.983899 V 108.8516 h 45.705 V 74.983899 Z"
       style="opacity:1;vector-effect:none;fill:#040060;fill-opacity:1;stroke:#000000;stroke-width:0.48304763;stroke-linecap:round;stroke-linejoin:miter;stroke-miterlimit:4;stroke-dasharray:none;stroke-dashoffset:4.60040331;stroke-opacity:1" />
    <path
       inkscape:connector-curvature="0"
       style="opacity:1;vector-effect:none;fill:#3244cd;fill-opacity:1;stroke:#000000;stroke-width:0.48304763;stroke-linecap:round;stroke-linejoin:miter;stroke-miterlimit:4;stroke-dasharray:none;stroke-dashoffset:4.60040331;stroke-opacity:1"
       d="M -20.745436,74.983899 V 108.8516 h 45.70448 V 74.983899 Z"
       id="path2677" />
    <path
       id="path2679"
       d="M 24.959044,74.983899 V 108.8516 H 70.663523 V 74.983899 Z"
       style="opacity:1;vector-effect:none;fill:#68fffd;fill-opacity:1;stroke:#000000;stroke-width:0.48304763;stroke-linecap:round;stroke-linejoin:miter;stroke-miterlimit:4;stroke-dasharray:none;stroke-dashoffset:4.60040331;stroke-opacity:1"
       inkscape:connector-curvature="0" />
    <path
       inkscape:connector-curvature="0"
       style="opacity:1;vector-effect:none;fill:#bfbfbf;fill-opacity:1;stroke:#000000;stroke-width:0.48304763;stroke-linecap:round;stroke-linejoin:miter;stroke-miterlimit:4;stroke-dasharray:none;stroke-dashoffset:4.60040331;stroke-opacity:1"
       d="M 70.663523,74.983899 V 108.8516 H 116.368 V 74.983899 Z"
       id="path2681" />
    <path
       id="path2683"
       d="M 116.368,74.983899 V 108.8516 h 45.70449 V 74.983899 Z"
       style="opacity:1;vector-effect:none;fill:#129aff;fill-opacity:1;stroke:#000000;stroke-width:0.48304763;stroke-linecap:round;stroke-linejoin:miter;stroke-miterlimit:4;stroke-dasharray:none;stroke-dashoffset:4.60040331;stroke-opacity:1"
       inkscape:connector-curvature="0" />
    <path
       style="font-style:normal;font-variant:normal;font-weight:600;font-stretch:normal;font-size:40px;line-height:25px;font-family:Montserrat;-inkscape-font-specification:'Montserrat, Semi-Bold';font-variant-ligatures:normal;font-variant-caps:normal;font-variant-numeric:normal;font-feature-settings:normal;text-align:start;letter-spacing:0px;word-spacing:0px;writing-mode:lr-tb;text-anchor:start;fill:#ffffff;fill-opacity:1;stroke:none;"
       d="M 388.97656 482.69727 C 383.00323 482.69727 379.07813 486.45045 379.07812 491.31445 C 379.07812 496.17845 383.00323 499.93359 388.97656 499.93359 C 394.9499 499.93359 398.875 496.17859 398.875 491.05859 C 398.875 486.19459 394.9499 482.69727 388.97656 482.69727 z M 766.97656 482.69727 C 761.00323 482.69727 757.07812 486.45045 757.07812 491.31445 C 757.07812 496.17845 761.00323 499.93359 766.97656 499.93359 C 772.9499 499.93359 776.87695 496.17859 776.87695 491.05859 C 776.87695 486.19459 772.9499 482.69727 766.97656 482.69727 z M 840.31055 482.69727 C 834.33721 482.69727 830.41211 486.45045 830.41211 491.31445 C 830.41211 496.17845 834.33721 499.93359 840.31055 499.93359 C 846.28388 499.93359 850.20898 496.17859 850.20898 491.05859 C 850.20898 486.19459 846.28388 482.69727 840.31055 482.69727 z M 926.31055 482.69727 C 920.33721 482.69727 916.41211 486.45045 916.41211 491.31445 C 916.41211 496.17845 920.33721 499.93359 926.31055 499.93359 C 932.28388 499.93359 936.20898 496.17859 936.20898 491.05859 C 936.20898 486.19459 932.28388 482.69727 926.31055 482.69727 z M 979.64453 482.69727 C 973.6712 482.69727 969.74609 486.45045 969.74609 491.31445 C 969.74609 496.17845 973.6712 499.93359 979.64453 499.93359 C 985.61786 499.93359 989.54297 496.17859 989.54297 491.05859 C 989.54297 486.19459 985.61786 482.69727 979.64453 482.69727 z M 550.75586 486.53711 L 566.79883 499.50781 L 578.4043 499.50781 L 566.96875 486.53711 L 550.75586 486.53711 z M 1060.2969 486.53711 L 1048.8613 499.50781 L 1060.4668 499.50781 L 1076.5098 486.53711 L 1060.2969 486.53711 z M 627.03711 487.98633 L 627.03711 551.30469 L 643.25 551.30469 L 643.25 487.98633 L 627.03711 487.98633 z M 732.20312 487.98633 L 732.20312 551.30469 L 748.41797 551.30469 L 748.41797 487.98633 L 732.20312 487.98633 z M 858.87109 487.98633 L 858.87109 551.30469 L 874.31641 551.30469 L 874.31641 546.69727 C 877.38841 550.3666 881.91008 552.07227 887.96875 552.07227 C 900.51275 552.07227 910.66797 542.85642 910.66797 528.09375 C 910.66797 513.41642 900.51275 504.28516 887.96875 504.28516 C 882.59275 504.28516 878.24132 505.82179 875.08398 509.06445 L 875.08398 487.98633 L 858.87109 487.98633 z M 944.87109 487.98633 L 944.87109 551.30469 L 961.08398 551.30469 L 961.08398 487.98633 L 944.87109 487.98633 z M 108.00586 491.57031 L 81.636719 551.30469 L 98.875 551.30469 L 103.56836 539.69922 L 128.82617 539.69922 L 133.51953 551.30469 L 151.09766 551.30469 L 124.64453 491.57031 L 108.00586 491.57031 z M 156.41406 494.72852 L 156.41406 506.75977 L 149.67383 506.75977 L 149.67383 518.87695 L 156.41406 518.87695 L 156.41406 534.4082 C 156.41406 546.26954 163.32617 552.07227 175.1875 552.07227 C 179.45417 552.07227 183.63517 551.21973 186.45117 549.42773 L 182.44141 538.07812 C 181.07607 539.01679 179.28419 539.5293 177.49219 539.5293 C 174.59085 539.5293 172.62891 537.65161 172.62891 534.23828 L 172.62891 518.87695 L 183.20898 518.87695 L 183.20898 506.75977 L 172.62891 506.75977 L 172.62891 494.72852 L 156.41406 494.72852 z M 193.58203 494.72852 L 193.58203 506.75977 L 186.83984 506.75977 L 186.83984 518.87695 L 193.58203 518.87695 L 193.58203 534.4082 C 193.58203 546.26954 200.49414 552.07227 212.35547 552.07227 C 216.62214 552.07227 220.80314 551.21973 223.61914 549.42773 L 219.60742 538.07812 C 218.24209 539.01679 216.4502 539.5293 214.6582 539.5293 C 211.75687 539.5293 209.79492 537.65161 209.79492 534.23828 L 209.79492 518.87695 L 220.375 518.87695 L 220.375 506.75977 L 209.79492 506.75977 L 209.79492 494.72852 L 193.58203 494.72852 z M 344.58203 494.72852 L 344.58203 506.75977 L 337.83984 506.75977 L 337.83984 518.87695 L 344.58203 518.87695 L 344.58203 534.4082 C 344.58203 546.26954 351.49414 552.07227 363.35547 552.07227 C 367.62214 552.07227 371.80314 551.21973 374.61914 549.42773 L 370.60742 538.07812 C 369.24209 539.01679 367.4502 539.5293 365.6582 539.5293 C 362.75687 539.5293 360.79492 537.65161 360.79492 534.23828 L 360.79492 518.87695 L 371.375 518.87695 L 371.375 506.75977 L 360.79492 506.75977 L 360.79492 494.72852 L 344.58203 494.72852 z M 1000.082 494.72852 L 1000.082 506.75977 L 993.33984 506.75977 L 993.33984 518.87695 L 1000.082 518.87695 L 1000.082 534.4082 C 1000.082 546.26954 1006.9941 552.07227 1018.8555 552.07227 C 1023.1221 552.07227 1027.3031 551.21973 1030.1191 549.42773 L 1026.1074 538.07812 C 1024.7421 539.01679 1022.9502 539.5293 1021.1582 539.5293 C 1018.2569 539.5293 1016.2949 537.65161 1016.2949 534.23828 L 1016.2949 518.87695 L 1026.875 518.87695 L 1026.875 506.75977 L 1016.2949 506.75977 L 1016.2949 494.72852 L 1000.082 494.72852 z M 251.06445 504.28516 C 236.47245 504.28516 225.63672 514.18442 225.63672 528.09375 C 225.63672 541.91775 236.30215 552.07227 252.77148 552.07227 C 261.56082 552.07227 268.04704 549.51183 272.48438 544.5625 L 263.95117 535.68945 C 260.79384 538.42012 257.80587 539.69922 253.2832 539.69922 C 247.30987 539.69922 243.30088 536.96872 241.93555 532.27539 L 275.55664 532.27539 C 275.64197 530.99539 275.8125 529.45834 275.8125 528.26367 C 275.8125 512.989 264.71779 504.28516 251.06445 504.28516 z M 313.49414 504.28516 C 307.69147 504.28516 302.48574 506.24789 298.81641 510.08789 L 298.81641 505.05469 L 283.37109 505.05469 L 283.37109 551.30469 L 299.58398 551.30469 L 299.58398 528.94727 C 299.58398 521.26727 303.59545 518.02539 308.80078 518.02539 C 313.49411 518.02539 316.39453 520.84009 316.39453 527.49609 L 316.39453 551.30469 L 332.60742 551.30469 L 332.60742 524.85156 C 332.60742 510.51556 324.33147 504.28516 313.49414 504.28516 z M 430.74805 504.28516 C 415.64405 504.28516 404.63672 514.18442 404.63672 528.09375 C 404.63672 542.08842 415.64405 552.07227 430.74805 552.07227 C 446.02271 552.07227 456.85938 542.08842 456.85938 528.09375 C 456.85938 514.18442 446.02271 504.28516 430.74805 504.28516 z M 494.49414 504.28516 C 488.69147 504.28516 483.48574 506.24789 479.81641 510.08789 L 479.81641 505.05469 L 464.37109 505.05469 L 464.37109 551.30469 L 480.58398 551.30469 L 480.58398 528.94727 C 480.58398 521.26727 484.59545 518.02539 489.80078 518.02539 C 494.49411 518.02539 497.39453 520.84009 497.39453 527.49609 L 497.39453 551.30469 L 513.60742 551.30469 L 513.60742 524.85156 C 513.60742 510.51556 505.33147 504.28516 494.49414 504.28516 z M 568.25 504.28516 C 560.99667 504.28516 553.14614 506.16344 547.85547 509.66211 L 553.31641 520.66992 C 556.47374 518.19526 561.42204 516.6582 565.85938 516.6582 C 572.25938 516.6582 575.41783 519.30471 575.67383 523.99805 L 566.45703 523.99805 C 552.12103 523.99805 545.89258 529.28893 545.89258 537.82227 C 545.89258 545.8436 552.03557 552.07227 563.12891 552.07227 C 569.87024 552.07227 574.4792 549.76936 576.7832 545.33203 L 576.7832 551.30469 L 591.88672 551.30469 L 591.88672 525.61914 C 591.88672 510.94181 583.26867 504.28516 568.25 504.28516 z M 673.41602 504.28516 C 666.16268 504.28516 658.31215 506.16344 653.02148 509.66211 L 658.48242 520.66992 C 661.63976 518.19526 666.59001 516.6582 671.02734 516.6582 C 677.42734 516.6582 680.58384 519.30471 680.83984 523.99805 L 671.62305 523.99805 C 657.28705 523.99805 651.05859 529.28893 651.05859 537.82227 C 651.05859 545.8436 657.20354 552.07227 668.29688 552.07227 C 675.03821 552.07227 679.64522 549.76936 681.94922 545.33203 L 681.94922 551.30469 L 697.05273 551.30469 L 697.05273 525.61914 C 697.05273 510.94181 688.43468 504.28516 673.41602 504.28516 z M 805.33398 504.28516 C 790.82732 504.28516 782.80664 510.94248 782.80664 519.64648 C 782.80664 538.16382 810.11328 531.08121 810.11328 537.31055 C 810.11328 539.27321 808.32071 540.4668 802.85938 540.4668 C 797.22737 540.4668 790.99909 538.84651 786.73242 536.20117 L 781.86719 547.29297 C 786.38985 550.10897 794.49699 552.07227 802.34766 552.07227 C 817.36632 552.07227 825.2168 545.41615 825.2168 536.88281 C 825.2168 518.53615 797.99609 525.44883 797.99609 519.04883 C 797.99609 517.34216 799.95859 515.80664 805.41992 515.80664 C 809.51592 515.80664 814.12442 516.65875 818.73242 519.21875 L 823.5957 508.21094 C 818.9877 505.65094 811.81932 504.28516 805.33398 504.28516 z M 1057.5645 504.28516 C 1042.9725 504.28516 1032.1367 514.18442 1032.1367 528.09375 C 1032.1367 541.91775 1042.8022 552.07227 1059.2715 552.07227 C 1068.0608 552.07227 1074.547 549.51183 1078.9844 544.5625 L 1070.4512 535.68945 C 1067.2938 538.42012 1064.3059 539.69922 1059.7832 539.69922 C 1053.8099 539.69922 1049.8009 536.96872 1048.4355 532.27539 L 1082.0566 532.27539 C 1082.142 530.99539 1082.3125 529.45834 1082.3125 528.26367 C 1082.3125 512.989 1071.2178 504.28516 1057.5645 504.28516 z M 380.87109 505.05469 L 380.87109 551.30469 L 397.08398 551.30469 L 397.08398 505.05469 L 380.87109 505.05469 z M 758.87109 505.05469 L 758.87109 551.30469 L 775.08398 551.30469 L 775.08398 505.05469 L 758.87109 505.05469 z M 832.20312 505.05469 L 832.20312 551.30469 L 848.41797 551.30469 L 848.41797 505.05469 L 832.20312 505.05469 z M 918.20312 505.05469 L 918.20312 551.30469 L 934.41797 551.30469 L 934.41797 505.05469 L 918.20312 505.05469 z M 971.53711 505.05469 L 971.53711 551.30469 L 987.75 551.30469 L 987.75 505.05469 L 971.53711 505.05469 z M 116.19727 508.125 L 123.87695 527.24023 L 108.51758 527.24023 L 116.19727 508.125 z M 251.15039 515.80664 C 256.18506 515.80664 259.76971 518.87819 260.62305 523.74219 L 241.67773 523.74219 C 242.6164 518.87819 246.11572 515.80664 251.15039 515.80664 z M 1057.6504 515.80664 C 1062.6851 515.80664 1066.2697 518.87819 1067.123 523.74219 L 1048.1777 523.74219 C 1049.1164 518.87819 1052.6157 515.80664 1057.6504 515.80664 z M 430.74805 517.17188 C 436.29471 517.17188 440.47656 521.09642 440.47656 528.09375 C 440.47656 535.17642 436.29471 539.1875 430.74805 539.1875 C 425.28671 539.1875 421.01953 535.17642 421.01953 528.09375 C 421.01953 521.09642 425.28671 517.17187 430.74805 517.17188 z M 884.55664 517.17188 C 890.01797 517.17188 894.2832 521.09642 894.2832 528.09375 C 894.2832 535.17642 890.01797 539.1875 884.55664 539.1875 C 879.09531 539.1875 874.82812 535.17642 874.82812 528.09375 C 874.82812 521.09642 879.09531 517.17187 884.55664 517.17188 z M 568.67578 532.44531 L 575.67383 532.44531 L 575.67383 536.45703 C 574.39383 540.12636 571.23634 541.83203 567.65234 541.83203 C 563.81234 541.83203 561.59375 539.86934 561.59375 537.13867 C 561.59375 534.32267 563.47045 532.44531 568.67578 532.44531 z M 673.8418 532.44531 L 680.83984 532.44531 L 680.83984 536.45703 C 679.55984 540.12636 676.40236 541.83203 672.81836 541.83203 C 668.97836 541.83203 666.75977 539.86934 666.75977 537.13867 C 666.75977 534.32267 668.63646 532.44531 673.8418 532.44531 z "
       transform="matrix(0.26458333,0,0,0.26458333,-80.653183,-45.470983)"
       id="flowRoot2691" />
  </g>
</svg>
