<?xml version="1.0" encoding="UTF-8" standalone="no"?>
<!-- Created with Inkscape (http://www.inkscape.org/) -->

<svg
   xmlns:dc="http://purl.org/dc/elements/1.1/"
   xmlns:cc="http://creativecommons.org/ns#"
   xmlns:rdf="http://www.w3.org/1999/02/22-rdf-syntax-ns#"
   xmlns:svg="http://www.w3.org/2000/svg"
   xmlns="http://www.w3.org/2000/svg"
   xmlns:sodipodi="http://sodipodi.sourceforge.net/DTD/sodipodi-0.dtd"
   xmlns:inkscape="http://www.inkscape.org/namespaces/inkscape"
   width="320.59906mm"
   height="180.3373mm"
   viewBox="0 0 320.59906 180.3373"
   version="1.1"
   id="svg4519"
   inkscape:version="0.92.4 (5da689c313, 2019-01-14)"
   sodipodi:docname="s_4_4.svg">
  <defs
     id="defs4513" />
  <sodipodi:namedview
     id="base"
     pagecolor="#ffffff"
     bordercolor="#666666"
     borderopacity="1.0"
     inkscape:pageopacity="0.0"
     inkscape:pageshadow="2"
     inkscape:zoom="0.70000001"
     inkscape:cx="615.43338"
     inkscape:cy="209.90323"
     inkscape:document-units="mm"
     inkscape:current-layer="layer1"
     showgrid="false"
     fit-margin-top="0"
     fit-margin-left="0"
     fit-margin-right="0"
     fit-margin-bottom="0"
     inkscape:window-width="1920"
     inkscape:window-height="986"
     inkscape:window-x="-11"
     inkscape:window-y="-11"
     inkscape:window-maximized="1"
     inkscape:snap-page="true"
     showguides="true"
     inkscape:guide-bbox="true">
    <inkscape:grid
       type="xygrid"
       id="grid7071" />
  </sodipodi:namedview>
  <metadata
     id="metadata4516">
    <rdf:RDF>
      <cc:Work
         rdf:about="">
        <dc:format>image/svg+xml</dc:format>
        <dc:type
           rdf:resource="http://purl.org/dc/dcmitype/StillImage" />
        <dc:title></dc:title>
      </cc:Work>
    </rdf:RDF>
  </metadata>
  <g
     inkscape:label="Layer 1"
     inkscape:groupmode="layer"
     id="layer1"
     transform="translate(80.653183,45.470983)">
    <rect
       style="opacity:1;vector-effect:none;fill:#ffffff;fill-opacity:1;stroke:#000000;stroke-width:0.40000001;stroke-linecap:round;stroke-linejoin:miter;stroke-miterlimit:4;stroke-dasharray:none;stroke-dashoffset:4.60040331;stroke-opacity:1"
       id="rect8758"
       width="320.59906"
       height="180.3373"
       x="-80.653183"
       y="-45.470982" />
    <text
       xml:space="preserve"
       style="font-style:normal;font-variant:normal;font-weight:600;font-stretch:normal;font-size:10.58333302px;line-height:6.61458302px;font-family:Montserrat;-inkscape-font-specification:'Montserrat, Semi-Bold';font-variant-ligatures:normal;font-variant-caps:normal;font-variant-numeric:normal;font-feature-settings:normal;text-align:start;letter-spacing:0px;word-spacing:0px;writing-mode:lr-tb;text-anchor:start;fill:#000000;fill-opacity:1;stroke:none;stroke-width:0.26458332"
       x="-32.650208"
       y="120.50322"
       id="text3290"><tspan
         sodipodi:role="line"
         id="tspan3288"
         x="-32.650208"
         y="126.923"
         style="stroke-width:0.26458332" /></text>
    <path
       style="fill:none;stroke:#ff2e2e;stroke-width:0.40000001;stroke-linecap:butt;stroke-linejoin:miter;stroke-miterlimit:4;stroke-dasharray:none;stroke-opacity:1"
       d="M -27.466549,134.86631 174.40691,-45.470983"
       id="path8634"
       inkscape:connector-curvature="0"
       sodipodi:nodetypes="cc" />
    <path
       inkscape:connector-curvature="0"
       id="path8636"
       d="M -75.975967,134.86631 -4.8822735,-45.470983"
       style="fill:none;stroke:#ff2e2e;stroke-width:0.40000001;stroke-linecap:butt;stroke-linejoin:miter;stroke-miterlimit:4;stroke-dasharray:none;stroke-opacity:1" />
    <path
       sodipodi:nodetypes="cc"
       inkscape:connector-curvature="0"
       id="path8638"
       d="M -80.653183,-18.856996 239.94588,2.4189916"
       style="fill:none;stroke:#ff2e2e;stroke-width:0.40000001;stroke-linecap:butt;stroke-linejoin:miter;stroke-miterlimit:4;stroke-dasharray:none;stroke-opacity:1" />
    <rect
       style="opacity:1;vector-effect:none;fill:none;fill-opacity:1;stroke:#000000;stroke-width:0.39598224;stroke-linecap:round;stroke-linejoin:miter;stroke-miterlimit:4;stroke-dasharray:none;stroke-dashoffset:4.60040331;stroke-opacity:1"
       id="rect8640"
       width="17.81106"
       height="180.3373"
       x="-80.653183"
       y="-45.470982" />
    <rect
       y="-45.470982"
       x="-62.842125"
       height="180.3373"
       width="17.81106"
       id="rect8642"
       style="opacity:1;vector-effect:none;fill:none;fill-opacity:1;stroke:#000000;stroke-width:0.39598224;stroke-linecap:round;stroke-linejoin:miter;stroke-miterlimit:4;stroke-dasharray:none;stroke-dashoffset:4.60040331;stroke-opacity:1" />
    <rect
       style="opacity:1;vector-effect:none;fill:none;fill-opacity:1;stroke:#000000;stroke-width:0.39598224;stroke-linecap:round;stroke-linejoin:miter;stroke-miterlimit:4;stroke-dasharray:none;stroke-dashoffset:4.60040331;stroke-opacity:1"
       id="rect8644"
       width="17.81106"
       height="180.3373"
       x="-45.031067"
       y="-45.470982" />
    <rect
       y="-45.470982"
       x="-27.220007"
       height="180.3373"
       width="17.81106"
       id="rect8646"
       style="opacity:1;vector-effect:none;fill:none;fill-opacity:1;stroke:#000000;stroke-width:0.39598224;stroke-linecap:round;stroke-linejoin:miter;stroke-miterlimit:4;stroke-dasharray:none;stroke-dashoffset:4.60040331;stroke-opacity:1" />
    <rect
       style="opacity:1;vector-effect:none;fill:none;fill-opacity:1;stroke:#000000;stroke-width:0.39598224;stroke-linecap:round;stroke-linejoin:miter;stroke-miterlimit:4;stroke-dasharray:none;stroke-dashoffset:4.60040331;stroke-opacity:1"
       id="rect8648"
       width="17.81106"
       height="180.3373"
       x="-9.408947"
       y="-45.470982" />
    <rect
       y="-45.470982"
       x="8.402113"
       height="180.3373"
       width="17.81106"
       id="rect8650"
       style="opacity:1;vector-effect:none;fill:none;fill-opacity:1;stroke:#000000;stroke-width:0.39598224;stroke-linecap:round;stroke-linejoin:miter;stroke-miterlimit:4;stroke-dasharray:none;stroke-dashoffset:4.60040331;stroke-opacity:1" />
    <rect
       style="opacity:1;vector-effect:none;fill:none;fill-opacity:1;stroke:#000000;stroke-width:0.39598224;stroke-linecap:round;stroke-linejoin:miter;stroke-miterlimit:4;stroke-dasharray:none;stroke-dashoffset:4.60040331;stroke-opacity:1"
       id="rect8652"
       width="17.81106"
       height="180.3373"
       x="26.213171"
       y="-45.470982" />
    <rect
       y="-45.470982"
       x="44.024227"
       height="180.3373"
       width="17.81106"
       id="rect8654"
       style="opacity:1;vector-effect:none;fill:none;fill-opacity:1;stroke:#000000;stroke-width:0.39598224;stroke-linecap:round;stroke-linejoin:miter;stroke-miterlimit:4;stroke-dasharray:none;stroke-dashoffset:4.60040331;stroke-opacity:1" />
    <rect
       style="opacity:1;vector-effect:none;fill:none;fill-opacity:1;stroke:#000000;stroke-width:0.39598224;stroke-linecap:round;stroke-linejoin:miter;stroke-miterlimit:4;stroke-dasharray:none;stroke-dashoffset:4.60040331;stroke-opacity:1"
       id="rect8656"
       width="17.81106"
       height="180.3373"
       x="61.835289"
       y="-45.470982" />
    <rect
       y="-45.470982"
       x="79.646347"
       height="180.3373"
       width="17.81106"
       id="rect8658"
       style="opacity:1;vector-effect:none;fill:none;fill-opacity:1;stroke:#000000;stroke-width:0.39598224;stroke-linecap:round;stroke-linejoin:miter;stroke-miterlimit:4;stroke-dasharray:none;stroke-dashoffset:4.60040331;stroke-opacity:1" />
    <rect
       style="opacity:1;vector-effect:none;fill:none;fill-opacity:1;stroke:#000000;stroke-width:0.39598224;stroke-linecap:round;stroke-linejoin:miter;stroke-miterlimit:4;stroke-dasharray:none;stroke-dashoffset:4.60040331;stroke-opacity:1"
       id="rect8660"
       width="17.81106"
       height="180.3373"
       x="97.457413"
       y="-45.470982" />
    <rect
       y="-45.470982"
       x="115.26846"
       height="180.3373"
       width="17.81106"
       id="rect8662"
       style="opacity:1;vector-effect:none;fill:none;fill-opacity:1;stroke:#000000;stroke-width:0.39598224;stroke-linecap:round;stroke-linejoin:miter;stroke-miterlimit:4;stroke-dasharray:none;stroke-dashoffset:4.60040331;stroke-opacity:1" />
    <rect
       style="opacity:1;vector-effect:none;fill:none;fill-opacity:1;stroke:#000000;stroke-width:0.39598224;stroke-linecap:round;stroke-linejoin:miter;stroke-miterlimit:4;stroke-dasharray:none;stroke-dashoffset:4.60040331;stroke-opacity:1"
       id="rect8664"
       width="17.81106"
       height="180.3373"
       x="133.07951"
       y="-45.470982" />
    <rect
       y="-45.470982"
       x="150.89058"
       height="180.3373"
       width="17.81106"
       id="rect8666"
       style="opacity:1;vector-effect:none;fill:none;fill-opacity:1;stroke:#000000;stroke-width:0.39598224;stroke-linecap:round;stroke-linejoin:miter;stroke-miterlimit:4;stroke-dasharray:none;stroke-dashoffset:4.60040331;stroke-opacity:1" />
    <rect
       style="opacity:1;vector-effect:none;fill:none;fill-opacity:1;stroke:#000000;stroke-width:0.39598224;stroke-linecap:round;stroke-linejoin:miter;stroke-miterlimit:4;stroke-dasharray:none;stroke-dashoffset:4.60040331;stroke-opacity:1"
       id="rect8668"
       width="17.81106"
       height="180.3373"
       x="168.70164"
       y="-45.470982" />
    <rect
       y="-45.470982"
       x="186.51271"
       height="180.3373"
       width="17.81106"
       id="rect8670"
       style="opacity:1;vector-effect:none;fill:none;fill-opacity:1;stroke:#000000;stroke-width:0.39598224;stroke-linecap:round;stroke-linejoin:miter;stroke-miterlimit:4;stroke-dasharray:none;stroke-dashoffset:4.60040331;stroke-opacity:1" />
    <rect
       style="opacity:1;vector-effect:none;fill:none;fill-opacity:1;stroke:#000000;stroke-width:0.39598224;stroke-linecap:round;stroke-linejoin:miter;stroke-miterlimit:4;stroke-dasharray:none;stroke-dashoffset:4.60040331;stroke-opacity:1"
       id="rect8672"
       width="17.81106"
       height="180.3373"
       x="204.32376"
       y="-45.470982" />
    <rect
       y="-45.470982"
       x="222.13481"
       height="180.3373"
       width="17.81106"
       id="rect8674"
       style="opacity:1;vector-effect:none;fill:none;fill-opacity:1;stroke:#000000;stroke-width:0.39598224;stroke-linecap:round;stroke-linejoin:miter;stroke-miterlimit:4;stroke-dasharray:none;stroke-dashoffset:4.60040331;stroke-opacity:1" />
    <rect
       y="-239.94588"
       x="-45.470982"
       height="320.59906"
       width="17.81106"
       id="rect8680"
       style="opacity:1;vector-effect:none;fill:none;fill-opacity:1;stroke:#000000;stroke-width:0.52797586;stroke-linecap:round;stroke-linejoin:miter;stroke-miterlimit:4;stroke-dasharray:none;stroke-dashoffset:4.60040331;stroke-opacity:1"
       transform="rotate(90)" />
    <rect
       style="opacity:1;vector-effect:none;fill:none;fill-opacity:1;stroke:#000000;stroke-width:0.52797586;stroke-linecap:round;stroke-linejoin:miter;stroke-miterlimit:4;stroke-dasharray:none;stroke-dashoffset:4.60040331;stroke-opacity:1"
       id="rect8682"
       width="17.81106"
       height="320.59906"
       x="-27.659925"
       y="-239.94588"
       transform="rotate(90)" />
    <rect
       y="-239.94588"
       x="-9.8488674"
       height="320.59906"
       width="17.81106"
       id="rect8684"
       style="opacity:1;vector-effect:none;fill:none;fill-opacity:1;stroke:#000000;stroke-width:0.52797586;stroke-linecap:round;stroke-linejoin:miter;stroke-miterlimit:4;stroke-dasharray:none;stroke-dashoffset:4.60040331;stroke-opacity:1"
       transform="rotate(90)" />
    <rect
       style="opacity:1;vector-effect:none;fill:none;fill-opacity:1;stroke:#000000;stroke-width:0.52797586;stroke-linecap:round;stroke-linejoin:miter;stroke-miterlimit:4;stroke-dasharray:none;stroke-dashoffset:4.60040331;stroke-opacity:1"
       id="rect8686"
       width="17.81106"
       height="320.59906"
       x="7.9621925"
       y="-239.94588"
       transform="rotate(90)" />
    <rect
       y="-239.94588"
       x="25.773252"
       height="320.59906"
       width="17.81106"
       id="rect8688"
       style="opacity:1;vector-effect:none;fill:none;fill-opacity:1;stroke:#000000;stroke-width:0.52797586;stroke-linecap:round;stroke-linejoin:miter;stroke-miterlimit:4;stroke-dasharray:none;stroke-dashoffset:4.60040331;stroke-opacity:1"
       transform="rotate(90)" />
    <rect
       style="opacity:1;vector-effect:none;fill:none;fill-opacity:1;stroke:#000000;stroke-width:0.52797586;stroke-linecap:round;stroke-linejoin:miter;stroke-miterlimit:4;stroke-dasharray:none;stroke-dashoffset:4.60040331;stroke-opacity:1"
       id="rect8690"
       width="17.81106"
       height="320.59906"
       x="43.584312"
       y="-239.94588"
       transform="rotate(90)" />
    <rect
       y="-239.94588"
       x="61.39537"
       height="320.59906"
       width="17.81106"
       id="rect8692"
       style="opacity:1;vector-effect:none;fill:none;fill-opacity:1;stroke:#000000;stroke-width:0.52797586;stroke-linecap:round;stroke-linejoin:miter;stroke-miterlimit:4;stroke-dasharray:none;stroke-dashoffset:4.60040331;stroke-opacity:1"
       transform="rotate(90)" />
    <rect
       style="opacity:1;vector-effect:none;fill:none;fill-opacity:1;stroke:#000000;stroke-width:0.52797586;stroke-linecap:round;stroke-linejoin:miter;stroke-miterlimit:4;stroke-dasharray:none;stroke-dashoffset:4.60040331;stroke-opacity:1"
       id="rect8694"
       width="17.81106"
       height="320.59906"
       x="79.206429"
       y="-239.94588"
       transform="rotate(90)" />
    <rect
       y="-239.94588"
       x="97.017487"
       height="320.59906"
       width="17.81106"
       id="rect8696"
       style="opacity:1;vector-effect:none;fill:none;fill-opacity:1;stroke:#000000;stroke-width:0.52797586;stroke-linecap:round;stroke-linejoin:miter;stroke-miterlimit:4;stroke-dasharray:none;stroke-dashoffset:4.60040331;stroke-opacity:1"
       transform="rotate(90)" />
    <rect
       style="opacity:1;vector-effect:none;fill:none;fill-opacity:1;stroke:#000000;stroke-width:0.52797586;stroke-linecap:round;stroke-linejoin:miter;stroke-miterlimit:4;stroke-dasharray:none;stroke-dashoffset:4.60040331;stroke-opacity:1"
       id="rect8698"
       width="17.81106"
       height="320.59906"
       x="114.82854"
       y="-239.94588"
       transform="rotate(90)" />
    <g
       id="g8756"
       transform="translate(4.4099471,37.685003)">
      <path
         inkscape:connector-curvature="0"
         id="text8526"
         d="m -51.014065,-72.524492 c -0.982133,0 -1.642795,0.643562 -1.642795,1.473295 0,0.829734 0.660662,1.473296 1.642795,1.473296 0.982133,0 1.642277,-0.643922 1.642277,-1.524455 0,-0.8128 -0.660144,-1.422136 -1.642277,-1.422136 z m 77.092968,0 c -0.982134,0 -1.642796,0.643562 -1.642796,1.473295 0,0.829734 0.660662,1.473296 1.642796,1.473296 0.982133,0 1.642276,-0.643922 1.642276,-1.524455 0,-0.8128 -0.660143,-1.422136 -1.642276,-1.422136 z m -73.320589,0.761711 v 12.564607 h 2.641698 v -12.564607 z m 5.093229,0 v 12.564607 h 2.641698 v -12.564607 z m 78.637576,0 v 4.419885 c -0.6604,-0.745067 -1.608849,-1.100708 -2.726449,-1.100708 -2.573867,0 -4.55476,1.828935 -4.55476,4.69067 0,2.861734 1.980893,4.690152 4.55476,4.690152 1.2192,0 2.184387,-0.389073 2.844789,-1.18494 v 1.049548 h 2.523358 v -12.564607 z m -103.170445,0.508496 c -3.776135,0 -6.519499,2.556924 -6.519499,6.129858 0,3.572935 2.743521,6.129859 6.468856,6.129859 1.693334,0 3.488088,-0.525269 4.791955,-1.507402 v -4.809009 h -2.50579 v 3.471623 c -0.694267,0.372533 -1.388653,0.507979 -2.13372,0.507979 -2.269068,0 -3.84421,-1.574782 -3.84421,-3.79305 0,-2.252134 1.574865,-3.79305 3.8778,-3.79305 1.202267,0 2.201329,0.422986 3.064929,1.337386 l 1.761133,-1.62574 c -1.151467,-1.337734 -2.878654,-2.048454 -4.961454,-2.048454 z m 56.108201,0.931209 v 2.217953 h -1.40508 v 2.032434 h 1.40508 v 3.74189 c 0,2.167468 1.2533921,3.268017 3.4039281,3.268017 0.8128,0 1.608389,-0.186208 2.150256,-0.575675 l -0.711068,-1.862419 c -0.287867,0.220134 -0.677135,0.338481 -1.066602,0.338481 -0.7112,0 -1.134813,-0.42306 -1.134813,-1.201994 v -3.7083 h 2.269111 v -2.032434 h -2.269111 v -2.217953 z m -43.34929,1.879472 c -1.405468,0 -2.489159,0.457369 -3.132626,1.337903 v -1.20251 h -2.522843 v 9.110037 h 2.641699 v -4.301029 c 0,-1.744134 0.964774,-2.539896 2.42104,-2.539896 0.203202,0 0.372596,0.01717 0.59273,0.03411 z m 21.049876,0 c -2.777066,0 -4.860168,1.964402 -4.860168,4.69067 0,2.709334 2.04905,4.690152 5.19865,4.690152 1.642533,0 2.912276,-0.507577 3.758943,-1.472778 l -1.405083,-1.523938 c -0.626533,0.592667 -1.320964,0.88005 -2.286164,0.88005 -1.388533,0 -2.353593,-0.693778 -2.607593,-1.828312 h 6.89157 c 0.01693,-0.220134 0.05116,-0.508385 0.05116,-0.711585 0,-2.929467 -2.065845,-4.724259 -4.741315,-4.724259 z m 15.478125,0 c -2.777066,0 -4.860168,1.964402 -4.860168,4.69067 0,2.709334 2.04905,4.690152 5.19865,4.690152 1.642533,0 2.912276,-0.507577 3.758943,-1.472778 l -1.405083,-1.523938 c -0.626533,0.592667 -1.320964,0.88005 -2.286164,0.88005 -1.388533,0 -2.353593,-0.693778 -2.607593,-1.828312 h 6.89157 c 0.01693,-0.220134 0.05116,-0.508385 0.05116,-0.711585 0,-2.929467 -2.065846,-4.724259 -4.741315,-4.724259 z m 22.5484951,0 c -2.523066,0 -4.55527796,1.744298 -4.55527796,4.402832 0,2.658534 2.03221196,4.402315 4.55527796,4.402315 1.1853337,0 2.1841093,-0.372297 2.8783786,-1.134298 v 0.389641 c 0,1.642534 -0.8126227,2.488737 -2.6752896,2.488737 -1.1684,0 -2.438442,-0.405962 -3.217375,-1.032495 l -1.050066,1.896524 c 1.0668,0.829733 2.743327,1.252638 4.47053,1.252638 3.2850667,0 5.1138989,-1.557734 5.1138989,-4.944402 v -7.586099 H 8.1678496 v 1.168404 C 7.473583,-68.020341 6.4240814,-68.443604 5.1540811,-68.443604 Z m 40.5877019,0 c -2.777066,0 -4.860168,1.964402 -4.860168,4.69067 0,2.709334 2.04905,4.690152 5.19865,4.690152 1.642533,0 2.912276,-0.507577 3.758943,-1.472778 l -1.405083,-1.523938 c -0.626533,0.592667 -1.320964,0.88005 -2.286164,0.88005 -1.388533,0 -2.353593,-0.693778 -2.607593,-1.828312 h 6.89157 c 0.01693,-0.220134 0.05116,-0.508385 0.05116,-0.711585 0,-2.929467 -2.065845,-4.724259 -4.741315,-4.724259 z m 10.055717,0 c -2.658533,0 -4.216278,1.21939 -4.216278,2.94659 0,3.640668 5.50354,2.116364 5.50354,3.606498 0,0.508 -0.457184,0.829924 -1.676384,0.829924 -1.1176,0 -2.353932,-0.355633 -3.166732,-0.880567 l -0.880568,1.896525 c 0.846669,0.5588 2.404563,0.981852 3.945496,0.981852 2.726269,0 4.301029,-1.202096 4.301029,-2.89543 0,-3.589868 -5.503539,-2.082737 -5.503539,-3.640604 0,-0.474134 0.508103,-0.84646 1.693436,-0.84646 0.829734,0 1.727179,0.168961 2.624646,0.676961 l 0.880567,-1.879472 c -0.8636,-0.508 -2.252146,-0.795817 -3.505213,-0.795817 z m -108.132415,0.135393 v 9.110037 h 2.641698 v -9.110037 z m 65.400657,0 v 5.148005 c 0,2.810935 1.608336,4.097424 3.894336,4.097424 1.1176,0 2.133468,-0.42318 2.827734,-1.219047 v 1.083655 h 2.506308 v -9.110037 h -2.6417 v 4.504117 c 0,1.676401 -0.880412,2.455664 -2.099612,2.455664 -1.1684,0 -1.845881,-0.677415 -1.845881,-2.201416 v -4.758365 z m 11.69231,0 v 9.110037 h 2.641698 v -9.110037 z m -57.614054,1.862935 c 1.185333,0 2.049256,0.745058 2.235523,1.896525 h -4.487582 c 0.186266,-1.168401 1.049792,-1.896525 2.252059,-1.896525 z m 15.478125,0 c 1.185333,0 2.049256,0.745058 2.235522,1.896525 h -4.487582 c 0.186267,-1.168401 1.049793,-1.896525 2.25206,-1.896525 z m 63.136197,0 c 1.185333,0 2.049256,0.745058 2.235523,1.896525 h -4.487582 c 0.186266,-1.168401 1.049792,-1.896525 2.252059,-1.896525 z m -40.0792069,0.168982 c 1.3885355,0 2.3874514,0.897788 2.3874514,2.235522 0,1.337734 -0.9989159,2.235006 -2.3874514,2.235006 -1.388534,0 -2.404505,-0.897272 -2.404505,-2.235006 0,-1.337734 1.015971,-2.235522 2.404505,-2.235522 z m 28.5408939,0 c 1.303867,0 2.319756,0.948559 2.319756,2.52336 0,1.5748 -1.015889,2.522843 -2.319756,2.522843 -1.3208,0 -2.336807,-0.948043 -2.336807,-2.522843 0,-1.574801 1.016007,-2.52336 2.336807,-2.52336 z"
         style="font-weight:bold;font-size:16.93334007px;line-height:6;font-family:Apercu;-inkscape-font-specification:'Apercu, Bold';text-align:start;letter-spacing:0px;word-spacing:0px;writing-mode:lr-tb;text-anchor:start;stroke:#ffffff;stroke-width:5;stroke-miterlimit:4;stroke-dasharray:none;stroke-opacity:1" />
      <path
         inkscape:connector-curvature="0"
         id="text35540"
         d="m -51.014065,-72.524492 c -0.982134,0 -1.642796,0.643561 -1.642796,1.473295 0,0.829734 0.660662,1.473295 1.642796,1.473295 0.982133,0 1.642276,-0.643921 1.642276,-1.524455 0,-0.8128 -0.660143,-1.422135 -1.642276,-1.422135 z m 77.092967,0 c -0.982133,0 -1.642795,0.643561 -1.642795,1.473295 0,0.829734 0.660662,1.473295 1.642795,1.473295 0.982134,0 1.642277,-0.643921 1.642277,-1.524455 0,-0.8128 -0.660143,-1.422135 -1.642277,-1.422135 z m -73.320588,0.761711 v 12.564607 h 2.641697 v -12.564607 z m 5.093229,0 v 12.564607 h 2.641697 v -12.564607 z m 78.637576,0 v 4.419885 c -0.6604,-0.745067 -1.608849,-1.100708 -2.726449,-1.100708 -2.573867,0 -4.55476,1.828935 -4.55476,4.69067 0,2.861734 1.980893,4.690152 4.55476,4.690152 1.2192,0 2.184386,-0.389073 2.844789,-1.18494 v 1.049548 h 2.523358 v -12.564607 z m -103.170446,0.508496 c -3.776135,0 -6.519498,2.556923 -6.519498,6.129858 0,3.572935 2.743521,6.129858 6.468855,6.129858 1.693334,0 3.488089,-0.525268 4.791956,-1.507401 v -4.809009 h -2.50579 v 3.471623 c -0.694267,0.372533 -1.388653,0.507979 -2.13372,0.507979 -2.269068,0 -3.84421,-1.574783 -3.84421,-3.79305 0,-2.252134 1.574865,-3.79305 3.8778,-3.79305 1.202267,0 2.201328,0.422985 3.064929,1.337386 l 1.761132,-1.62574 c -1.151466,-1.337734 -2.878653,-2.048454 -4.961454,-2.048454 z m 56.108202,0.931209 v 2.217952 h -1.40508 v 2.032434 h 1.40508 v 3.741891 c 0,2.167467 1.2533921,3.268017 3.403928,3.268017 0.8128,0 1.6083889,-0.186208 2.1502555,-0.575675 l -0.7110677,-1.862419 c -0.2878666,0.220134 -0.6771349,0.338481 -1.0666015,0.338481 -0.7112,0 -1.1348138,-0.42306 -1.1348138,-1.201994 v -3.708301 h 2.2691116 v -2.032434 h -2.2691116 v -2.217952 z m -43.349291,1.879472 c -1.405467,0 -2.489158,0.457369 -3.132625,1.337903 v -1.202511 h -2.522844 v 9.110038 h 2.6417 v -4.301029 c 0,-1.744134 0.964773,-2.539897 2.421039,-2.539897 0.203203,0 0.372597,0.01717 0.59273,0.03411 z m 21.049877,0 c -2.777067,0 -4.860168,1.964402 -4.860168,4.69067 0,2.709334 2.04905,4.690152 5.19865,4.690152 1.642533,0 2.912276,-0.507578 3.758943,-1.472778 l -1.405083,-1.523938 c -0.626533,0.592667 -1.320964,0.88005 -2.286164,0.88005 -1.388533,0 -2.353593,-0.693778 -2.607593,-1.828312 h 6.89157 c 0.01693,-0.220134 0.05116,-0.508385 0.05116,-0.711585 0,-2.929468 -2.065846,-4.724259 -4.741315,-4.724259 z m 15.478125,0 c -2.777067,0 -4.860168,1.964402 -4.860168,4.69067 0,2.709334 2.049049,4.690152 5.198649,4.690152 1.642534,0 2.912277,-0.507578 3.758944,-1.472778 l -1.405083,-1.523938 c -0.626534,0.592667 -1.320964,0.88005 -2.286164,0.88005 -1.388534,0 -2.353593,-0.693778 -2.607593,-1.828312 h 6.89157 c 0.01693,-0.220134 0.05116,-0.508385 0.05116,-0.711585 0,-2.929468 -2.065846,-4.724259 -4.741315,-4.724259 z m 22.5484952,0 c -2.5230666,0 -4.55527826,1.744297 -4.55527826,4.402832 0,2.658534 2.03221166,4.402315 4.55527826,4.402315 1.1853333,0 2.1841089,-0.372297 2.8783782,-1.134298 v 0.389641 c 0,1.642534 -0.8126227,2.488737 -2.6752893,2.488737 -1.1684,0 -2.4384423,-0.405962 -3.2173757,-1.032496 l -1.050065,1.896524 c 1.0667999,0.829734 2.7433269,1.252639 4.4705295,1.252639 3.2850667,0 5.1138981,-1.557734 5.1138981,-4.944402 v -7.5861 H 8.1678494 v 1.168404 c -0.6942667,-0.880534 -1.7437682,-1.303796 -3.0137682,-1.303796 z m 40.5877018,0 c -2.777067,0 -4.860168,1.964402 -4.860168,4.69067 0,2.709334 2.04905,4.690152 5.198649,4.690152 1.642534,0 2.912277,-0.507578 3.758944,-1.472778 l -1.405083,-1.523938 c -0.626534,0.592667 -1.320964,0.88005 -2.286164,0.88005 -1.388534,0 -2.353593,-0.693778 -2.607593,-1.828312 h 6.89157 c 0.01693,-0.220134 0.05116,-0.508385 0.05116,-0.711585 0,-2.929468 -2.065846,-4.724259 -4.741315,-4.724259 z m 10.055717,0 c -2.658533,0 -4.216278,1.219389 -4.216278,2.94659 0,3.640668 5.503539,2.116364 5.503539,3.606498 0,0.508 -0.457184,0.829924 -1.676384,0.829924 -1.1176,0 -2.353931,-0.355633 -3.166731,-0.880567 l -0.880568,1.896525 c 0.846669,0.5588 2.404562,0.981852 3.945496,0.981852 2.726269,0 4.301029,-1.202096 4.301029,-2.89543 0,-3.589868 -5.503539,-2.082737 -5.503539,-3.640605 0,-0.474133 0.508103,-0.84646 1.693436,-0.84646 0.829733,0 1.727179,0.168961 2.624646,0.676962 l 0.880567,-1.879472 c -0.8636,-0.508 -2.252146,-0.795817 -3.505213,-0.795817 z m -108.132416,0.135392 v 9.110038 h 2.641698 v -9.110038 z m 65.400658,0 v 5.148006 c 0,2.810935 1.608336,4.097424 3.894336,4.097424 1.1176,0 2.133467,-0.42318 2.827734,-1.219047 v 1.083655 h 2.506308 v -9.110038 h -2.641701 v 4.504118 c 0,1.676401 -0.880411,2.455664 -2.099611,2.455664 -1.1684,0 -1.845882,-0.677416 -1.845882,-2.201416 v -4.758366 z m 11.69231,0 v 9.110038 h 2.641698 v -9.110038 z m -57.614054,1.862935 c 1.185333,0 2.049256,0.745058 2.235522,1.896525 h -4.487582 c 0.186267,-1.1684 1.049793,-1.896525 2.25206,-1.896525 z m 15.478124,0 c 1.185334,0 2.049256,0.745058 2.235523,1.896525 h -4.487582 c 0.186267,-1.1684 1.049793,-1.896525 2.252059,-1.896525 z m 63.136197,0 c 1.185334,0 2.049257,0.745058 2.235523,1.896525 H 43.50626 c 0.186267,-1.1684 1.049793,-1.896525 2.252059,-1.896525 z m -40.0792066,0.168982 c 1.388536,0 2.3874518,0.897789 2.3874518,2.235523 0,1.337734 -0.9989158,2.235006 -2.3874518,2.235006 -1.3885333,0 -2.4045042,-0.897272 -2.4045042,-2.235006 0,-1.337734 1.0159709,-2.235523 2.4045042,-2.235523 z m 28.5408946,0 c 1.303867,0 2.319756,0.94856 2.319756,2.523361 0,1.5748 -1.015889,2.522843 -2.319756,2.522843 -1.3208,0 -2.336808,-0.948043 -2.336808,-2.522843 0,-1.574801 1.016008,-2.523361 2.336808,-2.523361 z"
         style="font-weight:bold;font-size:16.93334007px;line-height:6;font-family:Apercu;-inkscape-font-specification:'Apercu, Bold';text-align:start;letter-spacing:0px;word-spacing:0px;writing-mode:lr-tb;text-anchor:start;stroke-width:0.52916598" />
    </g>
  </g>
</svg>
