<?xml version="1.0" encoding="UTF-8" standalone="no"?>
<!-- Created with Inkscape (http://www.inkscape.org/) -->

<svg
   xmlns:dc="http://purl.org/dc/elements/1.1/"
   xmlns:cc="http://creativecommons.org/ns#"
   xmlns:rdf="http://www.w3.org/1999/02/22-rdf-syntax-ns#"
   xmlns:svg="http://www.w3.org/2000/svg"
   xmlns="http://www.w3.org/2000/svg"
   xmlns:sodipodi="http://sodipodi.sourceforge.net/DTD/sodipodi-0.dtd"
   xmlns:inkscape="http://www.inkscape.org/namespaces/inkscape"
   width="320.59906mm"
   height="180.3373mm"
   viewBox="0 0 320.59906 180.3373"
   version="1.1"
   id="svg4519"
   inkscape:version="0.92.4 (5da689c313, 2019-01-14)"
   sodipodi:docname="s_4_2.svg">
  <defs
     id="defs4513" />
  <sodipodi:namedview
     id="base"
     pagecolor="#ffffff"
     bordercolor="#666666"
     borderopacity="1.0"
     inkscape:pageopacity="0.0"
     inkscape:pageshadow="2"
     inkscape:zoom="0.70000001"
     inkscape:cx="765.06805"
     inkscape:cy="249.27434"
     inkscape:document-units="mm"
     inkscape:current-layer="layer1"
     showgrid="false"
     fit-margin-top="0"
     fit-margin-left="0"
     fit-margin-right="0"
     fit-margin-bottom="0"
     inkscape:window-width="1920"
     inkscape:window-height="986"
     inkscape:window-x="-11"
     inkscape:window-y="-11"
     inkscape:window-maximized="1"
     inkscape:snap-page="true" />
  <metadata
     id="metadata4516">
    <rdf:RDF>
      <cc:Work
         rdf:about="">
        <dc:format>image/svg+xml</dc:format>
        <dc:type
           rdf:resource="http://purl.org/dc/dcmitype/StillImage" />
        <dc:title></dc:title>
      </cc:Work>
    </rdf:RDF>
  </metadata>
  <g
     inkscape:label="Layer 1"
     inkscape:groupmode="layer"
     id="layer1"
     transform="translate(80.653183,45.470983)">
    <path
       style="fill:#3a9ab9;fill-opacity:1;stroke:none;stroke-width:1.00187171;stroke-miterlimit:4;stroke-dasharray:none;stroke-opacity:1"
       d="M -80.653183,-45.470983 V 134.86631 H 239.94587 V -45.470983 Z"
       id="rect6732"
       inkscape:connector-curvature="0" />
    <g
       id="g3277"
       transform="translate(-3.7797618,-2.3573013)">
      <rect
         style="opacity:1;vector-effect:none;fill:#f5f5f5;fill-opacity:1;fill-rule:evenodd;stroke:none;stroke-width:1.37567377;stroke-linecap:round;stroke-linejoin:round;stroke-miterlimit:4;stroke-dasharray:none;stroke-dashoffset:1.21719003;stroke-opacity:1"
         id="rect35410"
         width="83.025673"
         height="64.009315"
         x="-32.924072"
         y="37.542931"
         rx="8.576005"
         ry="8.576005" />
      <path
         inkscape:connector-curvature="0"
         style="fill:#000000;fill-opacity:1;stroke:#ffffff;stroke-width:1.37567377;stroke-linecap:round;stroke-linejoin:round;stroke-miterlimit:4;stroke-dasharray:none;stroke-opacity:1"
         d="m 8.1958502,87.514721 -3.633974,-13.56268 -6.898273,6.898199 V 51.580511 L 18.36047,72.277304 8.6048932,72.277231 15.625367,84.437163 Z"
         id="path35404"
         sodipodi:nodetypes="cccccccc" />
    </g>
    <g
       id="g3286"
       transform="translate(9.8273808,-0.75595237)">
      <rect
         style="vector-effect:none;fill:#f5f5f5;fill-opacity:1;fill-rule:evenodd;stroke:none;stroke-width:1.37567377;stroke-linecap:round;stroke-linejoin:round;stroke-miterlimit:4;stroke-dasharray:none;stroke-dashoffset:1.21719003;stroke-opacity:1"
         id="rect35458"
         width="83.025673"
         height="64.009315"
         x="107.98185"
         y="35.941582"
         rx="8.576005"
         ry="8.576005" />
      <g
         id="g3257">
        <path
           inkscape:connector-curvature="0"
           style="fill:none;stroke:#000000;stroke-width:1.93606329px;stroke-linecap:butt;stroke-linejoin:miter;stroke-opacity:1"
           d="m 131.11268,86.247709 c 0,-5.890226 -1.44453,-21.365752 8.61296,-29.79351 10.05742,-8.427758 28.56302,-6.942982 28.56302,-6.942982"
           id="path35445"
           sodipodi:nodetypes="czc" />
        <path
           inkscape:connector-curvature="0"
           style="fill:#000000;fill-opacity:1;stroke:#000000;stroke-width:0.73174143;stroke-linecap:butt;stroke-linejoin:round;stroke-miterlimit:4;stroke-dasharray:none;stroke-opacity:1"
           d="m 167.96171,76.907249 -9.4478,9.447806 -13.63476,-23.082563 23.08256,13.634757 -9.4478,9.447806"
           id="path35449"
           sodipodi:nodetypes="ccccc" />
        <rect
           style="opacity:1;vector-effect:none;fill:#0057e0;fill-opacity:0.58476192;fill-rule:evenodd;stroke:#0047d9;stroke-width:1.37567377;stroke-linecap:round;stroke-linejoin:miter;stroke-miterlimit:4;stroke-dasharray:none;stroke-dashoffset:1.21719003;stroke-opacity:1"
           id="rect35416"
           width="11.621109"
           height="11.993979"
           x="133.2581"
           y="51.278561"
           rx="0"
           ry="0" />
        <rect
           style="opacity:1;vector-effect:none;fill:#0057e0;fill-opacity:0.58476192;fill-rule:evenodd;stroke:#0047d9;stroke-width:1.37567377;stroke-linecap:round;stroke-linejoin:miter;stroke-miterlimit:4;stroke-dasharray:none;stroke-dashoffset:1.21719003;stroke-opacity:1"
           id="rect35418"
           width="7.954556"
           height="8.4517155"
           x="164.08199"
           y="45.374699" />
        <rect
           style="opacity:1;vector-effect:none;fill:#0057e0;fill-opacity:0.58476192;fill-rule:evenodd;stroke:#0047d9;stroke-width:1.37567377;stroke-linecap:round;stroke-linejoin:miter;stroke-miterlimit:4;stroke-dasharray:none;stroke-dashoffset:1.21719003;stroke-opacity:1"
           id="rect35420"
           width="7.954556"
           height="8.4517155"
           x="126.95273"
           y="82.066055" />
      </g>
    </g>
    <path
       style="font-style:normal;font-variant:normal;font-weight:600;font-stretch:normal;font-size:15.47004032px;line-height:1;font-family:Montserrat;-inkscape-font-specification:'Montserrat, Semi-Bold';font-variant-ligatures:normal;font-variant-caps:normal;font-variant-numeric:normal;font-feature-settings:normal;text-align:center;letter-spacing:0px;word-spacing:0px;writing-mode:lr-tb;text-anchor:middle;fill:#000000;fill-opacity:1;stroke:none;stroke-width:1.46173608"
       d="M 470.77539 143.56641 C 468.0858 143.56641 466.09766 145.49546 466.09766 147.95117 C 466.09766 150.40689 468.0858 152.33789 470.77539 152.33789 C 473.52345 152.33789 475.45117 150.35 475.45117 147.77734 C 475.45117 145.3801 473.46499 143.56641 470.77539 143.56641 z M 334.77734 145.20312 L 326.88281 153.21484 L 333.19727 153.21484 L 343.37109 145.20312 L 334.77734 145.20312 z M 218.91211 145.32031 L 218.91211 161.3418 C 216.45639 158.47679 212.88986 157.13281 208.85547 157.13281 C 199.7927 157.13281 193.06836 163.38782 193.06836 173.09375 C 193.06836 182.79968 199.7927 189.11523 208.85547 189.11523 C 213.12374 189.11523 216.74936 187.65382 219.20508 184.67188 L 219.20508 188.70508 L 226.2207 188.70508 L 226.2207 145.32031 L 218.91211 145.32031 z M 354.7207 145.32031 L 354.7207 188.70508 L 362.0293 188.70508 L 362.0293 145.32031 L 354.7207 145.32031 z M 102.81445 147.77734 L 102.81445 188.70508 L 110.06641 188.70508 L 110.06641 161.92578 L 123.51367 184.02734 L 126.9043 184.02734 L 140.35352 161.57617 L 140.41211 188.70508 L 147.60352 188.70508 L 147.54492 147.77734 L 141.28906 147.77734 L 125.32617 174.90625 L 109.07227 147.77734 L 102.81445 147.77734 z M 443.30469 150.58398 L 443.30469 157.7168 L 438.1582 157.7168 L 438.1582 163.5625 L 443.30469 163.5625 L 443.30469 178.58984 C 443.30469 185.48924 447.22158 189.11523 454.0625 189.11523 C 456.69362 189.11523 459.32404 188.41303 461.07812 187.00977 L 459.03125 181.80664 C 457.92033 182.68368 456.45966 183.0918 454.93945 183.0918 C 452.13292 183.0918 450.61328 181.45447 450.61328 178.41406 L 450.61328 163.5625 L 458.97461 163.5625 L 458.97461 157.7168 L 450.61328 157.7168 L 450.61328 150.58398 L 443.30469 150.58398 z M 171.99023 157.13281 C 162.40125 157.13281 155.38477 163.73864 155.38477 173.09375 C 155.38477 182.44886 162.40125 189.11523 171.99023 189.11523 C 181.69616 189.11523 188.65234 182.44886 188.65234 173.09375 C 188.65234 163.73864 181.69616 157.13281 171.99023 157.13281 z M 249.4043 157.13281 C 240.10766 157.13281 233.26758 163.79711 233.26758 173.09375 C 233.26758 182.39039 240.04959 189.11523 250.51562 189.11523 C 255.89481 189.11523 260.2794 187.3601 263.08594 184.02734 L 259.16992 179.52539 C 256.94808 181.8057 254.19957 182.91602 250.69141 182.91602 C 245.25375 182.91602 241.45321 179.99421 240.57617 175.43359 L 265.07422 175.43359 C 265.13269 174.73196 265.19141 173.85423 265.19141 173.26953 C 265.19141 163.50513 258.52553 157.13281 249.4043 157.13281 z M 299.36523 157.13281 C 290.94563 157.13281 285.625 160.99107 285.625 166.89648 C 285.625 179.35048 304.91992 173.73729 304.91992 179.70117 C 304.91992 181.86454 302.99018 183.15039 298.37109 183.15039 C 294.45364 183.15039 290.24416 181.86529 287.49609 180.05273 L 284.68945 185.60742 C 287.49599 187.59538 292.70052 189.11523 297.9043 189.11523 C 306.67471 189.11523 312.05469 185.31374 312.05469 179.4668 C 312.05469 167.24668 292.75977 172.85962 292.75977 166.54492 C 292.75977 164.49849 294.86296 163.03711 299.30664 163.03711 C 302.28858 163.03711 305.27196 163.62287 308.25391 165.37695 L 311.06055 159.82227 C 308.25401 158.12665 303.51656 157.13281 299.36523 157.13281 z M 331.9707 157.13281 C 322.67406 157.13281 315.83203 163.79711 315.83203 173.09375 C 315.83203 182.39039 322.61405 189.11523 333.08008 189.11523 C 338.45927 189.11523 342.84581 187.3601 345.65234 184.02734 L 341.73438 179.52539 C 339.51254 181.8057 336.76403 182.91602 333.25586 182.91602 C 327.8182 182.91602 324.01767 179.99421 323.14062 175.43359 L 347.64062 175.43359 C 347.69909 174.73196 347.75586 173.85423 347.75586 173.26953 C 347.75586 163.50513 341.09194 157.13281 331.9707 157.13281 z M 385.18555 157.13281 C 375.88891 157.13281 369.04883 163.79711 369.04883 173.09375 C 369.04883 182.39039 375.83084 189.11523 386.29688 189.11523 C 391.67606 189.11523 396.06065 187.3601 398.86719 184.02734 L 394.95117 179.52539 C 392.72933 181.8057 389.98082 182.91602 386.47266 182.91602 C 381.035 182.91602 377.23446 179.99421 376.35742 175.43359 L 400.85547 175.43359 C 400.91394 174.73196 400.97266 173.85423 400.97266 173.26953 C 400.97266 163.50513 394.30678 157.13281 385.18555 157.13281 z M 422.26172 157.13281 C 412.38038 157.13281 405.36328 163.73864 405.36328 173.09375 C 405.36328 182.44886 412.38038 189.11523 422.26172 189.11523 C 428.34254 189.11523 433.19455 186.4842 435.5918 181.80664 L 429.97852 178.53125 C 428.10749 181.51319 425.30201 182.85742 422.20312 182.85742 C 416.82394 182.85742 412.73047 179.17457 412.73047 173.09375 C 412.73047 167.0714 416.82394 163.33008 422.20312 163.33008 C 425.30201 163.33008 428.10749 164.67431 429.97852 167.65625 L 435.5918 164.38281 C 433.19455 159.64679 428.34254 157.13281 422.26172 157.13281 z M 498.02539 157.13281 C 488.4364 157.13281 481.41992 163.73864 481.41992 173.09375 C 481.41992 182.44886 488.4364 189.11523 498.02539 189.11523 C 507.73132 189.11523 514.68945 182.44886 514.68945 173.09375 C 514.68945 163.73864 507.73132 157.13281 498.02539 157.13281 z M 539.39453 157.13281 C 534.83391 157.13281 531.03201 158.65258 528.63477 161.51758 L 528.63477 157.48242 L 521.67773 157.48242 L 521.67773 188.70508 L 528.98633 188.70508 L 528.98633 172.91797 C 528.98633 166.66174 532.49544 163.50586 537.69922 163.50586 C 542.37677 163.50586 545.12305 166.1954 545.12305 171.75 L 545.12305 188.70508 L 552.43164 188.70508 L 552.43164 170.81445 C 552.43164 161.40087 546.87862 157.13281 539.39453 157.13281 z M 467.0918 157.48242 L 467.0918 188.70508 L 474.40039 188.70508 L 474.40039 157.48242 L 467.0918 157.48242 z M 249.4043 162.97852 C 254.19879 162.97852 257.64968 166.07793 258.23438 170.58008 L 240.51758 170.58008 C 241.21921 166.01946 244.66827 162.97852 249.4043 162.97852 z M 331.9707 162.97852 C 336.7652 162.97852 340.21413 166.07793 340.79883 170.58008 L 323.08203 170.58008 C 323.78366 166.01946 327.23468 162.97852 331.9707 162.97852 z M 385.18555 162.97852 C 389.98004 162.97852 393.43093 166.07793 394.01562 170.58008 L 376.29883 170.58008 C 377.00046 166.01946 380.44952 162.97852 385.18555 162.97852 z M 171.99023 163.33008 C 177.31095 163.33008 181.28516 167.12987 181.28516 173.09375 C 181.28516 179.05763 177.31095 182.85742 171.99023 182.85742 C 166.72798 182.85742 162.75195 179.05763 162.75195 173.09375 C 162.75195 167.12987 166.72798 163.33008 171.99023 163.33008 z M 209.73242 163.33008 C 214.99467 163.33008 219.0293 167.12987 219.0293 173.09375 C 219.0293 179.05763 214.99467 182.85742 209.73242 182.85742 C 204.47017 182.85742 200.43555 179.05763 200.43555 173.09375 C 200.43555 167.12987 204.47017 163.33008 209.73242 163.33008 z M 498.02539 163.33008 C 503.34611 163.33008 507.32227 167.12987 507.32227 173.09375 C 507.32227 179.05763 503.34611 182.85742 498.02539 182.85742 C 492.76314 182.85742 488.78711 179.05763 488.78711 173.09375 C 488.78711 167.12987 492.76314 163.33008 498.02539 163.33008 z M 506.63281 202.03711 C 503.94322 202.03711 501.95508 203.96616 501.95508 206.42188 C 501.95508 208.87759 503.94322 210.80664 506.63281 210.80664 C 509.38088 210.80664 511.31055 208.81875 511.31055 206.24609 C 511.31055 203.84885 509.32241 202.03711 506.63281 202.03711 z M 310.24023 203.38086 C 302.99002 203.38086 299.07227 207.64869 299.07227 214.19727 L 299.07227 216.18555 L 293.92578 216.18555 L 293.92578 222.0332 L 299.07227 222.0332 L 299.07227 247.17383 L 306.38086 247.17383 L 306.38086 222.0332 L 314.74219 222.0332 L 314.74219 216.18555 L 306.14648 216.18555 L 306.14648 214.31445 C 306.14648 210.98169 307.72521 209.28711 310.76562 209.28711 C 312.28583 209.28711 313.68986 209.81216 314.80078 210.57227 L 316.8457 205.07617 C 315.20856 203.90678 312.75442 203.38086 310.24023 203.38086 z M 103.56445 209.05273 L 103.56445 216.18555 L 98.419922 216.18555 L 98.419922 222.0332 L 103.56445 222.0332 L 103.56445 237.05859 C 103.56445 243.95799 107.48134 247.58398 114.32227 247.58398 C 116.95339 247.58398 119.58576 246.88178 121.33984 245.47852 L 119.29297 240.27539 C 118.18205 241.15243 116.71942 241.5625 115.19922 241.5625 C 112.39269 241.5625 110.87305 239.92518 110.87305 236.88477 L 110.87305 222.0332 L 119.23438 222.0332 L 119.23438 216.18555 L 110.87305 216.18555 L 110.87305 209.05273 L 103.56445 209.05273 z M 144.44727 209.05273 L 144.44727 216.18555 L 139.30273 216.18555 L 139.30273 222.0332 L 144.44727 222.0332 L 144.44727 237.05859 C 144.44727 243.95799 148.36415 247.58398 155.20508 247.58398 C 157.8362 247.58398 160.46857 246.88178 162.22266 245.47852 L 160.17578 240.27539 C 159.06486 241.15243 157.60224 241.5625 156.08203 241.5625 C 153.2755 241.5625 151.75586 239.92518 151.75586 236.88477 L 151.75586 222.0332 L 160.11719 222.0332 L 160.11719 216.18555 L 151.75586 216.18555 L 151.75586 209.05273 L 144.44727 209.05273 z M 479.16211 209.05273 L 479.16211 216.18555 L 474.01758 216.18555 L 474.01758 222.0332 L 479.16211 222.0332 L 479.16211 237.05859 C 479.16211 243.95799 483.079 247.58398 489.91992 247.58398 C 492.55105 247.58398 495.18342 246.88178 496.9375 245.47852 L 494.89062 240.27539 C 493.77971 241.15243 492.31708 241.5625 490.79688 241.5625 C 487.99034 241.5625 486.4707 239.92518 486.4707 236.88477 L 486.4707 222.0332 L 494.83203 222.0332 L 494.83203 216.18555 L 486.4707 216.18555 L 486.4707 209.05273 L 479.16211 209.05273 z M 79.820312 215.60156 C 70.523671 215.60156 63.683594 222.26586 63.683594 231.5625 C 63.683594 240.85914 70.46561 247.58398 80.931641 247.58398 C 86.310829 247.58398 90.69542 245.83081 93.501953 242.49805 L 89.583984 237.99414 C 87.362146 240.27445 84.615588 241.38672 81.107422 241.38672 C 75.669764 241.38672 71.869229 238.46296 70.992188 233.90234 L 95.490234 233.90234 C 95.548704 233.20071 95.607422 232.32298 95.607422 231.73828 C 95.607422 221.97388 88.941546 215.60156 79.820312 215.60156 z M 186.30078 215.60156 C 181.097 215.60156 177.29631 217.23938 175.19141 220.51367 L 175.19141 215.95117 L 168.23438 215.95117 L 168.23438 247.17383 L 175.54297 247.17383 L 175.54297 232.03125 C 175.54297 225.65808 179.05087 222.38281 184.60547 222.38281 C 185.13169 222.38281 185.65762 222.44165 186.30078 222.55859 L 186.30078 215.60156 z M 204.25781 215.60156 C 199.22944 215.60156 194.37573 216.88828 191.04297 219.46094 L 193.9082 224.78125 C 196.24698 222.85176 199.87269 221.68164 203.38086 221.68164 C 208.58464 221.68164 211.1582 224.19657 211.1582 228.46484 L 211.1582 228.93164 L 203.08789 228.93164 C 193.61584 228.93164 190.10742 233.02474 190.10742 238.22852 C 190.10742 243.66617 194.61087 247.58398 201.74414 247.58398 C 206.4217 247.58398 209.81232 246.06459 211.56641 243.375 L 211.56641 247.17383 L 218.4668 247.17383 L 218.4668 228.87305 C 218.4668 219.86875 213.26211 215.60156 204.25781 215.60156 z M 245.5625 215.60156 C 241.00188 215.60156 237.20193 217.12133 234.80469 219.98633 L 234.80469 215.95117 L 227.8457 215.95117 L 227.8457 247.17383 L 235.1543 247.17383 L 235.1543 231.38867 C 235.1543 225.13244 238.66341 221.97461 243.86719 221.97461 C 248.54474 221.97461 251.29297 224.66415 251.29297 230.21875 L 251.29297 247.17383 L 258.60156 247.17383 L 258.60156 229.2832 C 258.60156 219.86962 253.04659 215.60156 245.5625 215.60156 z M 279.03906 215.60156 C 270.61946 215.60156 265.29883 219.45982 265.29883 225.36523 C 265.29883 237.81923 284.59375 232.20604 284.59375 238.16992 C 284.59375 240.33329 282.66401 241.62109 278.04492 241.62109 C 274.12747 241.62109 269.91799 240.33404 267.16992 238.52148 L 264.36328 244.07617 C 267.16981 246.06413 272.37239 247.58398 277.57617 247.58398 C 286.34659 247.58398 291.72656 243.78444 291.72656 237.9375 C 291.72656 225.71739 272.43164 231.33032 272.43164 225.01562 C 272.43164 222.96919 274.53679 221.50586 278.98047 221.50586 C 281.96241 221.50586 284.94384 222.09162 287.92578 223.8457 L 290.73242 218.29102 C 287.92589 216.5954 283.19039 215.60156 279.03906 215.60156 z M 333.23633 215.60156 C 323.64734 215.60156 316.63086 222.20739 316.63086 231.5625 C 316.63086 240.91761 323.64734 247.58398 333.23633 247.58398 C 342.94226 247.58398 349.90039 240.91761 349.90039 231.5625 C 349.90039 222.20739 342.94226 215.60156 333.23633 215.60156 z M 374.95703 215.60156 C 369.75325 215.60156 365.95256 217.23938 363.84766 220.51367 L 363.84766 215.95117 L 356.89062 215.95117 L 356.89062 247.17383 L 364.19922 247.17383 L 364.19922 232.03125 C 364.19922 225.65808 367.70712 222.38281 373.26172 222.38281 C 373.78794 222.38281 374.31387 222.44165 374.95703 222.55859 L 374.95703 215.60156 z M 398.28906 215.60156 C 394.02079 215.60156 390.39737 217.1212 388.05859 219.92773 L 388.05859 215.95117 L 381.09961 215.95117 L 381.09961 247.17383 L 388.4082 247.17383 L 388.4082 231.33008 C 388.4082 225.13232 391.68219 221.97461 396.53516 221.97461 C 400.97883 221.97461 403.55273 224.66415 403.55273 230.21875 L 403.55273 247.17383 L 410.86133 247.17383 L 410.86133 231.33008 C 410.86133 225.13232 414.19379 221.97461 418.98828 221.97461 C 423.43196 221.97461 426.00391 224.66415 426.00391 230.21875 L 426.00391 247.17383 L 433.3125 247.17383 L 433.3125 229.2832 C 433.3125 219.86962 428.05037 215.60156 420.50781 215.60156 C 415.53791 215.60156 411.32864 217.58887 408.81445 220.80469 C 406.65108 217.29652 402.84968 215.60156 398.28906 215.60156 z M 454.58008 215.60156 C 449.55171 215.60156 444.69995 216.88828 441.36719 219.46094 L 444.23047 224.78125 C 446.56925 222.85176 450.19496 221.68164 453.70312 221.68164 C 458.90691 221.68164 461.48047 224.19657 461.48047 228.46484 L 461.48047 228.93164 L 453.41016 228.93164 C 443.93811 228.93164 440.43164 233.02474 440.43164 238.22852 C 440.43164 243.66617 444.93313 247.58398 452.06641 247.58398 C 456.74396 247.58398 460.13459 246.06459 461.88867 243.375 L 461.88867 247.17383 L 468.78906 247.17383 L 468.78906 228.87305 C 468.78906 219.86875 463.58437 215.60156 454.58008 215.60156 z M 533.88281 215.60156 C 524.29382 215.60156 517.27734 222.20739 517.27734 231.5625 C 517.27734 240.91761 524.29382 247.58398 533.88281 247.58398 C 543.58874 247.58398 550.54687 240.91761 550.54688 231.5625 C 550.54688 222.20739 543.58874 215.60156 533.88281 215.60156 z M 575.25195 215.60156 C 570.69134 215.60156 566.89139 217.12133 564.49414 219.98633 L 564.49414 215.95117 L 557.53516 215.95117 L 557.53516 247.17383 L 564.84375 247.17383 L 564.84375 231.38867 C 564.84375 225.13244 568.35286 221.97461 573.55664 221.97461 C 578.2342 221.97461 580.98242 224.66415 580.98242 230.21875 L 580.98242 247.17383 L 588.29102 247.17383 L 588.29102 229.2832 C 588.29102 219.86962 582.73604 215.60156 575.25195 215.60156 z M 502.94922 215.95117 L 502.94922 247.17383 L 510.25781 247.17383 L 510.25781 215.95117 L 502.94922 215.95117 z M 79.820312 221.44727 C 84.614807 221.44727 88.063743 224.54668 88.648438 229.04883 L 70.933594 229.04883 C 71.635227 224.48821 75.084288 221.44727 79.820312 221.44727 z M 333.23633 221.79883 C 338.55705 221.79883 342.5332 225.59862 342.5332 231.5625 C 342.5332 237.52638 338.55705 241.32812 333.23633 241.32812 C 327.97408 241.32812 323.99805 237.52638 323.99805 231.5625 C 323.99805 225.59862 327.97408 221.79883 333.23633 221.79883 z M 533.88281 221.79883 C 539.20353 221.79883 543.17969 225.59862 543.17969 231.5625 C 543.17969 237.52638 539.20353 241.32812 533.88281 241.32812 C 528.62056 241.32812 524.64453 237.52638 524.64453 231.5625 C 524.64453 225.59862 528.62056 221.79883 533.88281 221.79883 z M 203.61523 233.78516 L 211.1582 233.78516 L 211.1582 237.41016 C 209.93034 240.62598 206.83031 242.26367 203.26367 242.26367 C 199.52163 242.26367 197.30078 240.56862 197.30078 237.9375 C 197.30078 235.65719 198.64533 233.78516 203.61523 233.78516 z M 453.9375 233.78516 L 461.48047 233.78516 L 461.48047 237.41016 C 460.25261 240.62598 457.15257 242.26367 453.58594 242.26367 C 449.84389 242.26367 447.62305 240.56862 447.62305 237.9375 C 447.62305 235.65719 448.9676 233.78516 453.9375 233.78516 z "
       transform="matrix(0.26458333,0,0,0.26458333,-80.653183,-45.470983)"
       id="text3261" />
    <path
       style="font-style:normal;font-variant:normal;font-weight:600;font-stretch:normal;font-size:15.47004032px;line-height:1;font-family:Montserrat;-inkscape-font-specification:'Montserrat, Semi-Bold';font-variant-ligatures:normal;font-variant-caps:normal;font-variant-numeric:normal;font-feature-settings:normal;text-align:center;letter-spacing:0px;word-spacing:0px;writing-mode:lr-tb;text-anchor:middle;fill:#000000;fill-opacity:1;stroke:none;stroke-width:1.46173608"
       d="M 836.4707 143.56641 L 836.4707 159.58789 C 834.01499 156.72289 830.44845 155.37695 826.41406 155.37695 C 817.3513 155.37695 810.62695 161.63392 810.62695 171.33984 C 810.62695 181.04577 817.3513 187.36133 826.41406 187.36133 C 830.68233 187.36133 834.30796 185.89796 836.76367 182.91602 L 836.76367 186.95117 L 843.7793 186.95117 L 843.7793 143.56641 L 836.4707 143.56641 z M 1071.6055 143.56641 L 1071.6055 159.58789 C 1069.1498 156.72289 1065.5832 155.37695 1061.5488 155.37695 C 1052.4861 155.37695 1045.7617 161.63392 1045.7617 171.33984 C 1045.7617 181.04577 1052.4861 187.36133 1061.5488 187.36133 C 1065.8171 187.36133 1069.4408 185.89796 1071.8965 182.91602 L 1071.8965 186.95117 L 1078.9141 186.95117 L 1078.9141 143.56641 L 1071.6055 143.56641 z M 720.37305 146.02344 L 720.37305 186.95117 L 727.62305 186.95117 L 727.62305 160.17188 L 741.07227 182.27344 L 744.46289 182.27344 L 757.91016 159.82227 L 757.96875 186.95117 L 765.16016 186.95117 L 765.10156 146.02344 L 758.8457 146.02344 L 742.88477 173.15234 L 726.62891 146.02344 L 720.37305 146.02344 z M 789.54688 155.37695 C 779.95789 155.37695 772.94141 161.98473 772.94141 171.33984 C 772.94141 180.69495 779.95789 187.36133 789.54688 187.36133 C 799.2528 187.36133 806.21094 180.69495 806.21094 171.33984 C 806.21094 161.98473 799.2528 155.37695 789.54688 155.37695 z M 866.96289 155.37695 C 857.66625 155.37695 850.82422 162.0432 850.82422 171.33984 C 850.82422 180.63649 857.60819 187.36133 868.07422 187.36133 C 873.45341 187.36133 877.838 185.6062 880.64453 182.27344 L 876.72656 177.77148 C 874.50472 180.05179 871.75621 181.16211 868.24805 181.16211 C 862.81039 181.16211 859.00985 178.23835 858.13281 173.67773 L 882.63281 173.67773 C 882.69128 172.9761 882.75 172.10032 882.75 171.51562 C 882.75 161.75123 876.08412 155.37695 866.96289 155.37695 z M 923.53125 155.37695 C 918.97063 155.37695 915.16873 156.89867 912.77148 159.76367 L 912.77148 155.72852 L 905.81445 155.72852 L 905.81445 186.95117 L 913.12305 186.95117 L 913.12305 171.16406 C 913.12305 164.90783 916.63216 161.75 921.83594 161.75 C 926.51349 161.75 929.26172 164.43954 929.26172 169.99414 L 929.26172 186.95117 L 936.57031 186.95117 L 936.57031 169.06055 C 936.57031 159.64697 931.01534 155.37695 923.53125 155.37695 z M 960.27344 155.37695 C 950.68445 155.37695 943.66797 161.98473 943.66797 171.33984 C 943.66797 180.69495 950.68445 187.36133 960.27344 187.36133 C 965.94497 187.36133 970.44725 185.02122 973.19531 181.2207 C 976.06032 185.02122 980.73766 187.36133 986.87695 187.36133 C 992.19767 187.36133 996.58226 185.6062 999.44727 182.27344 L 995.47266 177.77148 C 993.25082 180.05179 990.50243 181.16211 987.05273 181.16211 C 981.55661 181.16211 977.75595 178.23835 976.87891 173.67773 L 1001.4355 173.67773 C 1001.494 172.9761 1001.5527 172.15879 1001.5527 171.51562 C 1001.5527 161.75123 994.88673 155.37695 985.70703 155.37695 C 980.32784 155.37695 975.88478 157.65835 973.13672 161.40039 C 970.38865 157.65835 965.8865 155.37695 960.27344 155.37695 z M 1099.6406 155.37695 C 1091.221 155.37695 1085.9004 159.23716 1085.9004 165.14258 C 1085.9004 177.59657 1105.1953 171.98338 1105.1953 177.94727 C 1105.1953 180.11064 1103.2656 181.39648 1098.6465 181.39648 C 1094.729 181.39648 1090.5195 180.10943 1087.7715 178.29688 L 1084.9648 183.85156 C 1087.7714 185.83952 1092.9759 187.36133 1098.1797 187.36133 C 1106.9501 187.36133 1112.3281 183.55983 1112.3281 177.71289 C 1112.3281 165.49278 1093.0332 171.10572 1093.0332 164.79102 C 1093.0332 162.74459 1095.1384 161.2832 1099.582 161.2832 C 1102.564 161.2832 1105.5454 161.86701 1108.5273 163.62109 L 1111.334 158.06641 C 1108.5275 156.37079 1103.792 155.37695 1099.6406 155.37695 z M 1008.2441 155.72852 L 1008.2441 173.5625 C 1008.2441 182.97608 1013.683 187.36133 1021.6934 187.36133 C 1025.7278 187.36133 1029.4112 185.83961 1031.75 182.97461 L 1031.75 186.95117 L 1038.707 186.95117 L 1038.707 155.72852 L 1031.3984 155.72852 L 1031.3984 171.51562 C 1031.3984 177.77186 1027.9482 180.92969 1022.8613 180.92969 C 1018.2422 180.92969 1015.5527 178.2399 1015.5527 172.56836 L 1015.5527 155.72852 L 1008.2441 155.72852 z M 866.96289 161.22461 C 871.75739 161.22461 875.20632 164.32402 875.79102 168.82617 L 858.07422 168.82617 C 858.77585 164.26556 862.22687 161.22461 866.96289 161.22461 z M 985.70703 161.22461 C 990.50153 161.22461 993.95241 164.32402 994.53711 168.82617 L 976.82031 168.82617 C 977.52195 164.26556 980.97101 161.22461 985.70703 161.22461 z M 789.54688 161.57617 C 794.86759 161.57617 798.84375 165.37596 798.84375 171.33984 C 798.84375 177.30373 794.86759 181.10352 789.54688 181.10352 C 784.28463 181.10352 780.30859 177.30373 780.30859 171.33984 C 780.30859 165.37596 784.28463 161.57617 789.54688 161.57617 z M 827.29102 161.57617 C 832.55327 161.57617 836.58789 165.37596 836.58789 171.33984 C 836.58789 177.30373 832.55327 181.10352 827.29102 181.10352 C 822.02877 181.10352 817.99414 177.30373 817.99414 171.33984 C 817.99414 165.37596 822.02877 161.57617 827.29102 161.57617 z M 960.27344 161.57617 C 965.59416 161.57617 969.57031 165.37596 969.57031 171.33984 C 969.57031 177.30373 965.59416 181.10352 960.27344 181.10352 C 955.01119 181.10352 951.03516 177.30373 951.03516 171.33984 C 951.03516 165.37596 955.01119 161.57617 960.27344 161.57617 z M 1062.4258 161.57617 C 1067.688 161.57617 1071.7207 165.37596 1071.7207 171.33984 C 1071.7207 177.30373 1067.688 181.10352 1062.4258 181.10352 C 1057.1635 181.10352 1053.1289 177.30373 1053.1289 171.33984 C 1053.1289 165.37596 1057.1635 161.57617 1062.4258 161.57617 z M 1003.8262 200.2832 C 1001.1366 200.2832 999.14844 202.21225 999.14844 204.66797 C 999.14844 207.12369 1001.1366 209.05273 1003.8262 209.05273 C 1006.5742 209.05273 1008.5039 207.06484 1008.5039 204.49219 C 1008.5039 202.09494 1006.5158 200.2832 1003.8262 200.2832 z M 861.84766 202.03711 L 861.84766 245.41992 L 869.15625 245.41992 L 869.15625 229.63477 C 869.15625 223.37854 872.66536 220.2207 877.86914 220.2207 C 882.5467 220.2207 885.29492 222.91025 885.29492 228.46484 L 885.29492 245.41992 L 892.60352 245.41992 L 892.60352 227.5293 C 892.60352 218.11572 887.04854 213.84766 879.56445 213.84766 C 875.23771 213.84766 871.5535 215.24961 869.15625 217.82227 L 869.15625 202.03711 L 861.84766 202.03711 z M 788.38477 207.29883 L 788.38477 214.43164 L 783.24023 214.43164 L 783.24023 220.2793 L 788.38477 220.2793 L 788.38477 235.30469 C 788.38477 242.20408 792.30165 245.83008 799.14258 245.83008 C 801.7737 245.83008 804.40607 245.12788 806.16016 243.72461 L 804.11328 238.52148 C 803.00236 239.39853 801.53974 239.80859 800.01953 239.80859 C 797.213 239.80859 795.69336 238.17127 795.69336 235.13086 L 795.69336 220.2793 L 804.05469 220.2793 L 804.05469 214.43164 L 795.69336 214.43164 L 795.69336 207.29883 L 788.38477 207.29883 z M 764.64062 213.84766 C 755.34398 213.84766 748.50391 220.51195 748.50391 229.80859 C 748.50391 239.10524 755.28592 245.83008 765.75195 245.83008 C 771.13114 245.83008 775.51573 244.07495 778.32227 240.74219 L 774.40625 236.24023 C 772.18441 238.52054 769.4359 239.63281 765.92773 239.63281 C 760.49008 239.63281 756.68954 236.70905 755.8125 232.14844 L 780.31055 232.14844 C 780.36902 231.4468 780.42773 230.56907 780.42773 229.98438 C 780.42773 220.21998 773.76186 213.84766 764.64062 213.84766 z M 842.59961 213.84766 C 832.71827 213.84766 825.70117 220.45348 825.70117 229.80859 C 825.70117 239.1637 832.71827 245.83008 842.59961 245.83008 C 848.68043 245.83008 853.53244 243.19904 855.92969 238.52148 L 850.31641 235.24609 C 848.44538 238.22804 845.6399 239.57422 842.54102 239.57422 C 837.16183 239.57422 833.06836 235.88942 833.06836 229.80859 C 833.06836 223.78624 837.16183 220.04492 842.54102 220.04492 C 845.6399 220.04492 848.44538 221.38915 850.31641 224.37109 L 855.92969 221.09766 C 853.53244 216.36163 848.68043 213.84766 842.59961 213.84766 z M 915.83984 213.84766 C 906.5432 213.84766 899.70117 220.51195 899.70117 229.80859 C 899.70117 239.10524 906.48514 245.83008 916.95117 245.83008 C 922.33036 245.83008 926.71495 244.07495 929.52148 240.74219 L 925.60352 236.24023 C 923.38168 238.52054 920.63317 239.63281 917.125 239.63281 C 911.68734 239.63281 907.88681 236.70905 907.00977 232.14844 L 931.50977 232.14844 C 931.56824 231.4468 931.62695 230.56907 931.62695 229.98438 C 931.62695 220.21998 924.96108 213.84766 915.83984 213.84766 z M 955.7793 213.84766 C 951.51103 213.84766 947.88565 215.36729 945.54688 218.17383 L 945.54688 214.19727 L 938.58984 214.19727 L 938.58984 245.41992 L 945.89844 245.41992 L 945.89844 229.57617 C 945.89844 223.37841 949.17243 220.2207 954.02539 220.2207 C 958.46907 220.2207 961.04102 222.91025 961.04102 228.46484 L 961.04102 245.41992 L 968.34961 245.41992 L 968.34961 229.57617 C 968.34961 223.37841 971.68402 220.2207 976.47852 220.2207 C 980.92219 220.2207 983.49414 222.91025 983.49414 228.46484 L 983.49414 245.41992 L 990.80273 245.41992 L 990.80273 227.5293 C 990.80273 218.11572 985.54061 213.84766 977.99805 213.84766 C 973.02814 213.84766 968.81887 215.83496 966.30469 219.05078 C 964.14132 215.54261 960.33991 213.84766 955.7793 213.84766 z M 1034.7598 213.84766 C 1030.1991 213.84766 1026.3992 215.36742 1024.002 218.23242 L 1024.002 214.19727 L 1017.043 214.19727 L 1017.043 245.41992 L 1024.3516 245.41992 L 1024.3516 229.63477 C 1024.3516 223.37854 1027.8607 220.2207 1033.0645 220.2207 C 1037.742 220.2207 1040.4902 222.91025 1040.4902 228.46484 L 1040.4902 245.41992 L 1047.7988 245.41992 L 1047.7988 227.5293 C 1047.7988 218.11572 1042.2439 213.84766 1034.7598 213.84766 z M 1068.2363 213.84766 C 1059.8167 213.84766 1054.4961 217.70591 1054.4961 223.61133 C 1054.4961 236.06532 1073.791 230.45213 1073.791 236.41602 C 1073.791 238.57939 1071.8613 239.86523 1067.2422 239.86523 C 1063.3247 239.86523 1059.1153 238.58013 1056.3672 236.76758 L 1053.5605 242.32227 C 1056.3671 244.31023 1061.5716 245.83008 1066.7754 245.83008 C 1075.5458 245.83008 1080.9238 242.02858 1080.9238 236.18164 C 1080.9238 223.96153 1061.6289 229.57642 1061.6289 223.26172 C 1061.6289 221.21529 1063.7341 219.75195 1068.1777 219.75195 C 1071.1597 219.75195 1074.1411 220.33771 1077.123 222.0918 L 1079.9297 216.53711 C 1077.1232 214.8415 1072.3877 213.84766 1068.2363 213.84766 z M 1000.1426 214.19727 L 1000.1426 245.41992 L 1007.4512 245.41992 L 1007.4512 214.19727 L 1000.1426 214.19727 z M 764.64062 219.69336 C 769.43512 219.69336 772.88601 222.79277 773.4707 227.29492 L 755.75391 227.29492 C 756.45554 222.73431 759.9046 219.69336 764.64062 219.69336 z M 915.83984 219.69336 C 920.63434 219.69336 924.08327 222.79277 924.66797 227.29492 L 906.95117 227.29492 C 907.65281 222.73431 911.10382 219.69336 915.83984 219.69336 z "
       transform="matrix(0.26458333,0,0,0.26458333,-80.653183,-45.470983)"
       id="text3269" />
    <text
       xml:space="preserve"
       style="font-style:normal;font-variant:normal;font-weight:600;font-stretch:normal;font-size:10.58333302px;line-height:6.61458302px;font-family:Montserrat;-inkscape-font-specification:'Montserrat, Semi-Bold';font-variant-ligatures:normal;font-variant-caps:normal;font-variant-numeric:normal;font-feature-settings:normal;text-align:start;letter-spacing:0px;word-spacing:0px;writing-mode:lr-tb;text-anchor:start;fill:#000000;fill-opacity:1;stroke:none;stroke-width:0.26458332"
       x="-32.650208"
       y="120.50322"
       id="text3290"><tspan
         sodipodi:role="line"
         id="tspan3288"
         x="-32.650208"
         y="126.923"
         style="stroke-width:0.26458332" /></text>
  </g>
</svg>
