<?xml version="1.0" encoding="UTF-8" standalone="no"?>
<!-- Created with Inkscape (http://www.inkscape.org/) -->

<svg
   xmlns:dc="http://purl.org/dc/elements/1.1/"
   xmlns:cc="http://creativecommons.org/ns#"
   xmlns:rdf="http://www.w3.org/1999/02/22-rdf-syntax-ns#"
   xmlns:svg="http://www.w3.org/2000/svg"
   xmlns="http://www.w3.org/2000/svg"
   xmlns:sodipodi="http://sodipodi.sourceforge.net/DTD/sodipodi-0.dtd"
   xmlns:inkscape="http://www.inkscape.org/namespaces/inkscape"
   width="320.59906mm"
   height="180.3373mm"
   viewBox="0 0 320.59906 180.3373"
   version="1.1"
   id="svg4519"
   inkscape:version="0.92.4 (5da689c313, 2019-01-14)"
   sodipodi:docname="s_5_4.svg">
  <defs
     id="defs4513" />
  <sodipodi:namedview
     id="base"
     pagecolor="#ffffff"
     bordercolor="#666666"
     borderopacity="1.0"
     inkscape:pageopacity="0.0"
     inkscape:pageshadow="2"
     inkscape:zoom="0.70000001"
     inkscape:cx="679.69635"
     inkscape:cy="340.92999"
     inkscape:document-units="mm"
     inkscape:current-layer="layer1"
     showgrid="false"
     fit-margin-top="0"
     fit-margin-left="0"
     fit-margin-right="0"
     fit-margin-bottom="0"
     inkscape:window-width="1920"
     inkscape:window-height="986"
     inkscape:window-x="-11"
     inkscape:window-y="-11"
     inkscape:window-maximized="1"
     inkscape:snap-page="true" />
  <metadata
     id="metadata4516">
    <rdf:RDF>
      <cc:Work
         rdf:about="">
        <dc:format>image/svg+xml</dc:format>
        <dc:type
           rdf:resource="http://purl.org/dc/dcmitype/StillImage" />
        <dc:title />
      </cc:Work>
    </rdf:RDF>
  </metadata>
  <g
     inkscape:label="Layer 1"
     inkscape:groupmode="layer"
     id="layer1"
     transform="translate(80.653183,45.470983)">
    <path
       style="fill:#e3f4ff;fill-opacity:1;stroke:none;stroke-width:1.00187171;stroke-miterlimit:4;stroke-dasharray:none;stroke-opacity:1"
       d="M -80.653183,-45.470983 V 134.86631 H 239.94588 V -45.470983 Z"
       id="rect6732"
       inkscape:connector-curvature="0" />
    <path
       style="font-style:normal;font-variant:normal;font-weight:600;font-stretch:normal;font-size:10.58333302px;line-height:6.61458349px;font-family:Montserrat;-inkscape-font-specification:'Montserrat, Semi-Bold';font-variant-ligatures:normal;font-variant-caps:normal;font-variant-numeric:normal;font-feature-settings:normal;text-align:start;letter-spacing:0px;word-spacing:0px;writing-mode:lr-tb;text-anchor:start;fill:#000000;fill-opacity:1;stroke:none;stroke-width:0.99999994"
       d="M 598.93945 49.792969 C 595.22745 49.792969 592.73047 52.225328 592.73047 55.361328 C 592.73047 58.497328 595.22745 60.929688 598.93945 60.929688 C 602.65145 60.929688 605.14648 58.497922 605.14648 55.169922 C 605.14648 52.097922 602.65145 49.792969 598.93945 49.792969 z M 933.56445 49.792969 C 929.85245 49.792969 927.35547 52.225328 927.35547 55.361328 C 927.35547 58.497328 929.85245 60.929688 933.56445 60.929688 C 937.27645 60.929688 939.77148 58.497922 939.77148 55.169922 C 939.77148 52.097922 937.27645 49.792969 933.56445 49.792969 z M 464.00391 52.097656 L 455.36328 61.3125 L 463.17188 61.3125 L 474.75586 52.097656 L 464.00391 52.097656 z M 838.00391 52.097656 L 829.36328 61.3125 L 837.17188 61.3125 L 848.75586 52.097656 L 838.00391 52.097656 z M 138.32227 52.673828 L 138.32227 100.16211 L 148.30664 100.16211 L 148.30664 52.673828 L 138.32227 52.673828 z M 574.69727 52.673828 L 574.69727 100.16211 L 584.68164 100.16211 L 584.68164 52.673828 L 574.69727 52.673828 z M 947.82227 52.673828 L 947.82227 100.16211 L 957.80664 100.16211 L 957.80664 52.673828 L 947.82227 52.673828 z M 51.025391 55.361328 L 51.025391 100.16211 L 61.394531 100.16211 L 61.394531 87.808594 L 70.417969 87.808594 C 82.385968 87.808594 89.875 81.601187 89.875 71.617188 C 89.875 61.569188 82.385968 55.361328 70.417969 55.361328 L 51.025391 55.361328 z M 774.78906 58.113281 L 774.78906 66.498047 L 769.47656 66.498047 L 769.47656 74.177734 L 774.78906 74.177734 L 774.78906 88.320312 C 774.78906 96.512312 779.52434 100.67383 787.65234 100.67383 C 790.72434 100.67383 793.7313 99.970047 795.7793 98.498047 L 793.0918 91.457031 C 792.0038 92.289031 790.53255 92.736328 789.06055 92.736328 C 786.37255 92.736328 784.77148 91.137359 784.77148 88.193359 L 784.77148 74.177734 L 793.34766 74.177734 L 793.34766 66.498047 L 784.77148 66.498047 L 784.77148 58.113281 L 774.78906 58.113281 z M 861.16406 58.113281 L 861.16406 66.498047 L 855.85156 66.498047 L 855.85156 74.177734 L 861.16406 74.177734 L 861.16406 88.320312 C 861.16406 96.512312 865.89934 100.67383 874.02734 100.67383 C 877.09934 100.67383 880.1063 99.970047 882.1543 98.498047 L 879.4668 91.457031 C 878.3788 92.289031 876.90755 92.736328 875.43555 92.736328 C 872.74755 92.736328 871.14648 91.137359 871.14648 88.193359 L 871.14648 74.177734 L 879.72266 74.177734 L 879.72266 66.498047 L 871.14648 66.498047 L 871.14648 58.113281 L 861.16406 58.113281 z M 61.394531 63.808594 L 69.841797 63.808594 C 76.177797 63.808594 79.378906 66.689188 79.378906 71.617188 C 79.378906 76.481187 76.177797 79.361328 69.841797 79.361328 L 61.394531 79.361328 L 61.394531 63.808594 z M 112.83203 65.216797 C 101.88803 65.216797 93.886719 72.577313 93.886719 82.945312 C 93.886719 93.313312 101.88803 100.67383 112.83203 100.67383 C 123.77603 100.67383 131.71094 93.313312 131.71094 82.945312 C 131.71094 72.577313 123.77603 65.216797 112.83203 65.216797 z M 209.47852 65.216797 C 199.94252 65.216797 192.26172 71.809422 192.26172 81.857422 C 192.26172 91.905421 199.94252 98.498047 209.47852 98.498047 C 213.95852 98.498047 217.73342 97.088984 220.35742 94.208984 L 220.35742 95.681641 C 220.35742 101.88964 217.28609 105.08984 210.24609 105.08984 C 205.83009 105.08984 201.02994 103.55355 198.08594 101.18555 L 194.11914 108.35352 C 198.15114 111.48952 204.48567 113.08984 211.01367 113.08984 C 223.42967 113.08984 230.3418 107.20039 230.3418 94.400391 L 230.3418 65.728516 L 220.87109 65.728516 L 220.87109 70.144531 C 218.24709 66.816531 214.27852 65.216797 209.47852 65.216797 z M 255.95703 65.216797 C 245.01303 65.216797 237.01172 72.577313 237.01172 82.945312 C 237.01172 93.313312 245.01303 100.67383 255.95703 100.67383 C 266.90103 100.67383 274.83594 93.313312 274.83594 82.945312 C 274.83594 72.577313 266.90103 65.216797 255.95703 65.216797 z M 302.375 65.216797 C 297.703 65.216797 293.67042 66.817719 290.98242 69.761719 L 290.98242 65.728516 L 281.44727 65.728516 L 281.44727 100.16211 L 291.43164 100.16211 L 291.43164 83.136719 C 291.43164 76.800719 294.8875 73.857422 299.6875 73.857422 C 304.1035 73.857422 306.66406 76.416375 306.66406 81.984375 L 306.66406 100.16211 L 316.64648 100.16211 L 316.64648 80.449219 C 316.64648 69.953219 310.503 65.216797 302.375 65.216797 z M 341.88086 65.216797 C 331.38486 65.216797 323.51172 72.641313 323.51172 82.945312 C 323.51172 93.185312 331.25616 100.67383 343.16016 100.67383 C 349.36816 100.67383 354.16914 98.753469 357.36914 95.105469 L 352.05664 89.345703 C 349.68864 91.585703 347.06402 92.673828 343.41602 92.673828 C 338.16802 92.673828 334.52055 90.049719 333.56055 85.761719 L 359.60742 85.761719 C 359.67142 84.929719 359.80078 83.840266 359.80078 83.072266 C 359.80078 72.000266 351.99286 65.216797 341.88086 65.216797 z M 379.88672 65.216797 C 369.83872 65.216797 363.95117 69.825516 363.95117 76.353516 C 363.95117 90.113515 384.75195 84.352375 384.75195 89.984375 C 384.75195 91.904375 383.02402 93.121094 378.41602 93.121094 C 374.19202 93.121094 369.51927 91.776969 366.44727 89.792969 L 363.11914 96.960938 C 366.31914 99.072937 372.20725 100.67383 378.03125 100.67383 C 388.33525 100.67383 394.28711 96.128515 394.28711 89.728516 C 394.28711 76.160516 373.48633 81.85675 373.48633 75.96875 C 373.48633 74.17675 375.40672 72.769531 379.88672 72.769531 C 383.02272 72.769531 386.41464 73.410078 389.80664 75.330078 L 393.13477 68.224609 C 389.87077 66.304609 384.62272 65.216797 379.88672 65.216797 z M 439.94727 65.216797 C 434.63527 65.216797 430.53942 66.945438 428.10742 70.273438 L 428.10742 65.728516 L 418.57227 65.728516 L 418.57227 100.16211 L 428.55664 100.16211 L 428.55664 83.904297 C 428.55664 77.312297 432.20498 74.304688 437.70898 74.304688 C 438.47698 74.304688 439.11527 74.369594 439.94727 74.433594 L 439.94727 65.216797 z M 461.38086 65.216797 C 450.88486 65.216797 443.01172 72.641313 443.01172 82.945312 C 443.01172 93.185312 450.75616 100.67383 462.66016 100.67383 C 468.86816 100.67383 473.66914 98.753469 476.86914 95.105469 L 471.55664 89.345703 C 469.18864 91.585703 466.56402 92.673828 462.91602 92.673828 C 457.66802 92.673828 454.02055 90.049719 453.06055 85.761719 L 479.10742 85.761719 C 479.17142 84.929719 479.30078 83.840266 479.30078 83.072266 C 479.30078 72.000266 471.49286 65.216797 461.38086 65.216797 z M 500.60352 65.216797 C 491.06752 65.216797 483.38672 71.809422 483.38672 81.857422 C 483.38672 91.905421 491.06752 98.498047 500.60352 98.498047 C 505.08352 98.498047 508.85842 97.088984 511.48242 94.208984 L 511.48242 95.681641 C 511.48242 101.88964 508.41109 105.08984 501.37109 105.08984 C 496.95509 105.08984 492.15494 103.55355 489.21094 101.18555 L 485.24414 108.35352 C 489.27614 111.48952 495.61067 113.08984 502.13867 113.08984 C 514.55467 113.08984 521.4668 107.20039 521.4668 94.400391 L 521.4668 65.728516 L 511.99609 65.728516 L 511.99609 70.144531 C 509.37209 66.816531 505.40352 65.216797 500.60352 65.216797 z M 629.00586 65.216797 C 618.50986 65.216797 610.63672 72.641313 610.63672 82.945312 C 610.63672 93.185312 618.38116 100.67383 630.28516 100.67383 C 636.49316 100.67383 641.29414 98.753469 644.49414 95.105469 L 639.18164 89.345703 C 636.81364 91.585703 634.18902 92.673828 630.54102 92.673828 C 625.29302 92.673828 621.64555 90.049719 620.68555 85.761719 L 646.73242 85.761719 C 646.79642 84.929719 646.92578 83.840266 646.92578 83.072266 C 646.92578 72.000266 639.11786 65.216797 629.00586 65.216797 z M 674.94922 65.216797 C 669.63722 65.216797 665.53942 66.945438 663.10742 70.273438 L 663.10742 65.728516 L 653.57227 65.728516 L 653.57227 100.16211 L 663.55664 100.16211 L 663.55664 83.904297 C 663.55664 77.312297 667.20498 74.304688 672.70898 74.304688 C 673.47698 74.304688 674.11722 74.369594 674.94922 74.433594 L 674.94922 65.216797 z M 694.51172 65.216797 C 684.46372 65.216797 678.57617 69.825516 678.57617 76.353516 C 678.57617 90.113515 699.37695 84.352375 699.37695 89.984375 C 699.37695 91.904375 697.64902 93.121094 693.04102 93.121094 C 688.81702 93.121094 684.14427 91.776969 681.07227 89.792969 L 677.74414 96.960938 C 680.94414 99.072937 686.83225 100.67383 692.65625 100.67383 C 702.96025 100.67383 708.91211 96.128515 708.91211 89.728516 C 708.91211 76.160516 688.11133 81.85675 688.11133 75.96875 C 688.11133 74.17675 690.03172 72.769531 694.51172 72.769531 C 697.64772 72.769531 701.03964 73.410078 704.43164 75.330078 L 707.75977 68.224609 C 704.49577 66.304609 699.24772 65.216797 694.51172 65.216797 z M 749.00586 65.216797 C 738.50986 65.216797 730.63672 72.641313 730.63672 82.945312 C 730.63672 93.185312 738.38116 100.67383 750.28516 100.67383 C 756.49316 100.67383 761.29414 98.753469 764.49414 95.105469 L 759.18164 89.345703 C 756.81364 91.585703 754.18902 92.673828 750.54102 92.673828 C 745.29302 92.673828 741.64555 90.049719 740.68555 85.761719 L 766.73242 85.761719 C 766.79642 84.929719 766.92578 83.840266 766.92578 83.072266 C 766.92578 72.000266 759.11786 65.216797 749.00586 65.216797 z M 835.38086 65.216797 C 824.88486 65.216797 817.01172 72.641313 817.01172 82.945312 C 817.01172 93.185312 824.75616 100.67383 836.66016 100.67383 C 842.86816 100.67383 847.66914 98.753469 850.86914 95.105469 L 845.55664 89.345703 C 843.18864 91.585703 840.56402 92.673828 836.91602 92.673828 C 831.66802 92.673828 828.02055 90.049719 827.06055 85.761719 L 853.10742 85.761719 C 853.17142 84.929719 853.30078 83.840266 853.30078 83.072266 C 853.30078 72.000266 845.49286 65.216797 835.38086 65.216797 z M 903.08203 65.216797 C 892.13803 65.216797 884.13672 72.577313 884.13672 82.945312 C 884.13672 93.313312 892.13803 100.67383 903.08203 100.67383 C 914.02603 100.67383 921.96094 93.313312 921.96094 82.945312 C 921.96094 72.577313 914.02603 65.216797 903.08203 65.216797 z M 982.88086 65.216797 C 972.38486 65.216797 964.51172 72.641313 964.51172 82.945312 C 964.51172 93.185312 972.25616 100.67383 984.16016 100.67383 C 990.36816 100.67383 995.16914 98.753469 998.36914 95.105469 L 993.05664 89.345703 C 990.68864 91.585703 988.06402 92.673828 984.41602 92.673828 C 979.16802 92.673828 975.52055 90.049719 974.56055 85.761719 L 1000.6074 85.761719 C 1000.6714 84.929719 1000.8008 83.840266 1000.8008 83.072266 C 1000.8008 72.000266 992.99286 65.216797 982.88086 65.216797 z M 1020.8867 65.216797 C 1010.8387 65.216797 1004.9512 69.825516 1004.9512 76.353516 C 1004.9512 90.113515 1025.752 84.352375 1025.752 89.984375 C 1025.752 91.904375 1024.024 93.121094 1019.416 93.121094 C 1015.192 93.121094 1010.5193 91.776969 1007.4473 89.792969 L 1004.1191 96.960938 C 1007.3191 99.072937 1013.2073 100.67383 1019.0312 100.67383 C 1029.3352 100.67383 1035.2871 96.128515 1035.2871 89.728516 C 1035.2871 76.160516 1014.4863 81.85675 1014.4863 75.96875 C 1014.4863 74.17675 1016.4067 72.769531 1020.8867 72.769531 C 1024.0227 72.769531 1027.4146 73.410078 1030.8066 75.330078 L 1034.1348 68.224609 C 1030.8708 66.304609 1025.6227 65.216797 1020.8867 65.216797 z M 152.45312 65.728516 L 167.36328 100.41797 L 167.23633 100.73633 C 165.89233 103.80833 164.35552 105.02539 161.60352 105.02539 C 159.61952 105.02539 157.50866 104.19361 155.97266 102.84961 L 152.32422 109.95312 C 154.56422 111.93712 158.40383 113.08984 161.92383 113.08984 C 168.13183 113.08984 172.86731 110.59344 176.19531 102.27344 L 191.74805 65.728516 L 182.14844 65.728516 L 172.41992 89.089844 L 162.75586 65.728516 L 152.45312 65.728516 z M 530.50586 65.728516 L 530.50586 85.185547 C 530.50586 95.809546 536.58461 100.67383 545.22461 100.67383 C 549.44861 100.67383 553.29006 99.072453 555.91406 96.064453 L 555.91406 100.16211 L 565.38477 100.16211 L 565.38477 65.728516 L 555.40039 65.728516 L 555.40039 82.753906 C 555.40039 89.089906 552.07284 92.033203 547.46484 92.033203 C 543.04884 92.033203 540.48828 89.47289 540.48828 83.712891 L 540.48828 65.728516 L 530.50586 65.728516 z M 593.94727 65.728516 L 593.94727 100.16211 L 603.93164 100.16211 L 603.93164 65.728516 L 593.94727 65.728516 z M 928.57227 65.728516 L 928.57227 100.16211 L 938.55664 100.16211 L 938.55664 65.728516 L 928.57227 65.728516 z M 341.94336 72.769531 C 346.42336 72.769531 349.68858 75.5855 350.39258 79.9375 L 333.43164 79.9375 C 334.13564 75.5215 337.39936 72.769531 341.94336 72.769531 z M 461.44336 72.769531 C 465.92336 72.769531 469.18858 75.5855 469.89258 79.9375 L 452.93164 79.9375 C 453.63564 75.5215 456.89936 72.769531 461.44336 72.769531 z M 629.06836 72.769531 C 633.54836 72.769531 636.81358 75.5855 637.51758 79.9375 L 620.55664 79.9375 C 621.26064 75.5215 624.52436 72.769531 629.06836 72.769531 z M 749.06836 72.769531 C 753.54836 72.769531 756.81358 75.5855 757.51758 79.9375 L 740.55664 79.9375 C 741.26064 75.5215 744.52436 72.769531 749.06836 72.769531 z M 835.44336 72.769531 C 839.92336 72.769531 843.18858 75.5855 843.89258 79.9375 L 826.93164 79.9375 C 827.63564 75.5215 830.89936 72.769531 835.44336 72.769531 z M 982.94336 72.769531 C 987.42336 72.769531 990.68858 75.5855 991.39258 79.9375 L 974.43164 79.9375 C 975.13564 75.5215 978.39936 72.769531 982.94336 72.769531 z M 112.83203 73.410156 C 117.82403 73.410156 121.59961 76.993313 121.59961 82.945312 C 121.59961 88.897312 117.82403 92.480469 112.83203 92.480469 C 107.84003 92.480469 104 88.897312 104 82.945312 C 104 76.993313 107.84003 73.410156 112.83203 73.410156 z M 211.46289 73.410156 C 216.71089 73.410156 220.48633 76.801422 220.48633 81.857422 C 220.48633 86.913422 216.71089 90.304688 211.46289 90.304688 C 206.21489 90.304688 202.375 86.913422 202.375 81.857422 C 202.375 76.801422 206.21489 73.410156 211.46289 73.410156 z M 255.95703 73.410156 C 260.94903 73.410156 264.72461 76.993313 264.72461 82.945312 C 264.72461 88.897312 260.94903 92.480469 255.95703 92.480469 C 250.96503 92.480469 247.125 88.897312 247.125 82.945312 C 247.125 76.993313 250.96503 73.410156 255.95703 73.410156 z M 502.58789 73.410156 C 507.83589 73.410156 511.61133 76.801422 511.61133 81.857422 C 511.61133 86.913422 507.83589 90.304688 502.58789 90.304688 C 497.33989 90.304688 493.5 86.913422 493.5 81.857422 C 493.5 76.801422 497.33989 73.410156 502.58789 73.410156 z M 903.08203 73.410156 C 908.07403 73.410156 911.84961 76.993313 911.84961 82.945312 C 911.84961 88.897312 908.07403 92.480469 903.08203 92.480469 C 898.09003 92.480469 894.25 88.897312 894.25 82.945312 C 894.25 76.993313 898.09003 73.410156 903.08203 73.410156 z "
       transform="matrix(0.26458333,0,0,0.26458333,-80.653183,-45.470983)"
       id="text817" />
    <path
       sodipodi:type="star"
       style="opacity:1;vector-effect:none;fill:none;fill-opacity:1;stroke:#000000;stroke-width:3;stroke-linecap:round;stroke-linejoin:miter;stroke-miterlimit:4;stroke-dasharray:none;stroke-dashoffset:4.60040331;stroke-opacity:1"
       id="path825"
       sodipodi:sides="3"
       sodipodi:cx="-51.926994"
       sodipodi:cy="26.765127"
       sodipodi:r1="20.908609"
       sodipodi:r2="8.1969061"
       sodipodi:arg1="1.3521274"
       sodipodi:arg2="2.399325"
       inkscape:flatsided="true"
       inkscape:rounded="0"
       inkscape:randomized="0"
       d="M -47.391281,47.175841 -71.871048,20.487814 -36.518654,12.631727 Z"
       inkscape:transform-center-x="-1.4016124"
       inkscape:transform-center-y="0.61603589" />
    <path
       sodipodi:type="star"
       style="opacity:1;vector-effect:none;fill:none;fill-opacity:1;stroke:#000000;stroke-width:3;stroke-linecap:round;stroke-linejoin:miter;stroke-miterlimit:4;stroke-dasharray:none;stroke-dashoffset:4.60040331;stroke-opacity:1"
       id="path829"
       sodipodi:sides="4"
       sodipodi:cx="-48.525209"
       sodipodi:cy="77.791904"
       sodipodi:r1="25.222654"
       sodipodi:r2="12.611327"
       sodipodi:arg1="1.0535089"
       sodipodi:arg2="1.8389071"
       inkscape:flatsided="true"
       inkscape:rounded="0"
       inkscape:randomized="0"
       d="m -36.051992,99.714519 -34.395834,-9.449403 9.449403,-34.395834 34.395834,9.449403 z"
       inkscape:transform-center-x="6.2366076"
       inkscape:transform-center-y="0.079593113" />
    <path
       sodipodi:type="star"
       style="opacity:1;vector-effect:none;fill:none;fill-opacity:1;stroke:#000000;stroke-width:3;stroke-linecap:round;stroke-linejoin:miter;stroke-miterlimit:4;stroke-dasharray:none;stroke-dashoffset:4.60040331;stroke-opacity:1"
       id="path831"
       sodipodi:sides="5"
       sodipodi:cx="2.1236029"
       sodipodi:cy="27.143101"
       sodipodi:r1="23.180141"
       sodipodi:r2="16.390837"
       sodipodi:arg1="0.41987996"
       sodipodi:arg2="1.0481985"
       inkscape:flatsided="true"
       inkscape:rounded="0"
       inkscape:randomized="0"
       d="M 23.290268,36.592505 -0.3224553,50.193822 -20.554809,31.939826 -9.4463686,7.0569185 17.65138,9.9324323 Z"
       inkscape:transform-center-x="1.0428571e-06" />
    <path
       sodipodi:type="star"
       style="opacity:1;vector-effect:none;fill:none;fill-opacity:1;stroke:#000000;stroke-width:3;stroke-linecap:round;stroke-linejoin:miter;stroke-miterlimit:4;stroke-dasharray:none;stroke-dashoffset:4.60040331;stroke-opacity:1"
       id="path833"
       sodipodi:sides="6"
       sodipodi:cx="7.4152694"
       sodipodi:cy="80.437737"
       sodipodi:r1="23.595526"
       sodipodi:r2="19.089182"
       sodipodi:arg1="0.95613337"
       sodipodi:arg2="1.4797321"
       inkscape:flatsided="true"
       inkscape:rounded="0"
       inkscape:randomized="0"
       d="M 21.022413,99.714523 -2.4753455,101.86026 -16.082489,82.583475 -6.191874,61.16095 17.305884,59.015212 30.913028,78.291998 Z"
       inkscape:transform-center-x="-0.099564332"
       inkscape:transform-center-y="-2.1582713" />
    <path
       sodipodi:type="star"
       style="opacity:1;vector-effect:none;fill:none;fill-opacity:1;stroke:#000000;stroke-width:3;stroke-linecap:round;stroke-linejoin:miter;stroke-miterlimit:4;stroke-dasharray:none;stroke-dashoffset:4.60040331;stroke-opacity:1"
       id="path835"
       sodipodi:sides="5"
       sodipodi:cx="79.608722"
       sodipodi:cy="30.166908"
       sodipodi:r1="28.398565"
       sodipodi:r2="24.59388"
       sodipodi:arg1="1.3968951"
       sodipodi:arg2="2.0252136"
       inkscape:flatsided="true"
       inkscape:rounded="0.72"
       inkscape:randomized="0"
       d="M 84.52241,58.137145 C 60.848101,62.296146 65.797066,64.713789 54.525857,43.483385 43.254648,22.252981 42.484647,27.706819 59.192966,10.426707 75.901285,-6.853406 70.476433,-5.9003913 92.073952,4.650316 c 21.597518,10.550707 19.014778,5.685864 15.654458,29.486673 -3.36032,23.800808 0.46831,19.841155 -23.206,24.000156 z"
       inkscape:transform-center-x="1.7523809e-06" />
    <path
       sodipodi:type="star"
       style="opacity:1;vector-effect:none;fill:none;fill-opacity:1;stroke:#000000;stroke-width:3;stroke-linecap:round;stroke-linejoin:miter;stroke-miterlimit:4;stroke-dasharray:none;stroke-dashoffset:4.60040331;stroke-opacity:1"
       id="path837"
       sodipodi:sides="5"
       sodipodi:cx="200.93907"
       sodipodi:cy="16.559764"
       sodipodi:r1="20.853874"
       sodipodi:r2="10.426937"
       sodipodi:arg1="0.81103357"
       sodipodi:arg2="1.4393521"
       inkscape:flatsided="false"
       inkscape:rounded="0"
       inkscape:randomized="0"
       d="m 215.30217,31.678812 -12.99648,-4.782057 -11.30725,7.995167 0.53188,-13.838121 -11.09799,-8.283187 13.32519,-3.7703726 4.44832,-13.1144577 7.70355,11.5079025 13.84719,0.1780063 -8.56414,10.8826475 z"
       inkscape:transform-center-x="-0.82034405"
       inkscape:transform-center-y="1.1295867" />
    <path
       inkscape:transform-center-y="1.1295867"
       inkscape:transform-center-x="-0.82034405"
       d="m 175.23669,69.854406 -13.82104,-11.018982 -10.48268,14.232092 6.20874,-16.549642 -16.77485,-5.571666 17.65825,0.790741 0.11525,-17.675571 4.70466,17.038347 16.84608,-5.352438 -14.75061,9.739537 z"
       inkscape:randomized="0"
       inkscape:rounded="0"
       inkscape:flatsided="false"
       sodipodi:arg2="1.4393521"
       sodipodi:arg1="0.81103357"
       sodipodi:r2="4.1357413"
       sodipodi:r1="20.853874"
       sodipodi:cy="54.735359"
       sodipodi:cx="160.8736"
       sodipodi:sides="5"
       id="path839"
       style="opacity:1;vector-effect:none;fill:none;fill-opacity:1;stroke:#000000;stroke-width:3;stroke-linecap:round;stroke-linejoin:miter;stroke-miterlimit:4;stroke-dasharray:none;stroke-dashoffset:4.60040331;stroke-opacity:1"
       sodipodi:type="star" />
    <path
       sodipodi:type="star"
       style="opacity:1;vector-effect:none;fill:none;fill-opacity:1;stroke:#000000;stroke-width:3;stroke-linecap:round;stroke-linejoin:miter;stroke-miterlimit:4;stroke-dasharray:none;stroke-dashoffset:4.60040331;stroke-opacity:1"
       id="path841"
       sodipodi:sides="9"
       sodipodi:cx="211.90038"
       sodipodi:cy="96.690714"
       sodipodi:r1="20.853874"
       sodipodi:r2="10.802307"
       sodipodi:arg1="0.81103357"
       sodipodi:arg2="1.1600994"
       inkscape:flatsided="false"
       inkscape:rounded="0.38"
       inkscape:randomized="0"
       d="m 226.26347,111.80976 c -3.11942,2.96345 -6.10544,-6.93286 -10.05029,-5.21503 -3.94485,1.71782 1.26611,10.64525 -3.02837,10.91026 -4.29448,0.26501 -0.22069,-9.23537 -4.34681,-10.45514 -4.12613,-1.21978 -5.87275,8.96857 -9.33285,6.41114 -3.46011,-2.55743 5.76733,-7.21656 3.39058,-10.80318 -2.37674,-3.586625 -10.26367,3.0954 -11.27038,-1.08782 -1.00671,-4.183215 9.05675,-1.821034 9.54149,-6.096289 0.48475,-4.275255 -9.85211,-4.226145 -7.93438,-8.077778 1.91774,-3.851633 8.10841,4.426569 11.22783,1.463123 3.11942,-2.963447 -4.83064,-9.570233 -0.88579,-11.288059 3.94485,-1.717825 3.36606,8.602936 7.66054,8.337927 4.29448,-0.265009 2.45114,-10.436302 6.57727,-9.21653 4.12613,1.219771 -2.95131,8.753892 0.50879,11.311322 3.46011,2.557429 8.58601,-6.41911 10.96276,-2.832486 2.37674,3.586624 -7.88773,4.808805 -6.88102,8.992024 1.00671,4.183218 10.70339,0.601655 10.21864,4.876911 -0.48475,4.275255 -9.13339,-1.386375 -11.05113,2.465255 -1.91773,3.85164 7.81254,7.3409 4.69312,10.30435 z"
       inkscape:transform-center-x="-0.82034405"
       inkscape:transform-center-y="1.1295867" />
    <path
       inkscape:transform-center-y="1.1295867"
       inkscape:transform-center-x="-0.82034405"
       d="m 155.58192,113.69964 -9.86906,-5.71029 -1.7608,11.26523 -4.62781,-10.42061 -8.04605,8.07878 2.3811,-11.15061 -11.25798,1.80653 8.48052,-7.621455 -10.16975,-5.155769 11.34066,-1.181163 -5.19702,-10.148733 9.86906,5.710293 1.7608,-11.265227 4.62781,10.420611 8.04605,-8.078787 -2.3811,11.150609 11.25798,-1.806524 -8.48051,7.621454 10.16975,5.155771 -11.34066,1.18116 z"
       inkscape:randomized="0"
       inkscape:rounded="0"
       inkscape:flatsided="false"
       sodipodi:arg2="1.1251928"
       sodipodi:arg1="0.81103357"
       sodipodi:r2="10.426937"
       sodipodi:r1="20.853874"
       sodipodi:cy="98.580597"
       sodipodi:cx="141.21883"
       sodipodi:sides="10"
       id="path843"
       style="opacity:1;vector-effect:none;fill:none;fill-opacity:1;stroke:#000000;stroke-width:3;stroke-linecap:round;stroke-linejoin:miter;stroke-miterlimit:4;stroke-dasharray:none;stroke-dashoffset:4.60040331;stroke-opacity:1"
       sodipodi:type="star" />
    <path
       inkscape:transform-center-y="-2.1582713"
       inkscape:transform-center-x="-0.099564332"
       d="m 79.608723,113.69964 -13.929344,4.31654 -13.806274,-4.69531 -8.409677,-11.91371 0.19913,-14.581478 8.731878,-11.679617 13.929344,-4.316539 13.806274,4.695309 8.409677,11.913709 -0.199131,14.581476 z"
       inkscape:randomized="0"
       inkscape:rounded="0"
       inkscape:flatsided="true"
       sodipodi:arg2="1.2702926"
       sodipodi:arg1="0.95613337"
       sodipodi:r2="19.089182"
       sodipodi:r1="23.595526"
       sodipodi:cy="94.422852"
       sodipodi:cx="66.001579"
       sodipodi:sides="10"
       id="path845"
       style="opacity:1;vector-effect:none;fill:none;fill-opacity:1;stroke:#000000;stroke-width:3;stroke-linecap:round;stroke-linejoin:miter;stroke-miterlimit:4;stroke-dasharray:none;stroke-dashoffset:4.60040331;stroke-opacity:1"
       sodipodi:type="star" />
  </g>
</svg>
