<?xml version="1.0" encoding="UTF-8" standalone="no"?>
<!-- Created with Inkscape (http://www.inkscape.org/) -->

<svg
   xmlns:dc="http://purl.org/dc/elements/1.1/"
   xmlns:cc="http://creativecommons.org/ns#"
   xmlns:rdf="http://www.w3.org/1999/02/22-rdf-syntax-ns#"
   xmlns:svg="http://www.w3.org/2000/svg"
   xmlns="http://www.w3.org/2000/svg"
   xmlns:sodipodi="http://sodipodi.sourceforge.net/DTD/sodipodi-0.dtd"
   xmlns:inkscape="http://www.inkscape.org/namespaces/inkscape"
   width="320.59906mm"
   height="180.3373mm"
   viewBox="0 0 320.59906 180.3373"
   version="1.1"
   id="svg4519"
   inkscape:version="0.92.4 (5da689c313, 2019-01-14)"
   sodipodi:docname="s_5_7.svg">
  <defs
     id="defs4513">
    <pattern
       y="0"
       x="0"
       height="6"
       width="6"
       patternUnits="userSpaceOnUse"
       id="EMFhbasepattern" />
  </defs>
  <sodipodi:namedview
     id="base"
     pagecolor="#ffffff"
     bordercolor="#666666"
     borderopacity="1.0"
     inkscape:pageopacity="0.0"
     inkscape:pageshadow="2"
     inkscape:zoom="0.70000001"
     inkscape:cx="570.92212"
     inkscape:cy="234.64112"
     inkscape:document-units="mm"
     inkscape:current-layer="layer1"
     showgrid="false"
     fit-margin-top="0"
     fit-margin-left="0"
     fit-margin-right="0"
     fit-margin-bottom="0"
     inkscape:window-width="1920"
     inkscape:window-height="986"
     inkscape:window-x="-11"
     inkscape:window-y="-11"
     inkscape:window-maximized="1"
     inkscape:snap-page="true" />
  <metadata
     id="metadata4516">
    <rdf:RDF>
      <cc:Work
         rdf:about="">
        <dc:format>image/svg+xml</dc:format>
        <dc:type
           rdf:resource="http://purl.org/dc/dcmitype/StillImage" />
        <dc:title />
      </cc:Work>
    </rdf:RDF>
  </metadata>
  <g
     inkscape:label="Layer 1"
     inkscape:groupmode="layer"
     id="layer1"
     transform="translate(80.653183,45.470983)">
    <path
       style="fill:#e7f1f7;fill-opacity:1;stroke:none;stroke-width:1.00187171;stroke-miterlimit:4;stroke-dasharray:none;stroke-opacity:1"
       d="M -80.653183,-45.470978 V 134.86631 H 239.94587 V -45.470978 Z"
       id="rect6732"
       inkscape:connector-curvature="0" />
    <path
       id="path818"
       d="m -11.252852,0.22281404 h 40.5245 V 40.414691 h -40.5245 z"
       style="fill:#3691ff;fill-opacity:1;fill-rule:nonzero;stroke:#000000;stroke-width:0.2771855px;stroke-linecap:square;stroke-linejoin:round;stroke-miterlimit:4;stroke-dasharray:0.49893393, 1.05330495;stroke-dashoffset:0;stroke-opacity:1"
       inkscape:connector-curvature="0" />
    <path
       id="path820"
       d="m -13.525769,-2.0501068 v 1.33049196 l 0.443496,-0.38806106 0.609806,0.60980954 -0.498931,0.44349605 h 1.441363 V -1.4402972 l -0.388061,0.44349608 -0.609805,-0.66524548 0.388057,-0.3880602 z"
       style="fill:#000103;fill-opacity:1;fill-rule:nonzero;stroke:none;stroke-width:0.6929689"
       inkscape:connector-curvature="0" />
    <path
       id="path822"
       d="M 9.1479903,-2.7153512 8.2055595,-1.7729194 H 8.75993 v 0.83155708 H 8.1501239 L 9.1479903,0.11193929 10.145857,-0.88592738 H 9.5360514 V -1.7729194 h 0.6098056 z"
       style="fill:#000103;fill-opacity:1;fill-rule:nonzero;stroke:none;stroke-width:0.6929689"
       inkscape:connector-curvature="0" />
    <path
       id="path824"
       d="m 8.9262422,40.858186 -0.9424308,0.942432 h 0.5543729 v 0.886993 H 7.9283759 l 0.9978663,0.997867 0.9978673,-0.942432 H 9.3143003 v -0.886992 h 0.6098092 z"
       style="fill:#000103;fill-opacity:1;fill-rule:nonzero;stroke:none;stroke-width:0.6929689"
       inkscape:connector-curvature="0" />
    <path
       id="path826"
       d="m 29.271648,40.414691 v 1.330488 l 0.443494,-0.443496 0.60981,0.609808 -0.498934,0.498933 h 1.441365 v -1.385927 l -0.388059,0.388061 -0.60981,-0.609807 0.38806,-0.38806 z"
       style="fill:#000103;fill-opacity:1;fill-rule:nonzero;stroke:none;stroke-width:0.6929689"
       inkscape:connector-curvature="0" />
    <path
       id="path828"
       d="m -11.252852,40.414691 h -1.330488 l 0.38806,0.38806 -0.609808,0.609807 -0.443497,-0.443498 v 1.441364 h 1.385928 l -0.443497,-0.443497 0.609806,-0.609805 0.443496,0.443496 z"
       style="fill:#000103;fill-opacity:1;fill-rule:nonzero;stroke:none;stroke-width:0.6929689"
       inkscape:connector-curvature="0" />
    <path
       id="path830"
       d="m 31.267383,-1.7729194 v 1.33048798 l -0.388059,-0.44349596 -0.60981,0.60980858 0.443499,0.49893284 H 29.271648 V -1.1631138 l 0.443494,0.38806007 0.60981,-0.60980557 -0.443497,-0.3880601 z"
       style="fill:#000103;fill-opacity:1;fill-rule:nonzero;stroke:none;stroke-width:0.6929689"
       inkscape:connector-curvature="0" />
    <path
       id="path832"
       d="m -11.419161,20.34647 -0.997867,-0.942428 v 0.55437 h -0.831557 v -0.609808 l -1.053305,0.997866 0.997871,0.99787 v -0.609809 h 0.886991 v 0.609809 z"
       style="fill:#000103;fill-opacity:1;fill-rule:nonzero;stroke:none;stroke-width:0.6929689"
       inkscape:connector-curvature="0" />
    <path
       id="path834"
       d="m 32.376123,20.34647 -0.94243,-0.997866 v 0.609808 h -0.886992 v -0.665244 l -0.997867,1.053302 0.997867,0.94243 v -0.554369 h 0.831555 V 21.2889 Z"
       style="fill:#000103;fill-opacity:1;fill-rule:nonzero;stroke:none;stroke-width:0.6929689"
       inkscape:connector-curvature="0" />
    <path
       id="path836"
       d="M 92.636219,-3.4914696 H 133.16072 V 36.700407 H 92.636219 Z"
       style="fill:#3691ff;fill-opacity:1;fill-rule:nonzero;stroke:#000000;stroke-width:0.2771855px;stroke-linecap:square;stroke-linejoin:round;stroke-miterlimit:4;stroke-dasharray:0.49893393, 1.05330495;stroke-dashoffset:0;stroke-opacity:1"
       inkscape:connector-curvature="0" />
    <path
       id="path838"
       d="m 91.028543,-4.3784625 v 0.7206823 H 90.41874 l 0.997866,0.9978678 0.997864,-0.9424309 h -0.609803 v -0.7761192 h 0.720682 v 0.6652445 l 0.997856,-1.0533047 -0.94243,-0.9424285 v 0.5543703 h -0.831551 z"
       style="fill:#000103;fill-opacity:1;fill-rule:nonzero;stroke:none;stroke-width:0.6929689"
       inkscape:connector-curvature="0" />
    <path
       id="path840"
       d="m 114.31212,-4.9882712 -0.94243,-0.942428 v 0.5543704 h -0.887 v -0.6098094 l -0.99787,0.997867 0.99787,0.9978697 v -0.6098086 h 0.83155 v 0.6098086 z"
       style="fill:#000103;fill-opacity:1;fill-rule:nonzero;stroke:none;stroke-width:0.6929689"
       inkscape:connector-curvature="0" />
    <path
       id="path842"
       d="m 114.31212,38.640705 -0.94243,-0.942431 v 0.554371 h -0.887 V 37.5874 l -0.99787,1.053305 0.99787,0.942429 v -0.55437 h 0.83155 v 0.55437 z"
       style="fill:#000103;fill-opacity:1;fill-rule:nonzero;stroke:none;stroke-width:0.6929689"
       inkscape:connector-curvature="0" />
    <path
       id="path844"
       d="m 91.028543,18.018114 0.94243,-0.942429 H 91.36117 v -0.886994 h 0.665238 l -0.997865,-0.997867 -0.997865,0.997867 h 0.609811 v 0.886994 h -0.609811 z"
       style="fill:#000103;fill-opacity:1;fill-rule:nonzero;stroke:none;stroke-width:0.6929689"
       inkscape:connector-curvature="0" />
    <path
       id="path846"
       d="m 134.82384,18.018114 0.94242,-0.942429 h -0.55437 v -0.831556 h 0.6098 l -0.99785,-1.053305 -0.99789,0.997867 h 0.60982 v 0.886994 h -0.60982 z"
       style="fill:#000103;fill-opacity:1;fill-rule:nonzero;stroke:none;stroke-width:0.6929689"
       inkscape:connector-curvature="0" />
    <path
       id="path848"
       d="m 91.69378,38.529831 h 0.776134 v 0.665243 L 93.46777,38.14177 92.469914,37.199339 V 37.75371 H 91.69378 v -0.720681 h 0.665255 l -0.997865,-0.997866 -0.997873,0.997866 h 0.609802 v 0.776118 z"
       style="fill:#000103;fill-opacity:1;fill-rule:nonzero;stroke:none;stroke-width:0.6929689"
       inkscape:connector-curvature="0" />
    <path
       id="path850"
       d="m 134.76838,-4.4339004 v 0.7206824 h 0.66526 l -1.05332,0.9978668 -0.94241,-0.942429 h 0.55436 v -0.7761202 h -0.72068 v 0.6652475 l -0.99786,-1.0533056 0.99786,-0.9424316 v 0.5543705 h 0.77611 z"
       style="fill:#000103;fill-opacity:1;fill-rule:nonzero;stroke:none;stroke-width:0.6929689"
       inkscape:connector-curvature="0" />
    <path
       id="path852"
       d="m 134.82384,18.018114 -0.94244,-0.942429 h 0.55437 v -0.886994 h -0.66526 l 1.05333,-0.997867 0.94242,0.997867 h -0.55437 v 0.886994 h 0.55437 z"
       style="fill:#000103;fill-opacity:1;fill-rule:nonzero;stroke:none;stroke-width:0.6929689"
       inkscape:connector-curvature="0" />
    <path
       id="path854"
       d="m 134.10315,38.474392 h -0.72069 v 0.665246 l -1.05331,-1.053304 0.99787,-0.942429 v 0.554369 h 0.77613 v -0.720682 h -0.66524 l 1.0533,-0.997868 0.94243,0.997868 h -0.55439 v 0.776118 z"
       style="fill:#000103;fill-opacity:1;fill-rule:nonzero;stroke:none;stroke-width:0.6929689"
       inkscape:connector-curvature="0" />
    <path
       id="path856"
       d="M 112.92619,14.248393 V 19.01598"
       style="fill:none;stroke:#ff7c4e;stroke-width:0.38805971px;stroke-linecap:butt;stroke-linejoin:miter;stroke-miterlimit:4;stroke-dasharray:none;stroke-opacity:1"
       inkscape:connector-curvature="0" />
    <path
       id="path858"
       d="m 115.25452,16.632187 h -4.71213"
       style="fill:none;stroke:#ff7c4e;stroke-width:0.38805971px;stroke-linecap:butt;stroke-linejoin:miter;stroke-miterlimit:4;stroke-dasharray:none;stroke-opacity:1"
       inkscape:connector-curvature="0" />
    <path
       id="path860"
       d="M 41.412366,-15.355002 H 81.936868 V 24.836874 H 41.412366 Z"
       style="fill:#3691ff;fill-opacity:1;fill-rule:nonzero;stroke:none;stroke-width:0.6929689"
       inkscape:connector-curvature="0" />
    <path
       id="path862"
       d="M -21.896767,71.681197 H 4.1586539 V 97.514864 H -21.896767 Z"
       style="fill:#3691ff;fill-opacity:1;fill-rule:nonzero;stroke:#000000;stroke-width:0.16631132px;stroke-linecap:square;stroke-linejoin:round;stroke-miterlimit:4;stroke-dasharray:0.33262264, 0.66524524;stroke-dashoffset:0;stroke-opacity:1"
       inkscape:connector-curvature="0" />
    <path
       id="path864"
       d="m -24.114251,69.46371 v 1.330501 l 0.388061,-0.388066 0.609807,0.609805 -0.443498,0.443498 h 1.441366 v -1.385926 l -0.443499,0.443497 -0.609806,-0.609804 0.443496,-0.443505 z"
       style="fill:#000103;fill-opacity:1;fill-rule:nonzero;stroke:none;stroke-width:0.6929689"
       inkscape:connector-curvature="0" />
    <path
       id="path866"
       d="m -8.8690581,68.798471 -0.9424279,0.942427 h 0.6098072 v 0.886997 h -0.6652457 l 0.9978664,0.997868 0.9978705,-0.997868 h -0.6098088 v -0.831556 h 0.6098088 z"
       style="fill:#000103;fill-opacity:1;fill-rule:nonzero;stroke:none;stroke-width:0.6929689"
       inkscape:connector-curvature="0" />
    <path
       id="path868"
       d="m -8.8690581,98.512729 -0.9424279,0.997874 h 0.6098072 v 0.831557 h -0.6652457 l 0.9978664,1.05331 0.9978705,-0.99787 h -0.6098088 v -0.886997 h 0.6098088 z"
       style="fill:#000103;fill-opacity:1;fill-rule:nonzero;stroke:none;stroke-width:0.6929689"
       inkscape:connector-curvature="0" />
    <path
       id="path870"
       d="m 4.1586539,98.06924 v 1.330493 l 0.3880612,-0.388062 0.609806,0.609811 -0.4434959,0.443488 h 1.441363 V 98.679043 L 5.7108916,99.122541 5.1010855,98.457303 5.5445815,98.06924 Z"
       style="fill:#000103;fill-opacity:1;fill-rule:nonzero;stroke:none;stroke-width:0.6929689"
       inkscape:connector-curvature="0" />
    <path
       id="path872"
       d="m -21.841331,98.06924 h -1.385927 l 0.443495,0.388063 -0.609805,0.609803 -0.498935,-0.443498 v 1.441362 h 1.441364 l -0.443496,-0.443488 0.609807,-0.609811 0.443497,0.443489 z"
       style="fill:#000103;fill-opacity:1;fill-rule:nonzero;stroke:none;stroke-width:0.6929689"
       inkscape:connector-curvature="0" />
    <path
       id="path874"
       d="m 6.1543882,69.740898 v 1.330493 l -0.4434966,-0.388063 -0.6098061,0.609804 0.443496,0.443506 H 4.1586539 v -1.385934 l 0.3880612,0.443507 0.609806,-0.665247 -0.3880579,-0.388066 z"
       style="fill:#000103;fill-opacity:1;fill-rule:nonzero;stroke:none;stroke-width:0.6929689"
       inkscape:connector-curvature="0" />
    <path
       id="path876"
       d="m -22.063078,84.653466 -0.942432,-0.94243 v 0.554384 h -0.886993 v -0.665255 l -0.997867,1.053301 0.997867,0.94243 v -0.554359 h 0.831556 v 0.554359 z"
       style="fill:#000103;fill-opacity:1;fill-rule:nonzero;stroke:none;stroke-width:0.6929689"
       inkscape:connector-curvature="0" />
    <path
       id="path878"
       d="m 7.2076923,84.653466 -0.942428,-0.94243 V 84.26542 H 5.4337079 v -0.665255 l -1.0533051,1.053301 0.9978662,0.94243 v -0.554359 h 0.8869953 v 0.554359 z"
       style="fill:#000103;fill-opacity:1;fill-rule:nonzero;stroke:none;stroke-width:0.6929689"
       inkscape:connector-curvature="0" />
    <path
       id="path880"
       d="M 18.516855,62.755836 H 34.870792 V 103.05858 H 18.516855 Z"
       style="fill:#3691ff;fill-opacity:1;fill-rule:nonzero;stroke:#000000;stroke-width:0.16631132px;stroke-linecap:square;stroke-linejoin:round;stroke-miterlimit:4;stroke-dasharray:0.33262264, 0.66524524;stroke-dashoffset:0;stroke-opacity:1"
       inkscape:connector-curvature="0" />
    <path
       id="path882"
       d="m 16.299373,60.538348 v 1.330484 l 0.388061,-0.388056 0.665242,0.609807 -0.498933,0.443496 h 1.441364 v -1.385926 l -0.388059,0.443498 -0.665244,-0.609813 0.443496,-0.44349 z"
       style="fill:#000103;fill-opacity:1;fill-rule:nonzero;stroke:none;stroke-width:0.6929689"
       inkscape:connector-curvature="0" />
    <path
       id="path884"
       d="m 26.499796,59.873101 -0.942432,0.942437 h 0.55437 v 0.886986 h -0.665245 l 1.053307,0.99787 0.997866,-0.99787 h -0.60981 v -0.831552 h 0.554371 z"
       style="fill:#000103;fill-opacity:1;fill-rule:nonzero;stroke:none;stroke-width:0.6929689"
       inkscape:connector-curvature="0" />
    <path
       id="path886"
       d="m 26.278047,103.50208 -0.942431,0.94242 h 0.554371 v 0.83156 h -0.609806 l 0.997866,1.05331 0.997866,-0.99786 h -0.609809 v -0.88701 h 0.609809 z"
       style="fill:#000103;fill-opacity:1;fill-rule:nonzero;stroke:none;stroke-width:0.6929689"
       inkscape:connector-curvature="0" />
    <path
       id="path888"
       d="m 34.759919,103.00314 v 1.33049 l 0.443495,-0.38806 0.609807,0.60981 -0.443496,0.44349 h 1.441361 v -1.38593 l -0.443495,0.4435 -0.609806,-0.66524 0.388059,-0.38806 z"
       style="fill:#000103;fill-opacity:1;fill-rule:nonzero;stroke:none;stroke-width:0.6929689"
       inkscape:connector-curvature="0" />
    <path
       id="path890"
       d="m 18.572293,103.00314 h -1.330489 l 0.388058,0.38806 -0.609809,0.6098 -0.443496,-0.4435 v 1.44137 h 1.385927 l -0.443495,-0.44349 0.609808,-0.60981 0.443496,0.44351 z"
       style="fill:#000103;fill-opacity:1;fill-rule:nonzero;stroke:none;stroke-width:0.6929689"
       inkscape:connector-curvature="0" />
    <path
       id="path892"
       d="m 36.811086,60.815538 v 1.330486 l -0.443495,-0.388058 -0.609806,0.609806 0.443496,0.44349 h -1.441362 v -1.385919 l 0.443495,0.443489 0.609807,-0.609805 -0.388058,-0.443489 z"
       style="fill:#000103;fill-opacity:1;fill-rule:nonzero;stroke:none;stroke-width:0.6929689"
       inkscape:connector-curvature="0" />
    <path
       id="path894"
       d="m 18.40598,82.934919 -0.997866,-0.94243 v 0.609802 h -0.831557 v -0.665238 l -1.053302,0.997866 0.997866,0.997865 v -0.609803 h 0.886993 v 0.609803 z"
       style="fill:#000103;fill-opacity:1;fill-rule:nonzero;stroke:none;stroke-width:0.6929689"
       inkscape:connector-curvature="0" />
    <path
       id="path896"
       d="m 37.864392,82.934919 -0.942431,-0.94243 v 0.554376 h -0.886993 v -0.609812 l -0.997865,0.997866 0.997865,0.997865 v -0.609803 h 0.886993 v 0.609803 z"
       style="fill:#000103;fill-opacity:1;fill-rule:nonzero;stroke:none;stroke-width:0.6929689"
       inkscape:connector-curvature="0" />
    <path
       id="path898"
       d="M 95.518944,46.90083 V 87.425322 L 55.327068,110.81976 V 70.295271 Z"
       style="fill:#3691ff;fill-opacity:1;fill-rule:nonzero;stroke:none;stroke-width:0.6929689"
       inkscape:connector-curvature="0" />
    <path
       id="path900"
       d="m 96.461374,44.572466 h -0.776125 v -0.665241 l -0.997857,0.997864 0.997857,0.99787 v -0.609805 h 0.72069 v 0.720681 h -0.609811 l 0.997865,1.053302 0.997865,-0.997862 h -0.609794 v -0.831562 z"
       style="fill:#000103;fill-opacity:1;fill-rule:nonzero;stroke:none;stroke-width:0.6929689"
       inkscape:connector-curvature="0" />
    <path
       id="path902"
       d="m 97.015742,80.273942 0.997874,-0.942428 h -0.609812 v -0.831553 h 0.665247 l -1.053309,-1.053304 -0.942431,0.997871 h 0.554377 v 0.886986 h -0.554377 z"
       style="fill:#000103;fill-opacity:1;fill-rule:nonzero;stroke:none;stroke-width:0.6929689"
       inkscape:connector-curvature="0" />
    <path
       id="path904"
       d="m 53.442211,80.273942 0.94243,-0.942428 h -0.609807 v -0.831553 h 0.665238 l -0.997861,-1.053304 -0.997872,0.997871 h 0.609815 v 0.886986 h -0.609815 z"
       style="fill:#000103;fill-opacity:1;fill-rule:nonzero;stroke:none;stroke-width:0.6929689"
       inkscape:connector-curvature="0" />
    <path
       id="path906"
       d="m 74.009359,44.517034 0.94243,0.942428 v -0.554373 h 0.886995 v 0.609814 l 0.997869,-0.997869 -0.997869,-0.997868 v 0.609812 H 75.00723 v -0.609812 z"
       style="fill:#000103;fill-opacity:1;fill-rule:nonzero;stroke:none;stroke-width:0.6929689"
       inkscape:connector-curvature="0" />
    <path
       id="path908"
       d="m 74.009359,113.259 0.94243,0.99785 v -0.6098 h 0.886995 v 0.66525 l 0.997869,-1.0533 -0.997869,-0.94243 v 0.55436 H 75.00723 v -0.55436 z"
       style="fill:#000103;fill-opacity:1;fill-rule:nonzero;stroke:none;stroke-width:0.6929689"
       inkscape:connector-curvature="0" />
    <path
       id="path910"
       d="M 53.497645,45.18228 V 45.9584 H 52.88784 l 0.997869,0.997862 0.997862,-0.997862 h -0.609805 v -0.720687 h 0.720687 v 0.609813 l 0.997861,-0.997869 -0.942428,-0.997867 v 0.609803 h -0.831561 z"
       style="fill:#000103;fill-opacity:1;fill-rule:nonzero;stroke:none;stroke-width:0.6929689"
       inkscape:connector-curvature="0" />
    <path
       id="path912"
       d="m 96.516817,113.20356 h -0.776125 v 0.66524 l -0.997873,-0.99787 0.997873,-0.99785 v 0.60979 h 0.720682 v -0.72068 h -0.609803 l 0.997866,-1.05329 0.997857,0.99785 h -0.609803 v 0.83157 z"
       style="fill:#000103;fill-opacity:1;fill-rule:nonzero;stroke:none;stroke-width:0.6929689"
       inkscape:connector-curvature="0" />
    <path
       id="path914"
       d="m 74.009359,113.259 0.94243,-0.94243 v 0.55436 h 0.886995 v -0.6098 l 0.997869,0.99787 -0.997869,0.99785 v -0.6098 H 75.00723 v 0.6098 z"
       style="fill:#000103;fill-opacity:1;fill-rule:nonzero;stroke:none;stroke-width:0.6929689"
       inkscape:connector-curvature="0" />
    <path
       id="path916"
       d="m 53.553086,112.59376 v -0.77613 h -0.609814 l 0.99787,-0.99787 0.99787,0.94243 h -0.609813 v 0.77613 h 0.720687 v -0.60982 l 0.997862,0.99787 -0.942428,0.99787 v -0.60981 h -0.831554 z"
       style="fill:#000103;fill-opacity:1;fill-rule:nonzero;stroke:none;stroke-width:0.6929689"
       inkscape:connector-curvature="0" />
    <path
       id="path918"
       d="M 77.834515,78.888017 H 73.066932"
       style="fill:none;stroke:#ff7c4e;stroke-width:0.38805971px;stroke-linecap:butt;stroke-linejoin:miter;stroke-miterlimit:4;stroke-dasharray:none;stroke-opacity:1"
       inkscape:connector-curvature="0" />
    <path
       id="path920"
       d="M 75.450727,81.271813 V 76.504221"
       style="fill:none;stroke:#ff7c4e;stroke-width:0.38805971px;stroke-linecap:butt;stroke-linejoin:miter;stroke-miterlimit:4;stroke-dasharray:none;stroke-opacity:1"
       inkscape:connector-curvature="0" />
    <path
       id="path922"
       d="M 95.518944,46.734514 V 111.20783 H 55.271627 V 46.734514 Z"
       style="fill:none;stroke:#000000;stroke-width:0.2771855px;stroke-linecap:square;stroke-linejoin:round;stroke-miterlimit:4;stroke-dasharray:0.49893393, 1.05330495;stroke-dashoffset:0;stroke-opacity:1"
       inkscape:connector-curvature="0" />
    <path
       id="path924"
       d="m 115.1991,47.399761 38.75051,11.91897 -11.75266,38.417882 -38.75052,-11.918959 z"
       style="fill:#3691ff;fill-opacity:1;fill-rule:nonzero;stroke:none;stroke-width:0.6929689"
       inkscape:connector-curvature="0" />
    <path
       id="path926"
       d="m 101.28439,46.013835 v 0.77612 h -0.60981 l 0.99788,0.997869 0.99787,-0.997869 h -0.60983 v -0.77612 h 0.72069 v 0.665245 l 0.99788,-0.997869 -0.94243,-0.99787 v 0.609813 h -0.83157 z"
       style="fill:#000103;fill-opacity:1;fill-rule:nonzero;stroke:none;stroke-width:0.6929689"
       inkscape:connector-curvature="0" />
    <path
       id="path928"
       d="m 130.11167,45.404029 -0.94243,-0.942436 v 0.609812 h -0.88699 v -0.665246 l -0.99786,0.99787 0.99786,0.997861 v -0.609805 h 0.83155 v 0.609805 z"
       style="fill:#000103;fill-opacity:1;fill-rule:nonzero;stroke:none;stroke-width:0.6929689"
       inkscape:connector-curvature="0" />
    <path
       id="path930"
       d="m 130.11167,100.12042 -0.94243,-0.942436 v 0.554368 h -0.88699 v -0.609811 l -0.99786,0.997879 0.99786,0.99786 v -0.60982 h 0.83155 v 0.60982 z"
       style="fill:#000103;fill-opacity:1;fill-rule:nonzero;stroke:none;stroke-width:0.6929689"
       inkscape:connector-curvature="0" />
    <path
       id="path932"
       d="m 101.28439,74.009551 0.94244,-0.942428 h -0.60982 v -0.886994 h 0.66524 l -0.99786,-1.053296 -0.99785,0.997854 h 0.60979 v 0.887003 h -0.60979 z"
       style="fill:#000103;fill-opacity:1;fill-rule:nonzero;stroke:none;stroke-width:0.6929689"
       inkscape:connector-curvature="0" />
    <path
       id="path934"
       d="m 101.94964,100.00954 h 0.77612 v 0.66524 l 0.99786,-0.997871 -0.99786,-0.997866 v 0.609812 h -0.77612 v -0.720682 h 0.66525 l -0.99788,-1.053309 -0.99786,0.997865 h 0.60981 v 0.831552 z"
       style="fill:#000103;fill-opacity:1;fill-rule:nonzero;stroke:none;stroke-width:0.6929689"
       inkscape:connector-curvature="0" />
    <path
       id="path936"
       d="m 156.11166,45.9584 v 0.72068 h 0.66524 l -1.0533,1.053303 -0.94243,-0.997869 h 0.55438 V 45.9584 h -0.72068 v 0.665238 l -0.99788,-0.99786 0.99788,-0.997869 v 0.609804 h 0.7761 z"
       style="fill:#000103;fill-opacity:1;fill-rule:nonzero;stroke:none;stroke-width:0.6929689"
       inkscape:connector-curvature="0" />
    <path
       id="path938"
       d="m 156.16709,74.009551 -0.94242,-0.942428 h 0.55437 v -0.886994 h -0.66523 l 1.05328,-1.053296 0.94242,0.997854 h -0.55436 v 0.887003 h 0.55436 z"
       style="fill:#000103;fill-opacity:1;fill-rule:nonzero;stroke:none;stroke-width:0.6929689"
       inkscape:connector-curvature="0" />
    <path
       id="path940"
       d="m 155.44642,99.954101 h -0.72068 v 0.665249 l -0.99788,-0.997868 0.94243,-0.997874 v 0.609811 h 0.77613 v -0.72069 h -0.66525 l 1.0533,-1.0533 0.94243,0.997874 h -0.55437 v 0.831552 z"
       style="fill:#000103;fill-opacity:1;fill-rule:nonzero;stroke:none;stroke-width:0.6929689"
       inkscape:connector-curvature="0" />
    <path
       id="path942"
       d="m 128.72575,70.184396 v 4.767585"
       style="fill:none;stroke:#ff7c4e;stroke-width:0.38805971px;stroke-linecap:butt;stroke-linejoin:miter;stroke-miterlimit:4;stroke-dasharray:none;stroke-opacity:1"
       inkscape:connector-curvature="0" />
    <path
       id="path944"
       d="m 131.10953,72.568191 h -4.76758"
       style="fill:none;stroke:#ff7c4e;stroke-width:0.38805971px;stroke-linecap:butt;stroke-linejoin:miter;stroke-miterlimit:4;stroke-dasharray:none;stroke-opacity:1"
       inkscape:connector-curvature="0" />
    <path
       id="path946"
       d="M 103.16926,47.288885 H 154.2268 V 97.902927 H 103.16926 Z"
       style="fill:none;stroke:#000000;stroke-width:0.2771855px;stroke-linecap:square;stroke-linejoin:round;stroke-miterlimit:4;stroke-dasharray:0.49893393, 1.05330495;stroke-dashoffset:0;stroke-opacity:1"
       inkscape:connector-curvature="0" />
    <path
       style="font-style:normal;font-variant:normal;font-weight:600;font-stretch:normal;font-size:40px;line-height:25px;font-family:Montserrat;-inkscape-font-specification:'Montserrat, Semi-Bold';font-variant-ligatures:normal;font-variant-caps:normal;font-variant-numeric:normal;font-feature-settings:normal;text-align:start;letter-spacing:0px;word-spacing:0px;writing-mode:lr-tb;text-anchor:start;fill:#000000;fill-opacity:1;stroke:none"
       d="M 458.36719 36.830078 C 454.65519 36.830078 452.16016 39.262438 452.16016 42.398438 C 452.16016 45.534437 454.65519 47.966797 458.36719 47.966797 C 462.07919 47.966797 464.57617 45.535031 464.57617 42.207031 C 464.57617 39.135031 462.07919 36.830078 458.36719 36.830078 z M 239.9043 39.199219 C 231.3283 39.199219 226.5918 44.254047 226.5918 51.998047 L 226.5918 53.535156 L 221.2793 53.535156 L 221.2793 61.214844 L 226.5918 61.214844 L 226.5918 87.199219 L 236.57617 87.199219 L 236.57617 61.214844 L 245.15234 61.214844 L 245.15234 53.535156 L 236.32031 53.535156 L 236.32031 52.0625 C 236.32031 48.6705 237.91928 47.070313 240.86328 47.070312 C 242.39928 47.070312 243.80848 47.519109 244.89648 48.287109 L 247.51953 41.054688 C 245.66353 39.774688 242.7203 39.199219 239.9043 39.199219 z M 846.125 39.710938 L 846.125 87.199219 L 856.10938 87.199219 L 856.10938 39.710938 L 846.125 39.710938 z M 865.375 39.710938 L 865.375 87.199219 L 875.35938 87.199219 L 875.35938 39.710938 L 865.375 39.710938 z M 37.398438 42.398438 L 37.398438 50.845703 L 51.734375 50.845703 L 51.734375 87.199219 L 62.103516 87.199219 L 62.103516 50.845703 L 76.439453 50.845703 L 76.439453 42.398438 L 37.398438 42.398438 z M 426.7168 45.150391 L 426.7168 53.535156 L 421.4043 53.535156 L 421.4043 61.214844 L 426.7168 61.214844 L 426.7168 75.357422 C 426.7168 83.549422 431.45208 87.710938 439.58008 87.710938 C 442.65208 87.710938 445.66098 87.007156 447.70898 85.535156 L 445.02148 78.494141 C 443.93348 79.326141 442.46028 79.773438 440.98828 79.773438 C 438.30028 79.773438 436.70117 78.174469 436.70117 75.230469 L 436.70117 61.214844 L 445.27734 61.214844 L 445.27734 53.535156 L 436.70117 53.535156 L 436.70117 45.150391 L 426.7168 45.150391 z M 101.87695 52.253906 C 96.564953 52.253906 92.469109 53.982547 90.037109 57.310547 L 90.037109 52.765625 L 80.5 52.765625 L 80.5 87.199219 L 90.484375 87.199219 L 90.484375 70.941406 C 90.484375 64.349406 94.132719 61.341797 99.636719 61.341797 C 100.40472 61.341797 101.04495 61.406703 101.87695 61.470703 L 101.87695 52.253906 z M 121.51367 52.253906 C 116.00967 52.253906 110.44202 53.726063 106.66602 56.414062 L 110.25 63.390625 C 112.746 61.406625 116.52192 60.189453 120.16992 60.189453 C 125.54592 60.189453 128.10547 62.686609 128.10547 66.974609 L 120.16992 66.974609 C 109.67392 66.974609 105.38672 71.199297 105.38672 77.279297 C 105.38672 83.231297 110.186 87.710938 118.25 87.710938 C 123.306 87.710938 126.89009 86.046156 128.74609 82.910156 L 128.74609 87.199219 L 138.08984 87.199219 L 138.08984 67.550781 C 138.08984 57.118781 132.00967 52.253906 121.51367 52.253906 z M 168.05469 52.253906 C 163.38269 52.253906 159.35011 53.854828 156.66211 56.798828 L 156.66211 52.765625 L 147.125 52.765625 L 147.125 87.199219 L 157.10938 87.199219 L 157.10938 70.173828 C 157.10938 63.837828 160.56523 60.894531 165.36523 60.894531 C 169.78123 60.894531 172.3418 63.453484 172.3418 69.021484 L 172.3418 87.199219 L 182.32617 87.199219 L 182.32617 67.486328 C 182.32617 56.990328 176.18269 52.253906 168.05469 52.253906 z M 204.81641 52.253906 C 194.76841 52.253906 188.87891 56.862625 188.87891 63.390625 C 188.87891 77.150625 209.67969 71.389484 209.67969 77.021484 C 209.67969 78.941484 207.95175 80.158203 203.34375 80.158203 C 199.11975 80.158203 194.447 78.814078 191.375 76.830078 L 188.04883 83.998047 C 191.24883 86.110047 197.13498 87.710938 202.95898 87.710938 C 213.26298 87.710938 219.2168 83.165625 219.2168 76.765625 C 219.2168 63.197625 198.41602 68.893859 198.41602 63.005859 C 198.41602 61.213859 200.33641 59.806641 204.81641 59.806641 C 207.95241 59.806641 211.34433 60.447188 214.73633 62.367188 L 218.06445 55.261719 C 214.80045 53.341719 209.55241 52.253906 204.81641 52.253906 z M 266.00977 52.253906 C 255.06577 52.253906 247.06641 59.614422 247.06641 69.982422 C 247.06641 80.350422 255.06577 87.710937 266.00977 87.710938 C 276.95377 87.710938 284.89062 80.350422 284.89062 69.982422 C 284.89062 59.614422 276.95377 52.253906 266.00977 52.253906 z M 312.87695 52.253906 C 307.56495 52.253906 303.46911 53.982547 301.03711 57.310547 L 301.03711 52.765625 L 291.5 52.765625 L 291.5 87.199219 L 301.48438 87.199219 L 301.48438 70.941406 C 301.48438 64.349406 305.13272 61.341797 310.63672 61.341797 C 311.40472 61.341797 312.04495 61.406703 312.87695 61.470703 L 312.87695 52.253906 z M 339.22852 52.253906 C 334.81252 52.253906 330.97211 53.790375 328.41211 56.734375 L 328.41211 52.765625 L 318.875 52.765625 L 318.875 87.199219 L 328.85938 87.199219 L 328.85938 69.917969 C 328.85938 63.773969 331.99611 60.894531 336.41211 60.894531 C 340.57211 60.894531 342.93945 63.453484 342.93945 69.021484 L 342.93945 87.199219 L 352.92383 87.199219 L 352.92383 69.917969 C 352.92383 63.773969 356.05906 60.894531 360.53906 60.894531 C 364.57106 60.894531 367.06836 63.453484 367.06836 69.021484 L 367.06836 87.199219 L 377.05273 87.199219 L 377.05273 67.486328 C 377.05273 56.990328 371.16466 52.253906 362.97266 52.253906 C 357.78866 52.253906 353.30864 54.366719 350.55664 57.886719 C 348.12464 54.110719 344.02852 52.253906 339.22852 52.253906 z M 399.88867 52.253906 C 394.38467 52.253906 388.81702 53.726063 385.04102 56.414062 L 388.625 63.390625 C 391.121 61.406625 394.89692 60.189453 398.54492 60.189453 C 403.92092 60.189453 406.48047 62.686609 406.48047 66.974609 L 398.54492 66.974609 C 388.04892 66.974609 383.76172 71.199297 383.76172 77.279297 C 383.76172 83.231297 388.561 87.710938 396.625 87.710938 C 401.681 87.710938 405.26509 86.046156 407.12109 82.910156 L 407.12109 87.199219 L 416.46484 87.199219 L 416.46484 67.550781 C 416.46484 57.118781 410.38467 52.253906 399.88867 52.253906 z M 489.00977 52.253906 C 478.06577 52.253906 470.06641 59.614422 470.06641 69.982422 C 470.06641 80.350422 478.06577 87.710937 489.00977 87.710938 C 499.95377 87.710938 507.89062 80.350422 507.89062 69.982422 C 507.89062 59.614422 499.95377 52.253906 489.00977 52.253906 z M 535.42969 52.253906 C 530.75769 52.253906 526.72511 53.854828 524.03711 56.798828 L 524.03711 52.765625 L 514.5 52.765625 L 514.5 87.199219 L 524.48438 87.199219 L 524.48438 70.173828 C 524.48438 63.837828 527.94023 60.894531 532.74023 60.894531 C 537.15623 60.894531 539.7168 63.453484 539.7168 69.021484 L 539.7168 87.199219 L 549.70117 87.199219 L 549.70117 67.486328 C 549.70117 56.990328 543.55769 52.253906 535.42969 52.253906 z M 572.19141 52.253906 C 562.14341 52.253906 556.25391 56.862625 556.25391 63.390625 C 556.25391 77.150625 577.05469 71.389484 577.05469 77.021484 C 577.05469 78.941484 575.32675 80.158203 570.71875 80.158203 C 566.49475 80.158203 561.822 78.814078 558.75 76.830078 L 555.42188 83.998047 C 558.62187 86.110047 564.50998 87.710938 570.33398 87.710938 C 580.63798 87.710938 586.5918 83.165625 586.5918 76.765625 C 586.5918 63.197625 565.79102 68.893859 565.79102 63.005859 C 565.79102 61.213859 567.71141 59.806641 572.19141 59.806641 C 575.32741 59.806641 578.71933 60.447188 582.11133 62.367188 L 585.43945 55.261719 C 582.17545 53.341719 576.92741 52.253906 572.19141 52.253906 z M 631.22852 52.253906 C 626.81252 52.253906 622.97211 53.790375 620.41211 56.734375 L 620.41211 52.765625 L 610.875 52.765625 L 610.875 87.199219 L 620.85938 87.199219 L 620.85938 69.917969 C 620.85938 63.773969 623.99611 60.894531 628.41211 60.894531 C 632.57211 60.894531 634.93945 63.453484 634.93945 69.021484 L 634.93945 87.199219 L 644.92383 87.199219 L 644.92383 69.917969 C 644.92383 63.773969 648.05906 60.894531 652.53906 60.894531 C 656.57106 60.894531 659.06836 63.453484 659.06836 69.021484 L 659.06836 87.199219 L 669.05273 87.199219 L 669.05273 67.486328 C 669.05273 56.990328 663.16466 52.253906 654.97266 52.253906 C 649.78866 52.253906 645.30864 54.366719 642.55664 57.886719 C 640.12464 54.110719 636.02852 52.253906 631.22852 52.253906 z M 691.88867 52.253906 C 686.38467 52.253906 680.81702 53.726063 677.04102 56.414062 L 680.625 63.390625 C 683.121 61.406625 686.89692 60.189453 690.54492 60.189453 C 695.92092 60.189453 698.48047 62.686609 698.48047 66.974609 L 690.54492 66.974609 C 680.04892 66.974609 675.76172 71.199297 675.76172 77.279297 C 675.76172 83.231297 680.561 87.710938 688.625 87.710938 C 693.681 87.710938 697.26509 86.046156 699.12109 82.910156 L 699.12109 87.199219 L 708.46484 87.199219 L 708.46484 67.550781 C 708.46484 57.118781 702.38467 52.253906 691.88867 52.253906 z M 738.42969 52.253906 C 733.75769 52.253906 729.72511 53.854828 727.03711 56.798828 L 727.03711 52.765625 L 717.5 52.765625 L 717.5 87.199219 L 727.48438 87.199219 L 727.48438 70.173828 C 727.48438 63.837828 730.94023 60.894531 735.74023 60.894531 C 740.15623 60.894531 742.7168 63.453484 742.7168 69.021484 L 742.7168 87.199219 L 752.70117 87.199219 L 752.70117 67.486328 C 752.70117 56.990328 746.55769 52.253906 738.42969 52.253906 z M 821.55859 52.253906 C 811.06259 52.253906 803.19141 59.678422 803.19141 69.982422 C 803.19141 80.222422 810.93389 87.710937 822.83789 87.710938 C 829.04589 87.710938 833.84688 85.790578 837.04688 82.142578 L 831.73438 76.382812 C 829.36638 78.622812 826.7437 79.710938 823.0957 79.710938 C 817.8477 79.710938 814.19828 77.086828 813.23828 72.798828 L 839.28711 72.798828 C 839.35111 71.966828 839.47852 70.879328 839.47852 70.111328 C 839.47852 59.039328 831.67059 52.253906 821.55859 52.253906 z M 900.43359 52.253906 C 889.93759 52.253906 882.06641 59.678422 882.06641 69.982422 C 882.06641 80.222422 889.80889 87.710937 901.71289 87.710938 C 907.92089 87.710938 912.72188 85.790578 915.92188 82.142578 L 910.60938 76.382812 C 908.24138 78.622812 905.6187 79.710938 901.9707 79.710938 C 896.7227 79.710938 893.07328 77.086828 892.11328 72.798828 L 918.16211 72.798828 C 918.22611 71.966828 918.35352 70.879328 918.35352 70.111328 C 918.35352 59.039328 910.54559 52.253906 900.43359 52.253906 z M 938.44141 52.253906 C 928.39341 52.253906 922.50391 56.862625 922.50391 63.390625 C 922.50391 77.150625 943.30469 71.389484 943.30469 77.021484 C 943.30469 78.941484 941.57675 80.158203 936.96875 80.158203 C 932.74475 80.158203 928.072 78.814078 925 76.830078 L 921.67188 83.998047 C 924.87187 86.110047 930.75998 87.710938 936.58398 87.710938 C 946.88798 87.710938 952.8418 83.165625 952.8418 76.765625 C 952.8418 63.197625 932.04102 68.893859 932.04102 63.005859 C 932.04102 61.213859 933.96141 59.806641 938.44141 59.806641 C 941.57741 59.806641 944.96933 60.447188 948.36133 62.367188 L 951.68945 55.261719 C 948.42545 53.341719 943.17741 52.253906 938.44141 52.253906 z M 453.375 52.765625 L 453.375 87.199219 L 463.35938 87.199219 L 463.35938 52.765625 L 453.375 52.765625 z M 761.55859 52.765625 L 761.55859 72.222656 C 761.55859 82.846656 767.6393 87.710937 776.2793 87.710938 C 780.5033 87.710938 784.3428 86.109562 786.9668 83.101562 L 786.9668 87.199219 L 796.43945 87.199219 L 796.43945 52.765625 L 786.45508 52.765625 L 786.45508 69.791016 C 786.45508 76.127016 783.12753 79.070312 778.51953 79.070312 C 774.10353 79.070312 771.54297 76.51 771.54297 70.75 L 771.54297 52.765625 L 761.55859 52.765625 z M 821.62305 59.806641 C 826.10305 59.806641 829.36631 62.622609 830.07031 66.974609 L 813.11133 66.974609 C 813.81533 62.558609 817.07905 59.806641 821.62305 59.806641 z M 900.49805 59.806641 C 904.97805 59.806641 908.24131 62.622609 908.94531 66.974609 L 891.98633 66.974609 C 892.69033 62.558609 895.95405 59.806641 900.49805 59.806641 z M 266.00977 60.447266 C 271.00177 60.447266 274.77734 64.030422 274.77734 69.982422 C 274.77734 75.934422 271.00177 79.517578 266.00977 79.517578 C 261.01777 79.517578 257.17773 75.934422 257.17773 69.982422 C 257.17773 64.030422 261.01777 60.447266 266.00977 60.447266 z M 489.00977 60.447266 C 494.00177 60.447266 497.77734 64.030422 497.77734 69.982422 C 497.77734 75.934422 494.00177 79.517578 489.00977 79.517578 C 484.01777 79.517578 480.17773 75.934422 480.17773 69.982422 C 480.17773 64.030422 484.01777 60.447266 489.00977 60.447266 z M 121.25781 72.798828 L 128.10547 72.798828 L 128.10547 76.318359 C 126.95347 79.454359 124.07409 80.990234 120.74609 80.990234 C 117.22609 80.990234 115.11328 79.326078 115.11328 76.830078 C 115.11328 74.526078 116.58581 72.798828 121.25781 72.798828 z M 399.63281 72.798828 L 406.48047 72.798828 L 406.48047 76.318359 C 405.32847 79.454359 402.44909 80.990234 399.12109 80.990234 C 395.60109 80.990234 393.48828 79.326078 393.48828 76.830078 C 393.48828 74.526078 394.96081 72.798828 399.63281 72.798828 z M 691.63281 72.798828 L 698.48047 72.798828 L 698.48047 76.318359 C 697.32847 79.454359 694.44909 80.990234 691.12109 80.990234 C 687.60109 80.990234 685.48828 79.326078 685.48828 76.830078 C 685.48828 74.526078 686.96081 72.798828 691.63281 72.798828 z "
       transform="matrix(0.26458333,0,0,0.26458333,-80.653183,-45.470983)"
       id="flowRoot1020" />
    <path
       style="font-style:normal;font-variant:normal;font-weight:600;font-stretch:normal;font-size:10.58333302px;line-height:6.61458302px;font-family:Montserrat;-inkscape-font-specification:'Montserrat, Semi-Bold';font-variant-ligatures:normal;font-variant-caps:normal;font-variant-numeric:normal;font-feature-settings:normal;text-align:start;letter-spacing:0px;word-spacing:0px;writing-mode:lr-tb;text-anchor:start;fill:#000000;fill-opacity:1;stroke:none;stroke-width:0.99999994"
       d="M 1007.3379 506.75391 C 1005.4979 506.75391 1004.1367 508.07391 1004.1367 509.75391 C 1004.1367 511.43391 1005.4979 512.75391 1007.3379 512.75391 C 1009.2179 512.75391 1010.5371 511.39281 1010.5371 509.63281 C 1010.5371 507.99281 1009.1779 506.75391 1007.3379 506.75391 z M 947.29297 511.55273 L 947.29297 516.43359 L 943.77344 516.43359 L 943.77344 520.43359 L 947.29297 520.43359 L 947.29297 530.71289 C 947.29297 535.43289 949.9743 537.91406 954.6543 537.91406 C 956.4543 537.91406 958.25313 537.43266 959.45312 536.47266 L 958.05469 532.91406 C 957.29469 533.51406 956.29391 533.79297 955.25391 533.79297 C 953.33391 533.79297 952.29297 532.67375 952.29297 530.59375 L 952.29297 520.43359 L 958.01367 520.43359 L 958.01367 516.43359 L 952.29297 516.43359 L 952.29297 511.55273 L 947.29297 511.55273 z M 988.54297 511.55273 L 988.54297 516.43359 L 985.02344 516.43359 L 985.02344 520.43359 L 988.54297 520.43359 L 988.54297 530.71289 C 988.54297 535.43289 991.2243 537.91406 995.9043 537.91406 C 997.7043 537.91406 999.50313 537.43266 1000.7031 536.47266 L 999.30469 532.91406 C 998.54469 533.51406 997.54391 533.79297 996.50391 533.79297 C 994.58391 533.79297 993.54297 532.67375 993.54297 530.59375 L 993.54297 520.43359 L 999.26367 520.43359 L 999.26367 516.43359 L 993.54297 516.43359 L 993.54297 511.55273 L 988.54297 511.55273 z M 916.78711 516.0332 C 913.22711 516.0332 910.62555 517.15258 909.18555 519.39258 L 909.18555 516.27344 L 904.42578 516.27344 L 904.42578 537.63281 L 909.42578 537.63281 L 909.42578 527.27344 C 909.42578 522.91344 911.82695 520.67383 915.62695 520.67383 C 915.98695 520.67383 916.34711 520.71297 916.78711 520.79297 L 916.78711 516.0332 z M 930.43359 516.0332 C 923.87359 516.0332 919.07227 520.55313 919.07227 526.95312 C 919.07227 533.35312 923.87359 537.91406 930.43359 537.91406 C 937.07359 537.91406 941.83203 533.35312 941.83203 526.95312 C 941.83203 520.55313 937.07359 516.0332 930.43359 516.0332 z M 971.72656 516.0332 C 968.28656 516.0332 964.9675 516.91383 962.6875 518.67383 L 964.64648 522.3125 C 966.24648 520.9925 968.72695 520.19336 971.12695 520.19336 C 974.68695 520.19336 976.44727 521.91398 976.44727 524.83398 L 976.44727 525.15234 L 970.92773 525.15234 C 964.44773 525.15234 962.04688 527.95367 962.04688 531.51367 C 962.04688 535.23367 965.12781 537.91406 970.00781 537.91406 C 973.20781 537.91406 975.52656 536.8732 976.72656 535.0332 L 976.72656 537.63281 L 981.44727 537.63281 L 981.44727 525.11328 C 981.44727 518.95328 977.88656 516.0332 971.72656 516.0332 z M 1025.9805 516.0332 C 1019.4205 516.0332 1014.6191 520.55313 1014.6191 526.95312 C 1014.6191 533.35312 1019.4205 537.91406 1025.9805 537.91406 C 1032.6205 537.91406 1037.3789 533.35312 1037.3789 526.95312 C 1037.3789 520.55313 1032.6205 516.0332 1025.9805 516.0332 z M 1054.2812 516.0332 C 1051.1613 516.0332 1048.5599 517.0732 1046.9199 519.0332 L 1046.9199 516.27344 L 1042.1602 516.27344 L 1042.1602 537.63281 L 1047.1602 537.63281 L 1047.1602 526.83398 C 1047.1602 522.55398 1049.5611 520.39258 1053.1211 520.39258 C 1056.3211 520.39258 1058.2012 522.2332 1058.2012 526.0332 L 1058.2012 537.63281 L 1063.2012 537.63281 L 1063.2012 525.39258 C 1063.2012 518.95258 1059.4012 516.0332 1054.2812 516.0332 z M 1004.8164 516.27344 L 1004.8164 537.63281 L 1009.8164 537.63281 L 1009.8164 516.27344 L 1004.8164 516.27344 z M 930.43359 520.27344 C 934.07359 520.27344 936.79297 522.87313 936.79297 526.95312 C 936.79297 531.03312 934.07359 533.63281 930.43359 533.63281 C 926.83359 533.63281 924.11328 531.03312 924.11328 526.95312 C 924.11328 522.87313 926.83359 520.27344 930.43359 520.27344 z M 1025.9805 520.27344 C 1029.6205 520.27344 1032.3398 522.87313 1032.3398 526.95312 C 1032.3398 531.03312 1029.6205 533.63281 1025.9805 533.63281 C 1022.3805 533.63281 1019.6602 531.03312 1019.6602 526.95312 C 1019.6602 522.87313 1022.3805 520.27344 1025.9805 520.27344 z M 971.28711 528.47266 L 976.44727 528.47266 L 976.44727 530.95312 C 975.60727 533.15312 973.48687 534.27344 971.04688 534.27344 C 968.48688 534.27344 966.9668 533.1125 966.9668 531.3125 C 966.9668 529.7525 967.88711 528.47266 971.28711 528.47266 z M 236.87109 578.56641 C 235.03109 578.56641 233.67188 579.88641 233.67188 581.56641 C 233.67188 583.24641 235.03109 584.56641 236.87109 584.56641 C 238.75109 584.56641 240.07227 583.20727 240.07227 581.44727 C 240.07227 579.80727 238.71109 578.56641 236.87109 578.56641 z M 363.66797 578.56641 C 361.82797 578.56641 360.46875 579.88641 360.46875 581.56641 C 360.46875 583.24641 361.82797 584.56641 363.66797 584.56641 C 365.54797 584.56641 366.86914 583.20727 366.86914 581.44727 C 366.86914 579.80727 365.50797 578.56641 363.66797 578.56641 z M 222.77148 579.76758 L 222.77148 590.72656 C 221.09148 588.76656 218.65062 587.84766 215.89062 587.84766 C 209.69063 587.84766 205.0918 592.12758 205.0918 598.76758 C 205.0918 605.40758 209.69063 609.72656 215.89062 609.72656 C 218.81062 609.72656 221.2907 608.7275 222.9707 606.6875 L 222.9707 609.44727 L 227.77148 609.44727 L 227.77148 579.76758 L 222.77148 579.76758 z M 257.67383 587.84766 C 254.75383 587.84766 252.27383 588.88664 250.67383 590.80664 L 250.67383 588.08594 L 245.91406 588.08594 L 245.91406 609.44727 L 250.91406 609.44727 L 250.91406 598.60742 C 250.91406 594.36742 253.15461 592.20703 256.47461 592.20703 C 259.51461 592.20703 261.27344 594.04766 261.27344 597.84766 L 261.27344 609.44727 L 266.27344 609.44727 L 266.27344 598.60742 C 266.27344 594.36742 268.55398 592.20703 271.83398 592.20703 C 274.87398 592.20703 276.63477 594.04766 276.63477 597.84766 L 276.63477 609.44727 L 281.63477 609.44727 L 281.63477 597.20703 C 281.63477 590.76703 278.03305 587.84766 272.87305 587.84766 C 269.47305 587.84766 266.59305 589.20625 264.87305 591.40625 C 263.39305 589.00625 260.79383 587.84766 257.67383 587.84766 z M 297.53711 587.84766 C 291.17711 587.84766 286.49805 592.40758 286.49805 598.76758 C 286.49805 605.12758 291.13688 609.72656 298.29688 609.72656 C 301.97687 609.72656 304.97844 608.52609 306.89844 606.24609 L 304.2168 603.16602 C 302.6968 604.72602 300.81797 605.48633 298.41797 605.48633 C 294.69797 605.48633 292.09805 603.48719 291.49805 600.36719 L 308.25781 600.36719 C 308.29781 599.88719 308.33789 599.28672 308.33789 598.88672 C 308.33789 592.20672 303.77711 587.84766 297.53711 587.84766 z M 325.2207 587.84766 C 322.1007 587.84766 319.50133 588.88766 317.86133 590.84766 L 317.86133 588.08594 L 313.10156 588.08594 L 313.10156 609.44727 L 318.10156 609.44727 L 318.10156 598.64648 C 318.10156 594.36648 320.50055 592.20703 324.06055 592.20703 C 327.26055 592.20703 329.14062 594.04766 329.14062 597.84766 L 329.14062 609.44727 L 334.14062 609.44727 L 334.14062 597.20703 C 334.14062 590.76703 330.3407 587.84766 325.2207 587.84766 z M 348.12305 587.84766 C 342.36305 587.84766 338.72266 590.48734 338.72266 594.52734 C 338.72266 603.04734 351.92383 599.20711 351.92383 603.28711 C 351.92383 604.76711 350.60336 605.64648 347.44336 605.64648 C 344.76336 605.64648 341.88391 604.76734 340.00391 603.52734 L 338.08398 607.32617 C 340.00398 608.68617 343.56305 609.72656 347.12305 609.72656 C 353.12305 609.72656 356.80273 607.12695 356.80273 603.12695 C 356.80273 594.76695 343.60352 598.60711 343.60352 594.28711 C 343.60352 592.88711 345.04398 591.88672 348.08398 591.88672 C 350.12398 591.88672 352.16313 592.28633 354.20312 593.48633 L 356.12305 589.6875 C 354.20305 588.5275 350.96305 587.84766 348.12305 587.84766 z M 382.31055 587.84766 C 375.75055 587.84766 370.95117 592.36758 370.95117 598.76758 C 370.95117 605.16758 375.75055 609.72656 382.31055 609.72656 C 388.95055 609.72656 393.71094 605.16758 393.71094 598.76758 C 393.71094 592.36758 388.95055 587.84766 382.31055 587.84766 z M 410.61133 587.84766 C 407.49133 587.84766 404.89195 588.88766 403.25195 590.84766 L 403.25195 588.08594 L 398.49219 588.08594 L 398.49219 609.44727 L 403.49219 609.44727 L 403.49219 598.64648 C 403.49219 594.36648 405.89117 592.20703 409.45117 592.20703 C 412.65117 592.20703 414.53125 594.04766 414.53125 597.84766 L 414.53125 609.44727 L 419.53125 609.44727 L 419.53125 597.20703 C 419.53125 590.76703 415.73133 587.84766 410.61133 587.84766 z M 433.51367 587.84766 C 427.75367 587.84766 424.11328 590.48734 424.11328 594.52734 C 424.11328 603.04734 437.31445 599.20711 437.31445 603.28711 C 437.31445 604.76711 435.99398 605.64648 432.83398 605.64648 C 430.15398 605.64648 427.27453 604.76734 425.39453 603.52734 L 423.47461 607.32617 C 425.39461 608.68617 428.95367 609.72656 432.51367 609.72656 C 438.51367 609.72656 442.19336 607.12695 442.19336 603.12695 C 442.19336 594.76695 428.99414 598.60711 428.99414 594.28711 C 428.99414 592.88711 430.43461 591.88672 433.47461 591.88672 C 435.51461 591.88672 437.55375 592.28633 439.59375 593.48633 L 441.51367 589.6875 C 439.59367 588.5275 436.35367 587.84766 433.51367 587.84766 z M 234.35156 588.08594 L 234.35156 609.44727 L 239.35156 609.44727 L 239.35156 588.08594 L 234.35156 588.08594 z M 361.14844 588.08594 L 361.14844 609.44727 L 366.14844 609.44727 L 366.14844 588.08594 L 361.14844 588.08594 z M 297.53711 591.84766 C 300.81711 591.84766 303.17813 593.96688 303.57812 597.04688 L 291.45703 597.04688 C 291.93703 593.92688 294.29711 591.84766 297.53711 591.84766 z M 216.49219 592.08594 C 220.09219 592.08594 222.85156 594.68758 222.85156 598.76758 C 222.85156 602.84758 220.09219 605.44727 216.49219 605.44727 C 212.89219 605.44727 210.13086 602.84758 210.13086 598.76758 C 210.13086 594.68758 212.89219 592.08594 216.49219 592.08594 z M 382.31055 592.08594 C 385.95055 592.08594 388.66992 594.68758 388.66992 598.76758 C 388.66992 602.84758 385.95055 605.44727 382.31055 605.44727 C 378.71055 605.44727 375.99023 602.84758 375.99023 598.76758 C 375.99023 594.68758 378.71055 592.08594 382.31055 592.08594 z M 514.37109 608.56641 C 512.53109 608.56641 511.17188 609.88641 511.17188 611.56641 C 511.17188 613.24641 512.53109 614.56641 514.37109 614.56641 C 516.25109 614.56641 517.57227 613.20727 517.57227 611.44727 C 517.57227 609.80727 516.21109 608.56641 514.37109 608.56641 z M 588.12109 608.56641 C 586.28109 608.56641 584.92188 609.88641 584.92188 611.56641 C 584.92188 613.24641 586.28109 614.56641 588.12109 614.56641 C 590.00109 614.56641 591.32227 613.20727 591.32227 611.44727 C 591.32227 609.80727 589.96109 608.56641 588.12109 608.56641 z M 651.40234 608.56641 C 649.56234 608.56641 648.20312 609.88641 648.20312 611.56641 C 648.20312 613.24641 649.56234 614.56641 651.40234 614.56641 C 653.28234 614.56641 654.60352 613.20727 654.60352 611.44727 C 654.60352 609.80727 653.24234 608.56641 651.40234 608.56641 z M 574.03906 609.76758 L 574.03906 639.44727 L 579.03906 639.44727 L 579.03906 609.76758 L 574.03906 609.76758 z M 535.5332 617.84766 C 532.4132 617.84766 529.81383 618.88766 528.17383 620.84766 L 528.17383 618.08594 L 523.41406 618.08594 L 523.41406 639.44727 L 528.41406 639.44727 L 528.41406 628.64648 C 528.41406 624.36648 530.81305 622.20703 534.37305 622.20703 C 537.57305 622.20703 539.45312 624.04766 539.45312 627.84766 L 539.45312 639.44727 L 544.45312 639.44727 L 544.45312 627.20703 C 544.45312 620.76703 540.6532 617.84766 535.5332 617.84766 z M 560.87109 617.84766 C 554.11109 617.84766 549.31055 622.36758 549.31055 628.76758 C 549.31055 635.16758 554.11109 639.72656 560.87109 639.72656 C 565.03109 639.72656 568.35023 637.92656 569.99023 634.72656 L 566.15039 632.48633 C 564.87039 634.52633 562.95008 635.44727 560.83008 635.44727 C 557.15008 635.44727 554.34961 632.92758 554.34961 628.76758 C 554.34961 624.64758 557.15008 622.08594 560.83008 622.08594 C 562.95008 622.08594 564.87039 623.00688 566.15039 625.04688 L 569.99023 622.80664 C 568.35023 619.56664 565.03109 617.84766 560.87109 617.84766 z M 609.2832 617.84766 C 606.1632 617.84766 603.56383 618.88766 601.92383 620.84766 L 601.92383 618.08594 L 597.16406 618.08594 L 597.16406 639.44727 L 602.16406 639.44727 L 602.16406 628.64648 C 602.16406 624.36648 604.56305 622.20703 608.12305 622.20703 C 611.32305 622.20703 613.20312 624.04766 613.20312 627.84766 L 613.20312 639.44727 L 618.20312 639.44727 L 618.20312 627.20703 C 618.20312 620.76703 614.4032 617.84766 609.2832 617.84766 z M 632.74609 617.84766 C 629.30609 617.84766 625.98508 618.72633 623.70508 620.48633 L 625.66602 624.12695 C 627.26602 622.80695 629.74648 622.00781 632.14648 622.00781 C 635.70648 622.00781 637.46484 623.72648 637.46484 626.64648 L 637.46484 626.9668 L 631.94531 626.9668 C 625.46531 626.9668 623.06641 629.76617 623.06641 633.32617 C 623.06641 637.04617 626.14539 639.72656 631.02539 639.72656 C 634.22539 639.72656 636.54609 638.68766 637.74609 636.84766 L 637.74609 639.44727 L 642.46484 639.44727 L 642.46484 626.92773 C 642.46484 620.76773 638.90609 617.84766 632.74609 617.84766 z M 668.04492 617.84766 C 662.28492 617.84766 658.64453 620.48734 658.64453 624.52734 C 658.64453 633.04734 671.8457 629.20711 671.8457 633.28711 C 671.8457 634.76711 670.52523 635.64648 667.36523 635.64648 C 664.68523 635.64648 661.80578 634.76734 659.92578 633.52734 L 658.00586 637.32617 C 659.92586 638.68617 663.48492 639.72656 667.04492 639.72656 C 673.04492 639.72656 676.72461 637.12695 676.72461 633.12695 C 676.72461 624.76695 663.52539 628.60711 663.52539 624.28711 C 663.52539 622.88711 664.96586 621.88672 668.00586 621.88672 C 670.04586 621.88672 672.085 622.28633 674.125 623.48633 L 676.04492 619.6875 C 674.12492 618.5275 670.88492 617.84766 668.04492 617.84766 z M 690.66992 617.84766 C 684.10992 617.84766 679.31055 622.36758 679.31055 628.76758 C 679.31055 635.16758 684.10992 639.72656 690.66992 639.72656 C 697.30992 639.72656 702.07031 635.16758 702.07031 628.76758 C 702.07031 622.36758 697.30992 617.84766 690.66992 617.84766 z M 718.9707 617.84766 C 715.8507 617.84766 713.25133 618.88766 711.61133 620.84766 L 711.61133 618.08594 L 706.85156 618.08594 L 706.85156 639.44727 L 711.85156 639.44727 L 711.85156 628.64648 C 711.85156 624.36648 714.25055 622.20703 717.81055 622.20703 C 721.01055 622.20703 722.89062 624.04766 722.89062 627.84766 L 722.89062 639.44727 L 727.89062 639.44727 L 727.89062 627.20703 C 727.89062 620.76703 724.0907 617.84766 718.9707 617.84766 z M 511.85156 618.08594 L 511.85156 639.44727 L 516.85156 639.44727 L 516.85156 618.08594 L 511.85156 618.08594 z M 585.60156 618.08594 L 585.60156 639.44727 L 590.60156 639.44727 L 590.60156 618.08594 L 585.60156 618.08594 z M 648.88281 618.08594 L 648.88281 639.44727 L 653.88281 639.44727 L 653.88281 618.08594 L 648.88281 618.08594 z M 690.66992 622.08594 C 694.30992 622.08594 697.0293 624.68758 697.0293 628.76758 C 697.0293 632.84758 694.30992 635.44727 690.66992 635.44727 C 687.06992 635.44727 684.34961 632.84758 684.34961 628.76758 C 684.34961 624.68758 687.06992 622.08594 690.66992 622.08594 z M 632.30664 630.28711 L 637.46484 630.28711 L 637.46484 632.76758 C 636.62484 634.96758 634.50641 636.08594 632.06641 636.08594 C 629.50641 636.08594 627.98633 634.92695 627.98633 633.12695 C 627.98633 631.56695 628.90664 630.28711 632.30664 630.28711 z "
       transform="matrix(0.26458333,0,0,0.26458333,-80.653183,-45.470983)"
       id="text1031" />
  </g>
</svg>
