<?xml version="1.0" encoding="UTF-8" standalone="no"?>
<!-- Created with Inkscape (http://www.inkscape.org/) -->

<svg
   xmlns:dc="http://purl.org/dc/elements/1.1/"
   xmlns:cc="http://creativecommons.org/ns#"
   xmlns:rdf="http://www.w3.org/1999/02/22-rdf-syntax-ns#"
   xmlns:svg="http://www.w3.org/2000/svg"
   xmlns="http://www.w3.org/2000/svg"
   xmlns:sodipodi="http://sodipodi.sourceforge.net/DTD/sodipodi-0.dtd"
   xmlns:inkscape="http://www.inkscape.org/namespaces/inkscape"
   width="320.59906mm"
   height="180.3373mm"
   viewBox="0 0 320.59906 180.3373"
   version="1.1"
   id="svg4519"
   inkscape:version="0.92.4 (5da689c313, 2019-01-14)"
   sodipodi:docname="s_5_3.svg">
  <defs
     id="defs4513" />
  <sodipodi:namedview
     id="base"
     pagecolor="#ffffff"
     bordercolor="#666666"
     borderopacity="1.0"
     inkscape:pageopacity="0.0"
     inkscape:pageshadow="2"
     inkscape:zoom="0.70000001"
     inkscape:cx="239.24892"
     inkscape:cy="370.92999"
     inkscape:document-units="mm"
     inkscape:current-layer="layer1"
     showgrid="false"
     fit-margin-top="0"
     fit-margin-left="0"
     fit-margin-right="0"
     fit-margin-bottom="0"
     inkscape:window-width="1920"
     inkscape:window-height="986"
     inkscape:window-x="-11"
     inkscape:window-y="-11"
     inkscape:window-maximized="1"
     inkscape:snap-page="true" />
  <metadata
     id="metadata4516">
    <rdf:RDF>
      <cc:Work
         rdf:about="">
        <dc:format>image/svg+xml</dc:format>
        <dc:type
           rdf:resource="http://purl.org/dc/dcmitype/StillImage" />
        <dc:title />
      </cc:Work>
    </rdf:RDF>
  </metadata>
  <g
     inkscape:label="Layer 1"
     inkscape:groupmode="layer"
     id="layer1"
     transform="translate(80.653183,45.470983)">
    <path
       style="fill:#e3f4ff;fill-opacity:1;stroke:none;stroke-width:1.00187171;stroke-miterlimit:4;stroke-dasharray:none;stroke-opacity:1"
       d="M -80.653183,-45.470983 V 134.86631 H 239.94588 V -45.470983 Z"
       id="rect6732"
       inkscape:connector-curvature="0" />
    <path
       style="font-style:normal;font-variant:normal;font-weight:600;font-stretch:normal;font-size:10.58333302px;line-height:6.61458349px;font-family:Montserrat;-inkscape-font-specification:'Montserrat, Semi-Bold';font-variant-ligatures:normal;font-variant-caps:normal;font-variant-numeric:normal;font-feature-settings:normal;text-align:start;letter-spacing:0px;word-spacing:0px;writing-mode:lr-tb;text-anchor:start;fill:#000000;fill-opacity:1;stroke:none;stroke-width:0.99999994"
       d="M 159.67188 49.792969 C 155.95988 49.792969 153.46289 52.225328 153.46289 55.361328 C 153.46289 58.497328 155.95988 60.929688 159.67188 60.929688 C 163.38387 60.929688 165.87891 58.497922 165.87891 55.169922 C 165.87891 52.097922 163.38387 49.792969 159.67188 49.792969 z M 116.17969 52.673828 L 116.17969 100.16211 L 126.16406 100.16211 L 126.16406 52.673828 L 116.17969 52.673828 z M 135.42969 52.673828 L 135.42969 100.16211 L 145.41406 100.16211 L 145.41406 52.673828 L 135.42969 52.673828 z M 73.882812 55.361328 L 73.882812 100.16211 L 108.57227 100.16211 L 108.57227 91.841797 L 84.1875 91.841797 L 84.1875 81.472656 L 104.98828 81.472656 L 104.98828 73.410156 L 84.1875 73.410156 L 84.1875 63.681641 L 107.74023 63.681641 L 107.74023 55.361328 L 73.882812 55.361328 z M 194.28125 65.216797 C 189.67325 65.216797 185.96084 66.689266 183.46484 69.697266 L 183.46484 65.728516 L 173.92969 65.728516 L 173.92969 112.57812 L 183.91406 112.57812 L 183.91406 96.513672 C 186.47406 99.329672 189.99325 100.67383 194.28125 100.67383 C 203.94525 100.67383 211.43359 93.761312 211.43359 82.945312 C 211.43359 72.129313 203.94525 65.216797 194.28125 65.216797 z M 231.49414 65.216797 C 221.44614 65.216797 215.55859 69.825516 215.55859 76.353516 C 215.55859 90.113515 236.35937 84.352375 236.35938 89.984375 C 236.35938 91.904375 234.62948 93.121094 230.02148 93.121094 C 225.79748 93.121094 221.12669 91.776969 218.05469 89.792969 L 214.72656 96.960938 C 217.92656 99.072937 223.81467 100.67383 229.63867 100.67383 C 239.94267 100.67383 245.89453 96.128515 245.89453 89.728516 C 245.89453 76.160516 225.09375 81.85675 225.09375 75.96875 C 225.09375 74.17675 227.01414 72.769531 231.49414 72.769531 C 234.63014 72.769531 238.02206 73.410078 241.41406 75.330078 L 244.74219 68.224609 C 241.47819 66.304609 236.23014 65.216797 231.49414 65.216797 z M 267.86328 65.216797 C 257.36728 65.216797 249.49414 72.641313 249.49414 82.945312 C 249.49414 93.185312 257.23858 100.67383 269.14258 100.67383 C 275.35058 100.67383 280.14961 98.753469 283.34961 95.105469 L 278.03906 89.345703 C 275.67106 91.585703 273.04644 92.673828 269.39844 92.673828 C 264.15044 92.673828 260.50297 90.049719 259.54297 85.761719 L 285.58984 85.761719 C 285.65384 84.929719 285.7832 83.840266 285.7832 83.072266 C 285.7832 72.000266 277.97528 65.216797 267.86328 65.216797 z M 305.86914 65.216797 C 295.82114 65.216797 289.93359 69.825516 289.93359 76.353516 C 289.93359 90.113515 310.73438 84.352375 310.73438 89.984375 C 310.73438 91.904375 309.00448 93.121094 304.39648 93.121094 C 300.17248 93.121094 295.50169 91.776969 292.42969 89.792969 L 289.10156 96.960938 C 292.30156 99.072937 298.18967 100.67383 304.01367 100.67383 C 314.31767 100.67383 320.26953 96.128515 320.26953 89.728516 C 320.26953 76.160516 299.46875 81.85675 299.46875 75.96875 C 299.46875 74.17675 301.38914 72.769531 305.86914 72.769531 C 309.00514 72.769531 312.39706 73.410078 315.78906 75.330078 L 319.11719 68.224609 C 315.85319 66.304609 310.60514 65.216797 305.86914 65.216797 z M 154.67969 65.728516 L 154.67969 100.16211 L 164.66406 100.16211 L 164.66406 65.728516 L 154.67969 65.728516 z M 267.92578 72.769531 C 272.40578 72.769531 275.671 75.5855 276.375 79.9375 L 259.41406 79.9375 C 260.11806 75.5215 263.38178 72.769531 267.92578 72.769531 z M 192.55273 73.410156 C 197.54473 73.410156 201.32227 76.993313 201.32227 82.945312 C 201.32227 88.897312 197.54473 92.480469 192.55273 92.480469 C 187.56073 92.480469 183.78516 88.897312 183.78516 82.945312 C 183.78516 76.993313 187.56073 73.410156 192.55273 73.410156 z "
       transform="matrix(0.26458333,0,0,0.26458333,-80.653183,-45.470983)"
       id="text817" />
    <circle
       style="opacity:1;vector-effect:none;fill:none;fill-opacity:1;stroke:#000000;stroke-width:3;stroke-linecap:round;stroke-linejoin:miter;stroke-miterlimit:4;stroke-dasharray:none;stroke-dashoffset:4.60040331;stroke-opacity:1"
       id="path833"
       cx="-26.602591"
       cy="43.774052"
       r="27.214285" />
    <ellipse
       style="opacity:1;vector-effect:none;fill:none;fill-opacity:1;stroke:#000000;stroke-width:3;stroke-linecap:round;stroke-linejoin:miter;stroke-miterlimit:4;stroke-dasharray:none;stroke-dashoffset:4.60040331;stroke-opacity:1"
       id="path835"
       cx="66.94651"
       cy="19.205599"
       rx="42.900295"
       ry="21.166666" />
    <path
       style="opacity:1;vector-effect:none;fill:none;fill-opacity:1;stroke:#000000;stroke-width:3;stroke-linecap:round;stroke-linejoin:miter;stroke-miterlimit:4;stroke-dasharray:none;stroke-dashoffset:4.60040331;stroke-opacity:1"
       id="path837"
       sodipodi:type="arc"
       sodipodi:cx="36.330437"
       sodipodi:cy="84.217506"
       sodipodi:rx="26.647322"
       sodipodi:ry="29.482143"
       sodipodi:start="0"
       sodipodi:end="5.2797279"
       d="M 62.977758,84.217506 A 26.647322,29.482143 0 0 1 42.945404,112.77681 26.647322,29.482143 0 0 1 12.967332,98.396705 26.647322,29.482143 0 0 1 18.116092,62.697933 26.647322,29.482143 0 0 1 50.650435,59.354213 L 36.330437,84.217506 Z" />
    <path
       style="opacity:1;vector-effect:none;fill:none;fill-opacity:1;stroke:#000000;stroke-width:3;stroke-linecap:round;stroke-linejoin:miter;stroke-miterlimit:4;stroke-dasharray:none;stroke-dashoffset:4.60040331;stroke-opacity:1"
       id="path839"
       sodipodi:type="arc"
       sodipodi:cx="168.6221"
       sodipodi:cy="15.614826"
       sodipodi:rx="34.962795"
       sodipodi:ry="39.120537"
       sodipodi:start="2.8377188"
       sodipodi:end="5.2797257"
       d="m 135.26114,27.320427 a 34.962795,39.120537 0 0 1 12.10004,-42.761807 34.962795,39.120537 0 0 1 40.0495,-1.935519 L 168.6221,15.614826 Z" />
    <path
       style="opacity:1;vector-effect:none;fill:none;fill-opacity:1;stroke:#000000;stroke-width:3;stroke-linecap:round;stroke-linejoin:miter;stroke-miterlimit:4;stroke-dasharray:none;stroke-dashoffset:4.60040331;stroke-opacity:1"
       id="path841"
       sodipodi:type="arc"
       sodipodi:cx="157.84979"
       sodipodi:cy="80.248756"
       sodipodi:rx="38.175594"
       sodipodi:ry="38.364582"
       sodipodi:start="0.69096665"
       sodipodi:end="5.2797257"
       d="m 187.26906,104.69783 a 38.175594,38.364582 0 0 1 -52.51522,6.098 38.175594,38.364582 0 0 1 -8.22635,-52.479171 38.175594,38.364582 0 0 1 51.83741,-10.422104"
       sodipodi:open="true" />
  </g>
</svg>
