<?xml version="1.0" encoding="UTF-8" standalone="no"?>
<!-- Created with Inkscape (http://www.inkscape.org/) -->

<svg
   xmlns:dc="http://purl.org/dc/elements/1.1/"
   xmlns:cc="http://creativecommons.org/ns#"
   xmlns:rdf="http://www.w3.org/1999/02/22-rdf-syntax-ns#"
   xmlns:svg="http://www.w3.org/2000/svg"
   xmlns="http://www.w3.org/2000/svg"
   xmlns:xlink="http://www.w3.org/1999/xlink"
   xmlns:sodipodi="http://sodipodi.sourceforge.net/DTD/sodipodi-0.dtd"
   xmlns:inkscape="http://www.inkscape.org/namespaces/inkscape"
   width="320.59906mm"
   height="180.3373mm"
   viewBox="0 0 320.59906 180.3373"
   version="1.1"
   id="svg4519"
   inkscape:version="0.92.4 (5da689c313, 2019-01-14)"
   sodipodi:docname="s_5_1.svg">
  <defs
     id="defs4513">
    <inkscape:perspective
       sodipodi:type="inkscape:persp3d"
       inkscape:vp_x="1.1339285 : 86.010912 : 1"
       inkscape:vp_y="0 : 1000 : 0"
       inkscape:vp_z="321.73299 : 86.010912 : 1"
       inkscape:persp3d-origin="161.43346 : 55.954695 : 1"
       id="perspective925" />
    <linearGradient
       inkscape:collect="always"
       xlink:href="#linearGradient1868"
       id="linearGradient1870"
       x1="715.98145"
       y1="312.19336"
       x2="715.36957"
       y2="314.84332"
       gradientUnits="userSpaceOnUse"
       gradientTransform="translate(-3.609538,-3e-5)" />
    <linearGradient
       inkscape:collect="always"
       id="linearGradient1868">
      <stop
         style="stop-color:#393986;stop-opacity:1"
         offset="0"
         id="stop1864" />
      <stop
         style="stop-color:#7272a0;stop-opacity:1"
         offset="1"
         id="stop1866" />
    </linearGradient>
    <linearGradient
       inkscape:collect="always"
       xlink:href="#linearGradient1852"
       id="linearGradient1854"
       x1="713.25024"
       y1="312.78787"
       x2="715.77399"
       y2="309.18695"
       gradientUnits="userSpaceOnUse"
       gradientTransform="translate(-3.609538,-3e-5)" />
    <linearGradient
       inkscape:collect="always"
       id="linearGradient1852">
      <stop
         style="stop-color:#8d8dc2;stop-opacity:1"
         offset="0"
         id="stop1848" />
      <stop
         style="stop-color:#c2c2db;stop-opacity:1"
         offset="1"
         id="stop1850" />
    </linearGradient>
    <linearGradient
       inkscape:collect="always"
       xlink:href="#linearGradient1944"
       id="linearGradient1946"
       x1="716.07715"
       y1="303.50021"
       x2="713.7002"
       y2="301.83075"
       gradientUnits="userSpaceOnUse"
       gradientTransform="matrix(1.9874924,0,0,1.9874924,-1001.2494,-651.21141)" />
    <linearGradient
       inkscape:collect="always"
       id="linearGradient1944">
      <stop
         style="stop-color:#ffeb7a;stop-opacity:1"
         offset="0"
         id="stop1940" />
      <stop
         style="stop-color:#fff9d9;stop-opacity:1"
         offset="1"
         id="stop1942" />
    </linearGradient>
    <linearGradient
       inkscape:collect="always"
       xlink:href="#linearGradient1944"
       id="linearGradient1973"
       gradientUnits="userSpaceOnUse"
       x1="717.52924"
       y1="304.34662"
       x2="715.71796"
       y2="302.59943"
       gradientTransform="matrix(1.9874924,0,0,1.9874924,-1001.2494,-651.21141)" />
    <linearGradient
       inkscape:collect="always"
       xlink:href="#linearGradient1871"
       id="linearGradient1916"
       gradientUnits="userSpaceOnUse"
       x1="723.36713"
       y1="283.55594"
       x2="727.53424"
       y2="287.32672"
       gradientTransform="matrix(1.9874924,0,0,1.9874924,-989.44157,-651.21141)" />
    <linearGradient
       inkscape:collect="always"
       id="linearGradient1871">
      <stop
         style="stop-color:#fafbfd;stop-opacity:1"
         offset="0"
         id="stop1867" />
      <stop
         style="stop-color:#9bb8d4;stop-opacity:1"
         offset="1"
         id="stop1869" />
    </linearGradient>
    <linearGradient
       inkscape:collect="always"
       xlink:href="#linearGradient1922"
       id="linearGradient1924"
       x1="714.92303"
       y1="292.98193"
       x2="718.43616"
       y2="296.00534"
       gradientUnits="userSpaceOnUse"
       gradientTransform="matrix(1.8112911,0,0,1.8112911,-877.07466,-599.35415)" />
    <linearGradient
       inkscape:collect="always"
       id="linearGradient1922">
      <stop
         style="stop-color:#f6f9fb;stop-opacity:1;"
         offset="0"
         id="stop1918" />
      <stop
         style="stop-color:#ffb7bf;stop-opacity:1"
         offset="1"
         id="stop1920" />
    </linearGradient>
    <linearGradient
       inkscape:collect="always"
       xlink:href="#linearGradient1871"
       id="linearGradient8403"
       gradientUnits="userSpaceOnUse"
       x1="723.36713"
       y1="283.55594"
       x2="727.53424"
       y2="287.32672"
       gradientTransform="matrix(1.9874924,0,0,1.9874924,-1021.0146,-651.21141)" />
    <linearGradient
       inkscape:collect="always"
       xlink:href="#linearGradient1885"
       id="linearGradient1879"
       gradientUnits="userSpaceOnUse"
       x1="723.36713"
       y1="283.55594"
       x2="727.53424"
       y2="287.32672"
       gradientTransform="matrix(1.840386,0,0,1.840386,-914.29361,-609.23365)" />
    <linearGradient
       inkscape:collect="always"
       id="linearGradient1885">
      <stop
         style="stop-color:#f6f9fb;stop-opacity:1"
         offset="0"
         id="stop1881" />
      <stop
         style="stop-color:#98b6d3;stop-opacity:1"
         offset="1"
         id="stop1883" />
    </linearGradient>
    <linearGradient
       inkscape:collect="always"
       xlink:href="#linearGradient1871"
       id="linearGradient921"
       gradientUnits="userSpaceOnUse"
       gradientTransform="matrix(1.9874924,0,0,1.9874924,-1021.0146,-651.21141)"
       x1="723.36713"
       y1="283.55594"
       x2="727.53424"
       y2="287.32672" />
  </defs>
  <sodipodi:namedview
     id="base"
     pagecolor="#ffffff"
     bordercolor="#666666"
     borderopacity="1.0"
     inkscape:pageopacity="0.0"
     inkscape:pageshadow="2"
     inkscape:zoom="0.70000001"
     inkscape:cx="631.37912"
     inkscape:cy="395.2157"
     inkscape:document-units="mm"
     inkscape:current-layer="layer1"
     showgrid="false"
     fit-margin-top="0"
     fit-margin-left="0"
     fit-margin-right="0"
     fit-margin-bottom="0"
     inkscape:window-width="1920"
     inkscape:window-height="986"
     inkscape:window-x="-11"
     inkscape:window-y="-11"
     inkscape:window-maximized="1"
     inkscape:snap-page="true" />
  <metadata
     id="metadata4516">
    <rdf:RDF>
      <cc:Work
         rdf:about="">
        <dc:format>image/svg+xml</dc:format>
        <dc:type
           rdf:resource="http://purl.org/dc/dcmitype/StillImage" />
        <dc:title />
      </cc:Work>
    </rdf:RDF>
  </metadata>
  <g
     inkscape:label="Layer 1"
     inkscape:groupmode="layer"
     id="layer1"
     transform="translate(80.653183,45.470983)">
    <path
       style="fill:#a0c8e1;fill-opacity:1;stroke:none;stroke-width:1.00187171;stroke-miterlimit:4;stroke-dasharray:none;stroke-opacity:1"
       d="M -80.653183,-45.470983 V 134.86631 H 239.94587 V -45.470983 Z"
       id="rect6732"
       inkscape:connector-curvature="0" />
    <path
       style="font-style:normal;font-variant:normal;font-weight:600;font-stretch:normal;font-size:10.58333302px;line-height:6.61458302px;font-family:Montserrat;-inkscape-font-specification:'Montserrat, Semi-Bold';font-variant-ligatures:normal;font-variant-caps:normal;font-variant-numeric:normal;font-feature-settings:normal;text-align:start;letter-spacing:0px;word-spacing:0px;writing-mode:lr-tb;text-anchor:start;fill:#000000;fill-opacity:1;stroke:none;stroke-width:0.99999994"
       d="M 230.01562 37.589844 C 218.58096 37.589844 212.26562 44.330917 212.26562 54.65625 L 212.26562 56.705078 L 205.18359 56.705078 L 205.18359 66.945312 L 212.26562 66.945312 L 212.26562 101.58984 L 225.57812 101.58984 L 225.57812 66.945312 L 237.01172 66.945312 L 237.01172 56.705078 L 225.23633 56.705078 L 225.23633 54.742188 C 225.23633 50.219521 227.36959 48.085938 231.29492 48.085938 C 233.34292 48.085938 235.21926 48.683031 236.66992 49.707031 L 240.16992 40.064453 C 237.69526 38.357786 233.77029 37.589844 230.01562 37.589844 z M 37.082031 41.857422 L 37.082031 101.58984 L 80.859375 101.58984 L 80.859375 90.326172 L 50.90625 90.326172 L 50.90625 41.857422 L 37.082031 41.857422 z M 108.38867 54.998047 C 94.394005 54.998047 83.896484 64.896099 83.896484 78.634766 C 83.896484 92.288099 94.22175 102.27148 110.09375 102.27148 C 118.37108 102.27148 124.7724 99.711656 129.03906 94.847656 L 121.95508 87.167969 C 118.79774 90.154635 115.29955 91.605469 110.43555 91.605469 C 103.43821 91.605469 98.574922 88.107958 97.294922 82.390625 L 132.02539 82.390625 C 132.11072 81.281292 132.28125 79.830641 132.28125 78.806641 C 132.28125 64.043974 121.87134 54.998047 108.38867 54.998047 z M 159.06445 54.998047 C 145.66712 54.998047 137.81641 61.141703 137.81641 69.845703 C 137.81641 88.19237 165.54883 80.512151 165.54883 88.021484 C 165.54883 90.581484 163.24556 92.203125 157.10156 92.203125 C 151.46956 92.203125 145.24053 90.410958 141.14453 87.765625 L 136.70703 97.322266 C 140.9737 100.13827 148.82451 102.27148 156.58984 102.27148 C 170.32851 102.27148 178.26367 96.213021 178.26367 87.679688 C 178.26367 69.589021 150.53125 77.184651 150.53125 69.333984 C 150.53125 66.944651 153.09112 65.066406 159.06445 65.066406 C 163.24579 65.066406 167.76835 65.920469 172.29102 68.480469 L 176.72852 59.007812 C 172.37652 56.447812 165.37912 54.998047 159.06445 54.998047 z M 264.82227 54.998047 C 250.23027 54.998047 239.56445 64.810766 239.56445 78.634766 C 239.56445 92.458766 250.23027 102.27148 264.82227 102.27148 C 279.41427 102.27148 289.99609 92.458766 289.99609 78.634766 C 289.99609 64.810766 279.41427 54.998047 264.82227 54.998047 z M 327.3125 54.998047 C 320.22983 54.998047 314.76806 57.300948 311.52539 61.738281 L 311.52539 55.679688 L 298.81055 55.679688 L 298.81055 101.58984 L 312.12305 101.58984 L 312.12305 79.916016 C 312.12305 71.126682 316.98751 67.115234 324.32617 67.115234 C 325.35017 67.115234 326.20317 67.199823 327.3125 67.285156 L 327.3125 54.998047 z M 362.44727 54.998047 C 356.55927 54.998047 351.43872 57.04537 348.02539 60.970703 L 348.02539 55.679688 L 335.31055 55.679688 L 335.31055 101.58984 L 348.62305 101.58984 L 348.62305 78.548828 C 348.62305 70.356828 352.80341 66.517578 358.69141 66.517578 C 364.23807 66.517578 367.39648 69.931469 367.39648 77.355469 L 367.39648 101.58984 L 380.70703 101.58984 L 380.70703 78.548828 C 380.70703 70.356828 384.88995 66.517578 390.86328 66.517578 C 396.23928 66.517578 399.56641 69.931469 399.56641 77.355469 L 399.56641 101.58984 L 412.87891 101.58984 L 412.87891 75.306641 C 412.87891 61.311974 405.02814 54.998047 394.10547 54.998047 C 387.19347 54.998047 381.22011 57.814479 377.55078 62.507812 C 374.30811 57.473146 368.84727 54.998047 362.44727 54.998047 z M 446.38867 54.998047 C 432.39401 54.998047 421.89648 64.896099 421.89648 78.634766 C 421.89648 92.288099 432.22175 102.27148 448.09375 102.27148 C 456.37108 102.27148 462.7724 99.711656 467.03906 94.847656 L 459.95508 87.167969 C 456.79774 90.154635 453.29955 91.605469 448.43555 91.605469 C 441.43821 91.605469 436.57492 88.107958 435.29492 82.390625 L 470.02539 82.390625 C 470.11072 81.281292 470.28125 79.830641 470.28125 78.806641 C 470.28125 64.043974 459.87134 54.998047 446.38867 54.998047 z M 497.06445 54.998047 C 483.66712 54.998047 475.81641 61.141703 475.81641 69.845703 C 475.81641 88.19237 503.54883 80.512151 503.54883 88.021484 C 503.54883 90.581484 501.24556 92.203125 495.10156 92.203125 C 489.46956 92.203125 483.24053 90.410958 479.14453 87.765625 L 474.70703 97.322266 C 478.9737 100.13827 486.82451 102.27148 494.58984 102.27148 C 508.32851 102.27148 516.26367 96.213021 516.26367 87.679688 C 516.26367 69.589021 488.53125 77.184651 488.53125 69.333984 C 488.53125 66.944651 491.09112 65.066406 497.06445 65.066406 C 501.24579 65.066406 505.76835 65.920469 510.29102 68.480469 L 514.72852 59.007812 C 510.37652 56.447812 503.37912 54.998047 497.06445 54.998047 z M 108.47266 65.066406 C 114.44599 65.066406 118.79961 68.822333 119.73828 74.625 L 97.123047 74.625 C 98.061714 68.737 102.41399 65.066406 108.47266 65.066406 z M 446.47266 65.066406 C 452.44599 65.066406 456.79961 68.822333 457.73828 74.625 L 435.12305 74.625 C 436.06171 68.737 440.41399 65.066406 446.47266 65.066406 z M 264.82227 65.919922 C 271.47827 65.919922 276.51367 70.698766 276.51367 78.634766 C 276.51367 86.570766 271.47827 91.349609 264.82227 91.349609 C 258.16627 91.349609 253.04688 86.570766 253.04688 78.634766 C 253.04688 70.698766 258.16627 65.919922 264.82227 65.919922 z "
       transform="matrix(0.26458333,0,0,0.26458333,-80.653183,-45.470983)"
       id="text817" />
    <g
       id="g8890"
       transform="matrix(1.4269576,0,0,1.4269576,-646.75415,125.83693)">
      <rect
         y="-89.063965"
         x="415.68188"
         height="9.9925318"
         width="10.330117"
         id="rect1857"
         style="opacity:1;vector-effect:none;fill:url(#linearGradient921);fill-opacity:1;fill-rule:evenodd;stroke:#000000;stroke-width:1.12525058;stroke-linecap:butt;stroke-linejoin:miter;stroke-miterlimit:4;stroke-dasharray:none;stroke-dashoffset:0;stroke-opacity:1" />
      <rect
         y="-89.063965"
         x="415.68188"
         height="9.9925318"
         width="10.330117"
         id="rect1875"
         style="opacity:1;vector-effect:none;fill:url(#linearGradient8403);fill-opacity:1;fill-rule:evenodd;stroke:#000000;stroke-width:0.39749849;stroke-linecap:butt;stroke-linejoin:miter;stroke-miterlimit:4;stroke-dasharray:none;stroke-dashoffset:0;stroke-opacity:1" />
      <rect
         y="-88.69416"
         x="416.06415"
         height="9.252923"
         width="9.5655231"
         id="rect1877"
         style="opacity:1;vector-effect:none;fill:url(#linearGradient1879);fill-opacity:1;fill-rule:evenodd;stroke:#ffffff;stroke-width:0.36807764;stroke-linecap:butt;stroke-linejoin:miter;stroke-miterlimit:4;stroke-dasharray:none;stroke-dashoffset:0;stroke-opacity:1" />
    </g>
    <g
       id="g8885"
       transform="matrix(1.4269576,0,0,1.4269576,-646.96479,126.51461)">
      <circle
         r="5.5380487"
         cy="-66.278885"
         cx="420.99454"
         id="path1887"
         style="opacity:1;vector-effect:none;fill:url(#linearGradient1916);fill-opacity:1;fill-rule:evenodd;stroke:#000000;stroke-width:0.59624773;stroke-linecap:butt;stroke-linejoin:miter;stroke-miterlimit:4;stroke-dasharray:none;stroke-dashoffset:0;stroke-opacity:1" />
      <circle
         r="4.6900558"
         cy="-66.278885"
         cx="420.99454"
         id="circle1889"
         style="opacity:1;vector-effect:none;fill:url(#linearGradient1924);fill-opacity:1;fill-rule:evenodd;stroke:#ffffff;stroke-width:0.3366335;stroke-linecap:butt;stroke-linejoin:miter;stroke-miterlimit:4;stroke-dasharray:none;stroke-dashoffset:0;stroke-opacity:1" />
    </g>
    <g
       id="g8873"
       transform="matrix(1.4269576,0,0,1.4269576,-647.95642,126.89732)">
      <path
         inkscape:transform-center-y="-0.13891992"
         inkscape:transform-center-x="-0.069836931"
         d="m 421.661,-46.58807 -4.52527,0.02748 -1.42452,-4.295305 3.64487,-2.682122 3.67718,2.637662 z"
         inkscape:randomized="0"
         inkscape:rounded="0"
         inkscape:flatsided="true"
         sodipodi:arg2="1.5647244"
         sodipodi:arg1="0.93640586"
         sodipodi:r2="3.0048673"
         sodipodi:r1="3.849503"
         sodipodi:cy="-49.688587"
         sodipodi:cx="419.37946"
         sodipodi:sides="5"
         id="path1926"
         style="opacity:1;vector-effect:none;fill:url(#linearGradient1946);fill-opacity:1;fill-rule:evenodd;stroke:#000000;stroke-width:0.59624773;stroke-linecap:butt;stroke-linejoin:round;stroke-miterlimit:4;stroke-dasharray:none;stroke-dashoffset:0;stroke-opacity:1"
         sodipodi:type="star" />
      <path
         inkscape:transform-center-y="-0.087310456"
         inkscape:transform-center-x="-0.1474228"
         d="m 424.86985,-43.028536 -2.47799,-2.174024 -3.12401,1.052282 1.30188,-3.028512 -1.96616,-2.645944 3.28259,0.3023 1.90887,-2.687564 0.72687,3.215344 3.1459,0.984938 -2.83336,1.684891 z"
         inkscape:randomized="0"
         inkscape:rounded="0"
         inkscape:flatsided="false"
         sodipodi:arg2="1.7684223"
         sodipodi:arg1="1.1401038"
         sodipodi:r2="2.2866006"
         sodipodi:r1="4.859942"
         sodipodi:cy="-47.444653"
         sodipodi:cx="422.84082"
         sodipodi:sides="5"
         id="path1930"
         style="opacity:1;vector-effect:none;fill:url(#linearGradient1973);fill-opacity:1;fill-rule:evenodd;stroke:#000000;stroke-width:0.59624773;stroke-linecap:butt;stroke-linejoin:round;stroke-miterlimit:4;stroke-dasharray:none;stroke-dashoffset:0;stroke-opacity:1"
         sodipodi:type="star" />
    </g>
    <path
       sodipodi:type="spiral"
       style="fill:none;fill-rule:evenodd;stroke:#000000;stroke-width:0.34623167;stroke-linecap:round;stroke-miterlimit:4;stroke-dasharray:none"
       id="path2051"
       sodipodi:cx="709.58398"
       sodipodi:cy="321.45068"
       sodipodi:expansion="1.406"
       sodipodi:revolution="2.8478956"
       sodipodi:radius="3.4027734"
       sodipodi:argument="-242.17311"
       sodipodi:t0="0.2343709"
       d="m 709.89803,321.76243 c -0.14629,0.29657 -0.53944,0.3375 -0.80164,0.17944 -0.40586,-0.24466 -0.45201,-0.80343 -0.20167,-1.17542 0.3532,-0.52485 1.09689,-0.57575 1.58811,-0.22123 0.65256,0.47097 0.70784,1.41595 0.23893,2.03492 -0.59712,0.7882 -1.75786,0.84757 -2.51236,0.25525 -0.93113,-0.73097 -0.99438,-2.12054 -0.27052,-3.01778 0.87198,-1.08084 2.5024,-1.14779 3.54908,-0.28493 1.23689,1.01966 1.30741,2.90209 0.29864,4.10452 -0.80888,0.96418 -2.14623,1.34503 -3.3522,1.01619"
       transform="matrix(0.71524337,-2.8729084,2.6693245,0.76979349,-1412.9058,1902.3704)" />
    <g
       id="g8881"
       transform="matrix(1.4269576,0,0,1.4269576,-646.65788,128.87327)">
      <g
         transform="matrix(1.9874924,0,0,1.9874924,-994.44656,-651.21141)"
         id="g1876">
        <path
           d="m 712.37189,312.19332 -2.88768,1.01905 2.27584,1.63091 2.88766,-1.01906 z"
           style="fill:url(#linearGradient1870);fill-opacity:1;stroke:none;stroke-width:0.26458299px;stroke-linecap:butt;stroke-linejoin:miter;stroke-opacity:1"
           id="path998"
           inkscape:connector-curvature="0" />
        <path
           d="m 712.37189,308.86431 v 3.32901 l 2.27582,1.6309 v -3.32952 z"
           style="fill:#dfdfff;fill-opacity:1;stroke:none;stroke-width:0.26458299px;stroke-linecap:butt;stroke-linejoin:miter;stroke-opacity:1"
           id="path1000"
           inkscape:connector-curvature="0" />
        <path
           d="m 712.37189,308.86431 -2.88768,1.01907 v 3.32899 l 2.88768,-1.01905 z"
           style="fill:url(#linearGradient1854);fill-opacity:1;stroke:none;stroke-width:0.26458299px;stroke-linecap:butt;stroke-linejoin:miter;stroke-opacity:1"
           id="path1002"
           inkscape:connector-curvature="0" />
        <path
           sodipodi:nodetypes="ccccccc"
           id="path994"
           d="m 709.48433,313.21261 2.27605,1.63063 2.88756,-1.01915 v -3.32915 l -2.27605,-1.63063 -2.88756,1.01915 z"
           style="fill:none;stroke:#000000;stroke-width:0.26458299px;stroke-linecap:butt;stroke-linejoin:miter;stroke-opacity:1"
           inkscape:connector-curvature="0" />
      </g>
      <path
         sodipodi:nodetypes="ccccccc"
         id="path1884"
         d="m 416.05166,-28.916061 4.16791,2.986008 5.28772,-1.866275 v -6.096395 l -4.16791,-2.986008 -5.28772,1.866275 z"
         style="fill:none;stroke:#ffffff;stroke-width:0.39232704;stroke-linecap:butt;stroke-linejoin:miter;stroke-miterlimit:4;stroke-dasharray:none;stroke-opacity:1"
         inkscape:connector-curvature="0" />
    </g>
    <path
       style="font-style:normal;font-variant:normal;font-weight:600;font-stretch:normal;font-size:10.58333302px;line-height:6.61458302px;font-family:Montserrat;-inkscape-font-specification:'Montserrat, Semi-Bold';font-variant-ligatures:normal;font-variant-caps:normal;font-variant-numeric:normal;font-feature-settings:normal;text-align:start;letter-spacing:0px;word-spacing:0px;writing-mode:lr-tb;text-anchor:start;fill:#000000;fill-opacity:1;stroke:none;stroke-width:0.99999994"
       d="M 445.23633 163.44531 L 445.23633 203.01758 L 451.90234 203.01758 L 451.90234 163.44531 L 445.23633 163.44531 z M 213.58398 165.68555 L 213.58398 203.01758 L 220.51758 203.01758 L 220.51758 192.13867 L 228.94531 192.13867 C 229.42531 192.13867 229.90477 192.13927 230.38477 192.08594 L 238.01172 203.01758 L 245.47852 203.01758 L 236.89062 190.75195 C 241.95729 188.77862 244.83789 184.61818 244.83789 178.96484 C 244.83789 170.69818 238.75865 165.68555 228.94531 165.68555 L 213.58398 165.68555 z M 317.28906 168.24414 L 317.28906 174.75195 L 312.5957 174.75195 L 312.5957 180.08594 L 317.28906 180.08594 L 317.28906 193.79102 C 317.28906 200.08435 320.86156 203.39258 327.10156 203.39258 C 329.50156 203.39258 331.90195 202.75266 333.50195 201.47266 L 331.63477 196.72461 C 330.62143 197.52461 329.28901 197.89844 327.90234 197.89844 C 325.34234 197.89844 323.95508 196.40419 323.95508 193.63086 L 323.95508 180.08594 L 331.58203 180.08594 L 331.58203 174.75195 L 323.95508 174.75195 L 323.95508 168.24414 L 317.28906 168.24414 z M 220.51758 171.55078 L 228.625 171.55078 C 234.705 171.55078 237.85156 174.27151 237.85156 178.96484 C 237.85156 183.65818 234.705 186.43164 228.625 186.43164 L 220.51758 186.43164 L 220.51758 171.55078 z M 264.27734 174.21875 C 255.79734 174.21875 249.55664 180.2993 249.55664 188.7793 C 249.55664 197.2593 255.7424 203.39258 265.28906 203.39258 C 270.19573 203.39258 274.19586 201.79195 276.75586 198.75195 L 273.18359 194.64453 C 271.15693 196.72453 268.64922 197.73828 265.44922 197.73828 C 260.48922 197.73828 257.02266 195.07211 256.22266 190.91211 L 278.57031 190.91211 C 278.62365 190.27211 278.67578 189.47083 278.67578 188.9375 C 278.67578 180.03083 272.59734 174.21875 264.27734 174.21875 z M 298.0957 174.21875 C 289.08237 174.21875 282.68164 180.24596 282.68164 188.7793 C 282.68164 197.31263 289.08237 203.39258 298.0957 203.39258 C 303.64237 203.39258 308.06724 200.99128 310.25391 196.72461 L 305.13477 193.73828 C 303.4281 196.45828 300.86768 197.68555 298.04102 197.68555 C 293.13435 197.68555 289.40234 194.32596 289.40234 188.7793 C 289.40234 183.28596 293.13435 179.87109 298.04102 179.87109 C 300.86768 179.87109 303.4281 181.09836 305.13477 183.81836 L 310.25391 180.83203 C 308.06724 176.51203 303.64237 174.21875 298.0957 174.21875 z M 349.86719 174.21875 C 345.28052 174.21875 340.8525 175.39161 337.8125 177.73828 L 340.42578 182.5918 C 342.55911 180.8318 345.86641 179.76562 349.06641 179.76562 C 353.81307 179.76562 356.16016 182.05784 356.16016 185.95117 L 356.16016 186.37891 L 348.79883 186.37891 C 340.15883 186.37891 336.95898 190.11076 336.95898 194.85742 C 336.95898 199.81742 341.0656 203.39258 347.57227 203.39258 C 351.83893 203.39258 354.9332 202.00411 356.5332 199.55078 L 356.5332 203.01758 L 362.82617 203.01758 L 362.82617 186.32422 C 362.82617 178.11089 358.08052 174.21875 349.86719 174.21875 z M 387.54297 174.21875 C 383.38297 174.21875 379.91518 175.60542 377.72852 178.21875 L 377.72852 174.53906 L 371.38281 174.53906 L 371.38281 203.01758 L 378.04883 203.01758 L 378.04883 188.61914 C 378.04883 182.91247 381.24943 180.03125 385.99609 180.03125 C 390.26276 180.03125 392.76953 182.48411 392.76953 187.55078 L 392.76953 203.01758 L 399.43555 203.01758 L 399.43555 186.69922 C 399.43555 178.11255 394.36964 174.21875 387.54297 174.21875 z M 420.31055 174.21875 C 412.15055 174.21875 405.91016 179.65911 405.91016 187.92578 C 405.91016 196.19245 412.15055 201.73828 420.31055 201.73828 C 424.15055 201.73828 427.51076 200.51117 429.85742 197.95117 L 429.85742 199.44531 C 429.85742 205.20531 427.08435 208.08594 420.79102 208.08594 C 416.84435 208.08594 412.78987 206.75187 410.2832 204.67188 L 407.29688 209.68555 C 410.55021 212.35221 415.83073 213.73828 421.16406 213.73828 C 431.1374 213.73828 436.52344 209.04589 436.52344 198.69922 L 436.52344 174.53906 L 430.17773 174.53906 L 430.17773 178.32422 C 427.83107 175.49755 424.31055 174.21875 420.31055 174.21875 z M 473.02734 174.21875 C 464.54734 174.21875 458.30664 180.2993 458.30664 188.7793 C 458.30664 197.2593 464.4924 203.39258 474.03906 203.39258 C 478.94573 203.39258 482.94586 201.79195 485.50586 198.75195 L 481.93359 194.64453 C 479.90693 196.72453 477.39922 197.73828 474.19922 197.73828 C 469.23922 197.73828 465.77266 195.07211 464.97266 190.91211 L 487.32031 190.91211 C 487.37365 190.27211 487.42578 189.47083 487.42578 188.9375 C 487.42578 180.03083 481.34734 174.21875 473.02734 174.21875 z M 503.91211 174.21875 C 496.23211 174.21875 491.37891 177.73833 491.37891 183.125 C 491.37891 194.485 508.97852 189.36469 508.97852 194.80469 C 508.97852 196.77802 507.21724 197.95117 503.00391 197.95117 C 499.43057 197.95117 495.59065 196.77833 493.08398 195.125 L 490.52539 200.19141 C 493.08539 202.00474 497.83146 203.39258 502.57812 203.39258 C 510.57812 203.39258 515.48438 199.92513 515.48438 194.5918 C 515.48438 183.44513 497.88477 188.56469 497.88477 182.80469 C 497.88477 180.93802 499.80409 179.60547 503.85742 179.60547 C 506.57742 179.60547 509.29758 180.13828 512.01758 181.73828 L 514.57812 176.67188 C 512.01813 175.12521 507.69878 174.21875 503.91211 174.21875 z M 264.27734 179.55078 C 268.65068 179.55078 271.79674 182.37771 272.33008 186.48438 L 256.16992 186.48438 C 256.80992 182.32438 259.95734 179.55078 264.27734 179.55078 z M 473.02734 179.55078 C 477.40068 179.55078 480.54674 182.37771 481.08008 186.48438 L 464.91992 186.48438 C 465.55992 182.32438 468.70734 179.55078 473.02734 179.55078 z M 421.32422 179.87109 C 426.33755 179.87109 429.96484 183.12578 429.96484 187.92578 C 429.96484 192.77911 426.33755 196.08594 421.32422 196.08594 C 416.25755 196.08594 412.63086 192.77911 412.63086 187.92578 C 412.63086 183.12578 416.25755 179.87109 421.32422 179.87109 z M 349.2793 190.80469 L 356.16016 190.80469 L 356.16016 194.11133 C 355.04016 197.04466 352.21232 198.53906 348.95898 198.53906 C 345.54565 198.53906 343.51953 196.9918 343.51953 194.5918 C 343.51953 192.5118 344.74596 190.80469 349.2793 190.80469 z M 282.86719 262.55859 C 280.41385 262.55859 278.59961 264.31859 278.59961 266.55859 C 278.59961 268.79859 280.41385 270.55859 282.86719 270.55859 C 285.37385 270.55859 287.13477 268.7451 287.13477 266.39844 C 287.13477 264.21177 285.32052 262.55859 282.86719 262.55859 z M 248.67383 264.16016 L 248.67383 303.73242 L 255.33984 303.73242 L 255.33984 264.16016 L 248.67383 264.16016 z M 264.08984 264.16016 L 264.08984 303.73242 L 270.75781 303.73242 L 270.75781 264.16016 L 264.08984 264.16016 z M 213.58398 266.39844 L 213.58398 303.73242 L 241.58398 303.73242 L 241.58398 297.91992 L 220.51758 297.91992 L 220.51758 287.62695 L 238.54492 287.62695 L 238.54492 281.91992 L 220.51758 281.91992 L 220.51758 272.21289 L 240.83789 272.21289 L 240.83789 266.39844 L 213.58398 266.39844 z M 310.71094 274.93359 C 306.8176 274.93359 303.51148 276.26633 301.27148 278.98633 L 301.27148 275.25195 L 294.92383 275.25195 L 294.92383 314.08008 L 301.58984 314.08008 L 301.58984 300.26562 C 303.88318 302.87896 307.08427 304.10547 310.71094 304.10547 C 319.03094 304.10547 325.16406 298.34552 325.16406 289.49219 C 325.16406 280.69219 319.03094 274.93359 310.71094 274.93359 z M 341.61914 274.93359 C 333.93914 274.93359 329.08594 278.45318 329.08594 283.83984 C 329.08594 295.19984 346.68555 290.07953 346.68555 295.51953 C 346.68555 297.49286 344.92622 298.66602 340.71289 298.66602 C 337.13956 298.66602 333.29964 297.49318 330.79297 295.83984 L 328.23242 300.90625 C 330.79242 302.71958 335.54044 304.10547 340.28711 304.10547 C 348.28711 304.10547 353.19336 300.63997 353.19336 295.30664 C 353.19336 284.15997 335.59375 289.27953 335.59375 283.51953 C 335.59375 281.65286 337.51307 280.31836 341.56641 280.31836 C 344.28641 280.31836 347.00656 280.85313 349.72656 282.45312 L 352.28711 277.38672 C 349.72711 275.84005 345.40581 274.93359 341.61914 274.93359 z M 371.35938 274.93359 C 362.87938 274.93359 356.64062 281.01219 356.64062 289.49219 C 356.64062 297.97219 362.82638 304.10547 372.37305 304.10547 C 377.27971 304.10547 381.27984 302.5068 383.83984 299.4668 L 380.26562 295.35938 C 378.23896 297.43937 375.7332 298.45312 372.5332 298.45312 C 367.5732 298.45312 364.10664 295.78695 363.30664 291.62695 L 385.65234 291.62695 C 385.70568 290.98695 385.75977 290.18568 385.75977 289.65234 C 385.75977 280.74568 379.67937 274.93359 371.35938 274.93359 z M 402.24414 274.93359 C 394.56414 274.93359 389.71094 278.45318 389.71094 283.83984 C 389.71094 295.19984 407.31055 290.07953 407.31055 295.51953 C 407.31055 297.49286 405.55122 298.66602 401.33789 298.66602 C 397.76456 298.66602 393.92464 297.49318 391.41797 295.83984 L 388.85742 300.90625 C 391.41742 302.71958 396.16544 304.10547 400.91211 304.10547 C 408.91211 304.10547 413.81836 300.63997 413.81836 295.30664 C 413.81836 284.15997 396.21875 289.27953 396.21875 283.51953 C 396.21875 281.65286 398.13807 280.31836 402.19141 280.31836 C 404.91141 280.31836 407.63156 280.85313 410.35156 282.45312 L 412.91211 277.38672 C 410.35211 275.84005 406.03081 274.93359 402.24414 274.93359 z M 279.50781 275.25195 L 279.50781 303.73242 L 286.17383 303.73242 L 286.17383 275.25195 L 279.50781 275.25195 z M 371.35938 280.26562 C 375.73271 280.26562 378.87878 283.09255 379.41211 287.19922 L 363.25391 287.19922 C 363.89391 283.03922 367.03938 280.26562 371.35938 280.26562 z M 309.96484 280.58594 C 314.76484 280.58594 318.39062 284.05219 318.39062 289.49219 C 318.39062 294.93219 314.76484 298.39844 309.96484 298.39844 C 305.16484 298.39844 301.48438 294.93219 301.48438 289.49219 C 301.48438 284.05219 305.16484 280.58594 309.96484 280.58594 z M 661.51367 363.27344 C 659.06034 363.27344 657.24609 365.03344 657.24609 367.27344 C 657.24609 369.51344 659.06034 371.27344 661.51367 371.27344 C 664.02034 371.27344 665.7793 369.45995 665.7793 367.11328 C 665.7793 364.92661 663.96701 363.27344 661.51367 363.27344 z M 934.01367 363.27344 C 931.56034 363.27344 929.74609 365.03344 929.74609 367.27344 C 929.74609 369.51344 931.56034 371.27344 934.01367 371.27344 C 936.52034 371.27344 938.2793 369.45995 938.2793 367.11328 C 938.2793 364.92661 936.46701 363.27344 934.01367 363.27344 z M 551.21094 364.76758 L 544.01172 372.07422 L 549.77148 372.07422 L 559.05078 364.76758 L 551.21094 364.76758 z M 856.41992 364.76758 L 849.21875 372.07422 L 854.98047 372.07422 L 864.25977 364.76758 L 856.41992 364.76758 z M 285.44531 364.87305 L 285.44531 404.44727 L 292.11133 404.44727 L 292.11133 364.87305 L 285.44531 364.87305 z M 642.73633 364.87305 L 642.73633 404.44727 L 649.40234 404.44727 L 649.40234 364.87305 L 642.73633 364.87305 z M 946.07031 364.87305 L 946.07031 404.44727 L 952.73633 404.44727 L 952.73633 364.87305 L 946.07031 364.87305 z M 213.58398 367.11328 L 213.58398 404.44727 L 220.51758 404.44727 L 220.51758 393.67383 L 228.94531 393.67383 C 238.75865 393.67383 244.83789 388.60786 244.83789 380.39453 C 244.83789 372.12786 238.75865 367.11328 228.94531 367.11328 L 213.58398 367.11328 z M 805.10156 369.67383 L 805.10156 376.17969 L 800.4082 376.17969 L 800.4082 381.51367 L 805.10156 381.51367 L 805.10156 395.2207 C 805.10156 401.51404 808.67406 404.82031 814.91406 404.82031 C 817.31406 404.82031 819.71445 404.18039 821.31445 402.90039 L 819.44727 398.1543 C 818.43393 398.9543 817.10151 399.32617 815.71484 399.32617 C 813.15484 399.32617 811.76758 397.83388 811.76758 395.06055 L 811.76758 381.51367 L 819.39453 381.51367 L 819.39453 376.17969 L 811.76758 376.17969 L 811.76758 369.67383 L 805.10156 369.67383 z M 875.51758 369.67383 L 875.51758 376.17969 L 870.82422 376.17969 L 870.82422 381.51367 L 875.51758 381.51367 L 875.51758 395.2207 C 875.51758 401.51404 879.09203 404.82031 885.33203 404.82031 C 887.73203 404.82031 890.13047 404.18039 891.73047 402.90039 L 889.86523 398.1543 C 888.8519 398.9543 887.51753 399.32617 886.13086 399.32617 C 883.57086 399.32617 882.18555 397.83388 882.18555 395.06055 L 882.18555 381.51367 L 889.81055 381.51367 L 889.81055 376.17969 L 882.18555 376.17969 L 882.18555 369.67383 L 875.51758 369.67383 z M 220.51758 372.98047 L 228.625 372.98047 C 234.705 372.98047 237.85156 375.7012 237.85156 380.39453 C 237.85156 385.08786 234.705 387.80664 228.625 387.80664 L 220.51758 387.80664 L 220.51758 372.98047 z M 263.86914 375.64648 C 255.12247 375.64648 248.72266 381.6737 248.72266 390.20703 C 248.72266 398.74036 255.12247 404.82031 263.86914 404.82031 C 272.72247 404.82031 279.07031 398.74036 279.07031 390.20703 C 279.07031 381.6737 272.72247 375.64648 263.86914 375.64648 z M 342.91406 375.64648 C 334.75406 375.64648 328.51563 381.08685 328.51562 389.35352 C 328.51562 397.62018 334.75406 403.16602 342.91406 403.16602 C 346.75406 403.16602 350.11427 401.94086 352.46094 399.38086 L 352.46094 400.87305 C 352.46094 406.63305 349.68786 409.51367 343.39453 409.51367 C 339.44786 409.51367 335.39534 408.17961 332.88867 406.09961 L 329.90234 411.11328 C 333.15568 413.77995 338.43424 415.16602 343.76758 415.16602 C 353.74091 415.16602 359.12891 410.47362 359.12891 400.12695 L 359.12891 375.9668 L 352.78125 375.9668 L 352.78125 379.75391 C 350.43458 376.92724 346.91406 375.64648 342.91406 375.64648 z M 380.64062 375.64648 C 371.89396 375.64648 365.49414 381.6737 365.49414 390.20703 C 365.49414 398.74036 371.89396 404.82031 380.64062 404.82031 C 389.49396 404.82031 395.83984 398.74036 395.83984 390.20703 C 395.83984 381.6737 389.49396 375.64648 380.64062 375.64648 z M 418.375 375.64648 C 414.215 375.64648 410.74917 377.03315 408.5625 379.64648 L 408.5625 375.9668 L 402.21484 375.9668 L 402.21484 404.44727 L 408.88281 404.44727 L 408.88281 390.04688 C 408.88281 384.34021 412.08146 381.46094 416.82812 381.46094 C 421.09479 381.46094 423.60156 383.9138 423.60156 388.98047 L 423.60156 404.44727 L 430.26953 404.44727 L 430.26953 388.12695 C 430.26953 379.54029 425.20167 375.64648 418.375 375.64648 z M 451.46484 375.64648 C 442.98484 375.64648 436.74414 381.72703 436.74414 390.20703 C 436.74414 398.68703 442.9299 404.82031 452.47656 404.82031 C 457.38323 404.82031 461.38336 403.21969 463.94336 400.17969 L 460.37109 396.07422 C 458.34443 398.15422 455.83672 399.16602 452.63672 399.16602 C 447.67672 399.16602 444.21016 396.49984 443.41016 392.33984 L 465.75781 392.33984 C 465.81115 391.69984 465.86328 390.90052 465.86328 390.36719 C 465.86328 381.46052 459.78484 375.64648 451.46484 375.64648 z M 482.34961 375.64648 C 474.66961 375.64648 469.81641 379.16607 469.81641 384.55273 C 469.81641 395.91273 487.41602 390.79438 487.41602 396.23438 C 487.41602 398.20771 485.65474 399.38086 481.44141 399.38086 C 477.86807 399.38086 474.02815 398.20607 471.52148 396.55273 L 468.96289 401.62109 C 471.52289 403.43443 476.26896 404.82031 481.01562 404.82031 C 489.01562 404.82031 493.92188 401.35286 493.92188 396.01953 C 493.92188 384.87286 476.32227 389.99437 476.32227 384.23438 C 476.32227 382.36771 478.24159 381.0332 482.29492 381.0332 C 485.01492 381.0332 487.73508 381.56602 490.45508 383.16602 L 493.01562 378.09961 C 490.45563 376.55294 486.13628 375.64648 482.34961 375.64648 z M 530.88281 375.64648 C 526.13615 375.64648 522.67 377.14029 520.75 380.12695 L 520.75 375.9668 L 514.40234 375.9668 L 514.40234 404.44727 L 521.07031 404.44727 L 521.07031 390.63281 C 521.07031 384.81948 524.26927 381.83398 529.33594 381.83398 C 529.81594 381.83398 530.29615 381.88747 530.88281 381.99414 L 530.88281 375.64648 z M 548.65234 375.64648 C 540.17234 375.64648 533.93164 381.72703 533.93164 390.20703 C 533.93164 398.68703 540.1174 404.82031 549.66406 404.82031 C 554.57073 404.82031 558.57086 403.21969 561.13086 400.17969 L 557.55859 396.07422 C 555.53193 398.15422 553.02422 399.16602 549.82422 399.16602 C 544.86422 399.16602 541.39766 396.49984 540.59766 392.33984 L 562.94531 392.33984 C 562.99865 391.69984 563.05078 390.90052 563.05078 390.36719 C 563.05078 381.46052 556.97234 375.64648 548.65234 375.64648 z M 581.45703 375.64648 C 573.29703 375.64648 567.05664 381.08685 567.05664 389.35352 C 567.05664 397.62018 573.29703 403.16602 581.45703 403.16602 C 585.29703 403.16602 588.65724 401.94086 591.00391 399.38086 L 591.00391 400.87305 C 591.00391 406.63305 588.22888 409.51367 581.93555 409.51367 C 577.98888 409.51367 573.93635 408.17961 571.42969 406.09961 L 568.44336 411.11328 C 571.69669 413.77995 576.97721 415.16602 582.31055 415.16602 C 592.28388 415.16602 597.66992 410.47362 597.66992 400.12695 L 597.66992 375.9668 L 591.32227 375.9668 L 591.32227 379.75391 C 588.9756 376.92724 585.45703 375.64648 581.45703 375.64648 z M 685.94336 375.64648 C 677.46336 375.64648 671.22266 381.72703 671.22266 390.20703 C 671.22266 398.68703 677.41036 404.82031 686.95703 404.82031 C 691.8637 404.82031 695.86383 403.21969 698.42383 400.17969 L 694.84961 396.07422 C 692.82294 398.15422 690.31719 399.16602 687.11719 399.16602 C 682.15719 399.16602 678.69062 396.49984 677.89062 392.33984 L 700.23633 392.33984 C 700.28966 391.69984 700.34375 390.90052 700.34375 390.36719 C 700.34375 381.46052 694.26336 375.64648 685.94336 375.64648 z M 723.17383 375.64648 C 718.42716 375.64648 714.96102 377.14029 713.04102 380.12695 L 713.04102 375.9668 L 706.69531 375.9668 L 706.69531 404.44727 L 713.36133 404.44727 L 713.36133 390.63281 C 713.36133 384.81948 716.56224 381.83398 721.62891 381.83398 C 722.10891 381.83398 722.58716 381.88747 723.17383 381.99414 L 723.17383 375.64648 z M 739.01562 375.64648 C 731.33563 375.64648 726.48242 379.16607 726.48242 384.55273 C 726.48242 395.91273 744.08203 390.79438 744.08203 396.23438 C 744.08203 398.20771 742.32271 399.38086 738.10938 399.38086 C 734.53604 399.38086 730.69612 398.20607 728.18945 396.55273 L 725.62891 401.62109 C 728.18891 403.43443 732.93497 404.82031 737.68164 404.82031 C 745.68164 404.82031 750.58984 401.35286 750.58984 396.01953 C 750.58984 384.87286 732.98828 389.99437 732.98828 384.23438 C 732.98828 382.36771 734.90956 381.0332 738.96289 381.0332 C 741.68289 381.0332 744.40305 381.56602 747.12305 383.16602 L 749.68164 378.09961 C 747.12164 376.55294 742.80229 375.64648 739.01562 375.64648 z M 783.44336 375.64648 C 774.96336 375.64648 768.72266 381.72703 768.72266 390.20703 C 768.72266 398.68703 774.91036 404.82031 784.45703 404.82031 C 789.3637 404.82031 793.36383 403.21969 795.92383 400.17969 L 792.34961 396.07422 C 790.32294 398.15422 787.81719 399.16602 784.61719 399.16602 C 779.65719 399.16602 776.19062 396.49984 775.39062 392.33984 L 797.73633 392.33984 C 797.78966 391.69984 797.84375 390.90052 797.84375 390.36719 C 797.84375 381.46052 791.76336 375.64648 783.44336 375.64648 z M 853.85938 375.64648 C 845.37938 375.64648 839.14062 381.72703 839.14062 390.20703 C 839.14062 398.68703 845.32638 404.82031 854.87305 404.82031 C 859.77971 404.82031 863.77984 403.21969 866.33984 400.17969 L 862.76562 396.07422 C 860.73896 398.15422 858.2332 399.16602 855.0332 399.16602 C 850.0732 399.16602 846.60664 396.49984 845.80664 392.33984 L 868.15234 392.33984 C 868.20568 391.69984 868.25977 390.90052 868.25977 390.36719 C 868.25977 381.46052 862.17937 375.64648 853.85938 375.64648 z M 909.07812 375.64648 C 900.33146 375.64648 893.93164 381.6737 893.93164 390.20703 C 893.93164 398.74036 900.33146 404.82031 909.07812 404.82031 C 917.93146 404.82031 924.27734 398.74036 924.27734 390.20703 C 924.27734 381.6737 917.93146 375.64648 909.07812 375.64648 z M 973.85938 375.64648 C 965.37938 375.64648 959.14062 381.72703 959.14062 390.20703 C 959.14062 398.68703 965.32638 404.82031 974.87305 404.82031 C 979.77971 404.82031 983.77984 403.21969 986.33984 400.17969 L 982.76562 396.07422 C 980.73896 398.15422 978.2332 399.16602 975.0332 399.16602 C 970.0732 399.16602 966.60664 396.49984 965.80664 392.33984 L 988.15234 392.33984 C 988.20568 391.69984 988.25977 390.90052 988.25977 390.36719 C 988.25977 381.46052 982.17937 375.64648 973.85938 375.64648 z M 1004.7441 375.64648 C 997.06414 375.64648 992.21094 379.16607 992.21094 384.55273 C 992.21094 395.91273 1009.8105 390.79438 1009.8105 396.23438 C 1009.8105 398.20771 1008.0512 399.38086 1003.8379 399.38086 C 1000.2646 399.38086 996.42464 398.20607 993.91797 396.55273 L 991.35742 401.62109 C 993.91742 403.43443 998.66544 404.82031 1003.4121 404.82031 C 1011.4121 404.82031 1016.3184 401.35286 1016.3184 396.01953 C 1016.3184 384.87286 998.71875 389.99437 998.71875 384.23438 C 998.71875 382.36771 1000.6381 381.0332 1004.6914 381.0332 C 1007.4114 381.0332 1010.1316 381.56602 1012.8516 383.16602 L 1015.4121 378.09961 C 1012.8521 376.55294 1008.5308 375.64648 1004.7441 375.64648 z M 296.2207 375.9668 L 308.64844 404.55273 L 308.16797 405.67383 C 306.88797 408.50049 305.50096 409.62109 303.1543 409.62109 C 301.34096 409.62109 299.52805 408.87315 298.24805 407.64648 L 295.58203 412.55273 C 297.39536 414.20607 300.38232 415.16602 303.20898 415.16602 C 307.95565 415.16602 311.58198 413.19357 314.19531 406.74023 L 327.52734 375.9668 L 321.12891 375.9668 L 312.11523 397.0332 L 303.1543 375.9668 L 296.2207 375.9668 z M 606.16797 375.9668 L 606.16797 392.23438 C 606.16797 400.82104 611.12888 404.82031 618.43555 404.82031 C 622.11555 404.82031 625.47604 403.43365 627.60938 400.82031 L 627.60938 404.44727 L 633.95508 404.44727 L 633.95508 375.9668 L 627.28906 375.9668 L 627.28906 390.36719 C 627.28906 396.07385 624.14195 398.95312 619.50195 398.95312 C 615.28862 398.95312 612.83594 396.49951 612.83594 391.32617 L 612.83594 375.9668 L 606.16797 375.9668 z M 658.15234 375.9668 L 658.15234 404.44727 L 664.82031 404.44727 L 664.82031 375.9668 L 658.15234 375.9668 z M 930.65234 375.9668 L 930.65234 404.44727 L 937.32031 404.44727 L 937.32031 375.9668 L 930.65234 375.9668 z M 451.46484 380.98047 C 455.83818 380.98047 458.98424 383.8074 459.51758 387.91406 L 443.35742 387.91406 C 443.99742 383.75406 447.14484 380.98047 451.46484 380.98047 z M 548.65234 380.98047 C 553.02568 380.98047 556.17174 383.8074 556.70508 387.91406 L 540.54492 387.91406 C 541.18492 383.75406 544.33234 380.98047 548.65234 380.98047 z M 685.94336 380.98047 C 690.31669 380.98047 693.46276 383.8074 693.99609 387.91406 L 677.83594 387.91406 C 678.47594 383.75406 681.62336 380.98047 685.94336 380.98047 z M 783.44336 380.98047 C 787.81669 380.98047 790.96276 383.8074 791.49609 387.91406 L 775.33594 387.91406 C 775.97594 383.75406 779.12336 380.98047 783.44336 380.98047 z M 853.85938 380.98047 C 858.23271 380.98047 861.37878 383.8074 861.91211 387.91406 L 845.75391 387.91406 C 846.39391 383.75406 849.53938 380.98047 853.85938 380.98047 z M 973.85938 380.98047 C 978.23271 380.98047 981.37878 383.8074 981.91211 387.91406 L 965.75391 387.91406 C 966.39391 383.75406 969.53938 380.98047 973.85938 380.98047 z M 263.86914 381.30078 C 268.72247 381.30078 272.34961 384.76703 272.34961 390.20703 C 272.34961 395.64703 268.72247 399.11328 263.86914 399.11328 C 259.06914 399.11328 255.44336 395.64703 255.44336 390.20703 C 255.44336 384.76703 259.06914 381.30078 263.86914 381.30078 z M 343.92773 381.30078 C 348.94107 381.30078 352.56836 384.55352 352.56836 389.35352 C 352.56836 394.20685 348.94107 397.51367 343.92773 397.51367 C 338.86107 397.51367 335.23438 394.20685 335.23438 389.35352 C 335.23438 384.55352 338.86107 381.30078 343.92773 381.30078 z M 380.64062 381.30078 C 385.49396 381.30078 389.12109 384.76703 389.12109 390.20703 C 389.12109 395.64703 385.49396 399.11328 380.64062 399.11328 C 375.84063 399.11328 372.21484 395.64703 372.21484 390.20703 C 372.21484 384.76703 375.84063 381.30078 380.64062 381.30078 z M 582.46875 381.30078 C 587.48208 381.30078 591.10938 384.55352 591.10938 389.35352 C 591.10938 394.20685 587.48208 397.51367 582.46875 397.51367 C 577.40208 397.51367 573.77734 394.20685 573.77734 389.35352 C 573.77734 384.55352 577.40208 381.30078 582.46875 381.30078 z M 909.07812 381.30078 C 913.93146 381.30078 917.55859 384.76703 917.55859 390.20703 C 917.55859 395.64703 913.93146 399.11328 909.07812 399.11328 C 904.27813 399.11328 900.65234 395.64703 900.65234 390.20703 C 900.65234 384.76703 904.27813 381.30078 909.07812 381.30078 z M 288.31836 465.48047 L 282.45117 472.78711 L 287.67773 472.78711 L 291.30469 469.05469 L 294.93164 472.78711 L 300.1582 472.78711 L 294.29102 465.48047 L 288.31836 465.48047 z M 213.58398 467.82812 L 213.58398 505.16211 L 232.14453 505.16211 C 241.74453 505.16211 246.75781 501.42734 246.75781 495.02734 C 246.75781 490.17401 244.03711 487.02805 240.03711 485.74805 C 242.91711 484.20138 244.83789 481.37516 244.83789 477.53516 C 244.83789 471.61516 240.03812 467.82813 231.07812 467.82812 L 213.58398 467.82812 z M 397.83398 467.82812 L 397.83398 473.64062 L 414.79297 473.64062 L 406.31445 483.7207 L 406.31445 488.46875 L 409.72656 488.46875 C 415.3799 488.46875 417.83398 490.65367 417.83398 494.01367 C 417.83398 497.48034 414.90141 499.66797 409.94141 499.66797 C 405.72807 499.66797 401.67448 498.22828 399.00781 495.98828 L 396.02148 501.375 C 399.48815 504.095 404.76688 505.69531 410.04688 505.69531 C 420.07354 505.69531 424.82031 500.25427 424.82031 493.96094 C 424.82031 488.36094 421.24703 484.14885 414.20703 483.24219 L 423.27344 472.46875 L 423.27344 467.82812 L 397.83398 467.82812 z M 432.02148 467.82812 L 432.02148 505.16211 L 448.3418 505.16211 C 460.44846 505.16211 468.71484 497.69414 468.71484 486.49414 C 468.71484 475.29414 460.44846 467.82812 448.3418 467.82812 L 432.02148 467.82812 z M 304.26758 470.38867 L 304.26758 476.89453 L 299.57422 476.89453 L 299.57422 482.22852 L 304.26758 482.22852 L 304.26758 495.93359 C 304.26758 502.22693 307.84203 505.53516 314.08203 505.53516 C 316.48203 505.53516 318.88047 504.89523 320.48047 503.61523 L 318.61523 498.86719 C 317.6019 499.66719 316.26753 500.04102 314.88086 500.04102 C 312.32086 500.04102 310.93555 498.54872 310.93555 495.77539 L 310.93555 482.22852 L 318.56055 482.22852 L 318.56055 476.89453 L 310.93555 476.89453 L 310.93555 470.38867 L 304.26758 470.38867 z M 220.51758 473.26758 L 230.33203 473.26758 C 235.13203 473.26758 237.85156 474.97474 237.85156 478.44141 C 237.85156 481.85474 235.13203 483.56055 230.33203 483.56055 L 220.51758 483.56055 L 220.51758 473.26758 z M 438.95508 473.69531 L 448.02148 473.69531 C 456.34148 473.69531 461.72852 478.76081 461.72852 486.49414 C 461.72852 494.22747 456.34148 499.29492 448.02148 499.29492 L 438.95508 499.29492 L 438.95508 473.69531 z M 266.36914 476.36133 C 257.62247 476.36133 251.22266 482.38854 251.22266 490.92188 C 251.22266 499.45521 257.62247 505.53516 266.36914 505.53516 C 275.22247 505.53516 281.57031 499.45521 281.57031 490.92188 C 281.57031 482.38854 275.22247 476.36133 266.36914 476.36133 z M 337.40234 476.36133 C 328.92234 476.36133 322.68164 482.44188 322.68164 490.92188 C 322.68164 499.40187 328.8674 505.53516 338.41406 505.53516 C 343.32073 505.53516 347.32086 503.93453 349.88086 500.89453 L 346.30859 496.78711 C 344.28193 498.86711 341.77422 499.88086 338.57422 499.88086 C 333.61422 499.88086 330.14766 497.21469 329.34766 493.05469 L 351.69531 493.05469 C 351.74865 492.41469 351.80078 491.61536 351.80078 491.08203 C 351.80078 482.17536 345.72234 476.36133 337.40234 476.36133 z M 368.28711 476.36133 C 360.60711 476.36133 355.75391 479.88091 355.75391 485.26758 C 355.75391 496.62758 373.35352 491.50727 373.35352 496.94727 C 373.35352 498.9206 371.59224 500.09375 367.37891 500.09375 C 363.80557 500.09375 359.96565 498.92091 357.45898 497.26758 L 354.90039 502.33398 C 357.46039 504.14732 362.20646 505.53516 366.95312 505.53516 C 374.95312 505.53516 379.85937 502.06771 379.85938 496.73438 C 379.85938 485.58771 362.25977 490.70727 362.25977 484.94727 C 362.25977 483.0806 364.17909 481.74805 368.23242 481.74805 C 370.95242 481.74805 373.67258 482.28086 376.39258 483.88086 L 378.95312 478.81445 C 376.39313 477.26779 372.07378 476.36133 368.28711 476.36133 z M 287.94531 476.68164 L 287.94531 505.16211 L 294.61133 505.16211 L 294.61133 476.68164 L 287.94531 476.68164 z M 337.40234 481.69531 C 341.77568 481.69531 344.92174 484.52029 345.45508 488.62695 L 329.29492 488.62695 C 329.93492 484.46695 333.08234 481.69531 337.40234 481.69531 z M 266.36914 482.01367 C 271.22247 482.01367 274.84961 485.48188 274.84961 490.92188 C 274.84961 496.36187 271.22247 499.82813 266.36914 499.82812 C 261.56914 499.82812 257.94336 496.36187 257.94336 490.92188 C 257.94336 485.48188 261.56914 482.01367 266.36914 482.01367 z M 220.51758 488.94727 L 231.71875 488.94727 C 236.94542 488.94727 239.77148 490.60065 239.77148 494.33398 C 239.77148 498.06732 236.94542 499.7207 231.71875 499.7207 L 220.51758 499.7207 L 220.51758 488.94727 z M 289.55469 564.70312 C 287.10135 564.70312 285.28906 566.46313 285.28906 568.70312 C 285.28906 570.94312 287.10135 572.70312 289.55469 572.70312 C 292.06135 572.70312 293.82227 570.88964 293.82227 568.54297 C 293.82227 566.3563 292.00802 564.70312 289.55469 564.70312 z M 355.98633 566.30273 L 355.98633 605.875 L 362.6543 605.875 L 362.6543 566.30273 L 355.98633 566.30273 z M 229.42383 568.00977 C 219.18383 568.00977 214.38477 573.12958 214.38477 579.15625 C 214.38477 593.02292 236.57227 587.74159 236.57227 595.79492 C 236.57227 598.56826 234.11802 600.64844 228.30469 600.64844 C 223.71802 600.64844 218.97104 598.94297 215.98438 596.54297 L 213.58398 601.92969 C 216.67732 604.59635 222.49135 606.4082 228.30469 606.4082 C 238.54469 606.4082 243.39844 601.28974 243.39844 595.31641 C 243.39844 581.60974 221.26562 586.7826 221.26562 578.83594 C 221.26562 576.00927 223.61109 573.76953 229.37109 573.76953 C 232.62443 573.76953 236.30406 574.72979 239.66406 576.70312 L 241.85156 571.31641 C 238.59823 569.18307 233.90383 568.00977 229.42383 568.00977 z M 265.41992 577.07617 C 261.52659 577.07617 258.22047 578.40891 255.98047 581.12891 L 255.98047 577.39453 L 249.63281 577.39453 L 249.63281 616.22266 L 256.29883 616.22266 L 256.29883 602.4082 C 258.59216 605.02154 261.79326 606.24805 265.41992 606.24805 C 273.73992 606.24805 279.87305 600.4881 279.87305 591.63477 C 279.87305 582.83477 273.73992 577.07617 265.41992 577.07617 z M 318.0918 577.07617 C 313.34513 577.07617 309.87898 578.56802 307.95898 581.55469 L 307.95898 577.39453 L 301.61133 577.39453 L 301.61133 605.875 L 308.2793 605.875 L 308.2793 592.0625 C 308.2793 586.24917 311.47826 583.26172 316.54492 583.26172 C 317.02492 583.26172 317.50513 583.31521 318.0918 583.42188 L 318.0918 577.07617 z M 334.4707 577.07617 C 329.88404 577.07617 325.45797 578.24904 322.41797 580.5957 L 325.03125 585.44922 C 327.16458 583.68922 330.47188 582.62305 333.67188 582.62305 C 338.41854 582.62305 340.76562 584.91526 340.76562 588.80859 L 340.76562 589.23633 L 333.4043 589.23633 C 324.7643 589.23633 321.56445 592.96818 321.56445 597.71484 C 321.56445 602.67484 325.67107 606.24805 332.17773 606.24805 C 336.4444 606.24805 339.53867 604.86154 341.13867 602.4082 L 341.13867 605.875 L 347.43164 605.875 L 347.43164 589.18164 C 347.43164 580.96831 342.68404 577.07617 334.4707 577.07617 z M 383.77734 577.07617 C 375.29734 577.07617 369.05664 583.15477 369.05664 591.63477 C 369.05664 600.11477 375.24435 606.24805 384.79102 606.24805 C 389.69768 606.24805 393.69781 604.64937 396.25781 601.60938 L 392.68359 597.50195 C 390.65693 599.58195 388.15117 600.5957 384.95117 600.5957 C 379.99117 600.5957 376.52461 597.92953 375.72461 593.76953 L 398.07031 593.76953 C 398.12365 593.12953 398.17773 592.32826 398.17773 591.79492 C 398.17773 582.88826 392.09734 577.07617 383.77734 577.07617 z M 414.66211 577.07617 C 406.98211 577.07617 402.12891 580.59576 402.12891 585.98242 C 402.12891 597.34242 419.72852 592.22211 419.72852 597.66211 C 419.72852 599.63544 417.96919 600.80859 413.75586 600.80859 C 410.18253 600.80859 406.3426 599.63576 403.83594 597.98242 L 401.27539 603.04883 C 403.83539 604.86216 408.58146 606.24805 413.32812 606.24805 C 421.32812 606.24805 426.23633 602.78255 426.23633 597.44922 C 426.23633 586.30255 408.63477 591.42211 408.63477 585.66211 C 408.63477 583.79544 410.55604 582.46289 414.60938 582.46289 C 417.32937 582.46289 420.04953 582.9957 422.76953 584.5957 L 425.32812 579.5293 C 422.76813 577.98263 418.44878 577.07617 414.66211 577.07617 z M 286.19531 577.39453 L 286.19531 605.875 L 292.86133 605.875 L 292.86133 577.39453 L 286.19531 577.39453 z M 383.77734 582.4082 C 388.15068 582.4082 391.29674 585.23513 391.83008 589.3418 L 375.66992 589.3418 C 376.30992 585.1818 379.45734 582.4082 383.77734 582.4082 z M 264.67383 582.72852 C 269.47383 582.72852 273.09961 586.19477 273.09961 591.63477 C 273.09961 597.07477 269.47383 600.54297 264.67383 600.54297 C 259.87383 600.54297 256.19336 597.07477 256.19336 591.63477 C 256.19336 586.19477 259.87383 582.72852 264.67383 582.72852 z M 333.88477 593.66211 L 340.76562 593.66211 L 340.76562 596.96875 C 339.64563 599.90208 336.81779 601.39453 333.56445 601.39453 C 330.15112 601.39453 328.125 599.84922 328.125 597.44922 C 328.125 595.36922 329.35143 593.66211 333.88477 593.66211 z "
       transform="matrix(0.26458333,0,0,0.26458333,-80.653183,-45.470983)"
       id="text964" />
  </g>
</svg>
