<?xml version="1.0" encoding="UTF-8" standalone="no"?>
<!-- Created with Inkscape (http://www.inkscape.org/) -->

<svg
   xmlns:dc="http://purl.org/dc/elements/1.1/"
   xmlns:cc="http://creativecommons.org/ns#"
   xmlns:rdf="http://www.w3.org/1999/02/22-rdf-syntax-ns#"
   xmlns:svg="http://www.w3.org/2000/svg"
   xmlns="http://www.w3.org/2000/svg"
   xmlns:sodipodi="http://sodipodi.sourceforge.net/DTD/sodipodi-0.dtd"
   xmlns:inkscape="http://www.inkscape.org/namespaces/inkscape"
   width="320.59906mm"
   height="180.3373mm"
   viewBox="0 0 320.59906 180.3373"
   version="1.1"
   id="svg4519"
   inkscape:version="0.92.4 (5da689c313, 2019-01-14)"
   sodipodi:docname="s_5_2.svg">
  <defs
     id="defs4513" />
  <sodipodi:namedview
     id="base"
     pagecolor="#ffffff"
     bordercolor="#666666"
     borderopacity="1.0"
     inkscape:pageopacity="0.0"
     inkscape:pageshadow="2"
     inkscape:zoom="0.70000001"
     inkscape:cx="715.8746"
     inkscape:cy="282.03804"
     inkscape:document-units="mm"
     inkscape:current-layer="layer1"
     showgrid="false"
     fit-margin-top="0"
     fit-margin-left="0"
     fit-margin-right="0"
     fit-margin-bottom="0"
     inkscape:window-width="1920"
     inkscape:window-height="986"
     inkscape:window-x="-11"
     inkscape:window-y="-11"
     inkscape:window-maximized="1"
     inkscape:snap-page="true" />
  <metadata
     id="metadata4516">
    <rdf:RDF>
      <cc:Work
         rdf:about="">
        <dc:format>image/svg+xml</dc:format>
        <dc:type
           rdf:resource="http://purl.org/dc/dcmitype/StillImage" />
        <dc:title />
      </cc:Work>
    </rdf:RDF>
  </metadata>
  <g
     inkscape:label="Layer 1"
     inkscape:groupmode="layer"
     id="layer1"
     transform="translate(80.653183,45.470983)">
    <path
       style="fill:#e3f4ff;fill-opacity:1;stroke:none;stroke-width:1.00187171;stroke-miterlimit:4;stroke-dasharray:none;stroke-opacity:1"
       d="M -80.653183,-45.470983 V 134.86631 H 239.94587 V -45.470983 Z"
       id="rect6732"
       inkscape:connector-curvature="0" />
    <path
       style="font-style:normal;font-variant:normal;font-weight:600;font-stretch:normal;font-size:10.58333302px;line-height:6.61458302px;font-family:Montserrat;-inkscape-font-specification:'Montserrat, Semi-Bold';font-variant-ligatures:normal;font-variant-caps:normal;font-variant-numeric:normal;font-feature-settings:normal;text-align:start;letter-spacing:0px;word-spacing:0px;writing-mode:lr-tb;text-anchor:start;fill:#000000;fill-opacity:1;stroke:none;stroke-width:0.99999994"
       d="M 355.67969 52.673828 L 355.67969 100.16211 L 365.66406 100.16211 L 365.66406 52.673828 L 355.67969 52.673828 z M 73.882812 55.361328 L 73.882812 100.16211 L 84.251953 100.16211 L 84.251953 87.681641 L 93.275391 87.681641 L 93.787109 87.681641 L 102.42773 100.16211 L 113.5625 100.16211 L 103.51562 85.761719 C 109.33962 83.265719 112.73047 78.337187 112.73047 71.617188 C 112.73047 61.569188 105.24339 55.361328 93.275391 55.361328 L 73.882812 55.361328 z M 200.14453 58.113281 L 200.14453 66.498047 L 194.83398 66.498047 L 194.83398 74.177734 L 200.14453 74.177734 L 200.14453 88.320312 C 200.14453 96.512312 204.88177 100.67383 213.00977 100.67383 C 216.08177 100.67383 219.08872 99.970047 221.13672 98.498047 L 218.44922 91.457031 C 217.36122 92.289031 215.88997 92.736328 214.41797 92.736328 C 211.72997 92.736328 210.12891 91.137359 210.12891 88.193359 L 210.12891 74.177734 L 218.70508 74.177734 L 218.70508 66.498047 L 210.12891 66.498047 L 210.12891 58.113281 L 200.14453 58.113281 z M 84.251953 63.808594 L 92.699219 63.808594 C 99.035218 63.808594 102.23633 66.689188 102.23633 71.617188 C 102.23633 76.481187 99.035218 79.425781 92.699219 79.425781 L 84.251953 79.425781 L 84.251953 63.808594 z M 135.98828 65.216797 C 125.49228 65.216797 117.61914 72.641313 117.61914 82.945312 C 117.61914 93.185312 125.36358 100.67383 137.26758 100.67383 C 143.47558 100.67383 148.27461 98.753469 151.47461 95.105469 L 146.16406 89.345703 C 143.79606 91.585703 141.17144 92.673828 137.52344 92.673828 C 132.27544 92.673828 128.62797 90.049719 127.66797 85.761719 L 153.71484 85.761719 C 153.77884 84.929719 153.9082 83.840266 153.9082 83.072266 C 153.9082 72.000266 146.10028 65.216797 135.98828 65.216797 z M 177.19531 65.216797 C 165.99531 65.216797 157.99414 72.577313 157.99414 82.945312 C 157.99414 93.313312 165.99531 100.67383 177.19531 100.67383 C 184.42731 100.67383 190.12314 97.47275 192.61914 91.96875 L 184.875 87.746094 C 183.019 91.074094 180.26686 92.480469 177.13086 92.480469 C 172.07486 92.480469 168.10547 88.961312 168.10547 82.945312 C 168.10547 76.929313 172.07486 73.410156 177.13086 73.410156 C 180.26686 73.410156 183.019 74.880531 184.875 78.144531 L 192.61914 73.984375 C 190.12314 68.352375 184.42731 65.216797 177.19531 65.216797 z M 240.69336 65.216797 C 235.18936 65.216797 229.61975 66.688953 225.84375 69.376953 L 229.42773 76.353516 C 231.92373 74.369516 235.69966 73.152344 239.34766 73.152344 C 244.72366 73.152344 247.28516 75.6495 247.28516 79.9375 L 239.34766 79.9375 C 228.85166 79.9375 224.56445 84.162188 224.56445 90.242188 C 224.56445 96.194187 229.36373 100.67383 237.42773 100.67383 C 242.48373 100.67383 246.06783 99.009047 247.92383 95.873047 L 247.92383 100.16211 L 257.26758 100.16211 L 257.26758 80.513672 C 257.26758 70.081672 251.18936 65.216797 240.69336 65.216797 z M 287.23242 65.216797 C 282.56042 65.216797 278.52784 66.817719 275.83984 69.761719 L 275.83984 65.728516 L 266.30469 65.728516 L 266.30469 100.16211 L 276.28906 100.16211 L 276.28906 83.136719 C 276.28906 76.800719 279.74492 73.857422 284.54492 73.857422 C 288.96092 73.857422 291.51953 76.416375 291.51953 81.984375 L 291.51953 100.16211 L 301.50391 100.16211 L 301.50391 80.449219 C 301.50391 69.953219 295.36042 65.216797 287.23242 65.216797 z M 325.58594 65.216797 C 316.04994 65.216797 308.36914 71.809422 308.36914 81.857422 C 308.36914 91.905421 316.04994 98.498047 325.58594 98.498047 C 330.06594 98.498047 333.84084 97.088984 336.46484 94.208984 L 336.46484 95.681641 C 336.46484 101.88964 333.39352 105.08984 326.35352 105.08984 C 321.93752 105.08984 317.13736 103.55355 314.19336 101.18555 L 310.22461 108.35352 C 314.25661 111.48952 320.59309 113.08984 327.12109 113.08984 C 339.53709 113.08984 346.44922 107.20039 346.44922 94.400391 L 346.44922 65.728516 L 336.97656 65.728516 L 336.97656 70.144531 C 334.35256 66.816531 330.38594 65.216797 325.58594 65.216797 z M 390.73828 65.216797 C 380.24228 65.216797 372.36914 72.641313 372.36914 82.945312 C 372.36914 93.185312 380.11358 100.67383 392.01758 100.67383 C 398.22558 100.67383 403.02461 98.753469 406.22461 95.105469 L 400.91406 89.345703 C 398.54606 91.585703 395.92144 92.673828 392.27344 92.673828 C 387.02544 92.673828 383.37797 90.049719 382.41797 85.761719 L 408.46484 85.761719 C 408.52884 84.929719 408.6582 83.840266 408.6582 83.072266 C 408.6582 72.000266 400.85028 65.216797 390.73828 65.216797 z M 428.74414 65.216797 C 418.69614 65.216797 412.80859 69.825516 412.80859 76.353516 C 412.80859 90.113515 433.60937 84.352375 433.60938 89.984375 C 433.60938 91.904375 431.87948 93.121094 427.27148 93.121094 C 423.04748 93.121094 418.37669 91.776969 415.30469 89.792969 L 411.97656 96.960938 C 415.17656 99.072937 421.06467 100.67383 426.88867 100.67383 C 437.19267 100.67383 443.14453 96.128515 443.14453 89.728516 C 443.14453 76.160516 422.34375 81.85675 422.34375 75.96875 C 422.34375 74.17675 424.26414 72.769531 428.74414 72.769531 C 431.88014 72.769531 435.27206 73.410078 438.66406 75.330078 L 441.99219 68.224609 C 438.72819 66.304609 433.48014 65.216797 428.74414 65.216797 z M 136.05078 72.769531 C 140.53078 72.769531 143.796 75.5855 144.5 79.9375 L 127.53906 79.9375 C 128.24306 75.5215 131.50678 72.769531 136.05078 72.769531 z M 390.80078 72.769531 C 395.28078 72.769531 398.546 75.5855 399.25 79.9375 L 382.28906 79.9375 C 382.99306 75.5215 386.25678 72.769531 390.80078 72.769531 z M 327.57031 73.410156 C 332.81831 73.410156 336.59375 76.801422 336.59375 81.857422 C 336.59375 86.913422 332.81831 90.304687 327.57031 90.304688 C 322.32231 90.304688 318.48047 86.913422 318.48047 81.857422 C 318.48047 76.801422 322.32231 73.410156 327.57031 73.410156 z M 240.43555 85.761719 L 247.28516 85.761719 L 247.28516 89.28125 C 246.13316 92.41725 243.25183 93.953125 239.92383 93.953125 C 236.40383 93.953125 234.29297 92.288969 234.29297 89.792969 C 234.29297 87.488969 235.76355 85.761719 240.43555 85.761719 z "
       transform="matrix(0.26458333,0,0,0.26458333,-80.653183,-45.470983)"
       id="text817" />
    <rect
       style="opacity:1;vector-effect:none;fill:none;fill-opacity:1;stroke:#000000;stroke-width:3;stroke-linecap:round;stroke-linejoin:miter;stroke-miterlimit:4;stroke-dasharray:none;stroke-dashoffset:4.60040331;stroke-opacity:1"
       id="rect819"
       width="80.982658"
       height="82.051743"
       x="-51.788071"
       y="6.5769424" />
    <rect
       y="-20.951818"
       x="55.654278"
       height="89.535294"
       width="40.09042"
       id="rect821"
       style="opacity:1;vector-effect:none;fill:none;fill-opacity:1;stroke:#000000;stroke-width:3;stroke-linecap:round;stroke-linejoin:miter;stroke-miterlimit:4;stroke-dasharray:none;stroke-dashoffset:4.60040331;stroke-opacity:1"
       ry="15.234363" />
    <rect
       ry="44.767647"
       style="opacity:1;vector-effect:none;fill:none;fill-opacity:1;stroke:#000000;stroke-width:3;stroke-linecap:round;stroke-linejoin:miter;stroke-miterlimit:4;stroke-dasharray:none;stroke-dashoffset:4.60040331;stroke-opacity:1"
       id="rect823"
       width="40.09042"
       height="89.535294"
       x="160.69121"
       y="-28.969904"
       rx="9.6216965" />
    <rect
       style="opacity:1;vector-effect:none;fill:none;fill-opacity:1;stroke:#000000;stroke-width:3;stroke-linecap:round;stroke-linejoin:bevel;stroke-miterlimit:4;stroke-dasharray:none;stroke-dashoffset:4.60040331;stroke-opacity:1"
       id="rect825"
       width="44.901279"
       height="44.901279"
       x="102.15916"
       y="56.021801"
       rx="0"
       ry="0" />
  </g>
</svg>
