<?xml version="1.0" encoding="UTF-8" standalone="no"?>
<!-- Created with Inkscape (http://www.inkscape.org/) -->

<svg
   xmlns:dc="http://purl.org/dc/elements/1.1/"
   xmlns:cc="http://creativecommons.org/ns#"
   xmlns:rdf="http://www.w3.org/1999/02/22-rdf-syntax-ns#"
   xmlns:svg="http://www.w3.org/2000/svg"
   xmlns="http://www.w3.org/2000/svg"
   xmlns:sodipodi="http://sodipodi.sourceforge.net/DTD/sodipodi-0.dtd"
   xmlns:inkscape="http://www.inkscape.org/namespaces/inkscape"
   width="320.59906mm"
   height="180.3373mm"
   viewBox="0 0 320.59906 180.3373"
   version="1.1"
   id="svg4519"
   inkscape:version="0.92.4 (5da689c313, 2019-01-14)"
   sodipodi:docname="s_8_3.svg">
  <defs
     id="defs4513">
    <clipPath
       clipPathUnits="userSpaceOnUse"
       id="clipPath910">
      <path
         sodipodi:nodetypes="cccccccsccccccccccccccccsccccccccsccccccccccccccccccccccccccccccccscccc"
         inkscape:connector-curvature="0"
         id="path912"
         d="m 108.25626,48.354508 0.30067,0.885328 0.65147,0.334089 0.0835,0.267269 2.67269,0.551241 0.31738,0.01669 1.50339,0.851921 c 0,0 1.20272,0.300678 1.11919,0.300678 -0.0835,0 0.41761,0.484426 0.41761,0.484426 l 1.10249,3.123713 1.83748,-0.634765 1.18601,-0.434313 c 0,0 1.63702,0.05011 1.72054,0.133636 0.0835,0.08352 1.58692,0.601355 1.58692,0.601355 l 1.60361,0.384199 0.96886,-0.06681 1.40316,1.336347 1.21942,0.584653 0.51783,0.801806 0.26727,0.267272 1.08578,1.302938 2.05464,2.77292 0.3842,-0.484425 c 0,0 0.33409,-0.03341 0.73499,-0.133634 0.4009,-0.100226 0.33409,-0.200453 0.70158,-0.167044 0.3675,0.03341 1.06908,-0.03341 1.36976,0.06682 0.30068,0.100224 0.23386,0.06682 0.4009,0.167042 0.16705,0.100227 0.70159,0.267272 0.70159,0.267272 l 0.36749,-0.567949 -0.13363,-0.434314 1.20271,-0.634765 0.16704,-0.634764 c 0,0 1.23612,-0.334087 1.40317,-0.367496 0.16704,-0.03341 0.20045,-0.133635 0.56795,0.06682 0.36749,0.200451 0.33408,0.06682 0.56794,0.334084 0.23386,0.267269 0.50113,0.167042 0.23386,0.400905 -0.26726,0.233859 -0.60135,0.53454 -0.70158,0.7684 -0.10022,0.23386 0.63477,0.902036 0.53454,1.135893 -0.10022,0.233863 -0.20045,0.467723 -0.23386,0.701582 l -0.10023,0.300681 -0.51057,-0.235537 -0.62921,0.143007 -0.91777,0.29441 -1.00036,0.425936 -2.95587,-0.20657 -2.30761,0.475768 -2.98894,0.488572 -2.88551,0.493305 -1.67746,-0.170868 -3.98807,0.3961 -2.53139,0.154556 -1.96405,0.623223 -2.7204,-0.795422 -1.79364,-0.03387 -0.96578,-7.94e-4 -1.49434,0.222724 -0.5826,-0.14051 -1.67099,-0.376973 -1.74952,0.02941 -0.58025,-1.051367 1.23612,-1.737254 0.13364,-2.071338 c 0,0 -0.33409,-0.7684 -0.63477,-1.135896 -0.30068,-0.367496 -0.66817,-0.133633 -0.30068,-0.46772 0.3675,-0.334087 1.57021,-1.670436 2.3052,-2.438834 0.735,-0.7684 1.63703,-2.772923 1.80407,-2.973374 0.16705,-0.200454 0.90204,-0.968851 0.90204,-1.135896 0,-0.167045 -0.0334,-1.035669 -0.43431,-1.436574 -0.40091,-0.400904 -1.03567,-0.935442 -1.20272,-0.968851 -0.16704,-0.03341 0.31739,-1.018966 0.31739,-1.018966 z"
         style="fill:none;stroke:#000000;stroke-width:0.465;stroke-linecap:butt;stroke-linejoin:miter;stroke-miterlimit:4;stroke-dasharray:none;stroke-opacity:1" />
    </clipPath>
    <clipPath
       clipPathUnits="userSpaceOnUse"
       id="clipPath922">
      <ellipse
         ry="12.828937"
         rx="21.381561"
         cy="110.67966"
         cx="202.51888"
         id="ellipse924"
         style="opacity:1;vector-effect:none;fill:none;fill-opacity:1;stroke:#000000;stroke-width:0.46499997;stroke-linecap:round;stroke-linejoin:miter;stroke-miterlimit:4;stroke-dasharray:none;stroke-dashoffset:4.60040331;stroke-opacity:1" />
    </clipPath>
  </defs>
  <sodipodi:namedview
     id="base"
     pagecolor="#ffffff"
     bordercolor="#666666"
     borderopacity="1.0"
     inkscape:pageopacity="0.0"
     inkscape:pageshadow="2"
     inkscape:zoom="0.49497475"
     inkscape:cx="517.76082"
     inkscape:cy="98.973315"
     inkscape:document-units="mm"
     inkscape:current-layer="layer1"
     showgrid="false"
     fit-margin-top="0"
     fit-margin-left="0"
     fit-margin-right="0"
     fit-margin-bottom="0"
     inkscape:window-width="1920"
     inkscape:window-height="986"
     inkscape:window-x="-11"
     inkscape:window-y="-11"
     inkscape:window-maximized="1"
     inkscape:snap-page="true" />
  <metadata
     id="metadata4516">
    <rdf:RDF>
      <cc:Work
         rdf:about="">
        <dc:format>image/svg+xml</dc:format>
        <dc:type
           rdf:resource="http://purl.org/dc/dcmitype/StillImage" />
        <dc:title></dc:title>
      </cc:Work>
    </rdf:RDF>
  </metadata>
  <g
     inkscape:label="Layer 1"
     inkscape:groupmode="layer"
     id="layer1"
     transform="translate(80.653183,45.470983)">
    <flowRoot
       xml:space="preserve"
       id="flowRoot849"
       style="fill:black;fill-opacity:1;stroke:none;font-family:Montserrat;font-style:normal;font-weight:600;font-size:40px;line-height:25px;letter-spacing:0px;word-spacing:0px;-inkscape-font-specification:'Montserrat, Semi-Bold';font-stretch:normal;font-variant:normal;text-anchor:start;text-align:start;writing-mode:lr;font-variant-ligatures:normal;font-variant-caps:normal;font-variant-numeric:normal;font-feature-settings:normal"><flowRegion
         id="flowRegion851"><rect
           id="rect853"
           width="445.71426"
           height="167.14285"
           x="34.285713"
           y="134.44693" /></flowRegion><flowPara
         id="flowPara855" /></flowRoot>    <flowRoot
       xml:space="preserve"
       id="flowRoot889"
       style="fill:black;fill-opacity:1;stroke:none;font-family:Montserrat;font-style:normal;font-weight:600;font-size:40px;line-height:25px;letter-spacing:0px;word-spacing:0px;-inkscape-font-specification:'Montserrat, Semi-Bold';font-stretch:normal;font-variant:normal;text-anchor:start;text-align:start;writing-mode:lr;font-variant-ligatures:normal;font-variant-caps:normal;font-variant-numeric:normal;font-feature-settings:normal"><flowRegion
         id="flowRegion891"><rect
           id="rect893"
           width="398.57141"
           height="180.71428"
           x="60.714283"
           y="195.8755" /></flowRegion><flowPara
         id="flowPara895" /></flowRoot>    <flowRoot
       xml:space="preserve"
       id="flowRoot875"
       style="fill:black;fill-opacity:1;stroke:none;font-family:Montserrat;font-style:normal;font-weight:600;font-size:40px;line-height:25px;letter-spacing:0px;word-spacing:0px;-inkscape-font-specification:'Montserrat, Semi-Bold';font-stretch:normal;font-variant:normal;text-anchor:start;text-align:start;writing-mode:lr;font-variant-ligatures:normal;font-variant-caps:normal;font-variant-numeric:normal;font-feature-settings:normal"><flowRegion
         id="flowRegion877"><rect
           id="rect879"
           width="452.85715"
           height="134.28571"
           x="87.142853"
           y="450.16122" /></flowRegion><flowPara
         id="flowPara881"></flowPara></flowRoot>  </g>
</svg>
