<?xml version="1.0" encoding="UTF-8" standalone="no"?>
<!-- Created with Inkscape (http://www.inkscape.org/) -->

<svg
   xmlns:dc="http://purl.org/dc/elements/1.1/"
   xmlns:cc="http://creativecommons.org/ns#"
   xmlns:rdf="http://www.w3.org/1999/02/22-rdf-syntax-ns#"
   xmlns:svg="http://www.w3.org/2000/svg"
   xmlns="http://www.w3.org/2000/svg"
   xmlns:sodipodi="http://sodipodi.sourceforge.net/DTD/sodipodi-0.dtd"
   xmlns:inkscape="http://www.inkscape.org/namespaces/inkscape"
   width="320.59906mm"
   height="180.3373mm"
   viewBox="0 0 320.59906 180.3373"
   version="1.1"
   id="svg4519"
   inkscape:version="0.92.4 (5da689c313, 2019-01-14)"
   sodipodi:docname="s_9_1.svg">
  <defs
     id="defs4513" />
  <sodipodi:namedview
     id="base"
     pagecolor="#ffffff"
     bordercolor="#666666"
     borderopacity="1.0"
     inkscape:pageopacity="0.0"
     inkscape:pageshadow="2"
     inkscape:zoom="0.98994951"
     inkscape:cx="543.54045"
     inkscape:cy="304.43122"
     inkscape:document-units="mm"
     inkscape:current-layer="layer1"
     showgrid="false"
     fit-margin-top="0"
     fit-margin-left="0"
     fit-margin-right="0"
     fit-margin-bottom="0"
     inkscape:window-width="1920"
     inkscape:window-height="986"
     inkscape:window-x="-11"
     inkscape:window-y="-11"
     inkscape:window-maximized="1"
     inkscape:snap-page="true" />
  <metadata
     id="metadata4516">
    <rdf:RDF>
      <cc:Work
         rdf:about="">
        <dc:format>image/svg+xml</dc:format>
        <dc:type
           rdf:resource="http://purl.org/dc/dcmitype/StillImage" />
        <dc:title />
      </cc:Work>
    </rdf:RDF>
  </metadata>
  <g
     inkscape:label="Layer 1"
     inkscape:groupmode="layer"
     id="layer1"
     transform="translate(80.653183,45.470983)">
    <path
       style="fill:#ffffff;fill-opacity:1;stroke:none;stroke-width:1.00187171;stroke-miterlimit:4;stroke-dasharray:none;stroke-opacity:1"
       d="M -80.653183,-45.470983 V 134.86631 H 239.94587 V -45.470983 Z"
       id="rect6732"
       inkscape:connector-curvature="0" />
    <path
       style="font-style:normal;font-variant:normal;font-weight:600;font-stretch:normal;font-size:40px;line-height:1;font-family:Montserrat;-inkscape-font-specification:'Montserrat, Semi-Bold';font-variant-ligatures:normal;font-variant-caps:normal;font-variant-numeric:normal;font-feature-settings:normal;text-align:start;letter-spacing:0px;word-spacing:0px;writing-mode:lr-tb;text-anchor:start;fill:#000000;fill-opacity:1;stroke:none;stroke-width:1.30392814"
       d="M 299.67578 561.22461 C 296.75498 561.22461 294.83594 563.06109 294.83594 565.43945 C 294.83594 567.81782 296.75498 569.6543 299.67578 569.6543 C 302.59658 569.6543 304.51562 567.818 304.51562 565.31445 C 304.51562 562.93609 302.59658 561.22461 299.67578 561.22461 z M 798.7832 562.56055 C 796.86382 562.56055 795.44531 563.93697 795.44531 565.68945 C 795.44531 567.44193 796.86382 568.81836 798.7832 568.81836 C 800.74431 568.81836 802.12109 567.40038 802.12109 565.56445 C 802.12109 563.8537 800.70259 562.56055 798.7832 562.56055 z M 282.67188 563.8125 L 282.67188 594.77344 L 290.59961 594.77344 L 290.59961 563.8125 L 282.67188 563.8125 z M 425.26953 563.8125 L 425.26953 594.77344 L 430.48438 594.77344 L 430.48438 563.8125 L 425.26953 563.8125 z M 641.94727 563.8125 L 641.94727 575.24414 C 640.19479 573.19958 637.65056 572.24023 634.77148 572.24023 C 628.304 572.24023 623.50391 576.70439 623.50391 583.63086 C 623.50391 590.55733 628.304 595.06445 634.77148 595.06445 C 637.81746 595.06445 640.40377 594.02059 642.15625 591.89258 L 642.15625 594.77344 L 647.16211 594.77344 L 647.16211 563.8125 L 641.94727 563.8125 z M 111.82617 565.56445 L 111.82617 594.77344 L 119.46094 594.77344 L 119.46094 579.70898 L 126.92969 591.89258 L 130.60156 591.89258 L 138.11328 579.29297 L 138.19531 594.77344 L 145.79102 594.77344 L 145.70703 565.56445 L 138.90625 565.56445 L 128.89062 582.42188 L 118.62695 565.56445 L 111.82617 565.56445 z M 160.98438 565.56445 L 148.08984 594.77344 L 156.51953 594.77344 L 158.81445 589.09766 L 171.16406 589.09766 L 173.45898 594.77344 L 182.05469 594.77344 L 169.12109 565.56445 L 160.98438 565.56445 z M 184.38281 565.56445 L 184.38281 571.94922 L 194.48047 571.94922 L 194.48047 584.50781 C 194.48047 587.30343 193.18696 588.76367 190.80859 588.76367 C 188.93094 588.76367 187.30362 587.72158 185.75977 585.71875 L 181.25391 591.05859 C 183.50709 593.85422 187.13656 595.35742 191.39258 595.35742 C 198.7363 595.35742 202.6582 591.60189 202.6582 584.00781 L 202.6582 565.56445 L 184.38281 565.56445 z M 553.8457 567.56836 L 553.8457 572.6582 L 550.17383 572.6582 L 550.17383 576.83008 L 553.8457 576.83008 L 553.8457 587.55469 C 553.8457 592.47832 556.63958 595.06445 561.52148 595.06445 C 563.39914 595.06445 565.27753 594.56392 566.5293 593.5625 L 565.06836 589.84961 C 564.27557 590.47549 563.23331 590.76758 562.14844 590.76758 C 560.1456 590.76758 559.06055 589.59942 559.06055 587.42969 L 559.06055 576.83008 L 565.02734 576.83008 L 565.02734 572.6582 L 559.06055 572.6582 L 559.06055 567.56836 L 553.8457 567.56836 z M 736.15039 567.56836 L 736.15039 572.6582 L 732.47852 572.6582 L 732.47852 576.83008 L 736.15039 576.83008 L 736.15039 587.55469 C 736.15039 592.47832 738.94622 595.06445 743.82812 595.06445 C 745.70578 595.06445 747.58221 594.56392 748.83398 593.5625 L 747.375 589.84961 C 746.58221 590.47549 745.53799 590.76758 744.45312 590.76758 C 742.45029 590.76758 741.36523 589.59942 741.36523 587.42969 L 741.36523 576.83008 L 747.33203 576.83008 L 747.33203 572.6582 L 741.36523 572.6582 L 741.36523 567.56836 L 736.15039 567.56836 z M 779.17969 567.56836 L 779.17969 572.6582 L 775.50781 572.6582 L 775.50781 576.83008 L 779.17969 576.83008 L 779.17969 587.55469 C 779.17969 592.47832 781.97552 595.06445 786.85742 595.06445 C 788.73508 595.06445 790.61346 594.56392 791.86523 593.5625 L 790.4043 589.84961 C 789.61151 590.47549 788.56729 590.76758 787.48242 590.76758 C 785.47959 590.76758 784.39648 589.59942 784.39648 587.42969 L 784.39648 576.83008 L 790.36328 576.83008 L 790.36328 572.6582 L 784.39648 572.6582 L 784.39648 567.56836 L 779.17969 567.56836 z M 226.9707 570.23828 L 226.9707 577.12305 L 219.87695 577.12305 L 219.87695 583.21484 L 226.9707 583.21484 L 226.9707 590.09961 L 233.39648 590.09961 L 233.39648 583.21484 L 240.44727 583.21484 L 240.44727 577.12305 L 233.39648 577.12305 L 233.39648 570.23828 L 226.9707 570.23828 z M 269.12891 571.78125 C 261.53483 571.78125 256.15234 576.62254 256.15234 583.42383 C 256.15234 590.30857 261.53483 595.14844 269.12891 595.14844 C 274.26117 595.14844 278.18466 592.85386 279.72852 588.93164 L 273.59375 585.80078 C 272.50888 587.92879 270.92382 588.84766 269.08789 588.84766 C 266.33399 588.84766 264.16406 586.92879 264.16406 583.42383 C 264.16406 580.00232 266.33399 578.08203 269.08789 578.08203 C 270.92382 578.08203 272.50888 579.0009 273.59375 581.12891 L 279.72852 577.99805 C 278.18466 574.07583 274.26117 571.78125 269.12891 571.78125 z M 320.30859 571.78125 C 312.71452 571.78125 307.33203 576.62254 307.33203 583.42383 C 307.33203 590.30857 312.71452 595.14844 320.30859 595.14844 C 325.44085 595.14844 329.3624 592.85386 330.90625 588.93164 L 324.77344 585.80078 C 323.68857 587.92879 322.10351 588.84766 320.26758 588.84766 C 317.51368 588.84766 315.34375 586.92879 315.34375 583.42383 C 315.34375 580.00232 317.51368 578.08203 320.26758 578.08203 C 322.10351 578.08203 323.68857 579.0009 324.77344 581.12891 L 330.90625 577.99805 C 329.3624 574.07583 325.44085 571.78125 320.30859 571.78125 z M 295.71094 572.1582 L 295.71094 594.77344 L 303.63867 594.77344 L 303.63867 572.1582 L 295.71094 572.1582 z M 354.22852 572.24023 C 348.22001 572.24023 344.42187 574.99469 344.42188 579.20898 C 344.42188 588.09656 358.19141 584.09163 358.19141 588.34766 C 358.19141 589.89151 356.81391 590.80859 353.51758 590.80859 C 350.72196 590.80859 347.71892 589.89115 345.75781 588.59766 L 343.75391 592.56055 C 345.75674 593.97922 349.47196 595.06445 353.18555 595.06445 C 359.4444 595.06445 363.2832 592.35226 363.2832 588.17969 C 363.2832 579.45902 349.51367 583.46536 349.51367 578.95898 C 349.51367 577.49858 351.01439 576.45508 354.18555 576.45508 C 356.31356 576.45508 358.4423 576.87128 360.57031 578.12305 L 362.57227 574.16016 C 360.56943 572.95011 357.19104 572.24023 354.22852 572.24023 z M 409.15039 572.24023 C 405.4368 572.24023 402.72478 573.40945 401.22266 575.74609 L 401.22266 572.49023 L 396.25586 572.49023 L 396.25586 594.77344 L 401.47266 594.77344 L 401.47266 583.96484 C 401.47266 579.41674 403.97551 577.08008 407.93945 577.08008 C 408.31498 577.08008 408.69141 577.12163 409.15039 577.20508 L 409.15039 572.24023 z M 447.00977 572.24023 C 440.37538 572.24023 435.49414 576.99647 435.49414 583.63086 C 435.49414 590.26525 440.33383 595.06445 447.80273 595.06445 C 451.6415 595.06445 454.77256 593.81196 456.77539 591.43359 L 453.97852 588.2207 C 452.39294 589.84801 450.43128 590.64258 447.92773 590.64258 C 444.04724 590.64258 441.33682 588.55539 440.71094 585.30078 L 458.19336 585.30078 C 458.23509 584.80007 458.27734 584.17507 458.27734 583.75781 C 458.27734 576.78962 453.51897 572.24023 447.00977 572.24023 z M 484.95898 572.24023 C 477.90734 572.24023 472.90039 576.95475 472.90039 583.63086 C 472.90039 590.30697 477.90734 595.06445 484.95898 595.06445 C 489.29846 595.06445 492.7619 593.18767 494.47266 589.84961 L 490.4668 587.51172 C 489.13157 589.63973 487.12943 590.59961 484.91797 590.59961 C 481.0792 590.59961 478.1582 587.97033 478.1582 583.63086 C 478.1582 579.33311 481.0792 576.66406 484.91797 576.66406 C 487.12943 576.66406 489.13157 577.62394 490.4668 579.75195 L 494.47266 577.41406 C 492.7619 574.03428 489.29846 572.24023 484.95898 572.24023 z M 508.29492 572.24023 C 501.66054 572.24023 496.7793 576.99647 496.7793 583.63086 C 496.7793 590.26525 501.61899 595.06445 509.08789 595.06445 C 512.92665 595.06445 516.05576 593.81196 518.05859 591.43359 L 515.26367 588.2207 C 513.6781 589.84801 511.71643 590.64258 509.21289 590.64258 C 505.3324 590.64258 502.62003 588.55539 501.99414 585.30078 L 519.47852 585.30078 C 519.52024 584.80007 519.56055 584.17507 519.56055 583.75781 C 519.56055 576.78962 514.80413 572.24023 508.29492 572.24023 z M 537.17383 572.24023 C 533.91922 572.24023 531.20685 573.32653 529.49609 575.37109 L 529.49609 572.49023 L 524.53125 572.49023 L 524.53125 594.77344 L 529.74609 594.77344 L 529.74609 583.50586 C 529.74609 579.04121 532.2493 576.78906 535.96289 576.78906 C 539.30095 576.78906 541.26172 578.70793 541.26172 582.67188 L 541.26172 594.77344 L 546.47852 594.77344 L 546.47852 582.00391 C 546.47852 575.28607 542.51472 572.24023 537.17383 572.24023 z M 583.71289 572.24023 C 579.9993 572.24023 577.28728 573.40945 575.78516 575.74609 L 575.78516 572.49023 L 570.82031 572.49023 L 570.82031 594.77344 L 576.03516 594.77344 L 576.03516 583.96484 C 576.03516 579.41674 578.53996 577.08008 582.50391 577.08008 C 582.87944 577.08008 583.25391 577.12163 583.71289 577.20508 L 583.71289 572.24023 z M 597.61523 572.24023 C 590.98085 572.24023 586.09766 576.99647 586.09766 583.63086 C 586.09766 590.26525 590.93735 595.06445 598.40625 595.06445 C 602.24501 595.06445 605.37607 593.81196 607.37891 591.43359 L 604.58203 588.2207 C 602.99645 589.84801 601.03675 590.64258 598.5332 590.64258 C 594.65271 590.64258 591.94034 588.55539 591.31445 585.30078 L 608.79688 585.30078 C 608.8386 584.80007 608.88086 584.17507 608.88086 583.75781 C 608.88086 576.78962 604.12444 572.24023 597.61523 572.24023 z M 663.70703 572.24023 C 657.07265 572.24023 652.19141 576.99647 652.19141 583.63086 C 652.19141 590.26525 657.0311 595.06445 664.5 595.06445 C 668.33876 595.06445 671.46787 593.81196 673.4707 591.43359 L 670.67578 588.2207 C 669.0902 589.84801 667.12854 590.64258 664.625 590.64258 C 660.74451 590.64258 658.03214 588.55539 657.40625 585.30078 L 674.89062 585.30078 C 674.93235 584.80007 674.97266 584.17507 674.97266 583.75781 C 674.97266 576.78962 670.21624 572.24023 663.70703 572.24023 z M 704.32617 572.24023 C 700.61258 572.24023 697.90056 573.40945 696.39844 575.74609 L 696.39844 572.49023 L 691.43359 572.49023 L 691.43359 594.77344 L 696.64844 594.77344 L 696.64844 583.96484 C 696.64844 579.41674 699.15325 577.08008 703.11719 577.08008 C 703.49272 577.08008 703.86719 577.12163 704.32617 577.20508 L 704.32617 572.24023 z M 718.5625 572.24023 C 711.71949 572.24023 706.71094 576.95475 706.71094 583.63086 C 706.71094 590.30697 711.71949 595.06445 718.5625 595.06445 C 725.48897 595.06445 730.45312 590.30697 730.45312 583.63086 C 730.45312 576.95475 725.48897 572.24023 718.5625 572.24023 z M 761.63672 572.24023 C 758.04831 572.24023 754.5854 573.15821 752.20703 574.99414 L 754.25195 578.79102 C 755.92098 577.41407 758.50818 576.58008 761.01172 576.58008 C 764.72531 576.58008 766.56055 578.37395 766.56055 581.41992 L 766.56055 581.75391 L 760.80273 581.75391 C 754.04317 581.75391 751.53906 584.67508 751.53906 588.38867 C 751.53906 592.26916 754.75321 595.06445 759.84375 595.06445 C 763.18181 595.06445 765.60174 593.97993 766.85352 592.06055 L 766.85352 594.77344 L 771.77734 594.77344 L 771.77734 581.71289 C 771.77734 575.28713 768.06248 572.24023 761.63672 572.24023 z M 818.23047 572.24023 C 811.38745 572.24023 806.38086 576.95475 806.38086 583.63086 C 806.38086 590.30697 811.38745 595.06445 818.23047 595.06445 C 825.15693 595.06445 830.12305 590.30697 830.12305 583.63086 C 830.12305 576.95475 825.15693 572.24023 818.23047 572.24023 z M 847.75195 572.24023 C 844.49735 572.24023 841.78693 573.32653 840.07617 575.37109 L 840.07617 572.49023 L 835.10938 572.49023 L 835.10938 594.77344 L 840.32617 594.77344 L 840.32617 583.50586 C 840.32617 579.04121 842.82938 576.78906 846.54297 576.78906 C 849.88102 576.78906 851.8418 578.70793 851.8418 582.67188 L 851.8418 594.77344 L 857.05859 594.77344 L 857.05859 582.00391 C 857.05859 575.28607 853.09284 572.24023 847.75195 572.24023 z M 887.55664 572.24023 C 884.51066 572.24023 881.92435 573.2841 880.17188 575.41211 L 880.17188 572.49023 L 875.20508 572.49023 L 875.20508 602.86719 L 880.42188 602.86719 L 880.42188 592.06055 C 882.21608 594.10511 884.71929 595.06445 887.55664 595.06445 C 894.06585 595.06445 898.86328 590.55733 898.86328 583.63086 C 898.86328 576.74612 894.06585 572.24023 887.55664 572.24023 z M 913.82422 572.24023 C 906.9812 572.24023 901.97461 576.95475 901.97461 583.63086 C 901.97461 590.30697 906.9812 595.06445 913.82422 595.06445 C 920.75068 595.06445 925.7168 590.30697 925.7168 583.63086 C 925.7168 576.95475 920.75068 572.24023 913.82422 572.24023 z M 972.03906 572.24023 C 968.32548 572.24023 965.61345 573.40945 964.11133 575.74609 L 964.11133 572.49023 L 959.14648 572.49023 L 959.14648 594.77344 L 964.36133 594.77344 L 964.36133 583.96484 C 964.36133 579.41674 966.86614 577.08008 970.83008 577.08008 C 971.20561 577.08008 971.58008 577.12163 972.03906 577.20508 L 972.03906 572.24023 z M 367.64844 572.49023 L 367.64844 585.2168 C 367.64844 591.93463 371.52772 595.06445 377.24414 595.06445 C 380.12321 595.06445 382.75285 593.98011 384.42188 591.93555 L 384.42188 594.77344 L 389.38672 594.77344 L 389.38672 572.49023 L 384.17188 572.49023 L 384.17188 583.75781 C 384.17188 588.22246 381.71021 590.47461 378.08008 590.47461 C 374.78375 590.47461 372.86328 588.55521 372.86328 584.50781 L 372.86328 572.49023 L 367.64844 572.49023 z M 796.1543 572.49023 L 796.1543 594.77344 L 801.37109 594.77344 L 801.37109 572.49023 L 796.1543 572.49023 z M 930.53711 572.49023 L 930.53711 585.2168 C 930.53711 591.93463 934.41834 595.06445 940.13477 595.06445 C 943.01384 595.06445 945.64152 593.98011 947.31055 591.93555 L 947.31055 594.77344 L 952.27539 594.77344 L 952.27539 572.49023 L 947.06055 572.49023 L 947.06055 583.75781 C 947.06055 588.22246 944.59889 590.47461 940.96875 590.47461 C 937.67242 590.47461 935.75391 588.55521 935.75391 584.50781 L 935.75391 572.49023 L 930.53711 572.49023 z M 164.99023 573.66016 L 168.74414 583.00586 L 161.23438 583.00586 L 164.99023 573.66016 z M 447.00977 576.41406 C 450.43127 576.41406 452.89329 578.62501 453.31055 581.83789 L 440.66797 581.83789 C 441.16868 578.58329 443.62998 576.41406 447.00977 576.41406 z M 508.29492 576.41406 C 511.71643 576.41406 514.17845 578.62501 514.5957 581.83789 L 501.95312 581.83789 C 502.45383 578.58329 504.91514 576.41406 508.29492 576.41406 z M 597.61523 576.41406 C 601.03674 576.41406 603.49681 578.62501 603.91406 581.83789 L 591.27148 581.83789 C 591.77219 578.58329 594.23545 576.41406 597.61523 576.41406 z M 663.70703 576.41406 C 667.12854 576.41406 669.59056 578.62501 670.00781 581.83789 L 657.36523 581.83789 C 657.86594 578.58329 660.32725 576.41406 663.70703 576.41406 z M 635.39648 576.66406 C 639.1518 576.66406 642.03125 579.37484 642.03125 583.63086 C 642.03125 587.88688 639.1518 590.59961 635.39648 590.59961 C 631.64117 590.59961 628.76172 587.88688 628.76172 583.63086 C 628.76172 579.37484 631.64117 576.66406 635.39648 576.66406 z M 718.5625 576.66406 C 722.35954 576.66406 725.19531 579.37484 725.19531 583.63086 C 725.19531 587.88688 722.35954 590.59961 718.5625 590.59961 C 714.80719 590.59961 711.96875 587.88688 711.96875 583.63086 C 711.96875 579.37484 714.80719 576.66406 718.5625 576.66406 z M 818.23047 576.66406 C 822.02751 576.66406 824.86523 579.37484 824.86523 583.63086 C 824.86523 587.88688 822.02751 590.59961 818.23047 590.59961 C 814.47516 590.59961 811.63867 587.88688 811.63867 583.63086 C 811.63867 579.37484 814.47516 576.66406 818.23047 576.66406 z M 886.97266 576.66406 C 890.72797 576.66406 893.56445 579.37484 893.56445 583.63086 C 893.56445 587.88688 890.72797 590.59961 886.97266 590.59961 C 883.21734 590.59961 880.33789 587.88688 880.33789 583.63086 C 880.33789 579.37484 883.21734 576.66406 886.97266 576.66406 z M 913.82422 576.66406 C 917.62126 576.66406 920.45898 579.37484 920.45898 583.63086 C 920.45898 587.88688 917.62126 590.59961 913.82422 590.59961 C 910.06891 590.59961 907.23242 587.88688 907.23242 583.63086 C 907.23242 579.37484 910.06891 576.66406 913.82422 576.66406 z M 761.17773 585.2168 L 766.56055 585.2168 L 766.56055 587.80469 C 765.68431 590.0996 763.473 591.26758 760.92773 591.26758 C 758.25729 591.26758 756.67188 590.05734 756.67188 588.17969 C 756.67188 586.55239 757.63105 585.2168 761.17773 585.2168 z M 157.98438 614.7168 C 156.06499 614.7168 154.64648 616.09518 154.64648 617.84766 C 154.64648 619.60014 156.06499 620.97656 157.98438 620.97656 C 159.94548 620.97656 161.32227 619.55859 161.32227 617.72266 C 161.32227 616.0119 159.90376 614.7168 157.98438 614.7168 z M 198.65039 614.7168 C 196.73101 614.7168 195.3125 616.09518 195.3125 617.84766 C 195.3125 619.60014 196.73101 620.97656 198.65039 620.97656 C 200.6115 620.97656 201.98828 619.55859 201.98828 617.72266 C 201.98828 616.0119 200.56977 614.7168 198.65039 614.7168 z M 228.39648 614.7168 C 226.4771 614.7168 225.05859 616.09518 225.05859 617.84766 C 225.05859 619.60014 226.4771 620.97656 228.39648 620.97656 C 230.35759 620.97656 231.73438 619.55859 231.73438 617.72266 C 231.73438 616.0119 230.31587 614.7168 228.39648 614.7168 z M 277.86523 614.7168 C 275.94585 614.7168 274.52734 616.09518 274.52734 617.84766 C 274.52734 619.60014 275.94585 620.97656 277.86523 620.97656 C 279.82634 620.97656 281.20312 619.55859 281.20312 617.72266 C 281.20312 616.0119 279.78462 614.7168 277.86523 614.7168 z M 501.73242 614.7168 C 499.81304 614.7168 498.39453 616.09518 498.39453 617.84766 C 498.39453 619.60014 499.81304 620.97656 501.73242 620.97656 C 503.69353 620.97656 505.07031 619.55859 505.07031 617.72266 C 505.07031 616.0119 503.6518 614.7168 501.73242 614.7168 z M 531.47852 614.7168 C 529.55913 614.7168 528.14062 616.09518 528.14062 617.84766 C 528.14062 619.60014 529.55913 620.97656 531.47852 620.97656 C 533.43962 620.97656 534.81641 619.55859 534.81641 617.72266 C 534.81641 616.0119 533.3979 614.7168 531.47852 614.7168 z M 141.12305 615.88672 L 135.49023 621.60156 L 139.99609 621.60156 L 147.25781 615.88672 L 141.12305 615.88672 z M 263.17383 615.96875 L 263.17383 646.92969 L 268.39062 646.92969 L 268.39062 615.96875 L 263.17383 615.96875 z M 208.79297 619.72461 L 208.79297 624.81445 L 205.12109 624.81445 L 205.12109 628.98828 L 208.79297 628.98828 L 208.79297 639.71094 C 208.79297 644.63457 211.5888 647.22266 216.4707 647.22266 C 218.34836 647.22266 220.22479 646.72017 221.47656 645.71875 L 220.01758 642.00586 C 219.22479 642.63174 218.18057 642.92383 217.0957 642.92383 C 215.09287 642.92383 214.00781 641.75567 214.00781 639.58594 L 214.00781 628.98828 L 219.97461 628.98828 L 219.97461 624.81445 L 214.00781 624.81445 L 214.00781 619.72461 L 208.79297 619.72461 z M 511.875 619.72461 L 511.875 624.81445 L 508.20312 624.81445 L 508.20312 628.98828 L 511.875 628.98828 L 511.875 639.71094 C 511.875 644.63457 514.67083 647.22266 519.55273 647.22266 C 521.43039 647.22266 523.30682 646.72017 524.55859 645.71875 L 523.09961 642.00586 C 522.30682 642.63174 521.2626 642.92383 520.17773 642.92383 C 518.1749 642.92383 517.08984 641.75567 517.08984 639.58594 L 517.08984 628.98828 L 523.05664 628.98828 L 523.05664 624.81445 L 517.08984 624.81445 L 517.08984 619.72461 L 511.875 619.72461 z M 125.21875 624.39844 C 121.50516 624.39844 118.79314 625.5657 117.29102 627.90234 L 117.29102 624.64844 L 112.32617 624.64844 L 112.32617 646.92969 L 117.54297 646.92969 L 117.54297 636.12305 C 117.54297 631.57495 120.04582 629.23828 124.00977 629.23828 C 124.3853 629.23828 124.75977 629.27983 125.21875 629.36328 L 125.21875 624.39844 z M 139.12109 624.39844 C 132.48671 624.39844 127.60352 629.15468 127.60352 635.78906 C 127.60352 642.42345 132.44516 647.22266 139.91406 647.22266 C 143.75283 647.22266 146.88193 645.97016 148.88477 643.5918 L 146.08984 640.37891 C 144.50427 642.00621 142.5426 642.79883 140.03906 642.79883 C 136.15857 642.79883 133.4462 640.71164 132.82031 637.45703 L 150.30273 637.45703 C 150.34446 636.95632 150.38672 636.33132 150.38672 635.91406 C 150.38672 628.94587 145.6303 624.39844 139.12109 624.39844 z M 180.06055 624.39844 C 176.80594 624.39844 174.09357 625.48278 172.38281 627.52734 L 172.38281 624.64844 L 167.41797 624.64844 L 167.41797 646.92969 L 172.63281 646.92969 L 172.63281 635.66406 C 172.63281 631.19941 175.13602 628.94531 178.84961 628.94531 C 182.18767 628.94531 184.14844 630.86614 184.14844 634.83008 L 184.14844 646.92969 L 189.36523 646.92969 L 189.36523 634.16211 C 189.36523 627.44427 185.40144 624.39844 180.06055 624.39844 z M 246.3418 624.39844 C 242.75339 624.39844 239.29047 625.31641 236.91211 627.15234 L 238.95508 630.94922 C 240.62411 629.57227 243.2113 628.73633 245.71484 628.73633 C 249.42843 628.73633 251.26562 630.53215 251.26562 633.57812 L 251.26562 633.91211 L 245.50781 633.91211 C 238.74825 633.91211 236.24414 636.83133 236.24414 640.54492 C 236.24414 644.42541 239.45634 647.22266 244.54688 647.22266 C 247.88493 647.22266 250.30487 646.13618 251.55664 644.2168 L 251.55664 646.92969 L 256.48047 646.92969 L 256.48047 633.86914 C 256.48047 627.44338 252.76755 624.39844 246.3418 624.39844 z M 295.22461 624.39844 C 289.21611 624.39844 285.41992 627.15094 285.41992 631.36523 C 285.41992 640.25281 299.18945 636.24788 299.18945 640.50391 C 299.18945 642.04776 297.81196 642.96484 294.51562 642.96484 C 291.72 642.96484 288.71501 642.0474 286.75391 640.75391 L 284.75195 644.71875 C 286.75479 646.13742 290.46805 647.22266 294.18164 647.22266 C 300.4405 647.22266 304.2793 644.51046 304.2793 640.33789 C 304.2793 631.61722 290.50977 635.62161 290.50977 631.11523 C 290.50977 629.65483 292.01244 628.61133 295.18359 628.61133 C 297.3116 628.61133 299.4384 629.02948 301.56641 630.28125 L 303.57031 626.31641 C 301.56748 625.10636 298.18713 624.39844 295.22461 624.39844 z M 318.49219 624.39844 C 311.8578 624.39844 306.97656 629.15468 306.97656 635.78906 C 306.97656 642.42345 311.81626 647.22266 319.28516 647.22266 C 323.12392 647.22266 326.25303 645.97016 328.25586 643.5918 L 325.46094 640.37891 C 323.87536 642.00621 321.9137 642.79883 319.41016 642.79883 C 315.52967 642.79883 312.81729 640.71164 312.19141 637.45703 L 329.67578 637.45703 C 329.71751 636.95632 329.75781 636.33132 329.75781 635.91406 C 329.75781 628.94587 325.0014 624.39844 318.49219 624.39844 z M 347.62109 624.39844 C 343.90751 624.39844 341.19548 625.5657 339.69336 627.90234 L 339.69336 624.64844 L 334.72656 624.64844 L 334.72656 646.92969 L 339.94336 646.92969 L 339.94336 636.12305 C 339.94336 631.57495 342.44621 629.23828 346.41016 629.23828 C 346.78569 629.23828 347.16211 629.27983 347.62109 629.36328 L 347.62109 624.39844 z M 371.66797 624.39844 C 365.65947 624.39844 361.86133 627.15094 361.86133 631.36523 C 361.86133 640.25281 375.63086 636.24788 375.63086 640.50391 C 375.63086 642.04776 374.25531 642.96484 370.95898 642.96484 C 368.16336 642.96484 365.15837 642.0474 363.19727 640.75391 L 361.19531 644.71875 C 363.19815 646.13742 366.91141 647.22266 370.625 647.22266 C 376.88385 647.22266 380.72266 644.51046 380.72266 640.33789 C 380.72266 631.61722 366.95313 635.62161 366.95312 631.11523 C 366.95312 629.65483 368.4558 628.61133 371.62695 628.61133 C 373.75496 628.61133 375.88175 629.02948 378.00977 630.28125 L 380.01367 626.31641 C 378.01084 625.10636 374.63049 624.39844 371.66797 624.39844 z M 393.76758 624.39844 C 390.17917 624.39844 386.7143 625.31641 384.33594 627.15234 L 386.38086 630.94922 C 388.04989 629.57227 390.63708 628.73633 393.14062 628.73633 C 396.85421 628.73633 398.68945 630.53215 398.68945 633.57812 L 398.68945 633.91211 L 392.93164 633.91211 C 386.17208 633.91211 383.66992 636.83133 383.66992 640.54492 C 383.66992 644.42541 386.88212 647.22266 391.97266 647.22266 C 395.31071 647.22266 397.73065 646.13618 398.98242 644.2168 L 398.98242 646.92969 L 403.90625 646.92969 L 403.90625 633.86914 C 403.90625 627.44338 400.19334 624.39844 393.76758 624.39844 z M 434.44141 624.39844 C 431.39543 624.39844 428.80912 625.44035 427.05664 627.56836 L 427.05664 624.64844 L 422.08984 624.64844 L 422.08984 655.02539 L 427.30664 655.02539 L 427.30664 644.2168 C 429.10085 646.26136 431.60406 647.22266 434.44141 647.22266 C 440.95062 647.22266 445.75 642.71553 445.75 635.78906 C 445.75 628.90432 440.95062 624.39844 434.44141 624.39844 z M 460.70898 624.39844 C 453.86597 624.39844 448.85937 629.11295 448.85938 635.78906 C 448.85938 642.46517 453.86597 647.22266 460.70898 647.22266 C 467.63545 647.22266 472.60156 642.46517 472.60156 635.78906 C 472.60156 629.11295 467.63545 624.39844 460.70898 624.39844 z M 485.51758 624.39844 C 479.50908 624.39844 475.71094 627.15094 475.71094 631.36523 C 475.71094 640.25281 489.48047 636.24788 489.48047 640.50391 C 489.48047 642.04776 488.10492 642.96484 484.80859 642.96484 C 482.01297 642.96484 479.00798 642.0474 477.04688 640.75391 L 475.04297 644.71875 C 477.0458 646.13742 480.76102 647.22266 484.47461 647.22266 C 490.73346 647.22266 494.57227 644.51046 494.57227 640.33789 C 494.57227 631.61722 480.80273 635.62161 480.80273 631.11523 C 480.80273 629.65483 482.30346 628.61133 485.47461 628.61133 C 487.60262 628.61133 489.73136 629.02948 491.85938 630.28125 L 493.86133 626.31641 C 491.85849 625.10636 488.4801 624.39844 485.51758 624.39844 z M 550.92578 624.39844 C 544.08277 624.39844 539.07617 629.11295 539.07617 635.78906 C 539.07617 642.46517 544.08277 647.22266 550.92578 647.22266 C 557.85225 647.22266 562.81641 642.46517 562.81641 635.78906 C 562.81641 629.11295 557.85225 624.39844 550.92578 624.39844 z M 580.44727 624.39844 C 577.19266 624.39844 574.48028 625.48278 572.76953 627.52734 L 572.76953 624.64844 L 567.80469 624.64844 L 567.80469 646.92969 L 573.01953 646.92969 L 573.01953 635.66406 C 573.01953 631.19941 575.52469 628.94531 579.23828 628.94531 C 582.57634 628.94531 584.53711 630.86614 584.53711 634.83008 L 584.53711 646.92969 L 589.75195 646.92969 L 589.75195 634.16211 C 589.75195 627.44427 585.78816 624.39844 580.44727 624.39844 z M 155.35547 624.64844 L 155.35547 646.92969 L 160.57227 646.92969 L 160.57227 624.64844 L 155.35547 624.64844 z M 196.02148 624.64844 L 196.02148 646.92969 L 201.23828 646.92969 L 201.23828 624.64844 L 196.02148 624.64844 z M 225.76758 624.64844 L 225.76758 646.92969 L 230.98438 646.92969 L 230.98438 624.64844 L 225.76758 624.64844 z M 275.23633 624.64844 L 275.23633 646.92969 L 280.45117 646.92969 L 280.45117 624.64844 L 275.23633 624.64844 z M 499.10352 624.64844 L 499.10352 646.92969 L 504.32031 646.92969 L 504.32031 624.64844 L 499.10352 624.64844 z M 528.84961 624.64844 L 528.84961 646.92969 L 534.06641 646.92969 L 534.06641 624.64844 L 528.84961 624.64844 z M 139.12109 628.57031 C 142.5426 628.57031 145.00462 630.78126 145.42188 633.99414 L 132.7793 633.99414 C 133.28001 630.73954 135.74131 628.57031 139.12109 628.57031 z M 318.49219 628.57031 C 321.91369 628.57031 324.37571 630.78126 324.79297 633.99414 L 312.15039 633.99414 C 312.6511 630.73954 315.11241 628.57031 318.49219 628.57031 z M 433.85742 628.82031 C 437.61273 628.82031 440.44922 631.53304 440.44922 635.78906 C 440.44922 640.04508 437.61273 642.75781 433.85742 642.75781 C 430.10211 642.75781 427.22266 640.04508 427.22266 635.78906 C 427.22266 631.53304 430.10211 628.82031 433.85742 628.82031 z M 460.70898 628.82031 C 464.50602 628.82031 467.34375 631.53304 467.34375 635.78906 C 467.34375 640.04508 464.50602 642.75781 460.70898 642.75781 C 456.95367 642.75781 454.11719 640.04508 454.11719 635.78906 C 454.11719 631.53304 456.95367 628.82031 460.70898 628.82031 z M 550.92578 628.82031 C 554.72282 628.82031 557.56055 631.53304 557.56055 635.78906 C 557.56055 640.04508 554.72282 642.75781 550.92578 642.75781 C 547.17047 642.75781 544.33203 640.04508 544.33203 635.78906 C 544.33203 631.53304 547.17047 628.82031 550.92578 628.82031 z M 245.88281 637.375 L 251.26562 637.375 L 251.26562 639.96094 C 250.38939 642.25585 248.17808 643.42383 245.63281 643.42383 C 242.96237 643.42383 241.37695 642.21555 241.37695 640.33789 C 241.37695 638.71059 242.33613 637.375 245.88281 637.375 z M 393.30859 637.375 L 398.68945 637.375 L 398.68945 639.96094 C 397.81321 642.25585 395.60191 643.42383 393.05664 643.42383 C 390.3862 643.42383 388.80078 642.21555 388.80078 640.33789 C 388.80078 638.71059 389.76191 637.375 393.30859 637.375 z "
       transform="matrix(0.26458333,0,0,0.26458333,-80.653183,-45.470983)"
       id="flowRoot12" />
    <g
       id="g2102"
       transform="matrix(1.5164685,0,0,1.5164685,-111.06072,-38.796846)">
      <path
         inkscape:connector-curvature="0"
         d="M 172.62735,13.230576 199.15188,50.368225 162.34443,76.652977 135.8207,39.515946 Z"
         style="fill:#3691ff;fill-opacity:1;fill-rule:nonzero;stroke:none;stroke-width:1.04012752"
         id="path1132" />
      <path
         inkscape:connector-curvature="0"
         d="m 161.16701,2.4600708 -0.51132,0.6682515 -0.5807,-0.4443473 0.21295,1.6010092 1.54916,-0.2068063 -0.53197,-0.4070569 0.52085,-0.6806605 0.64511,0.4936472 -0.44437,0.5807229 1.60292,-0.2154572 -0.20615,-1.5499842 -0.40771,0.5328165 -0.71618,-0.5480154 z"
         style="fill:#000103;fill-opacity:1;fill-rule:nonzero;stroke:none;stroke-width:1.04012752"
         id="path1134" />
      <path
         inkscape:connector-curvature="0"
         d="m 187.32497,21.642831 -0.19857,-1.49832 -0.40009,0.522889 -0.78145,-0.597947 0.44688,-0.584002 -1.60271,0.2169 0.20599,1.548526 0.40705,-0.531975 0.78145,0.597949 -0.40707,0.531974 z"
         style="fill:#000103;fill-opacity:1;fill-rule:nonzero;stroke:none;stroke-width:1.04012752"
         id="path1136" />
      <path
         inkscape:connector-curvature="0"
         d="m 149.90669,70.543622 -0.19919,-1.497473 -0.39946,0.522043 -0.78145,-0.597947 0.44435,-0.5807 -1.60019,0.2136 0.206,1.548526 0.40705,-0.531975 0.78145,0.597949 -0.40707,0.531972 z"
         style="fill:#000103;fill-opacity:1;fill-rule:nonzero;stroke:none;stroke-width:1.04012752"
         id="path1138" />
      <path
         inkscape:connector-curvature="0"
         d="m 141.98849,27.445146 1.49812,-0.200005 -0.52107,-0.402469 0.59733,-0.78062 0.57889,0.446709 -0.21356,-1.605398 -1.55187,0.208694 0.53278,0.407683 -0.59732,0.780597 -0.53278,-0.407684 z"
         style="fill:#000103;fill-opacity:1;fill-rule:nonzero;stroke:none;stroke-width:1.04012752"
         id="path1140" />
      <path
         inkscape:connector-curvature="0"
         d="m 124.79787,51.18792 0.66743,0.51071 -0.44884,0.582497 1.60686,-0.213746 -0.21011,-1.551673 -0.40706,0.531972 -0.68067,-0.52083 0.49366,-0.645139 0.58069,0.44434 -0.21214,-1.600385 -1.55328,0.203657 0.53611,0.410215 -0.54803,0.716181 z"
         style="fill:#000103;fill-opacity:1;fill-rule:nonzero;stroke:none;stroke-width:1.04012752"
         id="path1142" />
      <path
         inkscape:connector-curvature="0"
         d="m 210.19536,39.899977 -0.50883,0.664949 0.58069,0.444338 -1.6029,0.215457 -0.20347,-1.551825 0.532,0.407067 0.52082,-0.680661 -0.64515,-0.493655 -0.44435,0.580699 -0.21214,-1.600385 1.55103,-0.209295 -0.40958,0.535274 0.71618,0.548016 z"
         style="fill:#000103;fill-opacity:1;fill-rule:nonzero;stroke:none;stroke-width:1.04012752"
         id="path1144" />
      <path
         inkscape:connector-curvature="0"
         d="m 191.05699,64.991746 -0.19858,-1.498295 0.52386,0.397099 0.59732,-0.780621 -0.58252,-0.441986 1.60622,-0.212927 0.20346,1.551849 -0.53198,-0.407065 -0.5973,0.780596 0.52867,0.404536 z"
         style="fill:#000103;fill-opacity:1;fill-rule:nonzero;stroke:none;stroke-width:1.04012752"
         id="path1146" />
      <path
         inkscape:connector-curvature="0"
         d="m 172.6712,87.742699 -0.66826,-0.51135 -0.4424,0.582231 -0.21356,-1.605399 1.55244,-0.204283 -0.41021,0.536094 0.68249,0.518476 0.49427,-0.645959 -0.58249,-0.441984 1.60288,-0.215457 0.20348,1.551825 -0.53197,-0.407058 -0.54548,0.712878 z"
         style="fill:#000103;fill-opacity:1;fill-rule:nonzero;stroke:none;stroke-width:1.04012752"
         id="path1148" />
      <path
         inkscape:connector-curvature="0"
         id="path1150"
         style="fill:none;stroke:#ff7c4e;stroke-width:0.44232357;stroke-linecap:butt;stroke-linejoin:miter;stroke-miterlimit:4;stroke-dasharray:none;stroke-opacity:1"
         d="m 169.12381,42.815749 -3.26149,4.262364" />
      <path
         inkscape:connector-curvature="0"
         id="path1152"
         style="fill:none;stroke:#ff7c4e;stroke-width:0.44232357;stroke-linecap:butt;stroke-linejoin:miter;stroke-miterlimit:4;stroke-dasharray:none;stroke-opacity:1"
         d="m 169.61221,46.576328 -4.25906,-3.25898" />
      <path
         inkscape:connector-curvature="0"
         id="path1154"
         style="fill:none;stroke:#000000;stroke-width:0.29483911;stroke-linecap:square;stroke-linejoin:round;stroke-miterlimit:4;stroke-dasharray:0.58967824, 1.17935942;stroke-dashoffset:0;stroke-opacity:1"
         d="M 161.96792,4.8845063 207.58108,39.78713 172.97492,85.012863 127.36174,50.110239 Z" />
    </g>
    <g
       id="g2122"
       transform="matrix(1.5164685,0,0,1.5164685,-83.905231,-38.796846)">
      <g
         transform="matrix(1.4955345,0,0,1.4955345,-136.13365,-0.87017297)"
         id="g1216">
        <path
           inkscape:transform-center-y="15.684937"
           inkscape:transform-center-x="1.7694801"
           inkscape:connector-curvature="0"
           d="M 133.60521,8.8538911 152.16708,33.074994 128.16124,51.469203 109.59991,27.248485 Z"
           style="fill:#3691ff;fill-opacity:1;fill-rule:nonzero;stroke:none;stroke-width:0.69548881"
           id="path1180" />
        <path
           inkscape:transform-center-y="-12.021818"
           inkscape:transform-center-x="6.4728156"
           inkscape:connector-curvature="0"
           d="m 125.70403,1.9142103 -0.32667,0.4580894 -0.39807,-0.283872 0.17837,1.0651261 1.0306,-0.1730835 -0.36467,-0.2600518 0.33274,-0.4665963 0.44225,0.3153723 -0.28389,0.3980892 1.06634,-0.1800716 -0.17267,-1.031183 -0.26046,0.3652482 -0.49095,-0.3501016 z"
           style="fill:#000103;fill-opacity:1;fill-rule:nonzero;stroke:none;stroke-width:0.69548881"
           id="path1182" />
        <path
           inkscape:transform-center-y="-0.95599213"
           inkscape:transform-center-x="-10.094525"
           inkscape:connector-curvature="0"
           d="m 143.6167,14.144717 -0.16642,-0.996823 -0.25561,0.358442 -0.53569,-0.382002 0.28549,-0.400336 -1.06617,0.181034 0.17251,1.030202 0.26005,-0.36467 0.53569,0.382002 -0.26006,0.364671 z"
           style="fill:#000103;fill-opacity:1;fill-rule:nonzero;stroke:none;stroke-width:0.69548881"
           id="path1184" />
        <path
           inkscape:transform-center-y="32.5669"
           inkscape:transform-center-x="13.810347"
           inkscape:connector-curvature="0"
           d="m 119.71183,47.666478 -0.16683,-0.996245 -0.2552,0.357864 -0.53568,-0.382002 0.28387,-0.398074 -1.06456,0.178772 0.17251,1.030202 0.26006,-0.364671 0.53568,0.382003 -0.26005,0.364671 z"
           style="fill:#000103;fill-opacity:1;fill-rule:nonzero;stroke:none;stroke-width:0.69548881"
           id="path1186" />
        <path
           inkscape:transform-center-y="3.6952208"
           inkscape:transform-center-x="18.581547"
           inkscape:connector-curvature="0"
           d="m 113.44995,19.042973 0.99667,-0.167386 -0.35729,-0.257229 0.3816,-0.53512 0.39692,0.285491 -0.17886,-1.068042 -1.03239,0.1744 0.36523,0.260453 -0.38159,0.535104 -0.36523,-0.260453 z"
           style="fill:#000103;fill-opacity:1;fill-rule:nonzero;stroke:none;stroke-width:0.69548881"
           id="path1188" />
        <path
           inkscape:transform-center-y="20.344419"
           inkscape:transform-center-x="29.617059"
           inkscape:connector-curvature="0"
           d="m 102.49638,35.29678 0.45753,0.326269 -0.2871,0.399182 1.069,-0.17902 -0.17535,-1.032218 -0.26005,0.36467 -0.46659,-0.332737 0.31537,-0.442247 0.39807,0.283872 -0.17781,-1.064726 -1.03343,0.17107 0.3675,0.262067 -0.3501,0.490946 z"
           style="fill:#000103;fill-opacity:1;fill-rule:nonzero;stroke:none;stroke-width:0.69548881"
           id="path1190" />
        <path
           inkscape:transform-center-y="11.075911"
           inkscape:transform-center-x="-26.009666"
           inkscape:connector-curvature="0"
           d="m 159.3115,25.830663 -0.32505,0.455826 0.39807,0.283874 -1.06634,0.180069 -0.17091,-1.032467 0.36467,0.260051 0.33274,-0.466596 -0.44225,-0.315374 -0.28387,0.398073 -0.1778,-1.064726 1.03181,-0.174783 -0.26166,0.366934 0.49095,0.350102 z"
           style="fill:#000103;fill-opacity:1;fill-rule:nonzero;stroke:none;stroke-width:0.69548881"
           id="path1192" />
        <path
           inkscape:transform-center-y="27.683683"
           inkscape:transform-center-x="-15.05771"
           inkscape:connector-curvature="0"
           d="m 147.08667,43.029822 -0.16643,-0.996807 0.35901,0.253578 0.38161,-0.535119 -0.39922,-0.28225 1.06859,-0.178462 0.1709,1.032487 -0.36466,-0.260052 -0.3816,0.535104 0.36241,0.258435 z"
           style="fill:#000103;fill-opacity:1;fill-rule:nonzero;stroke:none;stroke-width:0.69548881"
           id="path1194" />
        <path
           inkscape:transform-center-y="43.520471"
           inkscape:transform-center-x="-2.9357726"
           inkscape:connector-curvature="0"
           d="m 135.31208,58.647728 -0.45811,-0.326685 -0.28254,0.399051 -0.17885,-1.068039 1.03287,-0.17147 -0.26207,0.367496 0.46775,0.331117 0.31577,-0.442809 -0.39923,-0.282255 1.06634,-0.180068 0.17091,1.032466 -0.36467,-0.260051 -0.34848,0.488683 z"
           style="fill:#000103;fill-opacity:1;fill-rule:nonzero;stroke:none;stroke-width:0.69548881"
           id="path1196" />
        <path
           inkscape:transform-center-y="-0.0873381"
           inkscape:transform-center-x="-0.23731153"
           inkscape:connector-curvature="0"
           id="path1198"
           style="fill:none;stroke:#ff7c4e;stroke-width:0.29576287;stroke-linecap:butt;stroke-linejoin:miter;stroke-miterlimit:4;stroke-dasharray:none;stroke-opacity:1"
           d="m 133.9321,12.928335 -2.08363,2.921873" />
        <path
           inkscape:transform-center-y="-0.0871696"
           inkscape:transform-center-x="-0.23036553"
           inkscape:connector-curvature="0"
           id="path1200"
           style="fill:none;stroke:#ff7c4e;stroke-width:0.29576287;stroke-linecap:butt;stroke-linejoin:miter;stroke-miterlimit:4;stroke-dasharray:none;stroke-opacity:1"
           d="m 134.34315,15.430449 -2.91961,-2.082018" />
        <path
           inkscape:transform-center-y="15.689881"
           inkscape:transform-center-x="1.7792696"
           inkscape:connector-curvature="0"
           id="path1202"
           style="fill:none;stroke:#000000;stroke-width:0.19714633;stroke-linecap:square;stroke-linejoin:round;stroke-miterlimit:4;stroke-dasharray:0.39429264, 0.78858725;stroke-dashoffset:0;stroke-opacity:1"
           d="M 126.29384,3.5163803 157.56191,25.814113 135.45358,56.8166 104.1855,34.518868 Z" />
      </g>
      <g
         transform="matrix(1.4955345,0,0,1.4955345,-56.413996,-0.87017297)"
         id="g2065">
        <path
           inkscape:connector-curvature="0"
           style="opacity:1;vector-effect:none;fill:#ffffff;fill-opacity:0.48837208;stroke:none;stroke-width:1.34152198;stroke-linecap:round;stroke-linejoin:miter;stroke-miterlimit:4;stroke-dasharray:none;stroke-dashoffset:4.60040331;stroke-opacity:1"
           d="m 238.57227,57.074219 v 20.980469 h 75.89257 V 57.074219 h -7.1289 a 7.2321429,7.2321429 0 0 1 -6.71094,4.552734 7.2321429,7.2321429 0 0 1 -6.71484,-4.552734 z"
           transform="scale(0.26458333)"
           id="rect1251" />
        <path
           sodipodi:nodetypes="cccccccc"
           id="path35404"
           d="m 81.270652,20.179788 -0.58097,-2.168291 -1.102839,1.102828 v -4.679404 l 3.308845,3.308833 -1.559642,-1.1e-5 1.122376,1.94403 z"
           style="fill:#000000;fill-opacity:1;stroke:#ffffff;stroke-width:0.21993144;stroke-linecap:round;stroke-linejoin:round;stroke-miterlimit:4;stroke-dasharray:none;stroke-opacity:1"
           inkscape:connector-curvature="0" />
        <path
           style="font-style:normal;font-variant:normal;font-weight:600;font-stretch:normal;font-size:10.58333302px;line-height:6.61458302px;font-family:Montserrat;-inkscape-font-specification:'Montserrat, Semi-Bold';font-variant-ligatures:normal;font-variant-caps:normal;font-variant-numeric:normal;font-feature-settings:normal;text-align:start;letter-spacing:0px;word-spacing:0px;writing-mode:lr-tb;text-anchor:start;fill:#000000;fill-opacity:1;stroke:none;stroke-width:2.26793075"
           d="M 210.56641 158.71875 L 210.56641 188.35156 L 217.00195 188.35156 L 217.00195 170.95312 L 225.68164 185.21875 L 228.77148 185.21875 L 237.49219 170.57227 L 237.53516 188.35156 L 243.96875 188.35156 L 243.88477 158.71875 L 238.25391 158.71875 L 227.33203 177.13281 L 216.24023 158.71875 L 210.56641 158.71875 z M 260.31445 158.71875 L 247.10547 188.35156 L 254.13281 188.35156 L 256.75781 182.00195 L 270.51562 182.00195 L 273.14062 188.35156 L 280.33789 188.35156 L 267.08789 158.71875 L 260.31445 158.71875 z M 282.97266 158.71875 L 282.97266 164.2207 L 293.38867 164.2207 L 293.38867 178.31836 C 293.38867 181.57813 291.94902 183.23047 289.19727 183.23047 C 287.08053 183.23047 285.30208 182.12977 283.69336 179.9707 L 279.88281 184.54297 C 282.04188 187.33706 285.55569 188.85938 289.53516 188.85938 C 296.52038 188.85938 300.20312 185.26141 300.20312 177.9375 L 300.20312 158.71875 L 282.97266 158.71875 z M 325.40234 163.75586 L 325.40234 170.95312 L 318.07812 170.95312 L 318.07812 176.11719 L 325.40234 176.11719 L 325.40234 183.31445 L 330.86328 183.31445 L 330.86328 176.11719 L 338.23047 176.11719 L 338.23047 170.95312 L 330.86328 170.95312 L 330.86328 163.75586 L 325.40234 163.75586 z M 263.6582 165.44922 L 268.35742 176.79492 L 258.95898 176.79492 L 263.6582 165.44922 z "
           transform="matrix(0.11666287,0,0,0.11666287,39.155555,-2.3609833)"
           id="text1249" />
      </g>
    </g>
  </g>
</svg>
